<?xml version="1.0" encoding="utf-8"?>
<svg xmlns="http://www.w3.org/2000/svg" viewBox="0 0 1759 1360" fill="#ff6700">
  <path d="M308.5,469.6c-16.4,0-32.4-4.1-46.6-12c-18.2-10.2-32.6-26.2-41.7-46.4c-11.3-25.1-11.3-53.7-0.1-78.6 c11.5-25.5,33.8-44.9,61.1-53.4c16.6-5.2,34.3-5.5,51.3-1c15.8,4.2,30.6,12.5,42.9,23.9c25.8,24.1,36.6,57.9,28.8,90.5 c-5.2,21.9-16.6,40.7-32.8,54.3c-15.1,12.7-33.6,20.4-53.5,22.3C314.7,469.5,311.6,469.6,308.5,469.6z M308.6,300.4 c-6.7,0-13.4,1-19.9,3l0,0c-20.4,6.3-37,20.8-45.5,39.6c-8.3,18.5-8.3,39,0.1,57.7c15.9,35.3,47.6,45.5,72.1,43.1 c24.9-2.4,54.8-18.6,64-57.2c5.6-23.6-2.4-48.3-21.4-66.1C343.8,307.4,326.3,300.4,308.6,300.4z"/>
  <path d="M887.5,26.2c32.4-3.1,63.5,2.9,90,17.5c24.8,13.6,45.1,34.3,58.6,59.6c14,26.3,19.9,56,17,85.9 c-3.1,32.2-16.6,63.6-39,90.8l-0.5,0.5l-0.4,0.6c-23.9,36.7-34.7,71-33.1,104.8c1.6,32.7,14.8,63.6,40.3,94.4l0.6,0.7 c35.4,37.1,82.8,59.5,133.4,63.1c4.9,0.4,9.8,0.5,14.7,0.5c50.6,0,100.4-18.7,145-54.6c24.2-19.6,50.6-31.8,78.3-36.3 c25.5-4.1,51.2-1.2,74.5,8.3c47.8,19.6,80.1,64.6,86.4,120.4l0,0.1c2.2,17.7,1.2,34.4-2.9,50.1c-1.6,5.9,1.4,12.1,7,14.7l0,0 c7.1,3.2,15.5-0.7,17.5-8.2c5-18.9,6.2-38.9,3.7-59.7c-7.4-65.1-45.5-117.9-102-141c-27.6-11.3-58.1-14.7-88.2-9.9 c-32.2,5.2-62.5,19.2-90.2,41.6c-43.7,35.3-92.8,52-141.9,48.5c-44.2-3.2-85.6-22.7-116.6-55c-43.8-52.9-45.5-106.4-5.6-168.2 c25.3-31,40.6-66.9,44.2-103.9c3.4-34.9-3.5-69.6-19.8-100.3c-15.8-29.7-39.6-53.9-68.8-69.9c-31-17-67.2-24.1-104.6-20.5 c-57.4,4.7-100.7,31.6-140.3,87.2l-0.1,0.1c-50.9,59.7-72,84.4-130.5,99c-0.2,0.1-0.5,0.1-0.8,0.1c-66.7,9.3-120.3,45.4-147.1,99 c-12.6,25.2-18.5,52.6-17.4,81.3c1.1,29.8,9.7,59.5,25.5,88.1l0.4,0.6c25.2,40.1,35.9,82.2,31.7,125c-1,10.1-2.8,20.2-5.4,30.2 c-1.8,6.7,2.3,13.6,9,15.5h0c6.8,1.8,13.8-2.2,15.6-9c2.9-11.3,5-22.7,6.1-34.2c4.7-48.4-7.1-95.7-35.3-140.6 c-13.8-25-21.2-50.7-22.2-76.5c-0.9-24.4,4.1-47.6,14.7-69c23-46,69.6-77,127.8-85.2c1.2-0.2,2.3-0.4,3.4-0.7 c66.3-16.5,90.6-44.9,143.7-107.1l0.8-0.9l0.3-0.5c35.5-49.9,72-72.9,122.1-77"/>
  <path d="M1192.3,965.2l-0.1-0.5c-8.9-42.2,13.1-88.4,53.9-125.2c6.5-5.9,5.3-16.5-2.4-20.7l0,0 c-4.8-2.6-10.6-1.9-14.6,1.7c-6.8,6.2-13.3,12.6-19.2,19.4c-36.4,41-51.5,87.1-42.5,129.8c6.9,39.6,29.1,67.3,64.8,108.3l0.2,0.2 c36,39.4,50.8,89.9,40.4,138.6c-9.9,46.8-41.9,85.2-87.8,105.2c-50,19.7-102.8,15.9-145-10.4c-20-12.5-36.3-29.2-48.6-49.6 c-13-21.7-20.6-46.6-22.8-74l-0.1-0.8c-8.8-62.2-40.5-115.2-91.8-153.2c-51.1-37.9-119.9-59.4-199-62.3 c-5.1-0.2-10.2-0.3-15.2-0.3c-39.4,0-76.3,6-109.8,17.8c-39.1,13.8-75,36.2-106.5,66.3l-0.1,0.1c-44.2,43-103.8,57.9-159.4,39.8 c-54.4-17.7-92.9-63.1-103-121.5c-5.3-38.5,4.8-75.9,28.5-105.1c4.1-5.1,8.6-9.9,13.4-14.3c7.1-6.5,4.7-18.2-4.4-21.3h0 c-4.4-1.6-9.3-0.5-12.8,2.6c-5.7,5.2-11,10.9-16,17c-28.3,34.9-40.3,79.2-33.9,124.8l0.1,0.4c5.9,34.3,20.6,65.6,42.5,90.5 c20.8,23.6,47.6,41.3,77.7,51.1c30.5,9.9,63.2,11.4,94.6,4.3c33.2-7.6,64.5-24.8,90.3-49.9c57.5-54.9,127.2-80.1,212.9-76.8 c73.9,2.7,137.8,22.5,184.8,57.3c45.6,33.8,73.8,80.8,81.7,136c2.5,31.2,11.4,59.6,26.3,84.6c14.3,24,33.5,43.5,56.9,58.2 c28.4,17.7,60.9,26.7,94.4,26.7c24.4,0,49.3-4.7,73.5-14.3l0.4-0.2c53.6-23.4,91.1-68.3,102.7-123.3 c12.1-56.8-4.9-115.4-46.4-160.9C1215.3,1020.2,1197.8,997.3,1192.3,965.2z"/>
  <g transform="translate(87.690472,-220.72286) matrix(1.3240816,0,0,1.3240816,28.418872,-71.532227)">
    <path d="M-67.7,726.7 c-11.7,11.9-19.4,28.3-19.4,46.4v60.1h50v-58.9c0-7.2,1.7-13.5,4.5-18.1c2.9-4.7,6.7-7.5,11.2-7.5c4.5,0,8.2,2.8,11.2,7.5 c3,4.7,4.5,10.9,4.5,18.1v58.9h50v-60.1c0-18.1-7.4-34.7-19.4-46.7c-11.7-11.7-28.2-19-46.4-19 C-39.5,707.4-56.1,714.9-67.7,726.7L-67.7,726.7z"/>
    <path d="M59,651.9c-5.2,5-8.2,12.1-8.2,19.6 c0,7.8,3.2,14.5,8.2,19.6l6.1,6.2c10.1,10.4,10.8,12.9,1.2,22.7l-5.5,5.6c-4.5,4.7-7.3,10.9-7.3,17.8v89.7h50.3v-89.7 c0-6.9-2.9-13.2-7.3-17.8l-5.5-5.6c-9.7-10-8.9-12.3,1.2-22.7l6.1-6.2c5-5.1,8.2-11.8,8.2-19.6c0-7.8-3-14.6-8.2-19.6 c-5.2-5-11.8-8.1-19.7-8.1C71.1,643.8,64.1,646.9,59,651.9L59,651.9z"/>
    <path d="M176.6,707.4c-18.2,0-34.8,7.5-46.7,19.3 c-11.8,11.8-19.2,28.7-19.1,46.7c0.2,18.1,7.2,34.9,19.1,46.7c9.1,9.1,24.8,19.3,46.7,19.3c16.1,0,31.2-6,42.7-15.9 c8.4-7.2,20.6-21.5,23-43.9H192c-0.6,5.6-2.1,10.6-4.2,14.6c-3,5.6-6.7,8.7-11.2,8.7c-4.5,0-8.2-3.1-11.2-8.7 c-3-5.6-4.5-12.8-4.5-20.9s1.8-15.6,4.5-20.9c3-5.6,6.7-8.7,11.2-8.7c4.5,0,8.2,3.1,11.2,8.7c2.2,4,3.6,9,4.2,14.6h50 c-1.5-15.6-8.5-29.9-19.1-40.5C211.1,714.9,194.4,707.4,176.6,707.4z"/>
    <path d="M345.1,706c-8.9-0.3-17.8,4-22.5,12.3 l-22.7,40.5v-27.1c0-13.7-11.2-24.9-24.8-24.9c-13.9,0-24.8,11.2-24.8,24.9v101.6h50v-39.6l26.4,39.6h40.3c4.6,0,8.2-3.7,8.2-8.7 c0-1.6-0.3-3.3-1.2-4.7l-27.3-41.4l19.1-34.6c6.6-12,3-27.4-8.8-34.3C353.1,707.4,349.1,706.2,345.1,706z"/>
    <path d="M433.8,707.1c-18.2,0-34.6,7.4-46.7,19.3 c-11.9,11.8-19.4,28.7-19.4,46.7c0,18.1,7.3,34.8,19.4,46.7c11.6,11.5,27.9,19.3,47,19.3c19.4,0,36.2-8.3,46.7-19.6 c14.1-15.4,14.5-32.7,14.5-32.7h-44.5c0,0-6.1,15.6-16.7,15.6c-4.5,0-8.1-3.1-11.2-8.7c-2.1-3.8-3.3-8.4-4.2-13.4h77.6 c0,0,5.6-31.9-15.8-53.3C467.9,714.4,452,707.1,433.8,707.1z M433.8,742.6c4.5,0,8.3,3.1,11.2,8.7c1.3,2.5,2.4,6.5,3,9.7 l-28.8,0.3c0.9-3.7,2.1-7.2,3.3-10C424.7,746.6,429.3,742.6,433.8,742.6z"/>
    <path d="M503.2,668.1v165.1h50V668.1 c0-13.7-11.5-24.9-25.2-24.9C514.1,643.2,503.2,654.4,503.2,668.1L503.2,668.1z"/>
    <path d="M625.6,707.4 c-36.4,0-65.8,29.6-65.8,66.1c0,36.5,29.4,66.1,65.8,66.1s65.8-29.6,65.8-66.1C691.4,737,662,707.4,625.6,707.4z M625.6,743.8 c8.8,0,15.8,13.4,15.8,29.6c0,16.2-7,29.6-15.8,29.6c-8.8,0-15.8-13.4-15.8-29.6C609.9,756.9,616.8,743.8,625.6,743.8z"/>
    <path d="M804.1,643.2 c-13.9,0-24.8,11.2-24.8,24.9v40.8c-5.2-1.2-10.6-1.9-15.8-1.9c-18.2,0-34.6,7.4-46.7,19.3c-11.9,11.8-19.1,28.7-19.1,46.7 c0,18.1,7.5,35,19.1,46.7c7.5,7.6,23.9,19.3,46.7,19.3c22.7,0,39.2-11.7,46.7-19.3c11.6-11.7,18.8-28.4,18.8-46.7v-105 C829,654.4,817.7,643.2,804.1,643.2z M763.2,743.8c8.8,0,15.6,13.4,15.8,29.6c0.2,16.2-7,29.6-15.8,29.6 c-8.8,0-15.8-13.4-15.8-29.6C747.4,756.9,754.7,743.8,763.2,743.8z"/>
    <path d="M901.1,707.1c-18.2,0-34.5,7.5-46.4,19.3 c-11.8,11.8-19.4,28.7-19.4,46.7c0,18.1,7.6,34.9,19.4,46.7c11.5,11.5,27.9,19.3,47,19.3c19.7,0,36.2-8.3,46.7-19.6 c14.1-15.4,14.5-32.7,14.5-32.7h-44.5c0,0-6.1,15.6-16.7,15.6c-4.5,0-8.1-3.1-11.2-8.7c-2.1-3.8-3.3-8.4-4.2-13.4h77.6 c0,0,5.6-31.9-15.8-53.3C935.5,714.4,919.6,707.1,901.1,707.1z M901.4,742.6c4.5,0,8.1,3.2,11.2,8.7c1.4,2.5,2.7,6.5,3.3,9.7 l-29.1,0.3c0.9-3.7,2-7.2,3.3-10C892.5,746.6,896.8,742.6,901.4,742.6z"/>
    <path d="M1036.5,707.4 c-36.4,0-65.8,29.6-65.8,66.1c0,36.5,29.4,66.1,65.8,66.1c36.4,0,65.8-29.6,65.8-66.1C1102.3,736.7,1072.9,707.4,1036.5,707.4z M1036.5,743.8c8.8,0,15.8,13.4,15.8,29.6c0,16.2-7,29.6-15.8,29.6c-8.8,0-15.8-13.4-15.8-29.6 C1020.8,756.9,1027.7,743.8,1036.5,743.8z"/>
    <path d="M1127.7,726.4 c-11.9,11.8-19.1,28.4-19.1,46.7v60.1h49.7v-59.2c0-7.2,1.7-13.5,4.5-18.1c2.9-4.7,6.7-7.5,11.2-7.5s8.2,2.8,11.2,7.5 c3,4.7,4.5,10.9,4.5,18.1v59.2h50.3v-60.4c0-18.1-7.3-34.8-19.4-46.7c-11.9-11.8-28.5-19-46.4-19 C1156.2,707.1,1139.8,714.5,1127.7,726.4L1127.7,726.4z"/>
  </g>
</svg>