<?xml version="1.0" encoding="UTF-8" standalone="no"?>
<!-- Created with Inkscape (http://www.inkscape.org/) -->

<svg
   xmlns:dc="http://purl.org/dc/elements/1.1/"
   xmlns:cc="http://creativecommons.org/ns#"
   xmlns:rdf="http://www.w3.org/1999/02/22-rdf-syntax-ns#"
   xmlns:svg="http://www.w3.org/2000/svg"
   xmlns="http://www.w3.org/2000/svg"
   xmlns:sodipodi="http://sodipodi.sourceforge.net/DTD/sodipodi-0.dtd"
   xmlns:inkscape="http://www.inkscape.org/namespaces/inkscape"
   version="1.1"
   id="svg2"
   width="1192.1967"
   height="323.20001"
   viewBox="0 0 1192.1967 323.20001"
   sodipodi:docname="&amp;flix HD Leap forth.svg"
   inkscape:version="0.92.4 (5da689c313, 2019-01-14)">
  <metadata
     id="metadata8">
    <rdf:RDF>
      <cc:Work
         rdf:about="">
        <dc:format>image/svg+xml</dc:format>
        <dc:type
           rdf:resource="http://purl.org/dc/dcmitype/StillImage" />
        <dc:title></dc:title>
      </cc:Work>
    </rdf:RDF>
  </metadata>
  <defs
     id="defs6" />
  <sodipodi:namedview
     pagecolor="#ffffff"
     bordercolor="#666666"
     borderopacity="1"
     objecttolerance="10"
     gridtolerance="10"
     guidetolerance="10"
     inkscape:pageopacity="0"
     inkscape:pageshadow="2"
     inkscape:window-width="1920"
     inkscape:window-height="1001"
     id="namedview4"
     showgrid="false"
     inkscape:zoom="0.68"
     inkscape:cx="565.29308"
     inkscape:cy="136.09412"
     inkscape:window-x="-9"
     inkscape:window-y="41"
     inkscape:window-maximized="1"
     inkscape:current-layer="svg2" />
  <g
     id="g3715"
     transform="translate(-180.64809,-309.6)">
    <path
       style="fill:#6c6c6c;stroke-width:0.80000001"
       d="m 326.8,631.97137 c -28.92419,-1.979 -57.3421,-12.74917 -82,-31.07737 -8.03882,-5.97525 -23.02052,-20.59814 -29.19318,-28.494 -14.75342,-18.8721 -25.47605,-41.03694 -30.76762,-63.6 -5.78392,-24.66241 -5.35554,-53.94155 1.15235,-78.76256 14.54278,-55.46594 59.46823,-100.19551 114.62542,-114.12564 10.2309,-2.58385 31.18955,-5.5144 39.38303,-5.50675 7.49336,0.007 28.71188,2.94745 37.71404,5.22641 38.30944,9.69827 71.5133,33.00646 93.55778,65.67497 L 475.24876,387.2 H 504.42438 533.6 l 0.0123,-14.2 c 0.01,-11.44951 0.31763,-15.41179 1.58872,-20.45616 4.96394,-19.6996 18.74125,-33.55798 38.84542,-39.07398 5.72618,-1.57109 8.78278,-1.77609 30.95358,-2.07596 l 24.6,-0.33274 V 335.13058 359.2 l -12.6,0.005 c -14.17311,0.005 -17.44828,0.63319 -21.40244,4.10499 -3.46428,3.04168 -4.38746,6.33894 -4.3931,15.69055 L 591.2,386.4 l 18.6,0.0947 c 10.23,0.0521 18.87,0.0521 19.2,0 0.33,-0.0521 0.6,10.16526 0.6,22.70526 V 432 h -19.2 -19.2 v 77.6 77.6 h -28.8 -28.8 l -0.0205,-51.4 c -0.0113,-28.27 -0.002,-63.19 0.02,-77.6 L 533.64,432 H 513.93095 494.2219 l 0.57666,3 c 0.31717,1.65 1.10218,5.7 1.74449,9 1.63643,8.4076 2.30588,37.15917 1.09425,46.99578 -2.78754,22.63056 -9.89772,43.7714 -21.15386,62.89721 -4.39726,7.47165 -15.47121,22.90701 -16.43437,22.90701 -0.66673,0 -30.08806,-36.13789 -29.90531,-36.73236 0.079,-0.2572 1.95524,-3.47209 4.16927,-7.14419 7.21073,-11.95946 13.01055,-29.23906 15.64828,-46.62151 0.76108,-5.01544 1.57392,-18.91128 2.0533,-35.10194 0.83621,-28.24273 1.76147,-39.60642 3.67039,-45.07808 2.37582,-6.80998 9.28172,-14.80966 15.05595,-17.44058 1.13248,-0.51599 2.05905,-1.24289 2.05905,-1.61534 0,-0.88292 -9.87487,-0.0881 -18,1.44871 -25.0862,4.74504 -42.69153,24.55072 -45.92417,51.66387 -0.4342,3.64178 -1.19833,11.66142 -1.69808,17.82142 -1.13888,14.03833 -2.62196,21.99386 -5.64692,30.29116 -2.6351,7.22794 -5.01843,10.97186 -6.1805,9.70884 -3.42635,-3.72401 -36.94391,-45.2614 -36.92236,-45.75688 0.0154,-0.35372 3.00284,-2.5481 6.63881,-4.87639 19.41817,-12.43449 30.56904,-26.11281 35.02741,-42.96673 2.26302,-8.55482 2.50827,-26.28081 0.47043,-34 -4.28374,-16.22642 -15.72569,-30.03018 -31.3663,-37.8408 -12.53702,-6.26076 -26.58995,-8.55494 -42.81651,-6.98994 -39.08302,3.76946 -61.96802,26.73036 -61.82567,62.03074 0.0716,17.74985 5.5236,32.06058 18.77095,49.27078 2.5701,3.33894 4.67291,6.27428 4.67291,6.52297 0,0.24871 -2.97,2.34681 -6.6,4.66246 -15.47958,9.87473 -30.59363,23.24652 -37.3055,33.00515 -3.82558,5.56214 -8.46259,15.99386 -10.19648,22.93864 -2.29622,9.19702 -2.12851,29.372 0.31447,37.8308 3.61663,12.52257 9.74879,23.21224 19.12566,33.34012 16.67768,18.01344 36.81318,25.86558 66.26185,25.83985 27.16412,-0.0238 47.60692,-7.27749 67.08888,-23.80522 2.85616,-2.42305 5.3677,-4.40555 5.58121,-4.40555 0.21351,0 2.97197,3.24 6.12991,7.2 l 5.74171,7.2 23.32915,0.0165 23.32914,0.0165 -4,3.59562 c -21.01019,18.88616 -46.52703,32.1978 -72.56489,37.85569 -16.20725,3.52176 -30.01818,4.47883 -47.43511,3.28715 z M 533.6,614.8 v -16.4 h 2 2 v 14.4 14.4 h 8.4 8.4 v 2 2 H 544 533.6 Z m 48.8,0.0232 v -16.42322 h 10.8 c 10.20472,0 10.8,0.0867 10.8,1.57293 0,1.45228 -0.65965,1.59035 -8.6,1.8 L 586.8,602 v 5.2 5.2 l 7,0.23114 c 6.29198,0.20777 7,0.38668 7,1.76886 0,1.38218 -0.70802,1.56109 -7,1.76886 l -7,0.23114 -0.23593,5.37257 -0.23593,5.37257 8.63593,0.22743 c 8.02679,0.21139 8.63593,0.34029 8.63593,1.82743 0,1.50826 -0.60774,1.6128 -10.6,1.82322 l -10.6,0.22322 v -16.42322 z m 46.4,15.90037 c 0,-0.32047 2.61,-7.72356 5.8,-16.45131 5.42638,-14.84644 5.92883,-15.86864 7.8,-15.8687 1.86967,-6e-5 2.36491,1.00165 7.6,15.37264 6.9549,19.09207 6.61534,17.5995 3.9319,17.28369 -1.80253,-0.21214 -2.41593,-0.88491 -3.33687,-3.65991 L 649.46666,624 H 642.4 635.33334 l -1.12837,3.4 c -0.90827,2.73682 -1.54544,3.44938 -3.26667,3.65314 -1.17606,0.13922 -2.1383,-0.009 -2.1383,-0.32955 z M 647.6281,618.6 c -0.29868,-0.77 -1.5072,-4.18982 -2.68559,-7.59961 -1.17838,-3.40978 -2.32869,-6.19978 -2.55624,-6.2 -0.22754,-2.1e-4 -1.4563,2.96961 -2.73057,6.59961 -1.27427,3.63 -2.4766,7.05 -2.67187,7.6 -0.26285,0.74039 1.14322,1 5.41617,1 5.16992,0 5.7146,-0.14586 5.2281,-1.4 z M 683.2,614.73116 v -16.46885 l 9.26743,0.26885 9.26743,0.26884 2.33257,2.61262 c 1.92832,2.15984 2.33257,3.31752 2.33257,6.68 0,3.55898 -0.33998,4.40736 -2.72,6.78738 -2.76529,2.76529 -4.09156,3.04383 -14.28,2.9991 -1.22178,-0.006 -1.4,0.84216 -1.4,6.65738 V 631.2 h -2.4 -2.4 z m 16.02814,-1.54571 c 2.56963,-1.32881 3.63159,-4.04483 2.83012,-7.23817 C 701.40142,603.33026 697.40836,601.6 692.0257,601.6 H 688 v 6.4 6.4 h 4.43973 c 2.44185,0 5.49663,-0.54654 6.78841,-1.21455 z M 768,614.8 v -16.4 h 10.4 c 9.80495,0 10.4,0.0899 10.4,1.57202 0,1.4456 -0.65934,1.59034 -8.2,1.8 L 772.4,602 l -0.23655,5.4 -0.23655,5.4 h 7.23655 c 7.18565,0 7.23655,0.0141 7.23655,2 0,1.98518 -0.0534,2 -7.2,2 H 772 v 7.2 c 0,7.14666 -0.0148,7.2 -2,7.2 h -2 z m 52.824,15.37655 c -1.0868,-0.54993 -2.7968,-2.21785 -3.8,-3.70651 -1.6216,-2.40633 -1.824,-3.67437 -1.824,-11.42807 0,-9.49549 0.76288,-12.03807 4.49192,-14.97133 1.64968,-1.29767 3.26328,-1.67064 7.22768,-1.67064 4.69472,0 5.34344,0.21938 8.09216,2.73653 l 2.98824,2.73653 0.25856,9.86347 c 0.24272,9.25813 0.14304,10.0346 -1.624,12.65181 -2.42552,3.59247 -4.8812,4.78808 -9.83456,4.78808 -2.2,0 -4.8892,-0.44995 -5.976,-0.99987 z m 9.46,-3.31655 c 3.16344,-1.6359 4.116,-4.4269 4.116,-12.06 0,-7.6331 -0.95256,-10.4241 -4.116,-12.06 -2.78208,-1.43866 -4.19456,-1.43418 -7.01104,0.0222 -3.3408,1.72761 -4.27704,4.86853 -3.954,13.26525 0.2728,7.09043 0.35776,7.37335 2.89368,9.63866 2.91008,2.59956 4.8096,2.88051 8.07136,1.19382 z M 868,614.8 v -16.4 h 8.78736 c 8.57864,0 8.84944,0.0554 11.4,2.33438 2.31152,2.06534 2.61264,2.8105 2.61264,6.46562 0,3.61752 -0.31104,4.40914 -2.50112,6.366 -1.3756,1.22911 -2.9272,2.37678 -3.448,2.55037 -0.62872,0.20957 0.14448,2.68902 2.30112,7.37928 1.7864,3.88501 3.248,7.20781 3.248,7.38401 0,0.17619 -1.03064,0.32034 -2.2904,0.32034 -2.12712,0 -2.50544,-0.51298 -5.3096,-7.2 l -3.01928,-7.2 H 875.8904 872 v 7.2 c 0,7.14666 -0.0144,7.2 -2,7.2 h -2 z m 17.54192,-4.10789 c 2.17744,-2.76813 2.09336,-4.72957 -0.30552,-7.12847 -1.71328,-1.71324 -2.6824,-1.96364 -7.6,-1.96364 H 872 v 5.6 5.6 h 5.94192 c 5.46632,0 6.07464,-0.16873 7.6,-2.10789 z M 925.6,616.4 v -14.8 h -4.8 c -4.26664,0 -4.8,-0.17778 -4.8,-1.6 0,-1.52644 0.53336,-1.6 11.6,-1.6 11.06664,0 11.6,0.0735 11.6,1.6 0,1.42222 -0.53336,1.6 -4.8,1.6 h -4.8 v 14.8 14.8 h -2 -2 z m 40.8,-1.2 v -16 h 2 c 1.97648,0 2,0.08 2,6.8 v 6.8 h 7.2 7.2 v -6.8 -6.8 h 2.4 2.4 v 16.05314 16.05313 l -2.2,-0.25313 -2.2,-0.25314 -0.2304,-7.4307 -0.23048,-7.43071 -6.96952,0.23071 -6.9696,0.2307 -0.23,7.4 c -0.22592,7.26766 -0.26528,7.4 -2.2,7.4 H 966.4 Z M 653.6,448.8 V 310.4 h 28.79297 28.79297 l 0.20703,87 c 0.11386,47.85 0.11438,110.13 8e-4,138.4 l -0.20553,51.4 H 682.39412 653.6 Z m 84.8,38 V 386.4 h 28.4 28.4 v 100.4 100.4 h -28.4 -28.4 z m 75.2,99.44719 c 0,-0.52404 13.00736,-23.40693 28.9052,-50.85088 26.26792,-45.34528 28.82448,-50.07532 28.02016,-51.84069 C 869.72808,481.80585 820.45776,396.06403 816.65,389.8 l -1.58048,-2.6 30.6652,0.02 30.66528,0.02 11.93568,24.38002 c 6.56464,13.40901 12.14744,24.38002 12.40616,24.38002 0.25872,0 5.95688,-10.98 12.66256,-24.4 l 12.19216,-24.4 h 30.40176 c 16.72088,0 30.40168,0.1221 30.40168,0.27133 0,0.14923 -5.09952,9.05923 -11.33224,19.8 -6.23264,10.74077 -18.83264,32.46076 -28,48.26665 C 937.90048,471.3439 930.4,484.66875 930.4,485.1488 c 0,0.48005 13.27888,23.63796 29.50856,51.46202 L 989.41704,587.2 h -30.5392 -30.5392 L 914.76936,560.81416 C 907.30616,546.30195 901.02,534.42826 900.8,534.42818 c -0.22,-8e-5 -6.34,11.84146 -13.6,26.31454 l -13.2,26.31469 -30.2,0.0713 c -22.8688,0.054 -30.2,-0.16 -30.2,-0.88151 z M 1014.4,487.2 v -100 h 7.6 7.6 v 46 46 h 64 64 v -46 -46 h 7.6 7.6 v 99.6 99.6 h -7.6 -7.6 v -46.80479 -46.80479 l -63.8,0.20479 -63.8,0.20479 -0.2064,47 -0.2064,47 h -7.5936 -7.5936 z m 185.6,-0.45013 v -99.65012 l 43,0.31623 c 46.9182,0.34505 46.6427,0.32097 61.9681,5.4157 30.2653,10.06128 53.0921,32.18676 62.4809,60.56115 3.8695,11.69455 5.3454,20.95698 5.3484,33.56656 0.01,17.38219 -3.3296,31.28617 -11.1182,46.36841 -14.1268,27.35595 -40.9725,46.24138 -73.6202,51.79047 -6.2291,1.05876 -14.5444,1.28173 -47.8,1.28173 H 1200 Z m 85.8074,84.92036 c 25.5836,-4.84424 45.2196,-17.34205 58.119,-36.99107 4.851,-7.38928 8.3314,-15.50492 11.0728,-25.82014 1.788,-6.72768 2.0407,-9.3128 2.0779,-21.25902 0.035,-11.38156 -0.2409,-14.73629 -1.6942,-20.56592 -4.0292,-16.16139 -10.7111,-28.6387 -21.1722,-39.53513 -10.0693,-10.48849 -21.0493,-17.33277 -35.2785,-21.9905 -12.5448,-4.10639 -19.2332,-4.69851 -53.1322,-4.70373 l -30.6,-0.005 v 86.4881 86.48811 l 31.8,-0.38957 c 24.9845,-0.30606 33.3018,-0.67394 38.8074,-1.71641 z M 313.01013,556.44226 c -17.82902,-4.06485 -31.08107,-21.23962 -29.50158,-38.23427 0.58458,-6.2898 3.43785,-14.39269 6.76663,-19.21628 3.78447,-5.4839 17.15096,-17.22548 24.62752,-21.63364 0.94261,-0.55576 50.2973,59.48493 50.2973,61.18738 0,1.53251 -10.76514,9.26133 -17.6,12.63589 -3.52,1.73792 -8.56,3.72995 -11.2,4.42674 -6.90851,1.82338 -17.40859,2.19787 -23.38987,0.83418 z m 10.57049,-143.41013 c -3.7775,-4.74767 -8.19848,-11.31423 -9.8244,-14.59234 -2.5832,-5.20813 -2.95228,-6.67185 -2.92504,-11.6 0.0738,-13.33979 9.8252,-21.78208 24.36882,-21.09727 7.79079,0.36683 12.75324,2.71272 16.419,7.7617 3.53169,4.86432 4.68439,9.26024 4.20074,16.01988 -0.68556,9.58156 -5.66976,17.26551 -16.77867,25.86702 -3.65259,2.82817 -7.08009,5.3966 -7.61666,5.70762 -0.62804,0.36406 -3.42234,-2.50963 -7.84379,-8.06661 z m 433.51115,-45.86129 c -6.99963,-2.1461 -15.07831,-10.35029 -17.58053,-17.85366 -1.88842,-5.66278 -1.24763,-17.28276 1.2149,-22.03081 2.71964,-5.24377 8.50428,-10.98683 13.57423,-13.47663 4.00279,-1.96575 5.38297,-2.20972 12.49963,-2.20958 7.13824,1.4e-4 8.49035,0.24095 12.55212,2.23545 5.93554,2.9146 11.99526,9.53038 14.25862,15.56706 1.41667,3.7784 1.67038,5.87987 1.42434,11.79733 -0.35986,8.65466 -2.30422,13.31388 -7.89857,18.92713 -6.03315,6.05353 -9.31789,7.35863 -19.13651,7.60337 -4.62,0.11515 -9.5287,-0.13669 -10.90823,-0.55966 z"
       id="path3723"
       inkscape:connector-curvature="0" />
    <path
       style="fill:#4e4e4e;stroke-width:0.80000001"
       d="m 317.2,631.04233 c -10.97086,-2.02235 -25.06851,-5.66582 -32.12542,-8.30264 -45.46133,-16.98671 -80.85813,-53.79578 -96.11501,-99.94985 -5.48321,-16.58743 -8.12268,-33.10246 -8.14491,-50.96234 -0.094,-75.47324 51.84445,-140.78776 124.80858,-156.95149 13.80055,-3.05723 31.6822,-4.56282 43.07611,-3.62689 52.62665,4.32293 94.36609,28.6111 123.99188,72.15088 l 2.58563,3.8 H 504.43843 533.6 v -13.50186 c 0,-16.32466 1.11706,-22.28284 6.15099,-32.80825 6.54101,-13.67655 18.67227,-23.24191 34.74811,-27.39849 5.95679,-1.54018 9.38824,-1.77142 30.9009,-2.08226 l 24.2,-0.34967 v 24.00548 24.00547 l -14.2,0.2648 c -16.67107,0.31086 -19.22978,1.1176 -22.36826,7.05256 -1.58339,2.99423 -1.83174,4.63996 -1.83174,12.13804 V 387.2 h 19.2 19.2 v 22.4 22.4 h -19.2 -19.2 v 77.6 77.6 h -28.8 -28.8 l -0.0202,-51.4 c -0.0111,-28.27 -0.002,-63.28 0.0194,-77.8 l 0.0396,-26.4 -17.81935,0.18424 c -9.80064,0.10133 -18.76209,0.19133 -19.91433,0.2 l -2.09498,0.0158 1.08992,4.6 c 3.24775,13.70713 4.54844,40.17674 2.67034,54.34211 -4.03847,30.45962 -13.8939,54.67384 -32.25154,79.24022 -2.70532,3.62029 -5.14402,6.50029 -5.41933,6.4 -0.27531,-0.10028 -7.15436,-8.31233 -15.28677,-18.24899 -13.66051,-16.69122 -14.69927,-18.18339 -13.64438,-19.6 4.72632,-6.34689 11.78593,-21.9057 14.94062,-32.92787 4.17557,-14.58902 5.29974,-24.24388 6.12519,-52.60547 1.10848,-38.08614 2.09669,-45.80349 6.82407,-53.29214 2.41377,-3.82367 7.68472,-8.90203 11.2102,-10.80063 5.24349,-2.8238 3.65161,-3.19722 -8.06836,-1.89267 -15.55386,1.7313 -26.21405,6.57954 -36.11768,16.42628 -5.54281,5.51097 -7.12486,7.72761 -10.577,14.8197 -5.08404,10.44468 -6.19648,15.29989 -7.70966,33.64864 -1.50574,18.2586 -1.77944,20.3589 -3.68659,28.29082 -1.55483,6.46659 -6.49024,18.02814 -7.66964,17.96668 -0.75654,-0.0394 -36.94435,-44.31202 -37.41048,-45.76842 -0.18184,-0.56815 3.18265,-3.23875 7.80873,-6.19826 11.60064,-7.42146 23.83333,-19.72226 28.41241,-28.57062 5.2907,-10.22346 6.73777,-16.81412 6.81291,-31.02938 0.0723,-13.67403 -0.91471,-18.61492 -5.648,-28.27361 -5.17927,-10.56877 -18.03481,-22.37367 -30.24586,-27.77397 -19.07492,-8.43584 -47.93965,-7.5433 -67.96914,2.10168 -16.58815,7.98784 -27.21454,20.51792 -31.74956,37.43738 -2.35105,8.77143 -2.3385,25.19608 0.0261,34.10852 2.36844,8.92698 9.38632,22.63714 16.0748,31.40375 3.10678,4.07207 5.64869,7.54481 5.64869,7.7172 0,0.17239 -2.79,2.05131 -6.2,4.17537 -15.66601,9.75824 -31.92301,24.38638 -38.94941,35.04695 -7.29466,11.06755 -10.81401,23.96719 -10.81938,39.65673 -0.005,13.68744 2.03139,22.65906 7.67466,33.81696 5.24338,10.36725 16.2462,23.20872 25.61932,29.90047 27.17464,19.40081 75.03048,20.41793 106.03423,2.25364 5.17824,-3.03379 17.04909,-11.97146 18.96261,-14.27712 0.59064,-0.71167 1.3232,-1.29395 1.62792,-1.29395 0.30472,0 3.14832,3.24 6.31909,7.2 l 5.76505,7.2 h 22.93263 22.93263 l -2.34968,2.48562 c -10.87313,11.50226 -35.00125,26.4293 -53.54935,33.12873 -19.82662,7.16122 -32.38192,9.22031 -55.33791,9.07549 C 329.05808,631.82926 319.4,631.44787 317.2,631.04233 Z M 533.6,614.8 v -16.4 h 2 2 v 14.8 14.8 h 8.4 c 7.86666,0 8.4,0.10158 8.4,1.6 0,1.51795 -0.53334,1.6 -10.4,1.6 h -10.4 z m 48.8,0 v -16.4 h 10.4 c 9.80495,0 10.4,0.0899 10.4,1.57202 0,1.4456 -0.65934,1.59034 -8.2,1.8 L 586.8,602 l -0.23655,5.4 -0.23655,5.4 h 7.23655 c 6.65533,0 7.23655,0.12601 7.23655,1.56886 0,1.42132 -0.65823,1.59058 -7,1.8 l -7,0.23114 v 5.6 5.6 l 8.2,0.22798 c 7.54066,0.20966 8.2,0.3544 8.2,1.8 0,1.48208 -0.59505,1.57202 -10.4,1.57202 h -10.4 z m 46.57827,15.4 c 0.1922,-0.55 2.84071,-7.9243 5.88559,-16.38732 5.18097,-14.40016 5.66444,-15.38747 7.53614,-15.38976 1.87311,-0.002 2.35029,0.97393 7.5213,15.38732 3.03671,8.46437 5.68523,15.83976 5.88559,16.38976 0.23027,0.63211 -0.37863,1 -1.65513,1 -1.65638,0 -2.26659,-0.6472 -3.39428,-3.6 l -1.37486,-3.6 h -7.02514 -7.02514 l -1.37486,3.6 c -1.1169,2.92454 -1.74578,3.6 -3.35176,3.6 -1.23456,0 -1.84568,-0.3755 -1.62745,-1 z M 647.79402,619 c -0.20745,-0.55 -1.40017,-4.15 -2.65049,-8 -1.25033,-3.85 -2.48491,-7 -2.74353,-7 -0.25862,0 -1.4932,3.15 -2.74353,7 -1.25032,3.85 -2.44304,7.45 -2.65049,8 -0.28002,0.74244 1.10925,1 5.39402,1 4.28477,0 5.67404,-0.25756 5.39402,-1 z M 684,614.85564 V 598.4 h 7.63973 c 8.1877,0 11.25132,0.94627 13.51171,4.17343 2.59193,3.70051 0.91826,11.39087 -2.95972,13.59964 -0.98545,0.56127 -4.65254,1.20195 -8.14908,1.42371 L 687.68527,618 l -0.0426,6.4 c -0.0401,6.01294 -0.1515,6.41546 -1.84264,6.65564 l -1.8,0.25564 v -16.45564 z m 15.22814,-1.67019 c 4.12236,-2.13175 4.09764,-8.4426 -0.0414,-10.57496 -2.07399,-1.06847 -11.74235,-1.07739 -11.38672,-0.0105 0.11,0.33 0.2,3.12 0.2,6.2 v 5.6 h 4.43973 c 2.44185,0 5.49663,-0.54655 6.78841,-1.21455 z M 768,614.8 v -16.4 h 10.4 c 9.86666,0 10.4,0.082 10.4,1.6 0,1.49842 -0.53334,1.6 -8.4,1.6 H 772 v 5.6 5.6 h 7.2 c 7.14666,0 7.2,0.0148 7.2,2 0,1.98518 -0.0534,2 -7.2,2 H 772 v 7.2 c 0,7.14666 -0.0148,7.2 -2,7.2 h -2 z m 52.15184,14.7795 C 816.36168,627.26868 815.2,623.80152 815.2,614.8 c 0,-8.76121 1.0668,-12.14174 4.63296,-14.68107 3.33128,-2.37205 10.56192,-2.40119 13.8556,-0.0558 3.91544,2.78805 4.71144,5.31865 4.71144,14.97889 0,7.75371 -0.2024,9.02175 -1.824,11.42808 -1.0032,1.48865 -2.7132,3.15658 -3.8,3.70651 -3.10072,1.56898 -9.57352,1.26285 -12.62416,-0.59706 z M 832.6,625.1824 c 1.61632,-1.86021 1.8,-2.9133 1.8,-10.31913 0,-7.09444 -0.22856,-8.53804 -1.63464,-10.32564 -3.18256,-4.04595 -10.00664,-3.49886 -12.32704,0.98827 -1.58056,3.05648 -1.66376,15.6042 -0.12192,18.38604 2.48408,4.48179 8.91536,5.14696 12.2836,1.27046 z M 868,614.8 v -16.4 h 8.86152 c 8.69168,0 8.9056,0.0441 11.15904,2.2975 2.62384,2.62384 3.58872,5.56274 2.8252,8.605 -0.54248,2.16136 -4.03224,6.15966 -5.92768,6.79148 -0.7928,0.26427 -0.22608,2.17479 2.20768,7.44265 1.8008,3.89792 3.27424,7.21678 3.27424,7.37525 0,0.15846 -0.99,0.28266 -2.2,0.27597 -2.0032,-0.011 -2.47784,-0.65516 -5.30584,-7.2 L 879.7884,616.8 H 875.89416 872 v 7.2 c 0,7.14666 -0.0144,7.2 -2,7.2 h -2 z m 17.3484,-3.73945 c 2.52728,-2.3742 2.418,-5.69886 -0.25632,-7.80249 -1.66752,-1.31171 -3.25512,-1.65806 -7.6,-1.65806 H 872 v 5.6 5.6 h 5.7484 c 4.80104,0 6.05368,-0.28669 7.6,-1.73945 z M 925.6,616.4 v -14.8 h -4.8 c -4.26664,0 -4.8,-0.17778 -4.8,-1.6 0,-1.52644 0.53336,-1.6 11.6,-1.6 11.06664,0 11.6,0.0735 11.6,1.6 0,1.42222 -0.53336,1.6 -4.8,1.6 h -4.8 v 14.8 14.8 h -2 -2 z m 40.8,-1.2 v -16 h 2 c 1.97648,0 2,0.08 2,6.8 v 6.8 h 7.6 7.6 V 606 c 0,-6.26666 0.12552,-6.8 1.6,-6.8 1.54664,0 1.6,0.53334 1.6,16 0,15.36469 -0.0624,16 -1.57,16 -1.43024,0 -1.5904,-0.65864 -1.8,-7.4 l -0.23,-7.4 -7.4,-0.23002 -7.4,-0.23002 v 7.63002 c 0,7.60536 -0.008,7.63002 -2,7.63002 h -2 z m -312.43046,-29 c -0.20912,-0.55 -0.28783,-62.74 -0.17488,-138.2 L 654,310.8 l 28.59297,-0.2101 28.59297,-0.21009 0.20703,87.01009 c 0.11386,47.85556 0.11438,110.1401 8e-4,138.4101 l -0.20588,51.4 h -28.41923 c -21.99925,0 -28.50512,-0.2259 -28.79947,-1 z M 738.4,486.8 V 386.4 h 28.4 28.4 v 100.4 100.4 h -28.4 -28.4 z m 75.2,99.56316 c 0,-0.46026 13.05,-23.38136 29,-50.93577 15.95,-27.5544 28.93568,-50.32069 28.85712,-50.59177 -0.12416,-0.42824 -17.66896,-30.96996 -47.4704,-82.63562 l -8.65216,-15 h 30.35304 30.35304 l 12.34992,24.83219 12.34984,24.83219 2.15904,-4.23219 c 1.18752,-2.3277 6.7816,-13.50219 12.43136,-24.83219 l 10.27224,-20.6 h 30.47448 30.47448 l -1.97248,3.4 c -1.08496,1.87 -13.77312,23.74 -28.196,48.6 -14.42288,24.86 -26.21368,45.56 -26.20192,46 0.012,0.44 13.20584,23.38362 29.32,50.98583 16.11408,27.60222 29.2984,50.37222 29.2984,50.6 0,0.22779 -13.59,0.41015 -30.2,0.40522 l -30.2,-0.009 -13.6,-26.39027 c -7.48,-14.51465 -13.80656,-26.39063 -14.05904,-26.39106 -0.25248,-4.2e-4 -6.48792,11.87922 -13.85656,26.39922 l -13.39744,26.4 H 843.54344 C 823.2356,587.2 813.6,586.93071 813.6,586.36316 Z M 1015.0115,535.4 c -0.1163,-28.49 -0.1187,-73.49 -0.01,-100 l 0.2063,-48.2 h 7.1937 7.1939 v 46 46 h 64 64 v -46 -46 h 7.1144 c 5.7051,0 7.2092,0.24702 7.5929,1.24702 0.2632,0.68585 0.4791,45.50585 0.4799,99.6 V 586.4 h -7.5943 -7.5943 v -46.8 -46.8 h -64 -64 v 47.2 47.2 h -7.1885 -7.1884 l -0.2116,-51.8 z M 1200,486.74949 v -99.65052 l 42.6,0.31163 c 39.4238,0.28839 43.1368,0.43399 49.8,1.95276 22.087,5.03438 39.9538,14.81836 54.1008,29.62582 16.885,17.67332 25.1439,38.15374 26.0658,64.63751 0.4655,13.37317 -1.0152,23.91833 -5.0731,36.12897 -11.3787,34.23985 -41.4294,58.71753 -80.2345,65.35456 -6.2455,1.06821 -14.3883,1.28978 -47.4,1.28978 H 1200 Z m 86.6254,84.94188 c 44.9359,-8.66214 72.8459,-43.87439 70.7352,-89.24219 -0.593,-12.74792 -3.2103,-23.24742 -8.4889,-34.05486 -4.6087,-9.43558 -8.3417,-14.63152 -16.2762,-22.65444 -10.8214,-10.94206 -23.9138,-18.10738 -41.3955,-22.65518 -6.4056,-1.6664 -8.8298,-1.78701 -41.8,-2.07963 l -35,-0.31063 v 85.91945 c 0,47.25569 0.27,86.18996 0.6,86.52059 0.33,0.33063 15,0.4459 32.6,0.25614 25.6782,-0.27684 33.3879,-0.61254 39.0254,-1.69925 z M 313.27544,556.33489 c -7.88185,-1.76079 -12.91346,-4.59757 -18.88508,-10.64723 -11.5893,-11.74076 -14.01027,-26.23372 -6.89689,-41.28766 3.39925,-7.19378 9.04741,-13.31278 19.60645,-21.2409 6.58611,-4.94508 8.65446,-6.12804 9.36019,-5.35344 0.49826,0.54689 10.38605,12.69434 21.97287,26.99434 11.58682,14.3 22.51172,27.72886 24.27756,29.84191 l 3.2106,3.84191 -2.36057,1.97831 c -7.97716,6.68534 -19.49042,13.04848 -27.22983,15.04935 -7.3963,1.91217 -16.69508,2.24427 -23.0553,0.82341 z M 323.65626,413.0102 c -3.77319,-4.73561 -8.17236,-11.21654 -9.77595,-14.40208 -2.49805,-4.96239 -2.91499,-6.56641 -2.91132,-11.2 0.006,-7.37824 2.45495,-12.98955 7.27607,-16.67075 8.992,-6.8659 23.70754,-6.81826 30.83084,0.0998 5.01225,4.86783 6.48647,8.57792 6.50656,16.37467 0.0158,6.11366 -0.25422,7.36437 -2.63392,12.2027 -2.96097,6.02015 -9.84848,13.37906 -17.63226,18.83907 l -4.79968,3.36678 z M 756.4,366.76781 c -7.45086,-2.73911 -15.06578,-11.03839 -17.21013,-18.75683 -1.35879,-4.8909 -0.94734,-13.93008 0.85313,-18.74228 2.29309,-6.12881 7.6785,-11.8375 14.19232,-15.04424 4.83323,-2.37939 6.0065,-2.62446 12.56468,-2.62446 6.56094,0 7.73034,0.24453 12.57471,2.6294 5.90765,2.90832 10.55463,7.57165 13.54984,13.59752 1.5907,3.20021 1.87545,4.98774 1.87545,11.77308 0,6.99817 -0.2675,8.5707 -2.13614,12.5572 -2.60313,5.55343 -7.75356,10.86132 -13.08472,13.48472 -3.30664,1.62715 -5.33119,1.98717 -11.97914,2.13018 -5.43957,0.11702 -9.02417,-0.2044 -11.2,-1.00429 z"
       id="path3721"
       inkscape:connector-curvature="0" />
    <path
       style="fill:#2f2f2f;stroke-width:0.80000001"
       d="m 319.6,631.19279 c -1.76,-0.34973 -5.9,-1.07457 -9.2,-1.61077 -3.3,-0.5362 -9.06,-1.843 -12.8,-2.904 -95.99255,-27.232 -143.99266,-134.30732 -100.79747,-224.85204 28.87518,-60.52746 92.01881,-96.30365 158.54769,-89.83063 28.87405,2.80934 58.02583,14.49334 81.41849,32.63243 12.85537,9.96828 29.55429,28.31496 36.54797,40.15432 l 1.4283,2.4179 H 504.17249 533.6 l 0.006,-13.4 c 0.004,-10.50179 0.34219,-14.80388 1.56183,-19.8909 5.10127,-21.27691 18.2249,-34.66621 39.63256,-40.4349 5.70783,-1.53808 9.01725,-1.76277 30.6,-2.07759 l 24.2,-0.35299 v 24.01465 24.01466 l -14.6,0.26353 c -16.94075,0.30579 -18.89901,0.93344 -22,7.05136 -1.53598,3.03032 -1.8,4.8171 -1.8,12.18169 L 591.2,387.2 h 19.2 19.2 v 21.98552 21.98552 l -19,0.21448 -19,0.21448 -0.20398,77.4 -0.20398,77.4 H 562.39602 533.6 v -77.62093 -77.62092 l -19.51574,0.07 c -10.73366,0.0385 -19.68692,0.24118 -19.89614,0.45039 -0.20922,0.20922 0.13447,2.79714 0.76374,5.75093 3.56315,16.72524 4.45539,39.2016 2.2049,55.54303 -1.47663,10.72224 -4.4189,23.17594 -7.70162,32.59852 -5.39085,15.47373 -18.15132,38.22306 -26.80968,47.79622 l -3.04546,3.36724 -14.7198,-18.13246 -14.71979,-18.13246 1.43697,-2.43478 c 7.74387,-13.12104 10.52608,-19.2879 14.09176,-31.23478 4.23483,-14.18887 5.54208,-24.28375 6.31947,-48.8 1.33744,-42.17846 1.8123,-47.24387 5.10271,-54.43106 2.35829,-5.15119 8.11255,-11.52764 12.9736,-14.37641 1.9333,-1.13299 3.51508,-2.27645 3.51508,-2.54103 0,-0.77947 -14.32096,0.52344 -20.4,1.85596 -18.80418,4.12185 -34.26482,17.9596 -41.15276,36.833 -2.62023,7.17962 -3.52624,12.91345 -5.28698,33.45954 -1.28179,14.95734 -2.5116,21.8388 -5.18932,29.03698 -2.04623,5.50062 -4.64788,10.57683 -5.3872,10.5112 -0.49704,-0.0441 -32.26307,-38.70079 -36.40743,-44.30488 l -1.42369,-1.92514 8.1752,-5.44245 c 10.21825,-6.80257 21.07532,-17.0593 26.25444,-24.80273 11.18299,-16.71996 12.80748,-45.29943 3.60854,-63.48476 -7.24773,-14.328 -23.1805,-26.56496 -40.7908,-31.32889 -5.46142,-1.47742 -8.51182,-1.72929 -20.8,-1.71743 -13.02056,0.0126 -15.1657,0.21747 -22.39319,2.13893 -28.43743,7.56022 -44.73853,25.40287 -47.79849,52.31866 -2.32222,20.42657 4.63271,40.70967 20.4797,59.72614 3.01203,3.61446 3.1563,3.99494 1.82012,4.8 -32.26496,19.43992 -48.92686,38.60987 -53.60537,61.67437 -4.46315,22.0028 -0.48204,41.43885 12.26486,59.8779 12.79575,18.5097 29.53126,29.25933 52.75714,33.88719 10.53749,2.09965 33.05245,1.86771 43.91706,-0.45241 17.94955,-3.83309 32.46931,-11.11617 45.47571,-22.8105 2.26465,-2.0362 4.27402,-3.70218 4.46527,-3.70218 0.19125,0 2.83835,3.22537 5.88245,7.16749 l 5.53474,7.16749 23.19591,0.23251 23.19592,0.23251 -7.19592,6.29743 c -17.00081,14.87811 -39.50827,26.94639 -61.19591,32.81269 -14.82066,4.00885 -25.35502,5.28871 -42.8,5.19994 -8.8,-0.0448 -17.44,-0.36755 -19.2,-0.71727 z M 533.6,614.8 v -16.4 h 2 2 v 14.8 14.8 h 8.4 c 7.86666,0 8.4,0.10158 8.4,1.6 0,1.51795 -0.53334,1.6 -10.4,1.6 h -10.4 z m 49.27551,15.72218 c -0.2304,-0.37279 -0.35669,-7.75279 -0.28065,-16.4 L 582.73313,598.4 h 10.23344 c 9.70009,0 10.23343,0.0834 10.23343,1.6 0,1.49842 -0.53334,1.6 -8.4,1.6 h -8.4 v 5.6 5.6 h 7.2 c 6.66666,0 7.2,0.11852 7.2,1.6 0,1.48206 -0.53334,1.6 -7.23505,1.6 h -7.23505 l 0.23505,5.8 0.23505,5.8 8.2,0.22798 c 7.54066,0.20966 8.2,0.3544 8.2,1.8 0,1.47845 -0.5924,1.57202 -9.95278,1.57202 -5.47404,0 -10.1413,-0.30502 -10.37171,-0.67782 z M 629.14939,629.8 c 0.25147,-0.77 2.91995,-8.06 5.92996,-16.2 4.94947,-13.3849 5.65051,-14.8 7.33206,-14.8 1.6887,0 2.39635,1.4682 7.71169,16 3.2188,8.8 5.85788,16.09 5.86463,16.2 0.006,0.11 -0.85981,0.2 -1.92569,0.2 -1.5343,0 -2.13923,-0.62487 -2.90426,-3 -1.54284,-4.78996 -1.92896,-5 -9.19144,-5 h -6.63776 L 634,627.2 c -1.11987,3.37163 -1.64114,4 -3.3182,4 -1.53572,0 -1.88531,-0.31938 -1.53241,-1.4 z M 647.79402,619 c -0.20745,-0.55 -1.40017,-4.15 -2.65049,-8 -1.25033,-3.85 -2.46911,-6.99933 -2.70843,-6.9985 -0.43137,0.002 -5.64844,14.2461 -5.63967,15.3985 0.002,0.33 2.56308,0.6 5.69016,0.6 4.2163,0 5.58812,-0.25842 5.30843,-1 z M 684,614.8 v -16.4 h 7.63973 c 8.64901,0 11.61939,1.04675 13.54673,4.77382 2.32791,4.50168 0.87848,10.7932 -2.99474,12.99925 -0.98545,0.56127 -4.67172,1.20195 -8.19172,1.42371 L 687.6,618 l -0.23235,6.6 c -0.2092,5.94222 -0.38859,6.6 -1.8,6.6 C 684.06177,631.2 684,630.55384 684,614.8 Z m 16.43636,-2.36364 c 2.77194,-2.77193 2.68738,-6.95094 -0.18637,-9.21143 -1.78381,-1.40315 -3.0442,-1.65149 -7.4,-1.45807 L 687.6,602 l -0.24118,5.11574 c -0.33977,7.20704 -0.27772,7.28426 5.85244,7.28426 4.51958,0 5.53835,-0.27688 7.2251,-1.96364 z M 768,614.8 v -16.4 h 10.4 c 9.86666,0 10.4,0.082 10.4,1.6 0,1.49842 -0.53334,1.6 -8.4,1.6 H 772 v 5.6 5.6 h 7.2 c 7.14666,0 7.2,0.0148 7.2,2 0,1.98518 -0.0534,2 -7.2,2 H 772 v 7.2 c 0,7.14666 -0.0148,7.2 -2,7.2 h -2 z m 53.16192,15.27539 c -4.3364,-1.88886 -5.47664,-4.66473 -5.82272,-14.17521 -0.35552,-9.768 0.78704,-13.42455 4.9968,-15.99164 5.64648,-3.44324 14.59096,-1.07214 16.91216,4.48328 1.71696,4.10928 1.5584,17.58928 -0.24944,21.20818 -2.46592,4.9363 -9.93376,7.04666 -15.8368,4.47539 z m 10.8996,-4.41385 c 2.292,-2.29196 2.33848,-2.50796 2.33848,-10.86154 0,-8.35358 -0.0464,-8.56958 -2.33848,-10.86154 -3.00936,-3.00939 -7.0068,-3.16892 -10.21688,-0.40772 C 819.6236,605.44118 819.6,605.5596 819.6,614.8 c 0,9.2404 0.024,9.35882 2.24464,11.26926 3.21008,2.7612 7.20752,2.60167 10.21688,-0.40772 z M 868,614.8 v -16.4 l 8.2,0.003 c 6.67288,0.002 8.66888,0.28888 10.71752,1.53808 5.35088,3.26276 5.23632,11.4061 -0.2056,14.61691 -1.4916,0.88003 -2.71192,1.71466 -2.71192,1.85471 0,0.14007 0.72,1.90451 1.6,3.92098 0.88,2.01648 2.31736,5.30998 3.19408,7.3189 l 1.59416,3.65256 -2.13696,-0.25256 c -1.83976,-0.21745 -2.55512,-1.19808 -5.1448,-7.05257 l -3.00784,-6.8 -4.04936,-0.24181 L 872,616.71659 v 7.24181 c 0,7.19126 -0.0136,7.24181 -2,7.24181 h -2 v -16.4 z m 15.09752,-2.08414 c 4.23416,-1.47605 5.54768,-6.47068 2.50248,-9.51586 -1.31552,-1.31555 -2.66664,-1.6 -7.6,-1.6 h -6 v 5.46666 c 0,3.00668 0.24,5.70668 0.53336,6 0.84848,0.84852 7.78448,0.6182 10.56416,-0.3508 z M 925.6,616.4 v -14.8 h -4.8 c -4.26664,0 -4.8,-0.17778 -4.8,-1.6 0,-1.52644 0.53336,-1.6 11.6,-1.6 11.06664,0 11.6,0.0735 11.6,1.6 0,1.42222 -0.53336,1.6 -4.8,1.6 h -4.8 v 14.8 14.8 h -2 -2 z m 40.8,-1.2 v -16 h 2 c 1.97648,0 2,0.08 2,6.8 v 6.8 h 7.6 7.6 V 606 c 0,-6.26666 0.12552,-6.8 1.6,-6.8 1.54664,0 1.6,0.53334 1.6,16 0,15.46666 -0.0536,16 -1.6,16 -1.48768,0 -1.6,-0.53334 -1.6,-7.6 V 616 h -7.6 -7.6 v 7.6 c 0,7.57334 -0.008,7.6 -2,7.6 h -2 z m 55.4,-28.63235 -6.6,-0.23235 V 486.76765 387.2 h 7.2 7.2 v 46.4 46.4 h 64 64 v -46.4 -46.4 h 7.2 7.2 v 99.6 99.6 h -7.2 -7.2 v -46.8 -46.8 h -64 -64 v 46.75278 c 0,25.71404 -0.27,46.86404 -0.6,47 -0.33,0.13597 -3.57,0.14266 -7.2,0.0149 z M 654.4,448.8 V 311.2 h 28.4 28.4 v 137.6 137.6 h -28.4 -28.4 z m 84,38 v -99.6 h 28.4 28.4 v 99.6 99.6 h -28.4 -28.4 z m 76.49344,97.00965 c 0.73952,-1.43531 13.76224,-24.02965 28.93944,-50.20965 15.1772,-26.18 27.602,-47.96 27.61072,-48.4 0.009,-0.44 -12.46256,-22.46686 -27.71392,-48.94858 C 828.4784,409.7697 816,387.8997 816,387.65142 816,387.40314 829.5268,387.2 846.0596,387.2 h 30.0596 l 12.0984,24.8 c 6.65408,13.64 12.30184,24.8 12.55064,24.8 0.2488,0 6.02312,-11.16 12.83176,-24.8 l 12.37936,-24.8 h 30.2756 30.27552 l -1.57584,2.6 c -7.5452,12.44882 -54.81952,94.67543 -54.81336,95.33975 0.008,0.68922 53.30032,92.79538 57.55464,99.46978 l 1.15344,1.80953 -30.46048,-0.20953 L 927.9284,586 917.87744,566.4 c -5.528,-10.78 -11.6844,-22.63172 -13.6808,-26.33714 l -3.62992,-6.73716 -12.17256,24.25984 c -6.6948,13.34291 -12.73952,25.19463 -13.43264,26.33715 L 873.70128,586 l -30.07616,0.20965 -30.07616,0.20964 z m 385.11286,-97.01556 5e-4,-99.70692 42.1966,0.32525 c 46.7537,0.36039 48.4074,0.52094 64.7558,6.2871 50.8994,17.95243 76.7705,69.7236 61.3808,122.83019 -8.4818,29.26859 -31.338,52.8361 -61.54,63.45491 -16.5211,5.80872 -17.0058,5.85555 -64.197,6.20288 l -42.5971,0.31351 z m 89.0492,84.48674 c 18.8927,-4.17603 33.3251,-12.05796 45.7964,-25.01074 6.6518,-6.90853 9.4662,-10.88602 13.8394,-19.55906 6.558,-13.0057 9.3218,-26.74936 8.7025,-43.27372 -1.5464,-41.25729 -28.1182,-72.31827 -69.3938,-81.11744 -7.8753,-1.67885 -10.424,-1.79475 -40.8,-1.85529 l -32.4,-0.0646 -0.2061,85.6 c -0.1133,47.08 -0.022,86.08356 0.2035,86.67457 0.3368,0.88369 6.2712,1.00957 33.4061,0.70862 30.1049,-0.3339 33.6849,-0.51814 40.852,-2.10236 z M 316.4,556.76011 c -9.51416,-1.29392 -16.97781,-5.20852 -23.26646,-12.203 -6.49126,-7.21985 -9.24345,-14.18428 -9.23024,-23.35711 0.0168,-11.63718 4.88845,-22.2952 13.93846,-30.49391 5.2909,-4.79322 16.57423,-13.11987 17.69993,-13.06186 0.47207,0.0243 11.87932,13.61433 25.34944,30.2 L 365.38226,538 l -1.69113,1.88662 c -2.8254,3.152 -11.09257,8.70887 -17.36213,11.67013 -9.85678,4.6556 -20.43448,6.4946 -29.929,5.20336 z m 6.85626,-144.56825 c -9.58272,-12.32057 -11.5686,-16.3804 -11.9398,-24.40901 -0.25241,-5.45974 -0.026,-6.75149 1.8584,-10.6031 6.04688,-12.35936 25.57474,-15.52718 36.07156,-5.85154 7.29084,6.72045 8.73959,17.85877 3.6639,28.16895 -2.61002,5.3017 -11.10997,14.17943 -18.66514,19.4947 l -3.68409,2.59188 z M 758.4,367.29578 c -7.46262,-2.442 -14.25997,-8.37485 -17.52454,-15.29578 -1.80774,-3.83244 -2.07325,-5.43193 -2.05834,-12.4 0.0144,-6.7325 0.31154,-8.5978 1.87545,-11.77308 2.9589,-6.00765 7.61358,-10.68369 13.53542,-13.59752 4.85787,-2.39031 5.99975,-2.6277 12.55789,-2.61078 6.0859,0.0157 7.90224,0.34416 11.61412,2.1003 6.50775,3.0789 10.75573,7.18229 13.7664,13.29784 2.41914,4.91398 2.6336,5.96983 2.6336,12.96642 0,6.65895 -0.27209,8.17083 -2.16362,12.0222 -2.68158,5.46 -7.77994,10.71189 -13.03638,13.42894 -3.33322,1.72294 -5.26686,2.10496 -11.6,2.29176 -4.18,0.12329 -8.5,-0.0703 -9.6,-0.4303 z"
       id="path3719"
       inkscape:connector-curvature="0" />
    <path
       style="fill:#000000;stroke-width:0.80000001"
       d="M 311.6,629.69094 C 276.19436,623.26986 243.62994,604.60445 220.32145,577.37154 210.53379,565.93594 204.25016,556.3763 197.5973,542.8 191.28319,529.915 187.24462,518.23245 184.18444,504 c -2.04664,-9.51863 -2.14954,-11.07826 -2.13775,-32.4 0.0118,-21.46102 0.10541,-22.82974 2.23138,-32.65182 15.28366,-70.61108 73.2231,-121.78644 143.75537,-126.97278 57.31468,-4.21442 111.98019,22.6778 143.56304,70.6246 l 3.03005,4.6 29.68673,-0.002 29.68674,-0.002 0.0171,-14.59816 c 0.0199,-17.04771 0.8251,-21.10507 6.4029,-32.26582 8.43509,-16.87798 23.83433,-26.34428 46.05468,-28.31099 5.01893,-0.44422 16.77533,-0.81075 26.12533,-0.81452 L 629.6,311.2 v 24 24 l -13.4,0.005 c -7.37,0.002 -14.72038,0.37119 -16.33418,0.81943 -6.50725,1.80739 -9.77468,9.14144 -9.30279,20.88097 L 590.8,386.8 l 19.4,0.21422 19.4,0.21423 V 409.2 431.17155 l -19.4,0.21423 -19.4,0.21422 -0.19404,76 c -0.10673,41.8 -0.19673,76.63 -0.2,77.4 -0.006,1.30694 -1.89429,1.4 -28.41322,1.4 h -28.40726 l 0.20726,-77.60008 0.20726,-77.60007 -20.2,7e-5 c -12.04234,5e-5 -20.2,0.3031 -20.2,0.75044 0,0.4127 0.5211,3.0227 1.158,5.8 8.97095,39.11917 1.01359,84.90478 -20.75989,119.44964 -5.0258,7.97371 -13.09289,18.8 -14.00861,18.8 -0.48948,0 -25.35128,-29.99039 -28.60596,-34.50693 -0.86782,-1.20427 -0.58607,-2.08336 1.92671,-6.01145 6.49889,-10.1594 12.60105,-25.94514 15.41669,-39.88162 2.49754,-12.36193 3.20048,-21.03627 4.0518,-50 0.82185,-27.96135 1.42292,-34.07168 4.03953,-41.06521 1.9497,-5.21101 8.24262,-12.40205 13.11516,-14.98693 2.01661,-1.06981 3.66657,-2.27044 3.66657,-2.66806 0,-0.41651 -3.49831,-0.5089 -8.25325,-0.21797 -23.13791,1.41571 -40.25849,11.99293 -50.07737,30.93817 -4.876,9.40809 -6.30405,15.25118 -7.68445,31.44198 -2.44957,28.7312 -4.3776,37.92983 -9.82897,46.89388 l -1.55372,2.55488 -17.50112,-21.41611 c -9.62562,-11.77885 -18.12481,-22.19803 -18.88709,-23.15372 -1.37059,-1.71833 -1.31312,-1.78524 5.17853,-6.02926 19.86257,-12.98547 30.43572,-25.6172 35.1991,-42.05231 1.56728,-5.40758 1.80567,-8.05233 1.78828,-19.83934 -0.0189,-12.8103 -0.15004,-13.97118 -2.2589,-19.99232 -4.34118,-12.39483 -11.98534,-22.1147 -23.22298,-29.52898 -12.49976,-8.24701 -21.2648,-10.88237 -38.09806,-11.45484 -25.04502,-0.85175 -43.62626,5.59388 -58.08798,20.15006 -5.05057,5.08356 -7.22086,8.02535 -9.79592,13.27822 -5.14527,10.49585 -6.09739,15.1472 -6.04837,29.54786 0.0386,11.36429 0.22926,12.96798 2.2818,19.2 3.68985,11.20337 10.42985,23.21614 18.31349,32.64038 l 2.87798,3.44039 -10.5705,7.09679 c -26.88287,18.04855 -39.74044,34.16266 -44.2092,55.4064 -3.11474,14.80696 -1.95996,30.53222 3.20001,43.57618 3.26639,8.25718 6.6337,13.86135 13.29222,22.12215 11.8683,14.72425 26.32529,23.53604 45.72956,27.87301 10.97444,2.45284 35.54649,2.65554 46.21691,0.38124 18.00318,-3.8372 31.78863,-10.67472 46.03925,-22.83524 l 4.65181,-3.96955 5.65447,7.13017 5.65447,7.13018 23.2,0.0357 23.2,0.0358 -4,3.70165 c -15.24292,14.10601 -37.85239,27.22214 -58.0848,33.69596 -16.4484,5.26304 -21.39426,5.93295 -45.9152,6.21919 -18.9567,0.22128 -23.62975,0.0385 -30.4,-1.18939 z m 222,-15.02795 c 0,-15.66781 0.0579,-16.26299 1.58195,-16.26299 1.51019,0 1.59185,0.66236 1.8,14.6 l 0.21805,14.6 8.6,0.22706 c 4.73,0.12489 8.59449,0.48489 8.58775,0.8 -0.0494,2.31235 -1.60489,2.66138 -11.06384,2.48266 L 533.6,630.92598 Z m 49.6,0.0981 V 598.4 h 10 c 9.46666,0 10,0.0853 10,1.6 0,1.49883 -0.53334,1.6 -8.43505,1.6 h -8.43505 l 0.23505,5.7213 0.23505,5.7213 7,-0.17077 c 6.59186,-0.16081 7,-0.0746 7,1.47871 0,1.54376 -0.46136,1.64946 -7.2,1.64946 h -7.2 v 6 6 h 8.4 c 7.74368,0 8.4,0.11975 8.4,1.53268 0,1.42698 -0.68964,1.53463 -10,1.56111 l -10,0.0284 V 614.76108 Z M 630.3567,627 c 1.64304,-4.6927 8.41135,-22.99294 9.76399,-26.4 0.4987,-1.25614 1.48822,-2.2 2.30643,-2.2 1.42883,0 1.7697,0.7404 7.18208,15.6 0.96158,2.64 2.77508,7.56629 4.03001,10.9473 2.25493,6.07524 2.26169,6.1458 0.57586,6.0188 -1.22623,-0.0924 -2.15943,-1.20215 -3.31922,-3.94729 L 649.28245,623.2 h -7.06633 c -6.03145,0 -7.12979,0.20503 -7.49963,1.4 -1.33908,4.32666 -2.80658,6.6 -4.26046,6.6 -1.54719,0 -1.54862,-0.0606 -0.0993,-4.2 z M 648,619.80198 C 648,617.96942 643.07735,604 642.43158,604 c -0.76909,0 -6.33413,15.83078 -5.76508,16.39983 0.22009,0.2201 2.86016,0.40017 5.86684,0.40017 3.83421,0 5.46666,-0.29802 5.46666,-0.99802 z M 684,614.8 v -16.4 h 7.23187 c 5.58787,0 7.92604,0.35414 10.28548,1.55783 5.61942,2.86682 6.44075,10.05303 1.69183,14.80251 -2.27286,2.27312 -2.90254,2.45892 -9.22428,2.72176 l -6.7849,0.28208 v 6.71792 c 0,6.18456 -0.12702,6.7179 -1.6,6.7179 -1.54797,0 -1.6,-0.53334 -1.6,-16.4 z m 16.48872,-2.27339 c 2.79801,-2.40675 2.92566,-6.14372 0.30516,-8.93312 C 699.12842,601.82068 698.27232,601.6 693.06055,601.6 H 687.2 v 6.4 6.4 h 5.55539 c 4.67226,0 5.90161,-0.29781 7.73333,-1.87339 z M 768.8,614.72922 V 598.4 h 10 c 9.46666,0 10,0.0853 10,1.6 0,1.49842 -0.53334,1.6 -8.4,1.6 H 772 v 6 6 h 7.2 c 5.86666,0 7.2,0.22222 7.2,1.2 0,0.97741 -1.33,1.2 -7.16998,1.2 h -7.16998 l -0.23002,7.32554 c -0.19663,6.26213 -0.43325,7.3551 -1.63002,7.52921 -1.29426,0.18829 -1.4,-1.02965 -1.4,-16.12553 z m 52.85688,15.06954 c -5.18304,-2.6429 -6.05688,-4.78631 -6.05688,-14.85685 0,-9.88351 0.97352,-12.71799 5.23184,-15.23348 2.9168,-1.723 9.09064,-1.67636 12.12088,0.0916 4.03944,2.35678 5.44728,6.23347 5.44728,15 0,6.01965 -0.33472,8.31978 -1.56008,10.72178 -2.67904,5.25126 -9.50272,7.17346 -15.18304,4.27698 z m 10.77984,-4.23708 c 2.07296,-2.16368 2.37,-3.11059 2.63744,-8.4067 0.16576,-3.2826 0.0728,-7.185 -0.20584,-8.67201 -1.24944,-6.66004 -8.6808,-9.19359 -13.32984,-4.54451 -2.292,2.29196 -2.33848,2.50796 -2.33848,10.86154 0,8.35358 0.0464,8.56958 2.33848,10.86154 3.30976,3.30979 7.66984,3.26984 10.89824,-0.0999 z m 36.12424,5.13264 c -0.68296,-0.68301 -0.73376,-27.96797 -0.0568,-30.49432 0.458,-1.70917 0.8724,-1.8 8.21104,-1.8 5.97424,0 8.17776,0.30948 9.70672,1.36329 3.17992,2.19165 3.92552,3.6103 3.95256,7.51989 0.0264,3.76622 -1.54352,6.29551 -5.208,8.3926 -1.46768,0.83991 -1.408,1.15106 1.45808,7.6 1.6436,3.69832 2.98544,6.94507 2.98184,7.21499 0,0.26993 -0.77824,0.44993 -1.72152,0.4 -1.3732,-0.0726 -2.34912,-1.56571 -4.896,-7.49077 l -3.18096,-7.4 h -3.874 -3.87392 l -0.23008,7.39086 c -0.18408,5.91537 -0.47736,7.43813 -1.46904,7.62765 -0.68144,0.13024 -1.49144,-0.0157 -1.8,-0.32419 z m 16.67544,-19.05796 c 1.33432,-1.33438 1.9636,-2.85802 1.9636,-4.75463 0,-4.05283 -2.182,-5.28173 -9.378,-5.28173 H 872 v 6 6 h 5.6364 c 4.9176,0 5.88672,-0.2504 7.6,-1.96364 z m 41.1376,18.89286 C 926.3596,630.23814 926.26968,623.7 926.174,616 L 926,602 l -4.6,-0.23992 c -3.94544,-0.20578 -4.6,-0.46193 -4.6,-1.8 0,-1.47248 0.62888,-1.56008 11.2,-1.56008 10.66664,0 11.2,0.0762 11.2,1.6 0,1.42155 -0.53336,1.6 -4.78192,1.6 h -4.782 l -0.218,14.52438 c -0.19704,13.1246 -0.35304,14.54412 -1.61808,14.72921 -0.77,0.11266 -1.41168,-0.0333 -1.426,-0.32437 z m 41.026,0.13744 c -0.75192,-0.30076 -1,-4.25332 -1,-15.93332 V 599.2 h 1.96888 c 1.92112,0 1.9744,0.16664 2.2,6.87463 l 0.23112,6.87464 h 7.2 7.2 l 0.23112,-6.87464 c 0.20904,-6.21722 0.3812,-6.87463 1.8,-6.87463 1.50624,0 1.56888,0.63922 1.56888,16 0,15.46666 -0.0536,16 -1.6,16 -1.48768,0 -1.6,-0.53334 -1.6,-7.6 V 616 h -7.6 -7.6 l -0.0504,2.2 c -0.29856,13.00654 -0.41112,13.48204 -2.94952,12.46666 z M 654.4,448.78977 V 311.17953 l 28.2,0.21024 28.2,0.21023 0.17192,137.4 0.17193,137.4 H 682.77192 654.4 Z m 84,38.01023 v -99.6 h 28.4 28.4 v 99.6 99.6 h -28.4 -28.4 z m 75.42576,99.00967 c 0.18264,-0.33532 3.77056,-6.54967 7.97312,-13.80967 4.20256,-7.26 16.87128,-29.15762 28.15264,-48.66137 11.28136,-19.50375 20.88896,-36.06565 21.35016,-36.80421 0.67424,-1.07962 -1.51128,-5.41938 -11.14912,-22.13864 C 853.55936,452.9581 840.92776,431.0441 832.0824,415.69802 823.23712,400.35193 816,387.66193 816,387.49802 816,387.3341 829.4436,387.2 845.87456,387.2 h 29.87464 l 12.28936,24.8 c 6.7592,13.64 12.49032,24.8 12.73576,24.8 0.24544,0 6.01704,-11.16 12.82568,-24.8 l 12.37936,-24.8 h 30.1896 30.18952 l -2.48464,4.2 c -1.36656,2.31 -8.42752,14.46 -15.69088,27 -7.26344,12.54 -18.916,32.58454 -25.89456,44.54343 -6.97864,11.95889 -12.6884,21.93452 -12.6884,22.16808 0,0.23357 3.54064,6.46903 7.86808,13.85658 7.52488,12.84605 18.3536,31.37473 40.416,69.15447 5.56376,9.52742 10.11592,17.53742 10.11592,17.8 0,0.26259 -13.42224,0.47744 -29.82712,0.47744 h -29.82712 l -8.75584,-17 c -4.81568,-9.35 -10.92344,-21.22607 -13.57288,-26.39126 -2.64936,-5.1652 -4.99704,-9.39204 -5.21704,-9.39297 -0.22,-8e-4 -6.40776,11.78513 -13.75056,26.19126 L 873.69888,586 l -30.10264,0.20967 c -16.5564,0.11532 -29.9532,-0.0646 -29.77048,-0.4 z M 1015.2,486.83114 V 387.2 h 7.1985 7.1984 l -0.06,46.2 -0.06,46.2 h 64.2613 64.2615 l 0.2065,-46.2 0.2064,-46.2 h 6.7936 6.7935 v 99.6 99.6 h -6.7935 -6.7936 l -0.2064,-46.6 -0.2065,-46.6 h -64.243 -64.243 l -0.157,46.4 -0.157,46.4 -7,0.23114 -7,0.23116 v -99.63116 z m 185.6,-0.037 v -99.71957 l 41.4,0.3391 c 38.7174,0.31714 41.8985,0.45043 49.0926,2.05719 35.8456,8.00592 61.1966,28.1258 73.7657,58.54444 5.2636,12.7385 7.0721,22.89444 6.9667,39.12248 -0.1148,17.65048 -2.6008,29.24733 -9.2451,43.12671 -13.3079,27.79925 -37.5322,46.18282 -71.0245,53.89974 -6.8735,1.58372 -10.0941,1.71621 -49.1554,2.02213 l -41.8,0.32736 z m 88,84.8589 c 31.1493,-7.13832 53.2882,-25.53382 63.6085,-52.85306 8.012,-21.20895 6.7485,-50.72392 -3.0139,-70.4 -12.003,-24.19246 -32.6934,-39.87868 -60.9564,-46.21352 -6.4664,-1.4494 -10.7993,-1.65969 -40.6382,-1.97229 l -33.4,-0.34991 v 86.93451 86.9345 l 34.2,-0.35262 c 28.5709,-0.29459 35.1876,-0.57894 40.2,-1.72761 z m -977.5163,-16.1191 c -10.14418,-2.72792 -19.30884,-10.35611 -24.07603,-20.03965 -2.16906,-4.40599 -2.76522,-6.70011 -3.05874,-11.77051 -0.7022,-12.13008 2.61181,-20.76954 11.55949,-30.13497 4.88296,-5.11093 16.98504,-14.96296 19.44072,-15.82627 0.37144,-0.13057 4.43106,4.36943 9.02138,10 4.59032,5.63059 15.63374,19.18545 24.54092,30.12193 9.43035,11.57884 16.01929,20.34211 15.7745,20.98003 -0.67379,1.75585 -10.66994,8.74346 -17.15544,11.99215 -3.28038,1.6432 -8.49737,3.65265 -11.59331,4.46547 -6.7968,1.78444 -18.23697,1.88354 -24.45349,0.21182 z M 328.6553,418.6 c -4.01059,-4.31658 -12.67882,-16.29949 -14.76748,-20.41446 -2.76943,-5.45621 -3.41744,-13.176 -1.57232,-18.73115 2.64271,-7.95642 10.98264,-13.30181 20.8845,-13.38569 10.11498,-0.0857 16.15587,3.14527 19.97609,10.68412 4.92638,9.72175 2.64084,21.26659 -6.10453,30.83541 -3.39494,3.71461 -14.87994,13.21177 -15.9771,13.21177 -0.21732,0 -1.31493,-0.99 -2.43916,-2.2 z m 429.20404,-51.70572 c -4.74348,-1.54834 -8.35915,-3.95573 -12.20115,-8.12382 -5.29985,-5.74964 -6.78783,-9.84148 -6.82584,-18.77046 -0.029,-6.8143 0.20908,-8.09173 2.30302,-12.35642 5.69953,-11.60817 17.4426,-17.73822 30.08123,-15.70283 9.58986,1.5444 17.00359,7.05992 21.3287,15.86771 1.9658,4.00323 2.2547,5.51408 2.2547,11.79154 0,6.24503 -0.30554,7.86151 -2.30362,12.18745 -2.6908,5.82573 -8.34595,11.51853 -13.9226,14.01532 -4.73662,2.12068 -15.77891,2.70253 -20.71444,1.09151 z"
       id="path3717"
       inkscape:connector-curvature="0" />
  </g>
</svg>
