<?xml version="1.0" encoding="utf-8"?>
<!-- Generator: Adobe Illustrator 23.1.0, SVG Export Plug-In . SVG Version: 6.00 Build 0)  -->
<!DOCTYPE svg PUBLIC "-//W3C//DTD SVG 1.1//EN" "http://www.w3.org/Graphics/SVG/1.1/DTD/svg11.dtd" [
	<!ENTITY ns_extend "http://ns.adobe.com/Extensibility/1.0/">
	<!ENTITY ns_ai "http://ns.adobe.com/AdobeIllustrator/10.0/">
	<!ENTITY ns_graphs "http://ns.adobe.com/Graphs/1.0/">
	<!ENTITY ns_vars "http://ns.adobe.com/Variables/1.0/">
	<!ENTITY ns_imrep "http://ns.adobe.com/ImageReplacement/1.0/">
	<!ENTITY ns_sfw "http://ns.adobe.com/SaveForWeb/1.0/">
	<!ENTITY ns_custom "http://ns.adobe.com/GenericCustomNamespace/1.0/">
	<!ENTITY ns_adobe_xpath "http://ns.adobe.com/XPath/1.0/">
]>
<svg version="1.1" id="Слой_1" xmlns:x="&ns_extend;" xmlns:i="&ns_ai;" xmlns:graph="&ns_graphs;"
	 xmlns="http://www.w3.org/2000/svg" xmlns:xlink="http://www.w3.org/1999/xlink" x="0px" y="0px" viewBox="0 0 566.9 284.6"
	 style="enable-background:new 0 0 566.9 284.6;" xml:space="preserve">
<style type="text/css">
	.st0{fill-rule:evenodd;clip-rule:evenodd;fill:#FDF218;}
	.st1{fill:#0FBBF7;}
	.st2{fill-rule:evenodd;clip-rule:evenodd;fill:#0FBBF7;}
	.st3{fill:#F7442F;}
</style>
<metadata>
	<sfw  xmlns="&ns_sfw;">
		<slices></slices>
		<sliceSourceBounds  bottomLeftOrigin="true" height="284.6" width="566.9" x="0" y="0"></sliceSourceBounds>
	</sfw>
</metadata>
<path class="st0" d="M432.7,113.6c-10.4-3.7-19.1-16.7-8.7-25.6c6.7-7.9,21.7-14.4,11.3-26c-3.9-3.1-4.4-20-8.9-16.1
	c-9.2,11.5-16.7,24.7-27.6,34.8c-12.9,2.2-10-14-11.2-19.1c-8.8,5-17.9,18.4-29.3,10.6c-6.2-2.7-9.2-21.8-14.1-7.9
	c0.7,10.2-2,26.8-15.4,16.2c-5.2-7.4-1.8-19.7-3.8-29c-0.4-7.1-0.3-29.7-10.9-16.6c-6.8,9.6-11.5,20.7-14.2,32.1
	C298.2,82,275.6,72.9,282,60c-1.2-8.2,5.1-22.7,0.5-27.5c-6.3,9.4-12.5,20.4-13.9,32c1.3,9.7-5.7,21-14.6,11
	c-1.8-3.3-0.2-8.1-0.7-11.9c0.3-12.5-0.4-25.4,3.9-37.3c11.6-13.4,12,8.4,14.7,12.9c7.4-5.2,10.4-18.9,22.1-17.3
	c12.8-2.2,3.2,29.3,12.6,13.8c5.6-11.1,19.5-17.2,29.5-7.9c5.9,6.4,4.9,22.1,8.6,25.6c9.4-8.4,7.4-22.3,13.9-32.5
	c0-14.3,21-15.3,20.7-1c-1.2,10.5-9.3,18.7-10.1,29.6c-3.4,6.8-1.3,23.1,6.8,10.9c8.7-8.3,12.9-19.6,17.5-30.4
	C390,19.1,405.3,2,410.6,17.3c0,12.2-3.7,23.9-4.8,36c-2.5,5.9-1.2,15.2,4.3,5.8c6.6-9.3,16.2-18,16.3-30.1
	c1.8-10.1,9.3-25.5,21.6-18.1c12.6,12-12.9,16.7-9.5,28.6c1.5,8.8,5.7,19.6,13.3,24c13.6-11.6,22-28.2,26.5-45.3
	c10.8-9.2,18.6,6.6,12.2,15.8c-0.2,9.3-1.6,21.6,1.4,29.4c7.5-8.5,13-19.1,16.3-30c4.9-9.9,12.8-22.3,25.3-21.9
	c13.8-1.1,21.2,19.1,14.1,29.3c-16.4,8-2.1-24-13.5-20.6c-11.7,11.5-13.6,29.5-10.8,45.1c4,13.9,24,9.2,30.1-0.9
	c4.7-2.9,10.1-18.5,13.5-15.1c-2.5,12.5-12.6,22.8-23.7,28.6c-10.5,6.4-24.1,1.5-32.1-6.5c-4.7-5.2-9-20.4-13.9-6.6
	c-6.5,14.2-23.6,1.5-20.6-10.6c1.1-6.1-2.7-12.1-6.6-3.7c-5.6,8.7-22,16.6-11,27.1c5.1,10,7.4,24.5-2.8,32.3
	C449.5,114.9,440.5,118.4,432.7,113.6L432.7,113.6z M439,105.1c12.1-3.5,11.6-22.8,2.8-26.6c-5.6,6-23.9,20.8-10.3,26.6
	C433.9,106.4,436.7,106.3,439,105.1L439,105.1z"/>
<path shape-rendering="auto" image-rendering="auto" color-rendering="auto" class="st1" d="M62.9,92.5c-18.7,0-33.9,1.3-45.3,8.1
	C6.1,107.4,0,120.2,0,138.1v106.4c0.2,15.3,6.2,26.1,14.4,32.3c8.2,6.2,17.9,7.9,25.9,7.8H524c13.3-0.2,24.2-4.9,31.5-12.7
	c7.3-7.8,10.8-18.4,11-29.8V134c0-15.8-6.7-27-15.4-33.2c-8.6-6.3-18.6-8.1-26-8.1h-42.4c-3.4,0-6.1,2.6-6.2,6s2.6,6.1,6,6.2
	c0.1,0,0.1,0,0.2,0h42.4c5.3,0,13.1,1.6,18.9,5.8c5.8,4.2,10.4,10.8,10.3,23.4v107.9c-0.2,9-2.9,16.5-7.8,21.7
	c-4.9,5.2-12.1,8.7-22.8,8.8H40.1c-6,0.1-13.1-1.4-18.4-5.3c-5.3-4-9.4-10.3-9.6-22.8V138.1c0-15.5,3.9-22.4,11.6-27
	c7.8-4.6,21-6.4,39.1-6.4c3.4,0,6.1-2.6,6.2-6c0-3.4-2.6-6.1-6-6.2C63,92.5,62.9,92.5,62.9,92.5L62.9,92.5z"/>
<path class="st2" d="M157.6,92.6h230.5c3.9,0,7,3.1,7,7c0,3.9-3.1,7-7,7H157.6c-3.9,0-7-3.1-7-7C150.6,95.7,153.7,92.6,157.6,92.6z"
	/>
<path shape-rendering="auto" image-rendering="auto" color-rendering="auto" class="st1" d="M164,128.2c-2.9,0-5.3,2.5-5.2,5.5
	v109.1c-0.1,3,2.2,5.5,5.2,5.6c2.9,0.1,5.3-2.3,5.4-5.3c0-0.1,0-0.2,0-0.3V133.7c0-3-2.3-5.5-5.2-5.5
	C164.1,128.2,164.1,128.2,164,128.2z"/>
<path shape-rendering="auto" image-rendering="auto" color-rendering="auto" class="st1" d="M179.3,237.7c-2.8-0.1-5.1,2.2-5.2,5
	c-0.1,2.8,2.2,5.1,5,5.2c0.1,0,0.2,0,0.2,0h53.3c2.8,0.1,5.1-2.2,5.2-5c0.1-2.8-2.2-5.1-5-5.2c-0.1,0-0.2,0-0.2,0H179.3z"/>
<path shape-rendering="auto" image-rendering="auto" color-rendering="auto" class="st1" d="M178.8,178.9c-2.9,0.2-5.2,2.7-5,5.6
	c0.2,2.9,2.6,5.1,5.5,5h44.9c2.9,0.1,5.3-2.2,5.4-5.2c0.1-2.9-2.2-5.3-5.2-5.4c-0.1,0-0.2,0-0.2,0h-44.9
	C179.2,178.9,179,178.9,178.8,178.9z"/>
<path shape-rendering="auto" image-rendering="auto" color-rendering="auto" class="st1" d="M252.5,128.5c-3,0.2-5.2,2.8-5,5.8
	c0,0.5,0.2,1.1,0.4,1.6l40.6,108.7c1,2.8,4.1,4.3,6.9,3.2c2.8-1,4.3-4.1,3.2-6.9c0,0,0-0.1,0-0.1L258,132.1
	C257.1,129.8,254.9,128.3,252.5,128.5L252.5,128.5z"/>
<path shape-rendering="auto" image-rendering="auto" color-rendering="auto" class="st1" d="M334.4,128.2c-2.2,0.1-4,1.5-4.8,3.5
	l-29.2,76.9c-1.1,2.8,0.2,5.9,3,7c2.8,1.1,5.9-0.2,7-3c0-0.1,0-0.1,0.1-0.2l29.2-76.8c1.1-2.8-0.3-5.9-3-7
	C336,128.3,335.2,128.2,334.4,128.2L334.4,128.2z"/>
<path shape-rendering="auto" image-rendering="auto" color-rendering="auto" class="st1" d="M456.9,127.4c-3.2,0-5.8,2.5-5.8,5.6
	v110.5c-0.1,3.1,2.5,5.6,5.7,5.7c3.2,0.1,5.9-2.4,6-5.4c0-0.1,0-0.2,0-0.2V133c0-3.1-2.6-5.6-5.8-5.6
	C457,127.4,456.9,127.4,456.9,127.4z"/>
<path shape-rendering="auto" image-rendering="auto" color-rendering="auto" class="st1" d="M490.1,197.1c-2.8,0-5,2.3-5,5.1
	c0,1.4,0.5,2.7,1.5,3.6c0.7,0.7,3.3,3.3,7.5,7.3c4.2,4.1,9.6,9.3,15,14.6c10.8,10.5,21.4,20.7,21.4,20.7c2,1.9,5.2,1.9,7.1-0.2
	c1.9-2,1.9-5.2-0.2-7.2c0,0-10.6-10.3-21.4-20.7c-5.4-5.2-10.8-10.5-15-14.5c-4.2-4.1-7.4-7.2-7.4-7.2
	C492.8,197.7,491.5,197.1,490.1,197.1L490.1,197.1z"/>
<path shape-rendering="auto" image-rendering="auto" color-rendering="auto" class="st3" d="M111.7,79.2c-2.9,0.1-5.7,1.6-7.3,4
	L34.6,190.3c-4.7,7.5-2.4,12.9,4.3,12.9h63.4c12.1,0.2,12.1-18,0-17.8H60.1l59.1-92.3C123.3,87.2,119,79,111.7,79.2L111.7,79.2z"/>
<path shape-rendering="auto" image-rendering="auto" color-rendering="auto" class="st3" d="M123.6,122.4c-4.2,0.1-7.6,3.5-7.6,7.6
	v113.8c0,4.1,3.4,7.5,7.6,7.6c4.2,0,7.7-3.3,7.7-7.5c0,0,0-0.1,0-0.1V130c0.1-4.1-3.3-7.6-7.6-7.6
	C123.8,122.4,123.7,122.4,123.6,122.4L123.6,122.4z"/>
<path shape-rendering="auto" image-rendering="auto" color-rendering="auto" class="st1" d="M474.5,129.2c-3.2,0-5.9,2.5-5.9,5.8
	c0,3.2,2.5,5.9,5.8,5.9c0,0,0.1,0,0.1,0h23.1c18.1,0,24.9,9.8,24.9,19c0,9.2-6.7,18.9-24.9,18.8h-23.2c-3.2,0-5.9,2.5-5.9,5.8
	c0,3.2,2.5,5.9,5.8,5.9c0,0,0.1,0,0.1,0h23.1c22.9,0.2,36.7-14.9,36.6-30.5c0-15.6-13.8-30.6-36.6-30.6L474.5,129.2z"/>
<path shape-rendering="auto" image-rendering="auto" color-rendering="auto" class="st1" d="M178.4,128.5c-2.8-0.1-5.1,2.2-5.2,5
	c-0.1,2.8,2.2,5.1,5,5.2c0.1,0,0.2,0,0.2,0h53.3c2.8,0.1,5.1-2.2,5.2-5c0.1-2.8-2.2-5.1-5-5.2c-0.1,0-0.2,0-0.2,0H178.4z"/>
<path shape-rendering="auto" image-rendering="auto" color-rendering="auto" class="st1" d="M359.8,128.6c-2.9,0-5.3,2.5-5.2,5.5
	v109.1c-0.1,3,2.2,5.5,5.2,5.6c2.9,0.1,5.3-2.3,5.4-5.3c0-0.1,0-0.2,0-0.3V134.1c0-3-2.3-5.5-5.2-5.5
	C359.9,128.6,359.8,128.6,359.8,128.6z"/>
<path shape-rendering="auto" image-rendering="auto" color-rendering="auto" class="st1" d="M374.2,238.1c-2.8-0.1-5.1,2.2-5.2,5
	c-0.1,2.8,2.2,5.1,5,5.2c0.1,0,0.2,0,0.2,0h53.3c2.8,0.1,5.1-2.2,5.2-5c0.1-2.8-2.2-5.1-5-5.2c-0.1,0-0.2,0-0.2,0H374.2z"/>
<path shape-rendering="auto" image-rendering="auto" color-rendering="auto" class="st1" d="M373.8,179.3c-2.9,0.2-5.2,2.7-5,5.6
	c0.2,2.9,2.6,5.1,5.5,5h44.9c2.9,0.1,5.3-2.2,5.4-5.2c0.1-2.9-2.2-5.3-5.2-5.4c-0.1,0-0.2,0-0.3,0h-44.9
	C374.1,179.3,374,179.3,373.8,179.3z"/>
<path shape-rendering="auto" image-rendering="auto" color-rendering="auto" class="st1" d="M373.3,128.9c-2.8-0.1-5.1,2.2-5.2,5
	c-0.1,2.8,2.2,5.1,5,5.2c0.1,0,0.2,0,0.2,0h53.3c2.8,0.1,5.1-2.2,5.2-5c0.1-2.8-2.2-5.1-5-5.2c-0.1,0-0.2,0-0.2,0H373.3z"/>
<path class="st0" d="M491.1,7.5c-1.8-0.5-3.8-0.8-5.6-1.4c-0.7-0.2-1.5-0.7-1.5-1.6c-0.2-1-0.2-2-0.3-3c0.5-0.5,0.9-1.1,1.5-1.4
	c1-0.3,2-0.2,3-0.2c1.4,0,2.7-0.1,4.1,0.1c0.7,0.1,1.3,0.5,1.8,0.9c0.9,0.9,1.6,1.9,2.2,3c0.2,0.4,0.4,1,0.2,1.4
	c-0.3,0.7-0.7,1.3-1.1,1.9c-1.1,0.2-2.2,0.4-3.3,0.4C491.7,7.7,491.4,7.6,491.1,7.5L491.1,7.5z"/>
</svg>
