<svg xmlns="http://www.w3.org/2000/svg" xmlns:xlink="http://www.w3.org/1999/xlink" viewBox="0 1 1020 410"><defs><linearGradient id="d"><stop offset="0" stop-color="#3a3a3a" style="--darkreader-inline-stopcolor: #2c2f31;" data-darkreader-inline-stopcolor=""/><stop offset="1" stop-color="#393939" style="--darkreader-inline-stopcolor: #2b2e30;" data-darkreader-inline-stopcolor=""/></linearGradient><linearGradient id="c"><stop offset="0" stop-color="#3a3a3a" style="--darkreader-inline-stopcolor: #2c2f31;" data-darkreader-inline-stopcolor=""/><stop offset=".5" stop-color="#393939" style="--darkreader-inline-stopcolor: #2b2e30;" data-darkreader-inline-stopcolor=""/><stop offset="1" stop-color="#313130" style="--darkreader-inline-stopcolor: #252829;" data-darkreader-inline-stopcolor=""/></linearGradient><linearGradient id="b"><stop offset="0" stop-color="#373737" style="--darkreader-inline-stopcolor: #292d2f;" data-darkreader-inline-stopcolor=""/><stop offset=".3" stop-color="#373737" style="--darkreader-inline-stopcolor: #292d2f;" data-darkreader-inline-stopcolor=""/><stop offset=".6" stop-color="#393939" style="--darkreader-inline-stopcolor: #2b2e30;" data-darkreader-inline-stopcolor=""/><stop offset="1" stop-color="#313231" style="--darkreader-inline-stopcolor: #25282a;" data-darkreader-inline-stopcolor=""/></linearGradient><linearGradient id="a"><stop offset="0" stop-color="#3a3a3a" style="--darkreader-inline-stopcolor: #2c2f31;" data-darkreader-inline-stopcolor=""/><stop offset="1" stop-color="#363636" style="--darkreader-inline-stopcolor: #292c2e;" data-darkreader-inline-stopcolor=""/></linearGradient><linearGradient id="e" x1="7.1" x2="255" y1="251.1" y2="200.5" xlink:href="#a" gradientUnits="userSpaceOnUse"/><linearGradient id="f" x1="193" x2="350.9" y1="79.7" y2="248.3" xlink:href="#b" gradientUnits="userSpaceOnUse"/><linearGradient id="g" x1="258.3" x2="507.4" y1="2.3" y2="253.9" xlink:href="#c" gradientUnits="userSpaceOnUse"/><linearGradient id="h" x1="514" x2="1017" y1="254" y2="52" xlink:href="#d" gradientUnits="userSpaceOnUse"/></defs><path fill="#eddbab" d="M509 293.4L542 409h22.8l18-88.6 17.8 88.6h22.6l33-115.6h-14.8c-6 0-9.8 3-12 9L612 374.8l-16.6-81.4h-25.2l-17 81.4-19.5-81.4H509zm152.3 0V409H684v-46c0-14 5.7-25 19.2-25 13 0 18.7 9.8 18.7 25v46h22.3v-52.2c.7-19.6-5.3-31.6-18-36.2-16.7-6-30.8-2.3-42.4 11v-27c0-7.3-3.8-11.2-11.3-11.2h-11.4zm93 0V311h22.5v-6.6c.2-7.3-3.4-11-10.8-11h-11.8zm33.7 0v98.2c0 10 4 15.3 12.4 16.2 8.5.8 16.5.8 23.8 0v-17h-7c-4.4 0-6.6-2-6.6-5.8v-49.8h2.4c6.3 0 11.2-4.8 11.2-11.2v-5h-13.6v-14.2c0-6-5-11.4-10.8-11.4H788zm84.6 24.3c-27.4 0-41.2 15.4-41.2 46s13.6 46.5 40.8 47.3c22 0 34.4-10.5 39.3-29.6h-16.7c-3 0-5.6 1-7.6 3.3-4.4 4.2-9.4 6.4-14.6 6.4-11 0-17-7-18-20.6H913c1.6-35.2-12-52.7-40.4-52.7zM754.2 319v90h22.6v-79c0-7.4-3.5-11-10.8-11h-11.8zm118 17.2c9.7 0 15.3 6 16.7 18h-34c1.8-12 7.5-18 17.2-18z" style="--darkreader-inline-fill: #45360f;" data-darkreader-inline-fill=""/><path fill="url(#e)" d="M204 52L0 256h102l25.5-25.5H306l-51-51h-76.5L255 103z"/><path fill="url(#f)" d="M204 52l-51 51 153 153h102z"/><path fill="url(#g)" d="M561 1L459 103l-51-51H306l102 102-179 179h102l128-128 51 51h102L510 154 663 1z"/><path fill="url(#h)" d="M714 52L510 256h102l102-102 102 102 204-204H918L816 154z"/><path fill="#f5ebd0" d="M637.5 256h153L714 179.5z" style="--darkreader-inline-fill: #35290b;" data-darkreader-inline-fill=""/><path fill="#d7c59e" d="M739.5 256h51L714 179.5z" style="--darkreader-inline-fill: #d4c197;" data-darkreader-inline-fill=""/></svg>