<?xml version="1.0" encoding="UTF-8" standalone="no"?>
<!-- Created with Inkscape (http://www.inkscape.org/) -->

<svg
   xmlns:dc="http://purl.org/dc/elements/1.1/"
   xmlns:cc="http://creativecommons.org/ns#"
   xmlns:rdf="http://www.w3.org/1999/02/22-rdf-syntax-ns#"
   xmlns:svg="http://www.w3.org/2000/svg"
   xmlns="http://www.w3.org/2000/svg"
   xmlns:xlink="http://www.w3.org/1999/xlink"
   xmlns:sodipodi="http://sodipodi.sourceforge.net/DTD/sodipodi-0.dtd"
   xmlns:inkscape="http://www.inkscape.org/namespaces/inkscape"
   width="1000"
   height="747.04517"
   id="svg2"
   version="1.1"
   inkscape:version="0.48.5 r10040"
   sodipodi:docname="AA.svg">
  <defs
     id="defs4">
    <linearGradient
       id="linearGradient3246">
      <stop
         style="stop-color:#44805f;stop-opacity:1"
         offset="0"
         id="stop3248" />
      <stop
         id="stop3250"
         offset="0.1"
         style="stop-color:#48854a;stop-opacity:1" />
      <stop
         id="stop3252"
         offset="0.2"
         style="stop-color:#418758;stop-opacity:1" />
      <stop
         id="stop3254"
         offset="0.30000001"
         style="stop-color:#3f8764;stop-opacity:1" />
      <stop
         id="stop3256"
         offset="0.40000001"
         style="stop-color:#2f8d7b;stop-opacity:1" />
      <stop
         id="stop3258"
         offset="0.5"
         style="stop-color:#22908b;stop-opacity:1" />
      <stop
         id="stop3260"
         offset="0.60000002"
         style="stop-color:#1e979f;stop-opacity:1" />
      <stop
         id="stop3262"
         offset="0.69999999"
         style="stop-color:#0f97ae;stop-opacity:1" />
      <stop
         id="stop3264"
         offset="0.80000001"
         style="stop-color:#0799c0;stop-opacity:1" />
      <stop
         id="stop3266"
         offset="0.89999998"
         style="stop-color:#009ccc;stop-opacity:1" />
      <stop
         style="stop-color:#009ccc;stop-opacity:1"
         offset="1"
         id="stop3268" />
    </linearGradient>
    <linearGradient
       id="linearGradient3107">
      <stop
         id="stop3109"
         offset="0"
         style="stop-color:#257c3d;stop-opacity:0.99607843" />
      <stop
         style="stop-color:#278247;stop-opacity:0.99607843"
         offset="0.1"
         id="stop3111" />
      <stop
         style="stop-color:#298452;stop-opacity:0.99607843"
         offset="0.2"
         id="stop3113" />
      <stop
         style="stop-color:#2d8863;stop-opacity:0.99607843"
         offset="0.30000001"
         id="stop3115" />
      <stop
         style="stop-color:#2f8871;stop-opacity:0.99607843"
         offset="0.40000001"
         id="stop3117" />
      <stop
         style="stop-color:#318c79;stop-opacity:0.99607843"
         offset="0.5"
         id="stop3119" />
      <stop
         style="stop-color:#358a8f;stop-opacity:0.99607843"
         offset="0.60000002"
         id="stop3121" />
      <stop
         style="stop-color:#378e99;stop-opacity:0.99607843"
         offset="0.69999999"
         id="stop3123" />
      <stop
         style="stop-color:#3a8da8;stop-opacity:0.99607843"
         offset="0.80000001"
         id="stop3125" />
      <stop
         style="stop-color:#3c90b3;stop-opacity:0.99607843"
         offset="0.89999998"
         id="stop3127" />
      <stop
         id="stop3129"
         offset="1"
         style="stop-color:#3f92bf;stop-opacity:0.99607843" />
    </linearGradient>
    <linearGradient
       id="linearGradient3070">
      <stop
         style="stop-color:#257c3d;stop-opacity:0.99607843"
         offset="0"
         id="stop3072" />
      <stop
         id="stop3094"
         offset="0.1"
         style="stop-color:#278247;stop-opacity:0.99607843" />
      <stop
         id="stop3092"
         offset="0.2"
         style="stop-color:#298452;stop-opacity:0.99607843" />
      <stop
         id="stop3090"
         offset="0.30000001"
         style="stop-color:#2d8863;stop-opacity:0.99607843" />
      <stop
         id="stop3088"
         offset="0.40000001"
         style="stop-color:#2f8871;stop-opacity:0.99607843" />
      <stop
         id="stop3086"
         offset="0.5"
         style="stop-color:#318c79;stop-opacity:0.99607843" />
      <stop
         id="stop3084"
         offset="0.60000002"
         style="stop-color:#358c90;stop-opacity:0.99607843" />
      <stop
         id="stop3082"
         offset="0.69999999"
         style="stop-color:#398ea1;stop-opacity:0.99607843" />
      <stop
         id="stop3080"
         offset="0.80000001"
         style="stop-color:#3b8fad;stop-opacity:0.99607843" />
      <stop
         id="stop3078"
         offset="0.89999998"
         style="stop-color:#3d8fb6;stop-opacity:0.99607843" />
      <stop
         style="stop-color:#3f92bf;stop-opacity:0.99607843"
         offset="1"
         id="stop3074" />
    </linearGradient>
    <linearGradient
       inkscape:collect="always"
       xlink:href="#linearGradient3246"
       id="linearGradient3244"
       x1="160.86868"
       y1="2646.9165"
       x2="566.34406"
       y2="2205.627"
       gradientUnits="userSpaceOnUse"
       gradientTransform="matrix(2.0471311,0,0,2.0471311,-167.54098,-2773.1827)" />
  </defs>
  <sodipodi:namedview
     id="base"
     pagecolor="#ffffff"
     bordercolor="#666666"
     borderopacity="1.0"
     inkscape:pageopacity="0.0"
     inkscape:pageshadow="2"
     inkscape:zoom="0.40700072"
     inkscape:cx="982.4242"
     inkscape:cy="58.407156"
     inkscape:document-units="px"
     inkscape:current-layer="layer1"
     showgrid="false"
     fit-margin-left="0.5"
     fit-margin-bottom="0.5"
     fit-margin-top="0.5"
     fit-margin-right="0.5"
     inkscape:window-width="1272"
     inkscape:window-height="1039"
     inkscape:window-x="645"
     inkscape:window-y="-21"
     inkscape:window-maximized="0">
    <inkscape:grid
       type="xygrid"
       id="grid2996"
       empspacing="5"
       visible="true"
       enabled="true"
       snapvisiblegridlinesonly="true"
       originx="-1679.5px"
       originy="1880.4989px" />
  </sodipodi:namedview>
  <metadata
     id="metadata7">
    <rdf:RDF>
      <cc:Work
         rdf:about="">
        <dc:format>image/svg+xml</dc:format>
        <dc:type
           rdf:resource="http://purl.org/dc/dcmitype/StillImage" />
        <dc:title></dc:title>
      </cc:Work>
    </rdf:RDF>
  </metadata>
  <g
     inkscape:label="Layer 1"
     inkscape:groupmode="layer"
     id="layer1"
     transform="translate(-1679.5,-2185.8159)">
    <rect
       y="2186.3159"
       x="1680"
       height="746.04517"
       width="999"
       id="rect3386"
       style="fill:#0d2458;fill-opacity:1;fill-rule:evenodd;stroke:none" />
    <path
       inkscape:connector-curvature="0"
       id="path3281"
       d="m 1880.2201,2569.1467 0,194.5168 103.9626,0 c 33.5171,0 56.934,-24.2831 56.934,-55.9338 0,-40.0464 -35.6214,-45.327 -35.6214,-45.327 0,0 31.319,-6.5998 31.319,-43.4261 0,-30.944 -22.458,-49.8299 -56.1339,-49.8299 l -100.4603,0 z m 48.1291,38.2229 37.8227,0 c 12.5915,0 22.0603,6.4586 21.9133,18.3109 0,12.6447 -7.984,21.2127 -23.2139,21.2127 l -36.5221,0 0,-39.5236 z m 0,76.4459 39.9238,0 c 17.4559,0 22.7138,9.5824 22.7138,19.8119 0,12.7088 -9.5139,21.1125 -22.7138,21.1125 l -39.9238,0 0,-40.9244 z"
       style="fill:#ffffff;stroke:none" />
    <path
       inkscape:connector-curvature="0"
       id="path3298"
       d="m 2061.4291,2569.1467 0,194.5168 49.1297,0 0,-68.6412 24.4146,0 39.0231,68.6412 53.232,0 -44.6265,-75.7457 c 21.3729,-7.3541 36.7219,-28.0776 36.7219,-57.1341 0,-33.3532 -21.125,-61.637 -71.643,-61.637 l -86.2518,0 z m 49.1297,38.9232 35.8211,0 c 17.382,0 25.0154,11.4232 25.0154,25.3153 0,16.197 -12.7917,25.8155 -27.0166,25.8155 l -33.8199,0 0,-51.1308 z"
       style="fill:#ffffff;stroke:none" />
    <path
       style="fill:#ffffff;stroke:none"
       d="m 2249.804,2763.6404 0,-194.5037 49.138,0 0,194.5037 z"
       id="path3302"
       inkscape:connector-curvature="0" />
    <path
       style="fill:#ffffff;stroke:none"
       d="m 2376.7433,2763.6404 0,-154.5789 -55.28,0 0,-39.9248 159.6979,0 0,39.9248 -55.2799,0 0,154.5789 z"
       id="path3304"
       inkscape:connector-curvature="0"
       sodipodi:nodetypes="ccccccccc" />
    <g
       id="g3332"
       transform="matrix(2.0068259,0,0,2.0068259,1824.684,464.07948)"
       style="fill:#ffffff">
      <g
         id="g3334"
         style="fill:#ffffff"
         transform="matrix(0.82302261,0,0,-0.82302261,189.63913,997.27701)">
        <path
           id="path3336"
           d="m 0,0 c 0,-11.25 -14,-10.583 -14,-10.583 l -14,0 0,20.333 14,0 C 0.417,9.833 0,0 0,0 m -28,40.75 10.667,0 c 11.083,-0.584 10.666,-8.833 10.666,-8.833 0,-10.25 -12.25,-10.417 -12.25,-10.417 l -9.083,0 0,19.25 z M -2.583,17.5 c 0,0 9.583,4.083 9.5,14.917 0,0 1.457,17.749 -22.063,19.916 l -26.104,0 0,-74.416 29.917,0 c 0,0 25,-0.084 25,21 0,0 0.583,14.333 -16.25,18.583 m -67.545,49.4156 109.878,0 0,-103.544 -109.878,0 0,103.544 z"
           style="fill:#ffffff;fill-rule:nonzero"
           inkscape:connector-curvature="0" />
      </g>
      <g
         id="g3338"
         style="fill:#ffffff"
         transform="matrix(0.82302261,0,0,-0.82302261,85.355129,997.27701)">
        <path
           id="path3340"
           style="fill:#ffffff;fill-rule:nonzero"
           d="m 0,0 c 0,-11.25 -14,-10.583 -14,-10.583 l -14,0 0,20.333 14,0 C 0.417,9.833 0,0 0,0 m -28,40.75 10.667,0 c 11.083,-0.584 10.666,-8.833 10.666,-8.833 0,-10.25 -12.25,-10.417 -12.25,-10.417 l -9.083,0 0,19.25 z M -2.583,17.5 c 0,0 9.583,4.083 9.5,14.917 0,0 1.457,17.749 -22.063,19.916 l -26.104,0 0,-74.416 29.917,0 c 0,0 25,-0.084 25,21 0,0 0.583,14.333 -16.25,18.583 m -67.545,49.4156 109.878,0 0,-103.544 -109.878,0 0,103.544 z"
           inkscape:connector-curvature="0" />
      </g>
      <g
         id="g3342"
         style="fill:#ffffff"
         transform="matrix(0.82302261,0,0,-0.82302261,308.1885,958.5961)">
        <path
           id="path3344"
           style="fill:#ffffff;fill-rule:nonzero"
           d="m 0,0 0,-13.75 c 0,0 -13.417,8.25 -28.25,8.417 0,0 -27.666,0.54 -28.916,-26.522 0,0 -1,-24.895 28.583,-26.312 0,0 12.417,-1.5 29.25,9.25 l 0,-14.25 c 0,0 -22.583,-13.416 -48.75,-3.083 0,0 -22,8.04 -22.834,34.395 0,0 -0.917,27.105 28.417,36.105 0,0 7.834,3 21.917,1.667 0,0 8.416,-0.834 20.583,-5.917 m -87.461,-83.627 109.878,0 0,103.544 -109.878,0 0,-103.544 z"
           inkscape:connector-curvature="0" />
      </g>
    </g>
  </g>
</svg>
