<?xml version="1.0" encoding="UTF-8" standalone="no"?>
<!-- Created with Inkscape (http://www.inkscape.org/) -->

<svg
   xmlns:dc="http://purl.org/dc/elements/1.1/"
   xmlns:cc="http://creativecommons.org/ns#"
   xmlns:rdf="http://www.w3.org/1999/02/22-rdf-syntax-ns#"
   xmlns:svg="http://www.w3.org/2000/svg"
   xmlns="http://www.w3.org/2000/svg"
   xmlns:sodipodi="http://sodipodi.sourceforge.net/DTD/sodipodi-0.dtd"
   xmlns:inkscape="http://www.inkscape.org/namespaces/inkscape"
   width="1000"
   height="410.00653"
   viewBox="0 0 100 41.000655"
   version="1.1"
   id="svg8"
   inkscape:version="0.92.3 (2405546, 2018-03-11)"
   sodipodi:docname="A.svg">
  <defs
     id="defs2">
    <inkscape:perspective
       sodipodi:type="inkscape:persp3d"
       inkscape:vp_x="0 : 526.18109 : 1"
       inkscape:vp_y="0 : 1000 : 0"
       inkscape:vp_z="744.09448 : 526.18109 : 1"
       id="perspective10"
       inkscape:persp3d-origin="372.04724 : 350.78739 : 1">
		</inkscape:perspective>
    <inkscape:perspective
       sodipodi:type="inkscape:persp3d"
       inkscape:vp_x="0 : 27.806 : 1"
       inkscape:vp_y="0 : 1000 : 0"
       inkscape:vp_z="187.086 : 27.806 : 1"
       id="perspective2485"
       inkscape:persp3d-origin="93.542998 : 18.537333 : 1">
		</inkscape:perspective>
    <inkscape:perspective
       sodipodi:type="inkscape:persp3d"
       inkscape:vp_x="0 : 526.18109 : 1"
       inkscape:vp_y="0 : 1000 : 0"
       inkscape:vp_z="744.09448 : 526.18109 : 1"
       id="perspective2546"
       inkscape:persp3d-origin="372.04724 : 350.78739 : 1">
		</inkscape:perspective>
    <inkscape:perspective
       sodipodi:type="inkscape:persp3d"
       inkscape:vp_x="0 : 526.18109 : 1"
       inkscape:vp_y="0 : 1000 : 0"
       inkscape:vp_z="744.09448 : 526.18109 : 1"
       id="perspective2615"
       inkscape:persp3d-origin="372.04724 : 350.78739 : 1">
		</inkscape:perspective>
    <inkscape:perspective
       sodipodi:type="inkscape:persp3d"
       inkscape:vp_x="0 : 526.18109 : 1"
       inkscape:vp_y="0 : 1000 : 0"
       inkscape:vp_z="744.09448 : 526.18109 : 1"
       id="perspective2461"
       inkscape:persp3d-origin="372.04724 : 350.78739 : 1">
		</inkscape:perspective>
    <inkscape:perspective
       sodipodi:type="inkscape:persp3d"
       inkscape:vp_x="0 : 526.18109 : 1"
       inkscape:vp_y="0 : 1000 : 0"
       inkscape:vp_z="744.09448 : 526.18109 : 1"
       id="perspective2526"
       inkscape:persp3d-origin="372.04724 : 350.78739 : 1">
		</inkscape:perspective>
    <inkscape:perspective
       sodipodi:type="inkscape:persp3d"
       inkscape:vp_x="0 : 526.18109 : 1"
       inkscape:vp_y="0 : 1000 : 0"
       inkscape:vp_z="744.09448 : 526.18109 : 1"
       id="perspective2576"
       inkscape:persp3d-origin="372.04724 : 350.78739 : 1">
		</inkscape:perspective>
    <inkscape:perspective
       sodipodi:type="inkscape:persp3d"
       inkscape:vp_x="0 : 526.18109 : 1"
       inkscape:vp_y="0 : 1000 : 0"
       inkscape:vp_z="744.09448 : 526.18109 : 1"
       id="perspective2740"
       inkscape:persp3d-origin="372.04724 : 350.78739 : 1">
		</inkscape:perspective>
    <inkscape:perspective
       sodipodi:type="inkscape:persp3d"
       inkscape:vp_x="0 : 526.18109 : 1"
       inkscape:vp_y="0 : 1000 : 0"
       inkscape:vp_z="744.09448 : 526.18109 : 1"
       id="perspective2950"
       inkscape:persp3d-origin="372.04724 : 350.78739 : 1">
		</inkscape:perspective>
    <inkscape:perspective
       sodipodi:type="inkscape:persp3d"
       inkscape:vp_x="0 : 27.806 : 1"
       inkscape:vp_y="0 : 1000 : 0"
       inkscape:vp_z="187.086 : 27.806 : 1"
       id="perspective2863"
       inkscape:persp3d-origin="93.542998 : 18.537333 : 1">
		</inkscape:perspective>
  </defs>
  <sodipodi:namedview
     id="base"
     pagecolor="#ffffff"
     bordercolor="#666666"
     borderopacity="1.0"
     inkscape:pageopacity="0.0"
     inkscape:pageshadow="2"
     inkscape:zoom="0.60030554"
     inkscape:cx="385.32132"
     inkscape:cy="15.987626"
     inkscape:document-units="px"
     inkscape:current-layer="layer1"
     showgrid="false"
     units="px"
     fit-margin-top="0"
     fit-margin-left="0"
     fit-margin-right="0"
     fit-margin-bottom="0">
    <inkscape:grid
       type="xygrid"
       id="grid18"
       originx="-5.7"
       originy="-49.011092" />
  </sodipodi:namedview>
  <metadata
     id="metadata5">
    <rdf:RDF>
      <cc:Work
         rdf:about="">
        <dc:format>image/svg+xml</dc:format>
        <dc:type
           rdf:resource="http://purl.org/dc/dcmitype/StillImage" />
        <dc:title></dc:title>
      </cc:Work>
    </rdf:RDF>
  </metadata>
  <g
     inkscape:label="Layer 1"
     inkscape:groupmode="layer"
     id="layer1"
     transform="translate(-5.7000001,-22.240223)">
    <path
       id="path53"
       d="m 55.447852,29.417823 c 0,1.206816 -1.501789,1.135198 -1.501789,1.135198 h -1.50175 v -2.180655 h 1.50175 c 1.545508,-0.01015 1.501789,1.045457 1.501789,1.045457 m -3.003539,-4.37113 h 1.144355 c 1.188307,0.06277 1.143456,0.947497 1.143456,0.947497 0,1.099465 -1.313976,1.117391 -1.313976,1.117391 h -0.973835 z m 2.725751,2.493707 c 0,0 1.027923,-0.438019 1.018766,-1.599827 0,0 0.156325,-1.904037 -2.366369,-2.136273 h -2.799239 v 7.982151 h 3.208618 c 0,0 2.68094,0.008 2.68094,-2.252196 -3.7e-5,0 0.06337,-1.538106 -1.742716,-1.993855 M 47.925691,22.24024 H 59.711088 V 33.346065 H 47.925691 Z m -6.068257,7.177583 c 0,1.206816 -1.501788,1.135198 -1.501788,1.135198 h -1.501869 v -2.180655 h 1.501869 c 1.545626,-0.01015 1.501788,1.045457 1.501788,1.045457 m -3.003657,-4.37113 h 1.144588 c 1.188346,0.06277 1.143378,0.947497 1.143378,0.947497 0,1.099465 -1.313894,1.117391 -1.313894,1.117391 h -0.974072 z m 2.725986,2.493707 c 0,0 1.02808,-0.438019 1.018845,-1.599827 0,0 0.156218,-1.904037 -2.366487,-2.136273 h -2.799358 v 7.982151 h 3.208813 c 0,0 2.680905,0.008 2.680905,-2.252196 0,0 0.06318,-1.538106 -1.742718,-1.993855 M 34.335392,22.24024 H 46.120789 V 33.346065 H 34.335392 Z m 36.56187,2.136314 v 1.474709 c 0,0 -1.439483,-0.884607 -3.030157,-0.902414 0,0 -2.967688,-0.05825 -3.101461,2.844714 0,0 -0.107182,2.669679 3.065689,2.821802 0,0 1.331276,0.160341 3.137312,-0.991335 v 1.527274 c 0,0 -2.422633,1.439369 -5.229123,0.330744 0,0 -2.3592,-0.861501 -2.449055,-3.688485 0,0 -0.09813,-2.907607 3.048312,-3.872794 0,0 0.840227,-0.321663 2.35016,-0.178716 3.9e-5,-3.9e-5 0.902491,0.08922 2.208323,0.634484 m -9.381231,8.96951 H 73.301423 V 22.240223 H 61.516031 Z"
       inkscape:connector-curvature="0"
       style="fill:#000000;stroke-width:0.03896603" />
    <path
       inkscape:connector-curvature="0"
       id="path77"
       style="font-style:normal;font-variant:normal;font-weight:800;font-stretch:normal;font-size:medium;line-height:125%;font-family:'BBC Reith Sans';-inkscape-font-specification:'BBC Reith Sans Ultra-Bold';letter-spacing:0px;word-spacing:0px;fill:#000000;fill-opacity:1;stroke:none;stroke-width:0.05397971;stroke-linecap:butt;stroke-linejoin:miter;stroke-opacity:1"
       d="m 5.7000001,58.027419 h 2.5437537 c 1.7168819,0 3.0150122,-0.512971 3.8943912,-1.538914 0.900316,-1.02594 1.350474,-2.533447 1.350474,-4.522517 0,-1.947195 -0.43969,-3.423294 -1.319068,-4.428299 -0.879379,-1.025943 -2.177509,-1.538914 -3.8943909,-1.538914 h -2.57516 v -5.213458 h 2.8578174 c 2.3659475,0 4.3864245,0.439689 6.0614305,1.319068 1.695944,0.879379 2.983604,2.156572 3.862983,3.831579 0.900317,1.654068 1.350475,3.664076 1.350475,6.030024 0,2.386886 -0.450158,4.417831 -1.350475,6.092837 -0.879379,1.675005 -2.167039,2.962668 -3.862983,3.862984 -1.695944,0.87938 -3.72689,1.319068 -6.0928368,1.319068 H 5.7000001 Z"
       sodipodi:nodetypes="cscscsccsccsccscc" />
    <path
       inkscape:connector-curvature="0"
       id="path79"
       style="font-style:normal;font-variant:normal;font-weight:800;font-stretch:normal;font-size:medium;line-height:125%;font-family:'BBC Reith Sans';-inkscape-font-specification:'BBC Reith Sans Ultra-Bold';letter-spacing:0px;word-spacing:0px;fill:#000000;fill-opacity:1;stroke:none;stroke-width:0.05397971;stroke-linecap:butt;stroke-linejoin:miter;stroke-opacity:1"
       d="m 25.348615,40.785317 h 2.509814 c 3.098764,0 5.47518,0.638598 7.12925,1.91579 1.675005,1.277192 2.512509,3.119699 2.512509,5.527522 0,1.381881 -0.324533,2.59626 -0.973598,3.643141 -0.628127,1.046878 -1.528444,1.884382 -2.700948,2.512509 0.921255,1.444694 1.821569,2.899855 2.700948,4.365486 0.900317,1.465631 1.779696,2.962668 2.638136,4.491112 H 32.412354 C 31.742351,61.963685 31.061881,60.69696 30.370941,59.440705 29.700938,58.163513 28.999528,56.907258 28.266712,55.671941 h -0.408283 -2.509814 v -4.498574 h 2.227157 c 1.277192,0 2.219384,-0.219844 2.826574,-0.659532 0.607192,-0.460629 0.974371,-1.173202 0.974371,-2.094456 0,-0.921253 -0.367179,-1.792474 -0.974371,-2.232165 -0.60719,-0.460626 -1.549382,-0.69094 -2.826574,-0.69094 h -2.227157 z"
       sodipodi:nodetypes="cscsccccccccccscscscc" />
    <path
       inkscape:connector-curvature="0"
       id="path81"
       style="font-style:normal;font-variant:normal;font-weight:800;font-stretch:normal;font-size:medium;line-height:125%;font-family:'BBC Reith Sans';-inkscape-font-specification:'BBC Reith Sans Ultra-Bold';letter-spacing:0px;word-spacing:0px;fill:#000000;fill-opacity:1;stroke:none;stroke-width:0.05397971;stroke-linecap:butt;stroke-linejoin:miter;stroke-opacity:1"
       d="m 43.208383,54.258653 h 6.358343 l -3.178291,-7.791094 1.910852,-5.658296 h 1.616759 l 9.469989,22.431614 h -6.267064 l -1.647342,-4.208455 h -5.415294 z"
       sodipodi:nodetypes="cccccccccc" />
    <path
       inkscape:connector-curvature="0"
       id="path83"
       style="font-style:normal;font-variant:normal;font-weight:800;font-stretch:normal;font-size:medium;line-height:125%;font-family:'BBC Reith Sans';-inkscape-font-specification:'BBC Reith Sans Ultra-Bold';letter-spacing:0px;word-spacing:0px;fill:#000000;fill-opacity:1;stroke:none;stroke-width:0.05397971;stroke-linecap:butt;stroke-linejoin:miter;stroke-opacity:1"
       d="M 67.207483,59.158048 59.560497,40.785317 h 5.211171 l 5.132793,12.374113 4.899395,-12.374113 h 7.44364 v 22.45556 h -5.715959 v -14.21915 l -4.163494,10.136321 z"
       sodipodi:nodetypes="ccccccccccc" />
    <path
       sodipodi:nodetypes="cccccccccc"
       d="m 103.65853,54.258653 h -6.18974 l 3.528,-8.45872 -1.990332,-4.99067 h -1.616759 l -9.740218,22.431614 h 6.267064 l 1.647342,-4.208455 H 105.7 Z"
       style="font-style:normal;font-variant:normal;font-weight:800;font-stretch:normal;font-size:medium;line-height:125%;font-family:'BBC Reith Sans';-inkscape-font-specification:'BBC Reith Sans Ultra-Bold';letter-spacing:0px;word-spacing:0px;fill:#000000;fill-opacity:1;stroke:none;stroke-width:0.05397971;stroke-linecap:butt;stroke-linejoin:miter;stroke-opacity:1"
       id="path93"
       inkscape:connector-curvature="0" />
  </g>
</svg>
