<?xml version="1.0" encoding="UTF-8" standalone="no"?>
<!-- Generator: Adobe Illustrator 25.3.1, SVG Export Plug-In . SVG Version: 6.00 Build 0)  -->

<svg
   version="1.1"
   x="0px"
   y="0px"
   viewBox="0 0 475.38379 239.5556"
   xml:space="preserve"
   id="svg13816"
   xmlns="http://www.w3.org/2000/svg"
   xmlns:svg="http://www.w3.org/2000/svg"><defs
   id="defs19">
	</defs>
<path
   id="path6041"
   style="fill:#6e00e1"
   d="M 109.96105,0 V 73.02 H 182.9811 V 0 Z M 201.21802,0 V 73.02 H 274.23722 V 0 Z M 292.40352,0 V 73.02 H 365.42274 V 0 Z M 332.21299,15.540341 C 334.48379,15.540341 336.61275,15.754169 338.67063,16.250874 340.72853,16.747588 342.57309,17.385892 344.34712,18.308419 V 26.256011 C 342.78595,25.191595 341.01259,24.411344 339.16756,23.843623 337.25158,23.27594 335.26408,22.991539 333.34812,23.062508 330.50963,23.062508 328.09712,23.559523 326.11019,24.623949 324.12325,25.617406 322.56231,27.249299 321.56882,29.165292 320.50441,31.152179 320.00739,33.564792 320.00739,36.403227 320.00739,39.241624 320.50441,41.725686 321.56882,43.712619 322.56231,45.699534 324.1236,47.261022 326.03956,48.325458 328.02651,49.389883 330.3679,49.886024 333.1354,49.886024 337.39309,49.886024 341.29648,48.751147 344.91553,46.55127 V 54.427405 H 344.84405 C 343.14095,55.349922 341.15466,56.13116 338.95484,56.627874 336.68408,57.19552 334.34182,57.408172 331.85815,57.408172 328.59393,57.408172 325.61372,56.911354 322.98816,55.988846 320.36257,54.995361 318.16277,53.646966 316.3178,51.872939 314.47277,50.098902 313.12476,47.899627 312.13127,45.274051 311.13782,42.648532 310.71193,39.738856 310.71193,36.474685 310.71193,33.281388 311.20846,30.443028 312.2019,27.817415 313.19539,25.26277 314.68551,23.062686 316.53054,21.2177 318.4465,19.372722 320.7174,17.953698 323.34299,17.031171 325.96857,16.037752 328.94875,15.540341 332.21299,15.540341 Z M 130.46909,15.966689 H 145.86735 C 150.40889,15.966689 153.95724,16.889225 156.44088,18.663233 158.92453,20.508211 160.20196,23.062592 160.20196,26.46871 160.20196,28.455681 159.77661,30.088355 158.8541,31.578526 157.93162,32.99772 156.65432,34.132297 154.8803,34.983901 157.293,35.764453 159.13739,37.042358 160.41469,38.816414 161.692,40.519492 162.33097,42.648315 162.33097,45.131945 162.40194,47.615658 161.76349,49.744087 160.48616,51.518105 159.20886,53.292142 157.43443,54.640866 155.16365,55.563373 152.82192,56.4859 150.05451,56.981862 146.86123,56.981862 H 130.46909 Z M 221.7967,15.966689 H 237.19496 C 241.73651,15.966689 245.28481,16.889225 247.76848,18.663233 250.25215,20.508211 251.52956,23.062592 251.52956,26.46871 251.52956,28.455681 251.10419,30.088355 250.18169,31.578526 249.25918,32.99772 247.98195,34.132297 246.2079,34.983901 248.62061,35.764453 250.46496,37.042358 251.74229,38.816414 253.0196,40.519492 253.65855,42.648315 253.65855,45.131945 253.58742,47.615658 252.94863,49.744087 251.74229,51.518105 250.46496,53.292142 248.69138,54.640866 246.42064,55.563373 244.07888,56.4859 241.31149,56.981862 238.11821,56.981862 H 221.7967 Z M 138.77153,22.637034 V 32.855736 H 145.08706 C 147.28688,32.855736 148.91935,32.358852 150.05473,31.436411 151.19012,30.513875 151.75742,29.165292 151.75742,27.53323 151.75742,24.268965 149.55765,22.637034 145.08706,22.637034 Z M 230.0285,22.637034 V 32.855736 H 236.34402 C 238.54385,32.855736 240.1763,32.358852 241.31169,31.436411 242.44709,30.513875 243.0144,29.165292 243.0144,27.53323 243.0144,24.268965 240.81463,22.637034 236.34402,22.637034 Z M 138.77153,39.313383 V 50.382993 H 146.00945 C 148.49311,50.382993 150.40916,49.886156 151.75742,48.96363 153.10571,48.041179 153.74432,46.693301 153.74432,44.919208 153.81534,41.158275 151.26079,39.313383 146.15156,39.313383 Z M 230.0285,39.313383 V 50.382993 H 237.26642 C 239.75006,50.382993 241.66612,49.886156 243.0144,48.96363 244.36266,48.041179 245.00129,46.693301 245.00129,44.919208 245.07225,41.158275 242.51776,39.313383 237.40852,39.313383 Z" />
<path
   d="M 0,109.5448 H 84.952269 V 132.34122 H 27.426938 V 163.68629 H 78.184583 V 186.4827 H 27.426938 V 236.88416 H 0 Z"
   id="path32409"
   style="fill:#6e00e1" /><path
   d="M 158.52374,106.87335 Q 172.9496,106.87335 184.5259,111.50387 196.2803,116.13439 204.47276,124.86114 212.84332,133.4098 217.29575,145.69849 221.74817,157.80909 221.74817,173.12543 221.74817,188.26367 217.29575,200.55237 212.84332,212.84106 204.47276,221.56781 196.2803,230.29457 184.5259,234.92509 172.9496,239.55561 158.52374,239.55561 144.09788,239.55561 132.34348,234.92509 120.76717,230.29457 112.39662,221.56781 104.20415,212.84106 99.751734,200.55237 95.299308,188.26367 95.299308,173.12543 95.299308,157.80909 99.751734,145.69849 104.20415,133.4098 112.39662,124.86114 120.76717,116.13439 132.34348,111.50387 144.09788,106.87335 158.52374,106.87335 Z M 158.52374,215.69061 Q 169.38766,215.69061 177.22392,210.7039 185.06019,205.53908 189.15642,196.09994 193.25265,186.6608 193.25265,173.12543 193.25265,159.59006 189.15642,150.15092 185.06019,140.71178 177.22392,135.72506 169.38766,130.73834 158.52374,130.73834 147.65982,130.73834 139.82355,135.72506 131.98729,140.71178 127.89105,150.15092 123.79482,159.59006 123.79482,173.12543 123.79482,186.6608 127.89105,196.09994 131.98729,205.53908 139.82355,210.7039 147.65982,215.69061 158.52374,215.69061 Z"
   id="path32411"
   style="fill:#6e00e1" /><path
   d="M 294.14568,239.55561 Q 277.04837,239.55561 264.75967,233.14412 252.64908,226.55453 246.05949,214.26584 239.648,201.97714 239.648,184.70173 V 109.5448 H 267.07494 V 187.72938 Q 267.07494,201.26476 274.02072,208.56673 281.1446,215.69061 294.14568,215.69061 307.14676,215.69061 314.09254,208.56673 321.21642,201.26476 321.21642,187.72938 V 109.5448 H 348.64336 V 184.70173 Q 348.64336,201.97714 342.05377,214.26584 335.64228,226.55453 323.35359,233.14412 311.0649,239.55561 294.14568,239.55561 Z"
   id="path32413"
   style="fill:#6e00e1" /><path
   d="M 395.41824,190.57894 V 236.88416 H 368.34749 V 109.5448 H 414.83081 Q 439.94249,109.5448 453.29976,120.05252 466.83514,130.56025 466.83514,150.15092 466.83514,162.7958 460.77984,171.70065 454.90264,180.6055 443.86062,185.41412 451.87499,198.05901 459.71126,210.88199 467.54752,223.52688 475.38379,236.88416 H 443.86062 Q 431.03764,213.37535 417.32417,190.57894 415.89939,190.57894 414.65272,190.57894 Z M 395.41824,169.0292 H 413.22794 Q 425.87283,169.0292 432.46242,164.57677 439.052,159.94625 439.052,150.15092 439.052,140.35558 432.46242,135.72506 426.05092,131.09454 413.40604,131.09454 H 395.41824 Z"
   id="path32415"
   style="fill:#6e00e1" /></svg>
