<?xml version="1.0" encoding="UTF-8" standalone="no"?>
<!-- Generator: Adobe Illustrator 25.3.1, SVG Export Plug-In . SVG Version: 6.00 Build 0)  -->

<svg
   version="1.1"
   x="0px"
   y="0px"
   viewBox="0 0 368.30573 239.5556"
   xml:space="preserve"
   id="svg13816"
   xmlns="http://www.w3.org/2000/svg"
   xmlns:svg="http://www.w3.org/2000/svg"><defs
   id="defs19">
	</defs>
<path
   id="path6041"
   style="fill:#EB504A"
   d="M 66.601226,0 V 73.02 H 139.62127 V 0 Z M 157.85819,0 V 73.02 H 230.87739 V 0 Z M 249.04369,0 V 73.02 H 322.06291 V 0 Z M 288.85316,15.540341 C 291.12396,15.540341 293.25292,15.754169 295.3108,16.250874 297.3687,16.747588 299.21326,17.385892 300.98729,18.308419 V 26.256011 C 299.42612,25.191595 297.65276,24.411344 295.80773,23.843623 293.89175,23.27594 291.90425,22.991539 289.98829,23.062508 287.1498,23.062508 284.73729,23.559523 282.75036,24.623949 280.76342,25.617406 279.20248,27.249299 278.20899,29.165292 277.14458,31.152179 276.64756,33.564792 276.64756,36.403227 276.64756,39.241624 277.14458,41.725686 278.20899,43.712619 279.20248,45.699534 280.76377,47.261022 282.67973,48.325458 284.66668,49.389883 287.00807,49.886024 289.77557,49.886024 294.03326,49.886024 297.93665,48.751147 301.5557,46.55127 V 54.427405 H 301.48422 C 299.78112,55.349922 297.79483,56.13116 295.59501,56.627874 293.32425,57.19552 290.98199,57.408172 288.49832,57.408172 285.2341,57.408172 282.25389,56.911354 279.62833,55.988846 277.00274,54.995361 274.80294,53.646966 272.95797,51.872939 271.11294,50.098902 269.76493,47.899627 268.77144,45.274051 267.77799,42.648532 267.3521,39.738856 267.3521,36.474685 267.3521,33.281388 267.84863,30.443028 268.84207,27.817415 269.83556,25.26277 271.32568,23.062686 273.17071,21.2177 275.08667,19.372722 277.35757,17.953698 279.98316,17.031171 282.60874,16.037752 285.58892,15.540341 288.85316,15.540341 Z M 87.109263,15.966689 H 102.50752 C 107.04906,15.966689 110.59741,16.889225 113.08105,18.663233 115.5647,20.508211 116.84213,23.062592 116.84213,26.46871 116.84213,28.455681 116.41678,30.088355 115.49427,31.578526 114.57179,32.99772 113.29449,34.132297 111.52047,34.983901 113.93317,35.764453 115.77756,37.042358 117.05486,38.816414 118.33217,40.519492 118.97114,42.648315 118.97114,45.131945 119.04211,47.615658 118.40366,49.744087 117.12633,51.518105 115.84903,53.292142 114.0746,54.640866 111.80382,55.563373 109.46209,56.4859 106.69468,56.981862 103.5014,56.981862 H 87.109263 Z M 178.43687,15.966689 H 193.83513 C 198.37668,15.966689 201.92498,16.889225 204.40865,18.663233 206.89232,20.508211 208.16973,23.062592 208.16973,26.46871 208.16973,28.455681 207.74436,30.088355 206.82186,31.578526 205.89935,32.99772 204.62212,34.132297 202.84807,34.983901 205.26078,35.764453 207.10513,37.042358 208.38246,38.816414 209.65977,40.519492 210.29872,42.648315 210.29872,45.131945 210.22759,47.615658 209.5888,49.744087 208.38246,51.518105 207.10513,53.292142 205.33155,54.640866 203.06081,55.563373 200.71905,56.4859 197.95166,56.981862 194.75838,56.981862 H 178.43687 Z M 95.411703,22.637034 V 32.855736 H 101.72723 C 103.92705,32.855736 105.55952,32.358852 106.6949,31.436411 107.83029,30.513875 108.39759,29.165292 108.39759,27.53323 108.39759,24.268965 106.19782,22.637034 101.72723,22.637034 Z M 186.66867,22.637034 V 32.855736 H 192.98419 C 195.18402,32.855736 196.81647,32.358852 197.95186,31.436411 199.08726,30.513875 199.65457,29.165292 199.65457,27.53323 199.65457,24.268965 197.4548,22.637034 192.98419,22.637034 Z M 95.411703,39.313383 V 50.382993 H 102.64962 C 105.13328,50.382993 107.04933,49.886156 108.39759,48.96363 109.74588,48.041179 110.38449,46.693301 110.38449,44.919208 110.45551,41.158275 107.90096,39.313383 102.79173,39.313383 Z M 186.66867,39.313383 V 50.382993 H 193.90659 C 196.39023,50.382993 198.30629,49.886156 199.65457,48.96363 201.00283,48.041179 201.64146,46.693301 201.64146,44.919208 201.71242,41.158275 199.15793,39.313383 194.04869,39.313383 Z" />
<path
   d="M 63.550469,106.87335 Q 78.050722,106.87335 89.686712,111.50387 101.50173,116.13439 109.73645,124.86114 118.15016,133.4098 122.62556,145.69849 127.10093,157.80909 127.10093,173.12543 127.10093,188.26367 122.62556,200.55237 118.15016,212.84106 109.73645,221.56781 101.50173,230.29457 89.686712,234.92509 78.050722,239.55561 63.550469,239.55561 49.050221,239.55561 37.235205,234.92509 25.599203,230.29457 17.185479,221.56781 8.9507709,212.84106 4.475386,200.55237 0,188.26367 0,173.12543 0,157.80909 4.475386,145.69849 8.9507709,133.4098 17.185479,124.86114 25.599203,116.13439 37.235205,111.50387 49.050221,106.87335 63.550469,106.87335 Z M 63.550469,215.69061 Q 74.470412,215.69061 82.347082,210.7039 90.223762,205.53908 94.341122,196.09994 98.458472,186.6608 98.458472,173.12543 98.458472,159.59006 94.341122,150.15092 90.223762,140.71178 82.347082,135.72506 74.470412,130.73834 63.550469,130.73834 52.630529,130.73834 44.753851,135.72506 36.877173,140.71178 32.759819,150.15092 28.642465,159.59006 28.642465,173.12543 28.642465,186.6608 32.759819,196.09994 36.877173,205.53908 44.753851,210.7039 52.630529,215.69061 63.550469,215.69061 Z"
   id="path4195"
   style="fill:#EB504A" /><path
   d="M 227.23265,236.88416 Q 213.34108,214.62203 199.09332,192.35991 184.84556,169.91968 170.954,148.90424 V 236.88416 H 144.59564 V 109.5448 H 172.37877 Q 186.80463,131.09454 200.6962,152.82237 214.76586,174.37211 228.65743,196.63423 V 109.5448 H 255.01578 V 236.88416 Z"
   id="path4197"
   style="fill:#EB504A" /><path
   d="M 277.29815,109.5448 H 364.92187 V 132.34122 H 304.72509 V 159.94625 H 358.15419 V 182.74267 H 304.72509 V 214.08774 H 368.30572 V 236.88416 H 277.29815 Z"
   id="path4199"
   style="fill:#EB504A" /></svg>
