<?xml version="1.0" encoding="utf-8"?>
<svg width="1331.627" height="547.17401" viewBox="0 0 352.32631 144.77312" version="1.1" id="svg8" xmlns="http://www.w3.org/2000/svg">
  <g id="layer1" transform="translate(0,-152.22687)">
    <g id="g1073" transform="matrix(0.26458333,0,0,0.26458333,0.13298507,152.52734)" style="fill:#8afa13;fill-opacity:1">
      <path style="fill-opacity: 1; fill: rgb(137, 255, 0);" d="M 371.97538,0 V 168.66752 H 539.95411 V 0 Z M 581.9072,0 V 168.66752 H 749.88399 V 0 Z M 791.6746,0 V 168.66752 H 959.65145 V 0 Z m 91.57956,35.89634 c 5.22388,0 10.12144,0.49392 14.85549,1.64125 4.73407,1.14734 8.97739,2.62174 13.05843,4.75269 v 18.358 c -3.59138,-2.45871 -7.6709,-4.26098 -11.91526,-5.57235 -4.40763,-1.31127 -8.97978,-1.96822 -13.38734,-1.80428 -6.5298,0 -12.07965,1.14804 -16.65047,3.60675 -4.57085,2.29478 -8.16171,6.06425 -10.44717,10.48997 -2.44862,4.58945 -3.59199,10.16231 -3.59199,16.71877 0,6.55636 1.14337,12.29425 3.59199,16.8838 2.28546,4.58955 5.87711,8.1964 10.2847,10.65511 4.57085,2.45871 9.95711,3.60474 16.32359,3.60474 9.79461,0 18.77413,-2.62144 27.09957,-7.70289 v 18.19292 h -0.16444 c -3.91788,2.13093 -8.48725,3.93548 -13.54781,5.08285 -5.22374,1.31119 -10.61202,1.80239 -16.32555,1.80239 -7.50917,0 -14.36498,-1.14761 -20.40495,-3.27849 -6.04003,-2.29482 -11.10056,-5.40945 -15.34482,-9.50725 -4.2444,-4.09782 -7.34543,-9.17787 -9.63088,-15.24263 -2.28537,-6.06465 -3.26513,-12.78565 -3.26513,-20.32551 0,-7.37613 1.14224,-13.93239 3.4276,-19.99725 2.28547,-5.90092 5.71344,-10.98288 9.9578,-15.24456 4.40758,-4.26169 9.63167,-7.53946 15.67169,-9.67041 6.04003,-2.29467 12.89575,-3.44362 20.40495,-3.44362 z m -464.10114,0.98481 h 35.42287 c 10.44757,0 18.61037,2.13095 24.32387,6.2287 5.7135,4.26168 8.65215,10.162 8.65215,18.02973 0,4.58965 -0.97851,8.36094 -3.10069,11.80306 -2.12211,3.27818 -5.06045,5.89891 -9.14151,7.86602 5.55027,1.80297 9.79322,4.75479 12.73158,8.85264 2.93837,3.93392 4.40828,8.85124 4.40828,14.58812 0.16326,5.73709 -1.30545,10.6535 -4.24387,14.75128 -2.93837,4.09781 -7.02034,7.21321 -12.24414,9.34409 -5.38705,2.13093 -11.75333,3.27653 -19.0993,3.27653 h -37.70924 z m 210.09431,0 h 35.4229 c 10.44759,0 18.61026,2.13095 24.32385,6.2287 5.71352,4.26168 8.65213,10.162 8.65213,18.02973 0,4.58965 -0.97853,8.36094 -3.10068,11.80306 -2.1222,3.27818 -5.06043,5.89891 -9.14152,7.86602 5.55032,1.80297 9.79316,4.75479 12.73159,8.85264 2.93838,3.93392 4.40826,8.85124 4.40826,14.58812 -0.16364,5.73709 -1.63316,10.6535 -4.40826,14.75128 -2.93843,4.09781 -7.01847,7.21321 -12.24219,9.34409 -5.38709,2.13093 -11.75334,3.27653 -19.0993,3.27653 h -37.54678 z m -190.995,15.4077 v 23.604 h 14.52854 c 5.06058,0 8.81598,-1.14774 11.42787,-3.27848 2.61189,-2.13095 3.91695,-5.246 3.91695,-9.01588 0,-7.54006 -5.06046,-11.30964 -15.34482,-11.30964 z m 209.93183,0 v 23.604 h 14.52854 c 5.06059,0 8.81593,-1.14774 11.42787,-3.27848 2.6119,-2.13095 3.91697,-5.246 3.91697,-9.01588 0,-7.54006 -5.06045,-11.30964 -15.34484,-11.30964 z M 438.25233,90.80924 v 25.56949 h 16.65047 c 5.71353,0 10.12127,-1.14764 13.22289,-3.27858 3.10164,-2.13074 4.57076,-5.24418 4.57076,-9.34214 0.16337,-8.68729 -5.71323,-12.94877 -17.46675,-12.94877 z m 209.93183,0 v 25.56949 h 16.65045 c 5.7135,0 10.12129,-1.14764 13.22293,-3.27858 3.10162,-2.13074 4.57074,-5.24418 4.57074,-9.34214 0.16325,-8.68729 -5.71324,-12.94877 -17.46677,-12.94877 z" id="path6041"/>
      <path id="path8286" d="m 1121.3997,253.03509 h 202.4148 v 52.66268 H 1184.769 v 63.76936 h 123.4208 v 52.66266 H 1184.769 v 72.40531 h 146.8578 v 52.63914 h -210.2271 z" style="fill-opacity: 1; fill: rgb(137, 255, 0);"/>
      <path id="path8284" d="m 872.53438,253.03509 h 202.39132 v 52.66268 H 935.88017 v 63.76936 H 1059.301 v 52.66266 H 935.88017 v 72.40531 h 146.85793 v 52.63914 H 872.51084 V 253.03509 Z" style="fill-opacity: 1; fill: rgb(137, 255, 0);"/>
      <path d="m 593.2207,253.03516 v 294.13867 h 62.52149 V 440.22461 h 44.42578 6.16601 l 61.29883,106.94922 h 72.82813 l -36.21485,-60.26367 -36.61328,-58.61524 c 17.01301,-7.38876 30.09622,-17.95517 39.29688,-31.67383 9.20068,-13.71864 13.78906,-30.30723 13.78906,-49.79101 0,-30.16691 -10.35316,-53.36927 -31.06055,-69.53516 -20.70742,-16.16589 -50.40475,-24.25976 -89.0664,-24.25976 z m 62.54492,49.79101 h 41.53321 c 19.46024,0 34.21411,3.55366 44.21484,10.6836 10.00074,7.12994 15.01172,18.23686 15.01172,33.32031 0,15.08345 -5.08269,26.12062 -15.22461,33.10937 -10.14191,6.98875 -24.94202,10.49414 -44.42578,10.49414 h -41.10938 v 0.0234 l -0.0234,-0.0234 h 0.0234 z" style="fill-opacity: 1; fill: rgb(137, 255, 0);" id="path8280"/>
      <path id="path8278" d="M 477.61139,547.17424 V 420.88265 H 349.67263 V 547.17424 H 286.3033 V 253.03509 h 63.36933 V 365.74921 H 477.61139 V 253.03509 h 63.3458 v 294.13915 z" style="fill-opacity: 1; fill: rgb(137, 255, 0);"/>
      <path id="path1052" d="m 0,253.03509 h 248.46523 v 55.13344 H 155.91729 V 547.17424 H 92.571468 V 308.16853 H 0 Z" style="fill-opacity: 1; fill: rgb(137, 255, 0);"/>
    </g>
  </g>
  <style id="style905" type="text/css">
	.st0{fill:#FF4C98;}
	.st1{fill:#FFFFFF;}
</style>
  <style id="style966" type="text/css">
	.st0{fill:#FF4C98;}
	.st1{fill:#FFFFFF;}
</style>
  <style id="style997" type="text/css">
	.st0{fill:#FF4C98;}
	.st1{fill:#FFFFFF;}
</style>
</svg>