<?xml version="1.0" encoding="UTF-8" standalone="no"?>
<svg xmlns:dc="http://purl.org/dc/elements/1.1/" xmlns:cc="http://creativecommons.org/ns#" xmlns:rdf="http://www.w3.org/1999/02/22-rdf-syntax-ns#" xmlns:svg="http://www.w3.org/2000/svg" xmlns="http://www.w3.org/2000/svg" id="svg3524" version="1.1" viewBox="0 0 264.5833272454602 91.71761969015671" height="346.6492614746094" width="1000">
 <defs id="defs3518">
  <clipPath id="clipPath726" clipPathUnits="userSpaceOnUse">
   <path id="path724" d="M 0,0 H 595.2759999999999 V 595.2759999999999 H 0 Z" />
  </clipPath>
 </defs>
 <metadata id="metadata3521">
  <rdf:RDF>
   <cc:Work rdf:about="">
    <dc:format>image/svg+xml</dc:format>
    <dc:type rdf:resource="http://purl.org/dc/dcmitype/StillImage" />
    <dc:title></dc:title>
   </cc:Work>
  </rdf:RDF>
 </metadata>
 <g transform="translate(-121.1609230158733,-157.6454858263591)" id="layer1">
  <g id="g720" transform="matrix(10.785232893092,0,0,-10.785232893092,-633.1474802940879,5027.417569227623)">
   <g clip-path="url(#clipPath726)" id="g722">
    <g transform="translate(87.63499999999999,448.2752)" id="g728">
     <path id="path730" style="fill:#010101" d="M 0,0 0.165,-0.6959999999999999 -0.3660000000000001,-0.7610000000000001 Z M 6.836000000000002,3.247 6.051000000000001,-2.341 -17.696,-5.257 -16.911,0.3310000000000001 Z M 3.506,0.127 4.586000000000002,1.701 3.46,1.563 2.957,0.785 2.539,1.45 1.488,1.321 2.34,0.026 1.367,-1.393 0.6390000000000001,1.212 -0.3240000000000001,1.094 -1.872,-1.853 -1.475,0.957 -2.542,0.8260000000000001 -3.314,-0.306 -3.788,0.6730000000000001 -4.747,0.555 -5.171000000000002,-2.447 -4.22,-2.330999999999999 -4.011000000000001,-0.8420000000000001 -3.494,-1.828 -3.477,-1.826 -2.657,-0.676 -2.866,-2.164 -1.978,-2.055 -1.899,-2.046 -0.9190000000000001,-1.925 -0.7129999999999999,-1.504 0.304,-1.379 0.401,-1.763 1.179,-1.668 1.436,-1.636 2.304,-1.53 2.894999999999999,-0.6219999999999997 3.350999999999999,-1.401 4.401000000000001,-1.272 Z M -6.734,-0.797 -6.692000000000001,-0.4930000000000001 -5.166999999999999,-0.306 -5.049000000000003,0.5179999999999997 -7.529,0.214 -7.952,-2.789 -5.475000000000004,-2.485 -5.360000000000002,-1.661 -6.883,-1.848 -6.835,-1.522 -5.415,-1.348 -5.314,-0.6230000000000001 Z M -11.163,-3.183 -10.199,-3.065 -9.986,-1.572 -9.119999999999999,-2.932 -8.256,-2.826 -7.832,0.176 -8.794999999999998,0.058 -8.999,-1.375 -9.83,-0.069 -10.739,-0.181 Z M -11.038,-0.217 -12.009,-0.3360000000000001 -12.433,-3.338999999999999 -11.462,-3.22 Z M -15.162,-3.157 C -15.19,-3.425 -14.915,-3.645 -14.552,-3.601 -14.551,-3.601 -14.551,-3.601 -14.55,-3.601 L -12.739,-3.378 -12.614,-2.539 -13.845,-2.69 C -14.008,-2.71 -14.155,-2.659 -14.126,-2.449 L -14.018,-1.688 C -13.986,-1.446 -13.781,-1.381 -13.567,-1.355 L -12.426,-1.216 -12.306,-0.3740000000000001 -14.312,-0.6209999999999999 C -14.592,-0.6550000000000001 -14.809,-0.833 -14.874,-1.096 Z" />
    </g>
   </g>
  </g>
 </g>
</svg>
