<?xml version="1.0" encoding="utf-8"?>
<!-- Generator: Adobe Illustrator 16.0.0, SVG Export Plug-In . SVG Version: 6.00 Build 0)  -->
<!DOCTYPE svg PUBLIC "-//W3C//DTD SVG 1.1//EN" "http://www.w3.org/Graphics/SVG/1.1/DTD/svg11.dtd">
<svg version="1.1" id="Layer_1" xmlns="http://www.w3.org/2000/svg" xmlns:xlink="http://www.w3.org/1999/xlink" x="0px" y="0px"
	 width="349.2px" height="126px" viewBox="0 0 349.2 126" enable-background="new 0 0 349.2 126" xml:space="preserve">
<polygon fill="#000" points="333.189,80.413 12.685,111.124 12.685,51.561 333.189,20.854 "/>
<path fill="#FEBE20" d="M257.013,48.161l2.443,10.299l-7.852,0.964L257.013,48.161z M348.94,0.172l-11.606,82.59L0.062,125.865l11.602-82.598
	L348.94,0.172z M308.823,46.289l15.963-23.271l-16.633,2.044l-7.441,11.493l-6.186-9.824L279,28.635l12.592,19.141L277.22,68.75
	l-10.768-38.505l-14.228,1.759L229.36,75.561l5.863-41.539l-15.775,1.931l-11.393,16.722l-7.021-14.46l-14.167,1.741l-6.248,44.388
	l14.04-1.732l3.087-22.003l7.648,14.578l0.25-0.023l12.105-17.005l-3.092,22l13.132-1.609l1.171-0.15l14.475-1.773l3.033-6.223
	l15.045-1.855l1.443,5.682l11.479-1.416l3.791-0.457l12.833-1.582l8.733-13.411l6.73,11.51l15.526-1.908L308.823,46.289z
	 M157.502,59.952l0.638-4.505l22.519-2.772l1.74-12.171l-36.632,4.505l-6.26,44.375l36.603-4.496l1.694-12.166l-22.507,2.764
	l0.721-4.826l20.98-2.574l1.49-10.706L157.502,59.952z M92.066,95.209l14.234-1.736l3.151-22.078l12.809,20.109l12.757-1.568
	l6.264-44.375l-14.232,1.732l-3.011,21.194l-12.28-19.308l-13.435,1.656L92.066,95.209z M93.911,51.368l-14.352,1.764l-6.271,44.38
	l14.361-1.756L93.911,51.368z M32.974,94.82c-0.407,3.961,3.647,7.227,9.012,6.572c0.006,0,0.009,0,0.024,0l26.769-3.303
	l1.852-12.396l-18.199,2.229c-2.406,0.303-4.576-0.451-4.153-3.568l1.597-11.244c0.477-3.572,3.497-4.537,6.661-4.912l16.859-2.062
	l1.772-12.442l-29.644,3.641c-4.133,0.511-7.332,3.144-8.299,7.024L32.974,94.82L32.974,94.82z"/>
</svg>
