<svg xmlns="http://www.w3.org/2000/svg" viewBox="0 0 595.28 255.12"><defs><style>.cls-1{fill:#fff;}.cls-2{fill:#d22027;}</style></defs><title>Vt copy 3</title><g id="ACTION"><path class="cls-1" d="M186.77,84c0,11.47,12.92,20.77,28.84,20.77a36.14,36.14,0,0,0,18.5-4.83,1,1,0,0,0,.45-.81V94.78A1,1,0,0,0,233,94c-4.31,3.2-10.58,5.25-17.43,5.25-12.64,0-23.31-7-23.31-15.25S203,68.79,215.61,68.79c6.85,0,13.12,2,17.43,5.25a1,1,0,0,0,1.52-.74V68.92a1,1,0,0,0-.45-.82,36.14,36.14,0,0,0-18.5-4.83C199.69,63.27,186.77,72.57,186.77,84Zm-65.71-8h7.28a.94.94,0,0,1,.94.94V95a.94.94,0,0,0,.94.94h3.65a.94.94,0,0,0,.94-.94V76.94a.94.94,0,0,1,.94-.94H143a.94.94,0,0,0,.94-.94v-2a.94.94,0,0,0-.94-.94h-22a.94.94,0,0,0-.94.94v2A.94.94,0,0,0,121.06,76ZM246.77,96h3.65a.94.94,0,0,0,.94-.94v-22a.94.94,0,0,0-.94-.94h-3.65a.94.94,0,0,0-.94.94V95A.94.94,0,0,0,246.77,96Zm85.64-20.91v-2a.94.94,0,0,0-.94-.94H305a.94.94,0,0,0-.94.94V95A.94.94,0,0,0,305,96h26.49a.94.94,0,0,0,.94-.94V93a.94.94,0,0,0-.94-.94h-21a.94.94,0,0,1-.94-.94V87a.94.94,0,0,1,.94-.94h13.4a.94.94,0,0,0,.94-.94V83a.94.94,0,0,0-.94-.94h-13.4a.94.94,0,0,1-.94-.94v-4.2a.94.94,0,0,1,.94-.94h21A.94.94,0,0,0,332.41,75.06ZM288,92.75,271.75,72.47a.93.93,0,0,0-.73-.36h-9.88a.94.94,0,0,0-.94.94V95a.94.94,0,0,0,.94.94h3.64a.94.94,0,0,0,.94-.94V75.93a.94.94,0,0,1,1.67-.59l16.26,20.28a1,1,0,0,0,.74.35h9.87a.94.94,0,0,0,.94-.94v-22a.94.94,0,0,0-.94-.94h-3.64a.94.94,0,0,0-.94.94V92.16A.94.94,0,0,1,288,92.75Zm-130.8-.59V73.05a.94.94,0,0,0-.93-.94h-3.65a.94.94,0,0,0-.94.94V95a.94.94,0,0,0,.94.94h9.88a1,1,0,0,0,.73-.35l17.62-22a.94.94,0,0,0-.73-1.53h-4.25a.93.93,0,0,0-.74.36L158.89,92.75A.94.94,0,0,1,157.21,92.16Z"/><path class="cls-2" d="M246,189.75l9-68.18c.19-1.43.76-1.71,1.62-1.71h4.86c.86,0,1.44.28,1.63,1.71l9,68.18c.19,1.15-.48,1.62-1.14,1.62h-5c-.57,0-1.24-.28-1.34-1.43l-.76-7.53c-.1-.86-.29-1.43-.95-1.43h-7.73c-.67,0-.86.57-1,1.43l-.76,7.53c-.1,1.15-.77,1.43-1.34,1.43h-4.86A1.25,1.25,0,0,1,246,189.75Zm15.83-16c.47,0,.66-.38.57-1l-3-28.6a.43.43,0,1,0-.86,0l-2.95,28.6c-.1.67.09,1,.57,1Z"/><path class="cls-2" d="M280.8,134.16c0-9,4.49-14.78,12.5-14.78s12.39,5.81,12.39,14.78v7.72a1.35,1.35,0,0,1-1.43,1.43h-5.15a1.35,1.35,0,0,1-1.43-1.43v-5.72c0-6.29-.95-9.15-4.38-9.15-3.63,0-4.49,2.86-4.49,9.15v38.91c0,6.29.86,9.15,4.49,9.15,3.43,0,4.38-2.86,4.38-9.15v-5.72a1.36,1.36,0,0,1,1.43-1.44h5.15a1.36,1.36,0,0,1,1.43,1.44v7.72c0,9-4.48,14.78-12.39,14.78s-12.5-5.82-12.5-14.78Z"/><path class="cls-2" d="M313.8,121.29a1.35,1.35,0,0,1,1.43-1.43h18.69a1.3,1.3,0,0,1,1.43,1.43v4.76a1.35,1.35,0,0,1-1.43,1.43h-4a1.36,1.36,0,0,0-1.43,1.43v61a1.3,1.3,0,0,1-1.43,1.43H321.9a1.35,1.35,0,0,1-1.43-1.43v-61a1.35,1.35,0,0,0-1.43-1.43h-3.81a1.3,1.3,0,0,1-1.43-1.43Z"/><path class="cls-2" d="M345.08,189.94V121.29a1.3,1.3,0,0,1,1.43-1.43h5.15a1.35,1.35,0,0,1,1.43,1.43v68.65a1.3,1.3,0,0,1-1.43,1.43h-5.15A1.35,1.35,0,0,1,345.08,189.94Z"/><path class="cls-2" d="M365.1,134.16c0-9,4.48-14.78,12.49-14.78s12.4,5.81,12.4,14.78v42.91c0,9-4.48,14.78-12.4,14.78S365.1,186,365.1,177.07Zm12.49,50.06c3.53,0,4.39-2.86,4.39-9.15V136.16c0-6.29-.86-9.15-4.39-9.15s-4.48,2.86-4.48,9.15v38.91C373.11,181.36,374,184.22,377.59,184.22Z"/><path class="cls-2" d="M402,189.94V121.29a1.35,1.35,0,0,1,1.42-1.43H408a1.48,1.48,0,0,1,1.72,1.23l11.35,38.72c.19.67.95.57.95-.1V121.29a1.35,1.35,0,0,1,1.43-1.43h5.15a1.35,1.35,0,0,1,1.43,1.43v68.65a1.35,1.35,0,0,1-1.43,1.43h-5c-.67,0-1-.28-1.33-1.24L410.87,151.7c-.19-.66-.95-.57-.95.1v38.14a1.28,1.28,0,0,1-1.34,1.43h-5.15A1.35,1.35,0,0,1,402,189.94Z"/></g></svg>