<svg xmlns="http://www.w3.org/2000/svg" viewBox="0 0 595.28 255.12"><defs><style>.cls-1{fill:#fff;}.cls-2{fill:#d2aa47;}</style></defs><title>Vt copy</title><g id="EDITION"><path class="cls-1" d="M186.77,84.44c0,11.47,12.92,20.77,28.84,20.77a36,36,0,0,0,18.5-4.83,1,1,0,0,0,.45-.81V95.18a1,1,0,0,0-1.52-.74c-4.31,3.2-10.58,5.25-17.43,5.25-12.64,0-23.31-7-23.31-15.25S203,69.19,215.61,69.19A29.77,29.77,0,0,1,233,74.44a.94.94,0,0,0,1.52-.74V69.32a1,1,0,0,0-.45-.81,36,36,0,0,0-18.5-4.84C199.69,63.67,186.77,73,186.77,84.44Zm-65.71-8h7.28a.94.94,0,0,1,.94.94V95.43a.94.94,0,0,0,.94.94h3.65a.94.94,0,0,0,.94-.94V77.34a.94.94,0,0,1,.94-.94H143a.94.94,0,0,0,.94-.94v-2a.94.94,0,0,0-.94-.94h-22a.94.94,0,0,0-.94.94v2A.94.94,0,0,0,121.06,76.4Zm125.71,20h3.65a1,1,0,0,0,.94-.94v-22a.94.94,0,0,0-.94-.94h-3.65a.94.94,0,0,0-.94.94v22A1,1,0,0,0,246.77,96.38Zm85.64-20.92v-2a.94.94,0,0,0-.94-.94H305a.94.94,0,0,0-.94.94v22a1,1,0,0,0,.94.94h26.49a1,1,0,0,0,.94-.94v-2a.94.94,0,0,0-.94-.94h-21a.94.94,0,0,1-.94-.94v-3.4a.94.94,0,0,1,.94-.94h13.4a.94.94,0,0,0,.94-.94V82.62a.94.94,0,0,0-.94-.94h-13.4a.94.94,0,0,1-.94-.94v-3.4a.94.94,0,0,1,.94-.94h21A.94.94,0,0,0,332.41,75.46ZM288,93.15,271.75,72.87a1,1,0,0,0-.73-.35h-9.88a.94.94,0,0,0-.94.94v22a1,1,0,0,0,.94.94h3.64a1,1,0,0,0,.94-.94V76.33a.94.94,0,0,1,1.67-.59L283.65,96a.93.93,0,0,0,.74.36h9.87a1,1,0,0,0,.94-.94v-22a.94.94,0,0,0-.94-.94h-3.64a.94.94,0,0,0-.94.94v19.1A.94.94,0,0,1,288,93.15Zm-130.8-.59V73.46a.94.94,0,0,0-.93-.94h-3.65a.94.94,0,0,0-.94.94v22a1,1,0,0,0,.94.94h9.88a.93.93,0,0,0,.73-.36l17.62-22a.93.93,0,0,0-.73-1.52h-4.25a1,1,0,0,0-.74.35L158.89,93.15A.94.94,0,0,1,157.21,92.56Z"/><path class="cls-2" d="M246.37,121a1.3,1.3,0,0,1,1.43-1.43h15.61a1.35,1.35,0,0,1,1.43,1.43v4.38a1.35,1.35,0,0,1-1.43,1.43h-7.62a1.35,1.35,0,0,0-1.42,1.43v21.61a1.35,1.35,0,0,0,1.42,1.43h7.62a1.35,1.35,0,0,1,1.43,1.43v4.38a1.35,1.35,0,0,1-1.43,1.42h-7.62a1.35,1.35,0,0,0-1.42,1.43v22.38a1.35,1.35,0,0,0,1.42,1.43h7.62a1.35,1.35,0,0,1,1.43,1.42v4.38a1.35,1.35,0,0,1-1.43,1.43H247.8a1.35,1.35,0,0,1-1.43-1.43Z"/><path class="cls-2" d="M277.79,121a1.3,1.3,0,0,1,1.42-1.43h11.05c7.9,0,12.38,5.81,12.38,14.76v41.89c0,8.95-4.48,14.76-12.38,14.76H279.21a1.35,1.35,0,0,1-1.42-1.43Zm9.42,62.36h3.05c3.52,0,4.38-2.85,4.38-9.14V136.32c0-6.29-.86-9.14-4.38-9.14h-3.05a1.35,1.35,0,0,0-1.43,1.43v53.32A1.35,1.35,0,0,0,287.21,183.35Z"/><path class="cls-2" d="M315.68,189.54V121a1.3,1.3,0,0,1,1.43-1.43h5.14a1.35,1.35,0,0,1,1.43,1.43v68.55a1.3,1.3,0,0,1-1.43,1.43h-5.14A1.35,1.35,0,0,1,315.68,189.54Z"/><path class="cls-2" d="M334.43,121a1.35,1.35,0,0,1,1.43-1.43h18.67A1.3,1.3,0,0,1,356,121v4.76a1.35,1.35,0,0,1-1.42,1.43h-4a1.35,1.35,0,0,0-1.43,1.43v60.93a1.3,1.3,0,0,1-1.43,1.43h-5.14a1.35,1.35,0,0,1-1.43-1.43V128.61a1.35,1.35,0,0,0-1.43-1.43h-3.81a1.31,1.31,0,0,1-1.43-1.43Z"/><path class="cls-2" d="M366.71,189.54V121a1.3,1.3,0,0,1,1.43-1.43h5.14a1.35,1.35,0,0,1,1.43,1.43v68.55a1.3,1.3,0,0,1-1.43,1.43h-5.14A1.35,1.35,0,0,1,366.71,189.54Z"/><path class="cls-2" d="M387.75,133.84c0-9,4.48-14.76,12.47-14.76s12.38,5.81,12.38,14.76v42.85c0,8.95-4.47,14.76-12.38,14.76s-12.47-5.81-12.47-14.76Zm12.47,50c3.53,0,4.39-2.86,4.39-9.14V135.84c0-6.28-.86-9.14-4.39-9.14s-4.47,2.86-4.47,9.14v38.85C395.75,181,396.61,183.83,400.22,183.83Z"/><path class="cls-2" d="M425.64,189.54V121a1.35,1.35,0,0,1,1.43-1.43h4.57a1.48,1.48,0,0,1,1.72,1.24l11.33,38.66c.19.66.95.57.95-.1V121a1.35,1.35,0,0,1,1.43-1.43h5.14a1.35,1.35,0,0,1,1.43,1.43v68.55a1.35,1.35,0,0,1-1.43,1.43h-4.95c-.67,0-1.05-.28-1.33-1.24L434.5,151.36c-.19-.66-.95-.57-.95.1v38.08a1.28,1.28,0,0,1-1.33,1.43h-5.15A1.35,1.35,0,0,1,425.64,189.54Z"/></g></svg>