<svg xmlns="http://www.w3.org/2000/svg" viewBox="0 0 595.28 255.12"><defs><style>.cls-1{fill:#1baa63;}.cls-2{fill:#fff;}</style></defs><title>Vt</title><g id="TOP"><path class="cls-1" d="M243.13,121a1.35,1.35,0,0,1,1.43-1.43h18.66a1.3,1.3,0,0,1,1.43,1.43v4.76a1.35,1.35,0,0,1-1.43,1.43h-4a1.35,1.35,0,0,0-1.43,1.43v60.93a1.3,1.3,0,0,1-1.42,1.43h-5.15a1.35,1.35,0,0,1-1.42-1.43V128.61a1.35,1.35,0,0,0-1.43-1.43h-3.81a1.3,1.3,0,0,1-1.43-1.43Z"/><path class="cls-1" d="M274.45,133.84c0-9,4.48-14.76,12.48-14.76s12.38,5.81,12.38,14.76v42.85c0,8.95-4.48,14.76-12.38,14.76s-12.48-5.81-12.48-14.76Zm12.48,50c3.52,0,4.38-2.86,4.38-9.14V135.84c0-6.28-.86-9.14-4.38-9.14s-4.48,2.86-4.48,9.14v38.85C282.45,181,283.31,183.83,286.93,183.83Z"/><path class="cls-1" d="M312.35,189.54V121a1.3,1.3,0,0,1,1.43-1.43h11c7.81,0,12.38,5.81,12.38,14.76v15.9c0,9.05-4.57,14.76-12.38,14.76h-3.05a1.35,1.35,0,0,0-1.42,1.43v23.13a1.3,1.3,0,0,1-1.43,1.43h-5.14A1.35,1.35,0,0,1,312.35,189.54Zm12.47-32.18c3.43,0,4.38-2.86,4.38-9.14v-11.9c0-6.29-.95-9.14-4.38-9.14h-3.05a1.35,1.35,0,0,0-1.42,1.43v27.32a1.35,1.35,0,0,0,1.42,1.43Z"/><path class="cls-2" d="M186.77,84.44c0,11.47,12.92,20.77,28.84,20.77a36,36,0,0,0,18.5-4.83,1,1,0,0,0,.45-.81V95.18a1,1,0,0,0-1.52-.74c-4.31,3.2-10.58,5.25-17.43,5.25-12.64,0-23.31-7-23.31-15.25S203,69.19,215.61,69.19A29.77,29.77,0,0,1,233,74.44a.94.94,0,0,0,1.52-.74V69.32a1,1,0,0,0-.45-.81,36,36,0,0,0-18.5-4.84C199.69,63.67,186.77,73,186.77,84.44Zm-65.71-8h7.28a.94.94,0,0,1,.94.94V95.43a.94.94,0,0,0,.94.94h3.65a.94.94,0,0,0,.94-.94V77.34a.94.94,0,0,1,.94-.94H143a.94.94,0,0,0,.94-.94v-2a.94.94,0,0,0-.94-.94h-22a.94.94,0,0,0-.94.94v2A.94.94,0,0,0,121.06,76.4Zm125.71,20h3.65a1,1,0,0,0,.94-.94v-22a.94.94,0,0,0-.94-.94h-3.65a.94.94,0,0,0-.94.94v22A1,1,0,0,0,246.77,96.38Zm85.64-20.92v-2a.94.94,0,0,0-.94-.94H305a.94.94,0,0,0-.94.94v22a1,1,0,0,0,.94.94h26.49a1,1,0,0,0,.94-.94v-2a.94.94,0,0,0-.94-.94h-21a.94.94,0,0,1-.94-.94v-3.4a.94.94,0,0,1,.94-.94h13.4a.94.94,0,0,0,.94-.94V82.62a.94.94,0,0,0-.94-.94h-13.4a.94.94,0,0,1-.94-.94v-3.4a.94.94,0,0,1,.94-.94h21A.94.94,0,0,0,332.41,75.46ZM288,93.15,271.75,72.87a1,1,0,0,0-.73-.35h-9.88a.94.94,0,0,0-.94.94v22a1,1,0,0,0,.94.94h3.64a1,1,0,0,0,.94-.94V76.33a.94.94,0,0,1,1.67-.59L283.65,96a.93.93,0,0,0,.74.36h9.87a1,1,0,0,0,.94-.94v-22a.94.94,0,0,0-.94-.94h-3.64a.94.94,0,0,0-.94.94v19.1A.94.94,0,0,1,288,93.15Zm-130.8-.59V73.46a.94.94,0,0,0-.93-.94h-3.65a.94.94,0,0,0-.94.94v22a1,1,0,0,0,.94.94h9.88a.93.93,0,0,0,.73-.36l17.62-22a.93.93,0,0,0-.73-1.52h-4.25a1,1,0,0,0-.74.35L158.89,93.15A.94.94,0,0,1,157.21,92.56Z"/></g></svg>