<svg xmlns="http://www.w3.org/2000/svg" viewBox="0 0 595.28 255.12"><defs><style>.cls-1{fill:#fff;}.cls-2{fill:#1f95d2;}</style></defs><title>Vt copy 2</title><g id="EMOTION"><path class="cls-1" d="M186.77,83.94c0,11.47,12.92,20.77,28.84,20.77a36,36,0,0,0,18.5-4.83,1,1,0,0,0,.45-.81V94.69a1,1,0,0,0-1.52-.75c-4.31,3.2-10.58,5.25-17.43,5.25-12.64,0-23.31-7-23.31-15.25S203,68.7,215.61,68.7c6.85,0,13.12,2,17.43,5.24a.94.94,0,0,0,1.52-.74V68.82a1,1,0,0,0-.45-.81,36,36,0,0,0-18.5-4.84C199.69,63.17,186.77,72.47,186.77,83.94Zm-65.71-8h7.28a.94.94,0,0,1,.94.94V94.93a.94.94,0,0,0,.94.94h3.65a.94.94,0,0,0,.94-.94V76.84a.94.94,0,0,1,.94-.94H143A.94.94,0,0,0,144,75V73A.94.94,0,0,0,143,72h-22a.94.94,0,0,0-.94.94v2A.94.94,0,0,0,121.06,75.9Zm125.71,20h3.65a.94.94,0,0,0,.94-.94V73a.94.94,0,0,0-.94-.94h-3.65a.94.94,0,0,0-.94.94v22A.94.94,0,0,0,246.77,95.88ZM332.41,75V73a.94.94,0,0,0-.94-.94H305A.94.94,0,0,0,304,73v22a.94.94,0,0,0,.94.94h26.49a.94.94,0,0,0,.94-.94v-2a.94.94,0,0,0-.94-.94h-21a.94.94,0,0,1-.94-.94v-3.4a.94.94,0,0,1,.94-.94h13.4a.94.94,0,0,0,.94-.94V82.12a.94.94,0,0,0-.94-.94h-13.4a.94.94,0,0,1-.94-.94v-3.4a.94.94,0,0,1,.94-.94h21A.94.94,0,0,0,332.41,75ZM288,92.65,271.75,72.37A1,1,0,0,0,271,72h-9.88a.94.94,0,0,0-.94.94v22a.94.94,0,0,0,.94.94h3.64a.94.94,0,0,0,.94-.94V75.83a.94.94,0,0,1,1.67-.59l16.26,20.28a.93.93,0,0,0,.74.36h9.87a.94.94,0,0,0,.94-.94V73a.94.94,0,0,0-.94-.94h-3.64a.94.94,0,0,0-.94.94v19.1A.94.94,0,0,1,288,92.65Zm-130.8-.59V73a.94.94,0,0,0-.93-.94h-3.65a.94.94,0,0,0-.94.94v22a.94.94,0,0,0,.94.94h9.88a.93.93,0,0,0,.73-.36l17.62-22a.93.93,0,0,0-.73-1.52h-4.25a1,1,0,0,0-.74.35L158.89,92.65A.94.94,0,0,1,157.21,92.06Z"/><path class="cls-2" d="M246.37,121.49a1.3,1.3,0,0,1,1.43-1.43h15.61a1.35,1.35,0,0,1,1.43,1.43v4.38a1.35,1.35,0,0,1-1.43,1.43h-7.62a1.34,1.34,0,0,0-1.42,1.42v21.62a1.35,1.35,0,0,0,1.42,1.43h7.62a1.35,1.35,0,0,1,1.43,1.43v4.37a1.35,1.35,0,0,1-1.43,1.43h-7.62a1.35,1.35,0,0,0-1.42,1.43v22.38a1.35,1.35,0,0,0,1.42,1.43h7.62a1.35,1.35,0,0,1,1.43,1.42V190a1.35,1.35,0,0,1-1.43,1.43H247.8a1.35,1.35,0,0,1-1.43-1.43Z"/><path class="cls-2" d="M276.74,190V121.49a1.27,1.27,0,0,1,1.33-1.43h5.43c.86,0,1.33.57,1.52,1.43l9.52,34.09a.58.58,0,0,0,1.15,0l9.52-34.09c.19-.86.66-1.43,1.52-1.43h5.33a1.35,1.35,0,0,1,1.43,1.43V190a1.35,1.35,0,0,1-1.43,1.43h-5.14a1.35,1.35,0,0,1-1.43-1.43v-39.7a.48.48,0,0,0-.95-.1l-5.33,20.47a1.61,1.61,0,0,1-1.52,1.43h-5.15a1.61,1.61,0,0,1-1.52-1.43l-5.33-20.47a.48.48,0,0,0-.95.1V190a1.35,1.35,0,0,1-1.43,1.43h-5.14A1.35,1.35,0,0,1,276.74,190Z"/><path class="cls-2" d="M325.49,134.34c0-9,4.47-14.76,12.47-14.76s12.38,5.81,12.38,14.76v42.85c0,8.95-4.48,14.76-12.38,14.76s-12.47-5.81-12.47-14.76Zm12.47,50c3.52,0,4.38-2.86,4.38-9.14V136.34c0-6.28-.86-9.14-4.38-9.14s-4.48,2.86-4.48,9.14v38.85C333.48,181.47,334.34,184.33,338,184.33Z"/><path class="cls-2" d="M359.1,121.49a1.35,1.35,0,0,1,1.42-1.43h18.66a1.3,1.3,0,0,1,1.43,1.43v4.76a1.35,1.35,0,0,1-1.43,1.43h-4a1.35,1.35,0,0,0-1.43,1.43V190a1.3,1.3,0,0,1-1.43,1.43h-5.14a1.35,1.35,0,0,1-1.43-1.43V129.11a1.35,1.35,0,0,0-1.43-1.43h-3.81a1.3,1.3,0,0,1-1.42-1.43Z"/><path class="cls-2" d="M390.32,190V121.49a1.3,1.3,0,0,1,1.43-1.43h5.14a1.35,1.35,0,0,1,1.43,1.43V190a1.3,1.3,0,0,1-1.43,1.43h-5.14A1.35,1.35,0,0,1,390.32,190Z"/><path class="cls-2" d="M410.32,134.34c0-9,4.47-14.76,12.47-14.76s12.38,5.81,12.38,14.76v42.85c0,8.95-4.48,14.76-12.38,14.76s-12.47-5.81-12.47-14.76Zm12.47,50c3.52,0,4.38-2.86,4.38-9.14V136.34c0-6.28-.86-9.14-4.38-9.14s-4.48,2.86-4.48,9.14v38.85C418.31,181.47,419.17,184.33,422.79,184.33Z"/><path class="cls-2" d="M447.16,190V121.49a1.35,1.35,0,0,1,1.43-1.43h4.57a1.47,1.47,0,0,1,1.71,1.24L466.21,160c.19.66,1,.57,1-.1V121.49a1.35,1.35,0,0,1,1.43-1.43h5.14a1.35,1.35,0,0,1,1.43,1.43V190a1.35,1.35,0,0,1-1.43,1.43h-5c-.67,0-1-.28-1.34-1.24L456,151.86c-.19-.66-.95-.57-.95.1V190a1.28,1.28,0,0,1-1.34,1.43h-5.14A1.35,1.35,0,0,1,447.16,190Z"/></g></svg>