<?xml version="1.0" encoding="utf-8"?>
<!-- Generator: Adobe Illustrator 23.0.1, SVG Export Plug-In . SVG Version: 6.00 Build 0)  -->
<svg version="1.1" id="svg" xmlns="http://www.w3.org/2000/svg" xmlns:xlink="http://www.w3.org/1999/xlink" x="0px" y="0px"
	 width="395.778px" height="187.227px" viewBox="0 0 395.778 187.227" enable-background="new 0 0 395.778 187.227"
	 xml:space="preserve">
<g>
	<path id="path0_1_" fill-rule="evenodd" clip-rule="evenodd" d="M63.172,94.487L0,167.728v18.697h25.698l72.935-84.092
		c4.314-4.973,4.305-12.364-0.019-17.328L25.698,1.308L0,1.229v19.14l63.167,72.468C63.579,93.309,63.581,94.013,63.172,94.487z"/>
	<path d="M197.958,8.645l-1.383,6.801c-0.154,0.769-0.346,1.345-0.576,1.729c-0.23,0.386-0.691,0.962-1.383,1.729l-42.537,47.954
		h30.317c2.306,0,3.458,1,3.458,2.997c0,0.769-0.039,1.268-0.115,1.499l-1.499,7.263c-0.385,2.152-0.922,3.573-1.614,4.265
		c-0.691,0.692-1.922,1.038-3.689,1.038h-50.144c-2.075,0-3.113-1.153-3.113-3.458c0-0.231,0.02-0.479,0.058-0.749
		c0.039-0.268,0.097-0.594,0.173-0.98l1.844-8.876c0.076-0.767,0.692-1.767,1.845-2.997l42.075-47.954h-27.09
		c-2.306,0-3.458-1.228-3.458-3.689c0-0.153,0.018-0.306,0.058-0.461c0.038-0.153,0.095-0.499,0.173-1.038l1.383-6.57
		c0.461-2.228,1.038-3.669,1.729-4.323c0.692-0.652,1.882-0.98,3.573-0.98h47.378c1.998,0,2.998,1.192,2.998,3.573
		c0,0.308-0.039,0.789-0.116,1.441C198.226,7.512,198.112,8.108,197.958,8.645z"/>
	<path d="M233.125,0c8.837,0,15.754,2.305,20.75,6.916c4.994,4.611,7.493,10.991,7.493,19.136c0,2.921-0.346,6.072-1.037,9.452
		l-3.804,17.522c-4.689,21.826-16.447,32.738-35.274,32.738c-8.839,0-15.755-2.306-20.749-6.916
		c-4.997-4.611-7.494-10.989-7.494-19.136c0-2.998,0.346-6.148,1.038-9.452l3.803-17.522C202.538,10.913,214.296,0,233.125,0z
		 M232.204,16.139c-7.838,0-12.911,5.533-15.216,16.599l-4.15,19.712c-0.461,2.306-0.691,4.381-0.691,6.225
		c0,7.302,3.343,10.951,10.028,10.951c7.84,0,12.911-5.533,15.216-16.599l4.15-19.712c0.461-2.306,0.691-4.381,0.691-6.225
		C242.232,19.789,238.889,16.139,232.204,16.139z"/>
	<path d="M332.846,7.723L317.63,79.539c-0.386,1.844-0.962,3.037-1.73,3.573c-0.768,0.539-2.153,0.807-4.149,0.807h-7.495
		c-2.074,0-3.457-0.249-4.149-0.749c-0.691-0.499-1.307-1.671-1.845-3.516l-12.564-43.343l-9.107,43.228
		c-0.308,1.691-0.846,2.844-1.614,3.458c-0.768,0.616-2.114,0.922-4.035,0.922h-8.645c-2.459,0-3.688-0.998-3.688-2.997
		c0-0.306,0.058-0.73,0.173-1.268c0.114-0.536,0.21-1.075,0.288-1.614l15.216-71.816c0.384-1.767,0.96-2.94,1.73-3.516
		c0.768-0.576,2.151-0.864,4.149-0.864h7.493c2.077,0,3.46,0.25,4.151,0.749c0.691,0.501,1.307,1.671,1.843,3.516l12.566,43.344
		l9.107-43.228c0.384-1.767,0.96-2.94,1.73-3.516c0.765-0.576,2.151-0.864,4.149-0.864h8.415c2.458,0,3.688,1,3.688,2.997
		c0,0.308-0.039,0.731-0.116,1.268C333.114,6.648,332.999,7.186,332.846,7.723z"/>
	<path d="M320.832,111.953l-1.385,6.801c-0.155,0.768-0.344,1.345-0.576,1.729c-0.231,0.385-0.691,0.962-1.383,1.729l-42.537,47.955
		h30.317c2.306,0,3.457,1,3.457,2.997c0,0.769-0.039,1.268-0.113,1.499l-1.499,7.263c-0.386,2.152-0.923,3.574-1.614,4.265
		c-0.691,0.691-1.922,1.037-3.688,1.037h-50.146c-2.074,0-3.113-1.153-3.113-3.458c0-0.23,0.021-0.479,0.058-0.749
		c0.039-0.268,0.097-0.594,0.173-0.979l1.844-8.877c0.075-0.768,0.691-1.767,1.844-2.997l42.075-47.955h-27.089
		c-2.306,0-3.46-1.228-3.46-3.688c0-0.153,0.02-0.305,0.059-0.46c0.037-0.154,0.096-0.5,0.172-1.038l1.383-6.57
		c0.463-2.229,1.038-3.669,1.73-4.323c0.691-0.652,1.882-0.98,3.573-0.98h47.379c1.998,0,2.997,1.192,2.997,3.573
		c0,0.308-0.039,0.79-0.116,1.441C321.1,110.819,320.985,111.415,320.832,111.953z"/>
	<path d="M389.297,111.03l-15.216,71.817c-0.385,1.844-0.962,3.036-1.729,3.573c-0.769,0.539-2.153,0.807-4.15,0.807h-7.494
		c-2.074,0-3.457-0.249-4.15-0.749c-0.691-0.499-1.307-1.672-1.844-3.516l-12.565-43.342l-9.107,43.228
		c-0.308,1.69-0.846,2.843-1.613,3.457c-0.769,0.616-2.115,0.923-4.035,0.923h-8.645c-2.461,0-3.688-0.998-3.688-2.997
		c0-0.306,0.058-0.73,0.172-1.268c0.116-0.536,0.212-1.075,0.289-1.613l15.215-71.817c0.384-1.767,0.961-2.94,1.73-3.516
		c0.768-0.576,2.151-0.864,4.15-0.864h7.493c2.076,0,3.458,0.25,4.15,0.749c0.691,0.501,1.307,1.671,1.844,3.516l12.565,43.344
		l9.107-43.228c0.384-1.767,0.961-2.94,1.73-3.516c0.766-0.576,2.151-0.864,4.15-0.864h8.415c2.458,0,3.688,1,3.688,2.997
		c0,0.308-0.039,0.731-0.116,1.268C389.565,109.955,389.449,110.494,389.297,111.03z"/>
	<path d="M239.727,181.117l-8.07-72.161c-0.155-1.46-0.519-2.459-1.095-2.998c-0.577-0.537-1.634-0.807-3.171-0.807h-13.487
		c-1.538,0-2.671,0.173-3.401,0.519c-0.732,0.346-1.404,1.135-2.018,2.363l-18.766,34.85c-0.904,1.679,0.312,3.714,2.218,3.714
		h12.001c0.964,0,1.844-0.55,2.266-1.417l9.773-20.086l2.883,30.087h-34.258c-0.927,0-1.779,0.509-2.218,1.325l-14.245,26.455
		c-0.383,0.923-0.576,1.576-0.576,1.96c0,1.538,0.885,2.306,2.652,2.306h11.067c1.919,0,3.246-0.249,3.976-0.749
		c0.73-0.499,1.594-1.747,2.593-3.746l6.225-12.795h26.167l1.153,12.564c0.153,1.923,0.536,3.19,1.153,3.804
		c0.614,0.616,1.729,0.923,3.343,0.923h10.144c1.384,0,2.363-0.326,2.94-0.979c0.576-0.652,0.864-1.71,0.864-3.171
		C239.842,182.154,239.802,181.502,239.727,181.117z"/>
	<path d="M169.062,112.298c-4.919-4.763-11.605-7.146-20.058-7.146h-21.787c-1.999,0-3.383,0.288-4.15,0.864
		c-0.769,0.576-1.345,1.749-1.729,3.516l-1.847,8.716c-0.332,1.567,0.863,3.042,2.465,3.042h24.051
		c7.531,0,11.297,3.729,11.297,11.182c0,1.69-0.231,3.65-0.691,5.878l-3.343,15.908c-1.308,6.072-3.268,10.395-5.879,12.969
		c-2.614,2.575-6.38,3.862-11.297,3.862h-8.991l8.129-38.171c0.334-1.568-0.862-3.044-2.464-3.044H119.07
		c-1.19,0-2.218,0.833-2.465,1.997l-10.483,49.477c-0.078,0.538-0.173,1.077-0.288,1.613c-0.116,0.539-0.173,0.962-0.173,1.268
		c0,1.999,1.228,2.997,3.688,2.997h27.782c9.297,0,16.925-2.784,22.882-8.357c5.955-5.571,10.087-13.776,12.392-24.611l2.998-13.602
		c0.691-3.228,1.037-6.262,1.037-9.107C176.44,123.48,173.98,117.064,169.062,112.298z"/>
	<path d="M395.663,77.81l-8.07-72.161c-0.155-1.46-0.519-2.459-1.095-2.998c-0.577-0.537-1.634-0.807-3.171-0.807h-13.487
		c-1.538,0-2.671,0.173-3.401,0.519c-0.732,0.346-1.404,1.135-2.018,2.363l-18.765,34.85c-0.904,1.679,0.312,3.714,2.218,3.714
		h12.001c0.964,0,1.844-0.55,2.266-1.417l9.773-20.086l2.883,30.087H340.54c-0.927,0-1.779,0.509-2.218,1.325l-14.245,26.455
		c-0.383,0.923-0.576,1.576-0.576,1.96c0,1.538,0.885,2.306,2.652,2.306h11.067c1.919,0,3.246-0.249,3.976-0.749
		c0.73-0.5,1.594-1.747,2.594-3.746l6.225-12.795h26.167l1.153,12.564c0.153,1.923,0.536,3.19,1.153,3.804
		c0.614,0.616,1.729,0.923,3.343,0.923h10.144c1.384,0,2.363-0.326,2.94-0.979c0.576-0.652,0.864-1.71,0.864-3.171
		C395.778,78.847,395.738,78.195,395.663,77.81z"/>
</g>
</svg>
