<?xml version="1.0" encoding="utf-8"?>
<!-- Generator: Adobe Illustrator 25.2.3, SVG Export Plug-In . SVG Version: 6.00 Build 0)  -->
<svg version="1.1" id="Capa_1" xmlns="http://www.w3.org/2000/svg" xmlns:xlink="http://www.w3.org/1999/xlink" x="0px" y="0px"
	 viewBox="0 0 1009.3 308.2" style="enable-background:new 0 0 1009.3 308.2;" xml:space="preserve">
<style type="text/css">
	.Sombra_x0020_paralela{fill:none;}
	.Esquinas_x0020_redondeadas_x0020_2_x0020_pt_x002E_{fill:#FFFFFF;stroke:#231F20;stroke-miterlimit:10;}
	.Reflejo_x0020_vivo_x0020_X{fill:none;}
	.Bisel_x0020_suave{fill:url(#SVGID_1_);}
	.Atardecer{fill:#FFFFFF;}
	.Follaje_GS{fill:#FFDD00;}
	.Pompadour_GS{fill-rule:evenodd;clip-rule:evenodd;fill:#44ADE2;}
	.st0{fill:#010201;}
	.st1{fill:#F36E23;}
</style>
<linearGradient id="SVGID_1_" gradientUnits="userSpaceOnUse" x1="-35.0433" y1="-536.2965" x2="-34.3362" y2="-535.5894">
	<stop  offset="0" style="stop-color:#DEDFE3"/>
	<stop  offset="0.1783" style="stop-color:#DADBDF"/>
	<stop  offset="0.3611" style="stop-color:#CECFD3"/>
	<stop  offset="0.546" style="stop-color:#B9BCBF"/>
	<stop  offset="0.7324" style="stop-color:#9CA0A2"/>
	<stop  offset="0.9181" style="stop-color:#787D7E"/>
	<stop  offset="1" style="stop-color:#656B6C"/>
</linearGradient>
<path class="st0" d="M165.1,0h56.5v301.4H169V273c-15.9,23.2-39.5,34.8-70.9,34.8c-28.7,0-52.2-10.5-70.6-31.6
	C9.2,255.1,0,227.4,0,193.1c0-34.2,9.3-61.9,27.8-83c18.5-21,42.1-31.6,70.8-31.6c29.2,0,51.4,9.5,66.5,28.4V0z M71.9,242
	c9.7,12.2,22.8,18.3,39.3,18.3c16.5,0,29.9-6.2,40.4-18.5c10.4-12.3,15.6-28.5,15.6-48.6c0-20.4-5.1-36.5-15.4-48.6
	c-10.3-12-23.7-18-40.2-18c-16.5,0-29.7,6-39.5,18c-9.9,12-14.8,28.2-14.8,48.6C57.3,213.5,62.2,229.8,71.9,242"/>
<path class="st0" d="M357,77.3c33.6,0,61.2,10.7,82.8,32c21.6,21.4,32.3,49.2,32.3,83.4c0,34.2-10.8,62-32.3,83.4s-49.2,32-82.8,32
	c-33.9,0-61.6-10.7-83.2-32s-32.4-49.2-32.4-83.4c0-34.2,10.8-62,32.4-83.4C295.4,88,323.1,77.3,357,77.3 M357,124
	c-17.7,0-31.8,6.3-42.4,18.9c-10.6,12.6-15.9,29.2-15.9,49.9c0,21,5.3,37.7,15.9,50.1c10.6,12.5,24.7,18.7,42.4,18.7
	c17.4,0,31.4-6.2,41.9-18.7c10.5-12.4,15.9-29.1,15.9-50.1c0-20.7-5.3-37.3-15.9-49.9C388.3,130.3,374.4,124,357,124"/>
<path class="st0" d="M695.1,118.4l-35.2,34c-11.6-10.8-21.7-18.2-30.4-22.3c-8.7-4.1-17.8-6.2-27.4-6.2c-17.7,0-31.7,6.4-41.9,19.3
	c-10.3,12.9-15.4,29.3-15.4,49.4c0,20.1,5.1,36.5,15.2,49.2c10.2,12.7,24,19.1,41.7,19.1c10.4,0,20.2-2.5,29.3-7.6
	c9.1-5.1,19.5-13.8,31.1-25.9l37.4,30.6c-15.1,18.4-30.2,31.4-45.4,38.8c-15.2,7.5-33,11.3-53.3,11.3c-33.9,0-61.3-10.5-82.1-31.4
	c-20.9-21-31.3-49-31.3-84.1s10.6-63.1,31.7-84.1c21.1-21,48.8-31.4,83-31.4c18.8,0,35.6,3.2,50.2,9.6
	C666.9,93.2,681.2,103.8,695.1,118.4"/>
<path class="st0" d="M858.1,84.5h56.5v216.9h-51.7v-22.9c-12.4,19.8-34.1,29.7-65.2,29.7c-25.8,0-45.3-6.1-58.7-18.3
	c-13.3-12.2-20-29-20-50.6V84.5h56.5v139.7c0,11.3,3.2,20.1,9.6,26.5c6.4,6.4,15.5,9.6,27.4,9.6c14.2,0,25.4-3.9,33.5-11.7
	c8.1-7.8,12.2-18.9,12.2-33.3V84.5z"/>
<path class="st1" d="M946.9,274.1c0-18.4,13.1-31.7,31.2-31.7c18.5,0,31.2,12.8,31.2,31.7c0,18-12.3,31.7-31.2,31.7
	C959.6,305.8,946.9,292.2,946.9,274.1"/>
</svg>
