<?xml version="1.0" encoding="UTF-8"?>
<!-- Generator: Adobe Illustrator 25.0.0, SVG Export Plug-In . SVG Version: 6.00 Build 0)  -->
<svg version="1.1" id="Calque_1" xmlns="http://www.w3.org/2000/svg" xmlns:xlink="http://www.w3.org/1999/xlink" x="0px" y="0px" viewBox="0 0 158.9 32.7" style="enable-background:new 0 0 158.9 32.7;" xml:space="preserve">
<style type="text/css">
	.st0{enable-background:new    ;}
	.st1{fill:#D0006F;}
</style>
<g>
	<g class="st0">
		<path class="st1" d="M135.2,14.8V7.5h-3.9V6h9.5v1.5h-3.9v7.3H135.2z"/>
		<path class="st1" d="M145.6,14.8L141.4,6h1.9l2.5,5.3c0.1,0.2,0.2,0.4,0.3,0.6s0.2,0.5,0.3,0.7s0.2,0.4,0.3,0.6h0.1    c0.1-0.2,0.1-0.3,0.2-0.6s0.2-0.5,0.3-0.7s0.2-0.4,0.3-0.6l2.5-5.3h1.8l-4.2,8.8H145.6z"/>
	</g>
	<g>
		<path d="M16.9,6.4h-10c1.6,0,1.8,1.2,1.8,3.3v16.6h4.5V9.7c0-2.1,0-2.8,1.8-2.8c3.5,0,6.9,2.9,6.9,9.5c0,6.4-2.1,9.2-5.2,9.7    c-0.4,0.1-0.9,0.2-1.3,0.2h1.4c6.2,0,10-4.2,10-9.9C26.8,10.5,23.1,6.4,16.9,6.4z M72.4,21.8c-1.3-2.8-2.1-5-5.4-5.6    c2.8-0.3,5.7-1.6,5.7-4.9c0-3.2-2.1-4.9-6.7-4.9H55.6c1.6,0,1.8,1.2,1.8,3.3v16.6h4.5V9.6c0-2.1,0.4-2.8,2.1-2.8    c2.8,0,4.2,2,4.2,4.7c0,3.1-2.5,5-3.8,5.2c1.1,0.1,1.7,1.1,2,1.7c0.8,1.9,1.2,4.8,2.8,6.6c1.1,1.3,3,1.3,4.2,1.3h3.3    C74.7,26.2,73.2,23.7,72.4,21.8z M102.8,16.3L102.8,16.3L102.8,16.3c2.9,0.1,5.3,1.4,5.3,3.1v-6.2    C108.1,14.9,105.8,16.2,102.8,16.3L102.8,16.3z M104,25.8c-1.6,0-1.7-0.7-1.8-2.8V9.6c0-2.1,0.2-2.8,1.8-2.8    c3.2,0,6.8,2.1,7.6,3.9l-1.4-4.4H95.9c1.6,0,1.8,1.2,1.8,3.3v16.6h13.9l1.4-4.8C112.2,23.3,107.3,25.8,104,25.8z M122.1,25.7    c-1.6,0-1.7-0.6-1.8-2.7V9.2c0-1.8,0.3-2.8,1.8-2.8H114c1.6,0,1.8,1.2,1.8,3.3v13.4v3.3h13.9l1.4-4.8    C130.3,23.3,125.3,25.7,122.1,25.7z M34.3,14.3c0-1.4-0.1-7.5,2.9-8.2c-4.3,0.3-7.8,3.1-7.8,8.1c0,6.1,5,11,11.9,12.5    C38,25.9,34.3,22.1,34.3,14.3z M46.2,6.1c3,0.8,2.9,6.8,2.9,8.2c0,7.8-3.8,11.5-6.9,12.4c6.9-1.4,11.9-6.4,11.9-12.5    C54.1,9.2,50.5,6.4,46.2,6.1z M88,26c-5.3,0-7.4-4.3-7.4-9.9c0-5.3,1.8-9.7,7-9.7c3.7,0,6,2.6,6.5,6.4V7.5C92.6,6.7,89.8,6,87.5,6    c-7.1,0-11.7,3.4-11.7,10.5c0,6.5,4.7,10,11.8,10c2.9,0,5.6-0.9,6.8-1.6c0,0,0-3.1,0-4.2C93.7,23.6,91.4,26,88,26z"/>
	</g>
</g>
</svg>