<?xml version="1.0" encoding="utf-8"?>
<!-- Generator: Adobe Illustrator 23.1.0, SVG Export Plug-In . SVG Version: 6.00 Build 0)  -->
<svg version="1.1" id="Layer_1" xmlns="http://www.w3.org/2000/svg" xmlns:xlink="http://www.w3.org/1999/xlink" x="0px" y="0px"
	 width="999.9790039px" height="1000px" viewBox="0 0 999.9790039 1000" enable-background="new 0 0 999.9790039 1000"
	 xml:space="preserve">
<path fill="#2DA0BE" d="M999.854248,488.9857178c6.107666,276.0585327-212.774353,504.8273315-488.8395081,510.8900757
	C234.9562683,1005.9699707,6.209929,787.0857544,0.1246817,511.013855
	C-5.9807634,234.955368,212.9057007,6.2090402,488.9641724,0.1237929
	C765.045105-5.9591928,993.7914429,212.8981018,999.854248,488.9632874"/>
<linearGradient id="SVGID_1_" gradientUnits="userSpaceOnUse" x1="-249.1318054" y1="1250.3511963" x2="-247.8818207" y2="1250.3511963" gradientTransform="matrix(541.973877 -541.973877 -541.973877 -541.973877 812841.9375 543473.5625)">
	<stop  offset="0" style="stop-color:#FFFFFF;stop-opacity:0"/>
	<stop  offset="1" style="stop-color:#FFFFFF;stop-opacity:0.8"/>
</linearGradient>
<path fill="url(#SVGID_1_)" d="M978.9039917,489.4572754c5.8494873,264.4943237-203.8552856,483.6524048-468.3607178,489.4907227
	C246.0489807,984.7885132,26.8908195,775.0792236,21.0750523,510.5871887
	C15.2255964,246.0928955,224.9393158,26.9347477,489.4358215,21.1189804
	c264.5168152-5.8270054,483.6524353,203.8552856,489.4907532,468.3607788"/>
<path fill="#FF6600" d="M285.030365,265.6509399c-0.4446106,0.7320557-1.0194397,1.4707947-1.4550781,1.8974304
	c-33.4148712,21.4532471-60.8433075,33.9830017-82.4380341,37.4904175
	c-22.8903503,3.4962158-39.5225677-2.9123535-49.589035-19.2504272c-3.0650635-4.8187866-6.2716064-6.9968872-9.7835236-6.70047
	c-3.635437,0.4378662-6.7049866,3.053833-9.1907349,7.7087097c-3.2087708,5.4115906-4.5178833,11.9705811-4.0800171,19.4188232
	c0.4378662,8.6136475,3.5006866,16.9196472,9.1907196,24.7944946
	c12.6869354,17.8043518,32.6895905,25.5400085,60.1045837,23.3484192
	c27.2869873-2.7799072,58.2183533-14.4496155,92.7851563-35.1618347l6.3524475-4.0598145
	c1.8816833-17.0700989-5.3262634-31.5309143-11.4474487-50.9385681l-0.4490662,1.4528198"/>
<path fill="#FF6600" d="M683.1751709,715.5539551c19.9106445,28.9217529,27.7854614,62.612793,17.0656128,67.0970459
	c-10.7198486,4.4841919-118.9000244,24.6530151-131.0233765,24.0737305
	c-12.1233521-0.5793457-34.2749023-3.6399536-44.9274292-10.3449097
	c-8.6046143-5.4115601-16.3380432-14.1688843-23.0452576-26.2562866
	c-3.646637-6.4332275-7.4122925-11.6427612-12.2467957-13.0012817
	c-10.3673706-2.9169312-19.8522339,7.4572144-22.6253967,13.7197876
	c-2.9191284,5.9796753-3.4849854,12.5454712-1.7537231,19.6860352c1.6167297,7.8838501,5.2566528,17.8425903,13.2842102,24.8170166
	c8.0275574,6.9743652,48.2911377,22.8970337,89.8660889,24.7944946c25.5377197,1.309082,52.081543,0.1324463,79.6559448-3.3525391
	c17.074585-2.4834595,38.6513062-7.401062,52.8157349-9.6241455c14.1644287-2.2230225,51.7739258-4.102417,59.6689453-10.3538208
	c2.4790039-1.9041748,3.1930542-4.2507324,1.8907471-7.0148315c-2.0501099-4.5223999-6.5657959-9.4713745-13.7108765-15.161499
	c-16.6322021-13.4256592-25.2278442-27.5811157-25.9643555-42.331604
	c-1.3158569-12.390564,2.9213257-25.3693848,12.5387573-38.6401367
	c-16.3268433,2.4588013-33.5563354,3.2087402-51.4887085,1.8928833"/>
<path fill="#FF6600" d="M650.7280884,708.8175659c1.4528198,2.288147,2.9100952,4.7626343,4.3651733,7.0755005
	c12.1165771,20.6942749,18.8305054,48.3585205,19.1090088,73.0587158c0,0,23.1373291-5.2364502,26.5459595-6.5635376
	c7.270874-2.8292847,4.385437-33.5046997-17.2272339-68.1051636c-3.7297974-5.9707031-31.3400879-4.9938965-32.7929077-5.4654541"/>
<path fill="#FFFFFF" d="M812.963501,484.0232239c-29.7929688-8.4205322-16.0079956-32.3213501-108.7617188-40.6341248
	c-9.1054077-0.815094-18.0648804-1.0374146-26.8895874-0.9026489h-0.4333496
	c-10.3156738-0.1347351-20.3327637-0.7297668-30.0286865-1.4842529
	c-97.2491455-8.5148621-151.7625427-54.2214355-163.7197266-137.1377563l0.4468689-2.6833801v-0.3009033
	c8.8134766-13.894989,13.8882446-29.8602905,15.2422791-47.9475708
	c1.9422913-28.3850403-7.4684753-53.6174011-28.2233582-75.5691528
	c-21.2242126-22.2818146-47.6624146-34.6633759-79.3325806-36.9065857
	c-31.9642944-2.8270569-59.4489136,5.820282-82.4515381,25.8431549
	c-23.155304,20.0071716-33.45755,50.1077423-29.1170349,89.3788147c0.1459656,1.497757,14.6112976,40.9349518,12.6779175,58.4047394
	l8.8179932,9.5028381c52.6047058,29.2023926,99.4946594,24.0467529,99.4946594,24.0467529
	c58.6989441,10.3000183,92.3294067,109.9428711,92.3294067,109.9428711
	c14.5955811,37.6116638,25.1874695,107.0776062,32.3976746,137.2770081
	c5.9348145,24.8438721,18.3095703,48.1586304,40.6206055,68.8551636
	c33.1566772,30.7607422,75.8857422,41.5322876,80.8190918,42.8706055c8.656311,2.1062622,17.4765015,3.5927734,26.5953979,4.6525879
	c3.5838013,0.4379272,7.1540527,0.8825073,10.7490234,1.0261841c21.6688232,1.6481934,42.2822266,0.3076172,61.5438843-3.7185059
	h0.298645c22.2571411-5.0792236,43.0187378-14.0431519,62.2939453-27.0467529
	c32.12146-21.9584351,52.4789429-85.2404175,52.4789429-85.2404175
	c13.9691162-36.805481,39.3878784-67.2766113,71.8034668-98.9444885
	c-38.6895142,9.4152527-119.6522827-13.2842407-119.6522827-13.2842407"/>
<path d="M592.9071655,523.2741089c-0.4401855,1.0216675-0.5748901,2.0366821-0.2874146,3.3457031
	c10.0574951,37.647583,31.647644,64.052124,64.4787598,79.3775024c20.0004272,9.4848633,44.2088013,14.7280273,72.355835,16.0371704
	h0.4558716c21.7271729,0,36.338501-6.2716064,43.4700928-18.9540405c7.1473999-12.1165771,6.9991455-30.2150879-0.4333496-54.140625
	l-0.4490967-0.4401245c-20.9996948-46.2365417-59.5140381-71.1702881-115.399353-74.9718628
	c-2.9124146-0.1391907-5.9842529-0.3008728-9.1773071-0.3008728c-1.3225098,0-2.2027588,0.4423523-2.9258423,1.1766052
	c-1.0216675,0.7275696-1.4707642,1.6100159-1.163147,2.9281006c-0.3098755,1.3023987,0.1414185,2.1826172,1.163147,2.9034119
	c0.7208252,1.021698,1.6032104,1.4707642,2.9258423,1.4707642c2.9124146,0,5.9707031,0.1459656,9.1773071,0.4266663
	c52.0881958,3.4916992,87.9888306,26.6852112,107.6771851,69.4434814
	c6.4108276,21.0131226,6.8396606,36.7628784,1.1496582,47.4176636
	c-6.2648926,9.6105957-18.2355347,14.4428711-36.0151367,14.4428711
	c-29.0385132-1.1765747-53.2671509-6.8688354-72.8117065-17.0678711
	c-28.4569092-14.5888062-47.1167603-38.5143433-56.3232422-71.927002c-0.2874146-1.3091431-0.8532715-2.1983032-1.890686-2.6316528
	c-1.3091431-0.7140503-2.3151245-0.8847656-3.3592529-0.2874146c-1.1608887,0.1347046-2.0456543,0.7163086-2.6181641,1.7514648"/>
<path fill="#FF6666" d="M408.5762634,565.9829712c-0.1953735,0-0.3862305-0.0089722-0.5726013-0.015686
	c-5.3083191,0-9.1480713-2.0075073-11.5192871-6.0313721c-1.9154053-2.7349243-2.831543-6.8374634-2.5621033-12.2423096
	l0.0920715-0.7275391l1.7469788-20.8289795c-4.5785217,3.0066528-8.0477905,6.4040527-10.4190063,10.0574951
	c-1.0194397,1.5448608-2.2836304,2.4564819-4.0283813,2.9123535c-0.5344543,0.1459351-1.0621338,0.2133179-1.5808105,0.2133179
	c-1.1631775,0-2.2769165-0.3435669-3.3345337-1.0374146c-1.565094-0.918396-2.5755615-2.288147-3.0291443-4.0216064
	c-0.467041-1.72229-0.1796265-3.3682251,0.8308105-4.9265747c4.2843933-7.2191772,11.9638977-13.6165161,22.9263-19.1897888
	l1.6459351-19.1785889c0.1863708-1.8457947,1.0037537-3.3008423,2.380188-4.4864502
	c1.2417297-1.0800781,2.6586609-1.5583801,4.2933655-1.5583801c0.1504517,0,0.3009033,0.0067444,0.451355,0.0157471
	c1.7245178,0.168396,3.1908264,0.9924927,4.3898926,2.3667297c1.1811218,1.3899536,1.6391907,2.9258118,1.5516052,4.7514038
	l-1.0912781,12.4331665c11.0522156-3.6624146,26.9456787-7.6907349,47.7724304-12.080658
	c0.489502-0.0965576,0.9700623-0.1482239,1.4371033-0.1482239c1.2192993,0,2.3891602,0.3390503,3.5029297,1.0800476
	c1.5471191,1.0082092,2.4677734,2.3599548,2.8382874,4.0957336c0.3682556,1.7335205,0.0741272,3.3884277-0.918396,4.9490662
	c-1.0261841,1.5448608-2.380188,2.4565125-4.1114502,2.8247986c-24.2241516,5.1017151-41.3975525,9.6756897-51.7065125,13.6996765
	l-2.4790039,29.1529541v0.1841431c-0.0965576,2.0074463,0.0920715,3.5657959,0.5366516,4.6615601l0.3817444-0.0808716
	c4.466217-0.2874146,11.5102844-3.8464966,21.1074219-10.699707c1.1429443-0.7993774,2.4004211-1.1900635,3.7723694-1.1900635
	c0.3750305,0,0.7567444,0.0291748,1.1496887,0.0808105c0.9116516,0.1908569,1.7469788,0.5591431,2.4790039,1.0216675
	c-2.9460449-6.406311-4.1114502-13.7197876-3.5635986-22.0236206c0.0786133-1.8255615,0.8128662-3.390686,2.1848755-4.5650024
	c1.2709351-1.1115112,2.6945496-1.5740967,4.3472595-1.5740967c0.1369629,0,0.2672119,0,0.4041443,0.0067749
	c1.8390503,0.0897827,3.298584,0.8173828,4.4819946,2.1937866c1.1878662,1.3809204,1.7379761,2.9258423,1.6391602,4.7491455
	c-0.6399536,11.1554565,3.0112,19.7354736,11.1442871,25.7734985c2.4700317-14.1621704,9.0447693-29.7883911,19.6478882-46.7866516
	c1.0149536-1.5516357,2.3779602-2.4565125,4.1159363-2.9123535c0.4962463-0.1392517,0.9924927-0.1976318,1.4752808-0.1976318
	c1.1990662,0,2.3487549,0.3817444,3.4490356,1.0957947c1.5583496,0.9206543,2.4790039,2.2791748,2.9370728,4.0238647
	c0.0988159,0.4850464,0.1437073,0.9476013,0.1504517,1.4191284v0.0740662
	c-0.0067444,1.1968079-0.3301086,2.3442993-0.9790344,3.4468079c-11.7842407,18.9046631-18.096283,35.7367554-18.72052,50.6107178
	c-0.0943298,1.4707642-0.5546265,2.7507324-1.473053,3.8397217c-0.9206543,1.1811523-2.0995178,1.9109497-3.5545654,2.2792358
	c-0.5321655,0.1459351-1.071106,0.2290039-1.6032715,0.2290039c-0.8352966,0-1.6796265-0.1908569-2.5149231-0.59729
	c-9.2244263-3.9093628-16.0910645-9.1233521-20.6538696-15.8081665l-0.0875549,1.27771
	c-0.2807007,1.7514648-1.1833496,3.222229-2.6519165,4.3180542c-12.4107056,8.7775269-21.8080444,13.0709229-28.1088562,13.0709229"
	/>
<path fill="#003060" d="M118.5397415,473.2225037v100.2962952H95.0992432v-10.7355957
	c-3.2828827,4.5515747-6.2716064,7.6480713-8.9818954,9.2266846c-3.6062317,2.1040039-7.6278763,3.1548462-12.055954,3.1548462
	c-8.9077988,0-15.698101-3.7723389-20.3978729-11.2857056c-4.7065163-7.5357666-7.048542-16.677124-7.048542-27.4419556
	c0-12.0379639,2.6069946-21.2511597,7.7805634-27.6350708c5.1870461-6.3973389,11.7842369-9.5814209,19.7871132-9.5814209
	c3.8936539,0,7.4302673,0.7275391,10.6188354,2.184845c3.1706085,1.461792,5.9931641,3.662384,8.4452209,6.5814819v-34.7644043
	 M93.4353333,536.982666c0-5.6989746-1.0845642-9.9429932-3.2469482-12.7520142
	c-2.1915817-2.809082-4.9377899-4.2057495-8.254364-4.2057495c-2.9033966,0-5.3532181,1.3540649-7.3224945,4.0307007
	c-1.9737701,2.6990356-2.9528046,7.2124634-2.9528046,13.5446777c0,5.9258423,1.0082169,10.270813,3.0403671,13.0282593
	c2.0343933,2.7641602,4.5403519,4.1495972,7.5358124,4.1495972c3.2110291,0,5.8606873-1.3898926,8.0028687-4.1832886
	c2.1287079-2.7753906,3.1975632-7.3112793,3.1975632-13.6121216"/>
<path fill="#003060" d="M202.6663971,573.527832H179.273056v-11.7640991
	c-3.4849701,4.836731-6.9968872,8.2723389-10.5469818,10.324646c-3.5411072,2.059082-7.9152985,3.0875244-13.0731354,3.0875244
	c-6.8958435,0-12.3029327-2.2926025-16.2168121-6.8688354c-3.9161072-4.5964966-5.8719025-11.6540527-5.8719025-21.1837769
	v-46.2432556h25.1695099v39.962677c0,4.5426025,0.7544708,7.7872314,2.265686,9.6981812
	c1.5291595,1.9333496,3.6601105,2.8809204,6.4085846,2.8809204c2.9909821,0,5.4520111-1.2709351,7.3494415-3.8464966
	c1.9131317-2.5508423,2.860733-7.1316528,2.860733-13.7423096v-34.9552612h25.0527496"/>
<path fill="#003060" d="M266.5950012,545.0551758l23.8132324,3.0134277
	c-1.3248291,5.5238647-3.4782104,10.3022461-6.4736938,14.3238525c-2.9954529,4.0306396-6.8217163,7.1855469-11.4743652,9.4040527
	c-4.6616211,2.2431641-10.5762024,3.3681641-17.7527161,3.3681641c-6.934021,0-12.7026367-0.7275391-17.3193359-2.1466064
	c-4.6144257-1.4551392-8.5731964-3.7589722-11.9010162-6.9856567c-3.323288-3.206604-5.9257813-6.9699707-7.8142242-11.3149414
	c-1.8817139-4.3247681-2.8315582-10.0664673-2.8315582-17.2205811c0-7.4864502,1.1496735-13.6928711,3.4557953-18.6575928
	c1.6683807-3.6534424,3.9812164-6.9250793,6.8823853-9.7992859c2.9033813-2.8988647,5.9011078-5.0523071,8.9886322-6.4714355
	c4.8704529-2.2364807,11.1352997-3.3457336,18.7609253-3.3457336c10.6682587,0,18.7946014,2.1174622,24.3903351,6.3614502
	c5.6024475,4.2417297,9.5409851,10.4481812,11.7909851,18.6015015l-23.5662231,3.5006714
	c-0.7387695-3.1032104-2.0770874-5.4475098-4.0306396-7.0148315c-1.9490356-1.5786133-4.569519-2.3666992-7.8456726-2.3666992
	c-4.1473999,0-7.4998779,1.6526489-10.0664673,4.9557495c-2.5598297,3.2941284-3.8419952,8.2924805-3.8419952,14.9863281
	c0,5.9684448,1.2754059,10.4998169,3.8195496,13.5963135c2.5441132,3.0942383,5.7753754,4.6323853,9.7206421,4.6323853
	c3.2829132,0,6.0358429-0.934082,8.2768402-2.793335c2.2252502-1.8615112,3.9026489-4.7446899,5.0186157-8.6271362"/>
<path fill="#003060" d="M301.8938293,473.2225037h25.5939026v51.7580872l18.7092896-24.116333h30.8280945l-23.4494629,25.447937
	l24.8012695,47.206604h-28.214386L336.92099,544.3927612l-9.4332581,10.2438965v18.8821411h-25.5939026"/>
<path d="M938.0588379,496.4856262c-0.9812622-1.7671509-3.0201416-2.6654053-4.9893799-2.1870728
	c-5.885376,1.4325867-13.2797241,2.1578674-21.9786987,2.1578674c-39.9559326,0-94.8487549-15.2512207-95.3876953-15.4039307
	c-8.8538818-2.5014648-13.2932739-6.3973389-18.911377-11.3283997
	c-12.0581665-10.5829163-27.0646973-23.7548523-90.6699829-29.4561157
	c-7.1967163-0.6444702-14.5753174-0.9565735-22.5602417-0.9565735c-1.6055298,0-3.2042847,0.011261-4.7289429,0.0359497h-0.374939
	c-8.8696899-0.114502-18.3186035-0.5815735-29.6964111-1.4662781
	c-95.446106-8.3554077-147.6488342-51.7379456-159.5700684-132.6199036l0.2537537-1.5157166
	c8.8269653-14.2497559,13.9938049-30.7719421,15.3724976-49.1556549
	c2.0276794-29.5886078-7.8771362-56.1547852-29.4516296-78.9732819
	c-22.0011597-23.0991974-49.6810913-35.9792175-82.1888123-38.280838
	c-33.0309448-2.9213715-61.9301453,6.1548309-85.7838135,26.9187317
	c-24.1523132,20.8694153-38.6064453,54.3741302-34.104248,95.1025238c0.038147,0.3862305,0.1167603,0.8083801,0.5860596,3.2582092
	c0.3390808,1.7716675,0.6534424,3.4625244,0.9655457,5.1578369c-30.0062866,18.6531677-55.0140991,29.6963806-74.3768158,32.8400269
	c-3.7948608,0.5793457-7.4482422,0.8735046-10.8523712,0.8735046c-15.5566406,0-26.7548218-5.9010925-34.2681732-18.0962524
	c-3.7162476-5.8449707-8.0747223-8.809021-12.9496307-8.809021c-0.3300934,0-0.6646576,0.0134583-1.1609192,0.0583801
	c-5.1398926,0.6174927-9.3838348,4.0014343-12.5184937,9.8778381c-3.6174622,6.1009521-5.1982803,13.4930725-4.704277,21.9382935
	c0.4827728,9.4961243,3.8599777,18.6464233,10.0192947,27.1724548
	c12.1031036,16.9847717,30.594574,25.5961609,54.9646912,25.5961609c2.9483032,0,6.0268402-0.1279907,9.2536011-0.3862
	c27.5272522-2.8045959,58.8605804-14.5551453,93.1489716-34.9013977l9.1278381,4.928833
	c39.1273804,21.720459,74.9539185,24.9629211,92.8301086,24.9629211c4.3876343,0,7.3764038-0.2043457,8.6495667-0.3143616
	c55.0343323,10.2820129,87.9439392,105.8852844,88.3391724,107.0394592
	c10.1203613,26.0789185,18.2848816,67.6830139,24.8461304,101.1091614
	c2.7955933,14.2385864,5.2072754,26.5325317,7.3696899,35.5862427
	c6.6488037,27.8348999,20.3641968,51.0957642,41.9341431,71.1051636
	c15.8778076,14.7348022,38.734436,27.0309448,56.3456421,34.5847778
	c15.4241333,6.6173706,26.7525635,9.4174805,26.8042603,9.4310303c0.5276489,0.8487549,2.9640503,4.8300171,3.5838013,5.8067627
	c10.75354,18.3635254,17.519165,43.2365723,18.3904419,67.2047119c-35.2202759,7.2191772-90.3197021,16.867981-99.831543,16.8702393
	l-0.3570557-0.0089722c-11.9234009-0.5703125-33.147644-3.6151733-42.7515259-9.6622925
	c-7.9938965-5.0253906-15.2288513-13.3156128-21.5273743-24.6687622
	c-3.8217773-6.7409058-8.276825-13.2369995-14.9391479-15.1097412c-1.5897522-0.4468994-3.2267151-0.6759033-4.8681641-0.6759033
	c-11.3620911,0-20.1868286,10.3651123-23.0093689,16.7490234c-3.3637085,6.8913574-4.0643005,14.5349121-2.1152344,22.5579834
	c1.6504211,8.0499878,5.5485535,19.3200684,14.7370605,27.3027344c8.9347534,7.7603149,49.71698,23.9344482,92.5786133,25.8880005
	c6.8104858,0.3503418,13.8096313,0.5254517,20.8065186,0.5254517c19.0527954,0,39.1206665-1.3135376,59.727356-3.918335
	c9.5903931-1.3966675,20.3641968-3.5074463,30.7854004-5.548584c8.1600952-1.5987549,15.8642578-3.1099854,22.0820313-4.0844727
	c3.727478-0.5860596,9.1435547-1.1473999,15.4151611-1.798645c23.1665039-2.4026489,40.0524902-4.4909058,46.2926636-9.4310303
	c4.1833496-3.2155151,5.3846436-7.8837891,3.2424316-12.4309082c-2.3599854-5.2005615-7.1271362-10.5469971-14.9817505-16.8006592
	c-15.4533081-12.4735718-23.6268921-25.6141357-24.3004761-39.0599365l-0.0180054-0.2492676
	c-1.1900635-11.2116699,2.7484741-23.1665039,11.7078857-35.5300903l0.1751709-0.2402954
	c3.1144409-0.4962158,9.8149414-1.7267456,10.0844116-1.7873535c22.8005371-5.2005615,44.2694702-14.5214844,63.8320923-27.7158203
	c32.6312256-22.3132935,52.901062-83.5114136,54.1809692-87.4612427
	c15.0065308-39.4619141,44.1594849-71.2870483,70.7032471-97.2199707c1.4483032-1.412384,1.7694092-3.6174316,0.7903442-5.3868408
	V496.4856262z M659.6651001,714.8803711c4.7199097,0.842041,17.9974976,2.5508423,19.4480591,2.7057495l0.3569946,0.5186768
	c5.1152344,7.4324951,9.352417,15.1456909,12.6689453,22.5108643c8.5036011,20.5820313,8.6136475,34.8250732,6.765625,37.6071777
	c-0.0583496,0.053833-0.1279907,0.0942383-0.1908569,0.1369629c-2.6114502,0.8599854-12.1659546,3.1549072-20.1777954,5.0074463
	c-1.1564331-24.2983398-8.0343018-49.3779297-18.8709106-68.4869385L659.6651001,714.8803711z M745.2849731,798.1469727
	c6.5388184,5.2072754,10.7176514,9.7498779,12.4466553,13.5626831c0.3255615,0.6893921,0.3839722,0.8106079-0.6130371,1.5786133
	c-4.7289429,3.7454224-27.8707886,6.145813-41.696167,7.5806885c-6.3973999,0.6646729-11.9234619,1.2372437-15.8822632,1.8592529
	c-6.3816528,1.0015259-14.1712036,2.5261841-22.4120483,4.1429443c-10.3156738,2.0186157-20.9816895,4.1091919-30.2689819,5.4632568
	c-20.1508789,2.5463867-39.8369141,3.8375244-58.5170288,3.8375244c-6.8419189,0-13.6884155-0.1728516-20.3709106-0.5142212
	c-41.0270386-1.8727417-80.1701355-17.6561279-87.1243591-23.6986694
	c-7.2910156-6.3322754-10.4571533-15.6374512-11.8628235-22.4862061c-1.4977722-6.1750488-1.0307007-11.6248169,1.4954834-16.807312
	c2.0905151-4.722229,8.5889282-11.5551758,14.8672791-11.5551758c0.8196106,0,1.6391907,0.114502,2.4363403,0.3390503
	c3.5657959,1.0015259,6.9812012,6.3457031,9.5365601,10.8546753c7.0216064,12.6577148,15.2916565,22.0370483,24.578949,27.8798218
	c11.9099731,7.4975586,35.213562,10.4616089,47.1055298,11.0319824c0.2380371,0.0112305,0.4019165,0.038147,0.7904053,0.0179443
	c10.0147705-0.0022583,105.7146606-17.954834,105.8650513-17.9907227c13.2258911-2.7753906,23.2227173-5.151123,26.3146973-6.444458
	c0.2627563-0.1101074,2.6272583-1.4169312,3.5298462-2.4453125c1.2238159-1.2822266,2.3577271-3.0830078,3.1054688-5.6271973
	c2.8360596-9.6443481-1.0238647-26.5953979-9.3119507-44.1168213c-1.9782715-4.5628052-4.9422607-10.6929321-7.5784912-15.4847412
	c11.2094116,0.3839111,22.9622803,1.4056396,33.9268799,0.2312622c-6.4310303,11.3239136-9.1211548,22.4928589-8.0006104,33.300354
	c0.8398438,16.0596313,10.1338501,31.3602295,27.6395264,45.4910278V798.1469727z M858.126709,596.0117798
	c-0.0269165,0.0718994-0.0516357,0.1437378-0.0740967,0.2177734c-0.1997681,0.6174927-20.2720947,62.0806274-50.7139893,82.8961182
	c-18.4824219,12.4691772-38.7770996,21.3095093-60.3178711,26.2832642
	c-0.2312622,0.0112305-17.6965942,4.3135376-43.3803101,4.401062c-29.0563965,0.0988159-53.3546143-6.8508911-62.742981-8.7842407
	c-9.3883057-1.9333496-46.6362305-17.3013306-70.2922974-39.2509155
	c-20.2272339-18.7653809-33.0825806-40.555481-39.3070068-66.6096802
	c-2.119751-8.8740845-4.5178833-21.0872192-7.2910767-35.2269897
	c-6.6286621-33.7763672-14.8807983-75.811615-25.2189026-102.4407043
	c-1.4079285-4.1720886-35.1798096-102.292511-95.8075867-112.9293213c-0.2559814-0.0449219-0.516449-0.0673523-0.7769165-0.0673523
	c-0.1616821,0-0.325592,0.0089722-0.4850159,0.0269165c-0.0314636,0.0022583-3.0740662,0.3256226-8.357666,0.3256226
	c-17.0049438,0-51.1137085-3.0965271-88.5165405-23.8581543c0,0-12.4017334-6.9250488-12.4062195-6.8554382l-2.1129761,1.2642212
	c-32.8108521,19.2414551-67.1216888,31.8744812-92.8840179,34.4994507
	c-25.9307251,2.0770569-44.3054352-4.9467773-56.1053772-21.502655c-5.146637-7.1204224-7.953476-14.6539612-8.3486786-22.4277954
	c-0.3907166-6.6600952,0.7724457-12.3343811,3.5590668-17.0409241c1.7694397-3.3143005,3.7095184-5.1196594,5.6069489-5.3487244
	l0.2470093-0.0112305c1.9962311,0,4.021637,2.5261536,5.3352356,4.59198
	c11.007309,17.8649902,29.0990906,25.149292,54.1316376,21.3275146
	c21.1051788-3.428833,51.0665283-16.9016724,83.1116791-36.9447937c0,0-2.2342529-11.3710632-2.2814331-11.6225281
	c-0.2604675-1.3585205-0.4356079-2.2567139-0.4737854-2.4947205c-4.1631165-37.6655731,9.2625732-68.5542908,31.0549011-87.3870697
	c19.2572021-16.7624664,42.0981445-25.2615814,67.8873901-25.2615814c3.6556396,0,7.4302979,0.1706543,11.2992249,0.5119629
	c30.2824707,2.1444397,55.9886475,14.0970764,76.3865051,35.5099182
	c19.769165,20.9098358,28.8565674,45.1923828,27.0085449,72.1470642
	c-1.2933655,17.2519531-6.1907654,32.6873779-14.5574036,45.8772583c-0.4423523,0.6983643-0.684845,1.5044556-0.6983337,2.33078
	l-0.3862305,2.3218079c-0.0763245,0.4558411-0.0808105,0.9206543-0.0157166,1.3787231
	c12.2378235,84.865448,68.6867981,132.2965393,167.8177185,140.9752808
	c11.618103,0.9026794,21.2533569,1.3787231,30.37677,1.4977722h0.5029907
	c1.5493774-0.0224609,3.1032104-0.0359497,4.6615601-0.0359497c7.7154541,0,14.8313599,0.3009033,21.7564087,0.9228821
	c60.6838989,5.4385376,74.4711304,17.5393982,85.5479736,27.2600403
	c5.9550171,5.2297058,11.5844116,10.167511,22.4030762,13.2258301c2.2926025,0.6421814,56.6173096,15.7407837,97.8217773,15.7407837
	c3.6017456,0,7.0125732-0.1190186,10.2213745-0.3547668c-24.4240112,24.8057251-49.4003906,54.6054077-63.1853638,90.9214478
	V596.0117798z"/>
<path d="M346.2643738,200.5547028c-1.58078-7.7378845-5.0927429-12.2557831-10.4953308-13.8590393
	c-5.395874-2.184845-11.0993652-0.725296-17.0700989,4.0800171c-5.1106873,3.9363098-8.8920898,9.7790527-11.3822937,17.5146942
	c-2.7574463,7.4370117-3.352478,14.2901917-1.9019165,20.7054901c1.4640198,7.4437561,5.112915,12.1210632,10.8052063,13.7086182
	c5.0994568,2.1983185,10.6547546,0.8891907,16.6322021-3.9363403c5.2499084-4.2170105,9.0447693-10.0440063,11.514801-17.5079346
	c2.7776489-7.4370117,3.3502502-14.2834778,1.8974304-20.7055206"/>
<path fill-rule="evenodd" clip-rule="evenodd" fill="#003060" d="M147.5599518,720.2001343V619.8826294h26.0710144v10.743103
	c3.6038818-4.5162964,6.9111328-7.5727539,9.9217377-9.1692505c4.0600739-2.1442261,8.5537567-3.2162476,13.4808197-3.2162476
	c9.7171631,0,17.2214508,3.7178955,22.5131073,11.1538696c5.3374023,7.4359741,8.0058746,16.6281738,8.0059814,27.5767212
	c-0.0001068,12.0891724-2.8966675,21.3271484-8.6902618,27.7138672c-5.7935791,6.3410034-13.1152802,9.5115356-21.9650879,9.5115356
	c-4.2880402,0-8.2112579-0.7299194-11.7698822-2.1896973c-3.5126495-1.4598389-6.6603394-3.626709-9.4430847-6.5005493v34.6925659
	L147.5599518,720.2001343z M175.479126,656.425293c0,5.7479248,1.2087708,10.0131836,3.6265717,12.7955933
	c2.4178009,2.7825928,5.4742584,4.1740112,9.1693726,4.1740112c3.2389374,0,5.9532623-1.322937,8.1429596-3.9688721
	c2.1896973-2.6914673,3.2845459-7.2305908,3.2845459-13.6169434c0-5.8847046-1.1404572-10.1956787-3.421402-12.9328003
	c-2.2809448-2.7826538-5.063797-4.1740112-8.3483582-4.1740112c-3.5581512,0-6.5233612,1.3913574-8.8956604,4.1740112
	c-2.3721771,2.7827148-3.5582733,7.2990112-3.5582733,13.5488892L175.479126,656.425293z"/>
<path fill-rule="evenodd" clip-rule="evenodd" fill="#003060" d="M242.057724,592.2241821h27.9191742V692.541687H242.057724
	V592.2241821z"/>
<path fill-rule="evenodd" clip-rule="evenodd" fill="#003060" d="M364.3890381,692.5611572h-26.0029602v-11.7698364
	c-3.8774719,4.8355713-7.8008118,8.2796631-11.7698669,10.3323975c-3.9231262,2.0527344-8.7586975,3.0791626-14.5065613,3.0791626
	c-7.6636047,0-13.6851501-2.2809448-18.0645447-6.8428345c-4.3338013-4.6074829-6.5007019-11.6785278-6.5007019-21.2128296
	v-46.2572632h27.9873657v39.9616089c0,4.5617676,0.8439636,7.8007202,2.5318604,9.7167969
	c1.6877747,1.9158936,4.0599365,2.8738403,7.1165161,2.8739624c3.3301697-0.0001221,6.0444946-1.2774048,8.1429749-3.8319702
	c2.1440735-2.5547485,3.2161255-7.1394653,3.2161255-13.7542725V619.888916h27.8500366L364.3890381,692.5611572z"/>
<path fill-rule="evenodd" clip-rule="evenodd" fill="#003060" d="M376.5540466,672.4159546l27.6447449-2.6001587
	c1.1404724,3.2846069,2.7371216,5.6339722,4.789978,7.0481567c2.0527344,1.4140625,4.789856,2.1211548,8.2113647,2.1211548
	c3.7407532,0,6.6375427-0.7983398,8.6903992-2.3950195c1.5966492-1.1860962,2.394989-2.6687012,2.394989-4.4478149
	c0-2.0072632-1.0492554-3.5582886-3.147583-4.6531372c-1.5055542-0.7755127-5.4973145-1.7335205-11.9752808-2.8739624
	c-9.6710815-1.6879272-16.3997192-3.2389526-20.1860962-4.6531372c-3.7407227-1.4597778-6.9112549-3.9003906-9.5116272-7.3218384
	c-2.554657-3.4213867-3.8319702-7.3221436-3.8319702-11.7017822c0-4.789978,1.3913574-8.9182129,4.1741028-12.3848877
	c2.7827454-3.467041,6.614502-6.0444946,11.4954529-7.7325439c4.8812256-1.7335205,11.4276428-2.6002808,19.6392517-2.6002808
	c8.6673279,0,15.0540771,0.661499,19.1603699,1.984436c4.1513062,1.322937,7.5953979,3.3759155,10.332428,6.1586914
	c2.7826233,2.7827148,5.0863647,6.5462646,6.9111328,11.2910767l-26.4136353,2.6002808
	c-0.6842957-2.3265381-1.8247681-4.0372314-3.4214172-5.1320801c-2.1896973-1.4598389-4.8356018-2.1896973-7.9376831-2.1896973
	c-3.147583,0-5.4513245,0.5701904-6.9111328,1.7105713c-1.4141541,1.0948486-2.1212463,2.4406128-2.1212463,4.0373535
	c0,1.7791748,0.9123535,3.1248779,2.7371216,4.0372925c1.8247375,0.9123535,5.793457,1.7335205,11.9061279,2.4633789
	c9.2609863,1.0492554,16.149292,2.5090332,20.664978,4.3794556c4.5163574,1.8703613,7.9604797,4.5390625,10.3323975,8.0060425
	c2.4178162,3.467041,3.626709,7.276123,3.626709,11.4273071c0,4.1970215-1.2773438,8.2799072-3.8319702,12.2487793
	c-2.5090332,3.968811-6.500824,7.1393433-11.9753113,9.5114746c-5.4286194,2.3267212-12.8417969,3.4899902-22.239624,3.4899902
	c-13.275177,0-22.7412109-1.8931885-28.3980408-5.6796875c-5.6111145-3.786377-9.2149963-9.1693726-10.8113098-16.149292
	L376.5540466,672.4159546z"/>
</svg>
