<svg width="1070px" height="275px" viewBox="0 0 1070 275" version="1.1" xmlns="http://www.w3.org/2000/svg" xmlns:xlink="http://www.w3.org/1999/xlink">
    <g id="dusk-logo" stroke="none" stroke-width="1" fill="none" fill-rule="evenodd">
        <path d="M0,4 L104.359083,4 C191.39062,4 248.886567,57.5578689 248.886567,135.925633 C248.886567,214.293397 191.39062,267.851266 104.359083,267.851266 L0,267.851266 L0,4 Z" id="D" fill="#000000"></path>
        <path d="M519.013139,6 L519.013139,150.513869 C519.013139,225.912409 472.281752,275 402.381022,275 C330.909489,275 283,225.912409 283,150.513869 L283,6 L347.79562,6 L347.79562,150.513869 C347.79562,190.569343 369.394161,215.309489 402.381022,215.309489 C433.40438,215.309489 454.217518,190.569343 454.217518,150.513869 L454.217518,6 L519.013139,6 Z" id="U" fill="#000000"></path>
        <path d="M662.758571,0 C720.115714,0 761.758571,28.2857143 771.58,76.2142857 L707.937143,89.1785714 C703.222857,64.4285714 682.794286,52.25 661.972857,52.25 C640.365714,52.25 626.615714,64.0357143 626.615714,78.9642857 C626.615714,89.5714286 631.33,97.4285714 647.83,100.964286 L702.437143,113.142857 C748.008571,123.357143 774.722857,148.107143 774.722857,189.75 C774.722857,245.928571 724.83,275 666.294286,275 C606.972857,275 558.258571,246.714286 551.187143,195.25 L617.972857,182.285714 C624.651429,209.392857 643.508571,221.178571 669.83,221.178571 C694.187143,221.178571 708.722857,210.178571 708.722857,194.071429 C708.722857,182.285714 703.222857,174.821429 684.365714,170.892857 L629.365714,159.107143 C591.651429,150.464286 558.651429,130.821429 558.651429,82.8928571 C558.651429,31.8214286 601.08,0 662.758571,0 Z" id="S" fill="#000000"></path>
        <polygon id="K" fill="#000000" points="1069.68209 269 991.174627 269 922.08806 168.510448 875.768657 223.858209 875.768657 269 811 269 811 6 875.768657 6 875.768657 135.929851 985.286567 6 1058.69104 6 964.089552 118.658209"></polygon>
        <path d="M159.335957,81.4203456 C168.503451,90.641286 172.619469,102.574268 173.554927,115.23046 C174.677477,128.790667 173.742019,144.158901 170.000185,157.176699 C157.46504,199.665346 118.362871,225.881745 96.4731403,207.078259 C93.1054895,204.366218 97.5956906,198.58053 101.524617,201.111768 C122.853072,214.491172 146.426628,189.721195 154.471572,159.346332 C157.46504,147.594153 159.148865,135.480369 159.335957,123.547387 C159.523049,114.688052 159.523049,104.382295 155.219939,96.0653686 C145.116986,76.3578685 116.304862,77.6234878 98.5311492,85.9404144 C88.4281966,90.641286 78.6994273,98.0541989 75.7059599,109.083167 C72.8995842,118.846515 75.3317765,128.790667 83.0025368,136.022777 C85.9960043,138.734818 82.0670782,143.616493 78.6994273,141.44686 C56.6226049,126.078626 65.2288238,95.7037631 84.6863622,82.1435566 C104.143901,68.5833501 140.813877,63.1592675 159.335957,81.4203456 Z M114.246853,87.2060337 C115.743587,82.5051621 122.478889,84.4939924 121.54343,89.194864 C117.427412,115.23046 109.56956,140.000438 99.6536995,164.408809 C95.35059,175.61858 90.2991137,188.274773 83.563812,198.218924 C77.7639688,206.535851 68.5964747,211.598328 58.1193386,210.332708 C52.6936789,209.609497 54.9387795,201.473374 60.3644392,202.196585 C71.5899421,204.366218 76.8285102,188.817181 80.3832528,181.042663 C84.6863622,170.917708 88.9894717,160.431149 92.9183977,149.763786 C100.963342,129.333075 107.698643,108.179153 114.246853,87.2060337 Z" id="D" stroke="#FFFFFF" stroke-width="8" fill="#FFFFFF"></path>
    </g>
</svg>