<?xml version="1.0" encoding="utf-8"?>
<!-- Generator: Adobe Illustrator 16.0.0, SVG Export Plug-In . SVG Version: 6.00 Build 0)  -->
<!DOCTYPE svg PUBLIC "-//W3C//DTD SVG 1.1//EN" "http://www.w3.org/Graphics/SVG/1.1/DTD/svg11.dtd">
<svg version="1.1" id="Layer_1" xmlns="http://www.w3.org/2000/svg" xmlns:xlink="http://www.w3.org/1999/xlink" x="0px" y="0px"
	 width="1000px" height="446.905px" viewBox="0 0 1000 446.905" enable-background="new 0 0 1000 446.905" xml:space="preserve">
<g>
	<g>
		<defs>
			<path id="SVGID_1_" d="M170.663,96.277v250.484h704.125c69.146,0,125.212-56.088,125.212-125.246
				c0-69.156-56.065-125.238-125.212-125.238H170.663z"/>
		</defs>
		<clipPath id="SVGID_2_">
			<use xlink:href="#SVGID_1_"  overflow="visible"/>
		</clipPath>
		
			<linearGradient id="SVGID_3_" gradientUnits="userSpaceOnUse" x1="200.3652" y1="639.5156" x2="211.6978" y2="639.5156" gradientTransform="matrix(73.1813 0 0 -73.1813 -14492.3125 47022.0859)">
			<stop  offset="0" style="stop-color:#69BAE6"/>
			<stop  offset="0.0922" style="stop-color:#64AED8"/>
			<stop  offset="0.2475" style="stop-color:#5796BD"/>
			<stop  offset="0.4469" style="stop-color:#437397"/>
			<stop  offset="0.6802" style="stop-color:#264D6F"/>
			<stop  offset="0.8405" style="stop-color:#113355"/>
			<stop  offset="1" style="stop-color:#113355"/>
		</linearGradient>
		<rect x="170.663" y="96.277" clip-path="url(#SVGID_2_)" fill="url(#SVGID_3_)" width="829.337" height="250.484"/>
	</g>
	<polygon fill="#FFFFFF" points="795.57,140.527 904.381,140.527 924.103,164.001 913.522,223.929 889.816,243.894 828.706,243.894 
		821.424,250.003 817.882,269.524 885.103,269.524 897.563,283.624 894.244,302.638 767.859,302.638 780.784,229.329 
		804.27,209.121 865.381,209.121 872.397,203.255 876.625,179.052 871.933,173.641 804.513,173.641 792.295,159.541 	"/>
	<path fill="#FFFFFF" d="M746.234,223.441c0,123.397-167.067,223.441-373.106,223.441C167.056,446.883,0,346.839,0,223.441
		C0,100.023,167.056,0,373.128,0C579.167,0,746.234,100.023,746.234,223.441"/>
	<path fill="#849EB9" d="M373.139,0C167.056,0,0.017,100.034,0.017,223.431c0,123.408,167.039,223.475,373.122,223.475
		c206.051,0,373.096-100.066,373.096-223.475C746.234,100.034,579.189,0,373.139,0 M373.139,427.794
		c-155.651,0-281.809-91.48-281.809-204.363c0-112.85,126.157-204.346,281.809-204.346c155.607,0,281.771,91.496,281.771,204.346
		C654.91,336.313,528.746,427.794,373.139,427.794"/>
	<path fill="#FFFFFF" d="M364.816,427.65c-151.777-3.21-273.476-93.361-273.476-204.22c0-110.836,121.698-201.009,273.476-204.202
		V7.205C166.508,9.821,7.104,105.595,7.104,223.431c0,117.852,159.403,213.625,357.712,216.249V427.65z"/>
	<path fill="#FFFFFF" d="M381.423,7.205v12.024c151.795,3.193,273.487,93.366,273.487,204.213
		c0,110.848-121.692,200.999-273.487,204.209v12.029c198.32-2.635,357.728-98.397,357.728-216.238
		C739.15,105.579,579.743,9.821,381.423,7.205"/>
	<path fill="#103255" d="M79.167,213.559c4.488-70.851,56.663-132.682,133.949-168.981l-1.572-5.927
		C102.319,71.708,26.234,137.23,20.147,213.559H79.167z"/>
	<path fill="#103255" d="M78.946,228.179H19.849c2.988,78.509,80.025,146.25,191.702,180.059l1.571-5.931
		C133.954,365.144,81.154,301.188,78.946,228.179"/>
	<g>
		<defs>
			<path id="SVGID_4_" d="M50.731,138.292c21.597-9.739,42.519-15.544,66.495-20.12c23.368-29.76,56.358-55.025,95.934-73.607
				l-1.599-5.915C140.583,60.138,83.594,95.336,50.731,138.292"/>
		</defs>
		<clipPath id="SVGID_5_">
			<use xlink:href="#SVGID_4_"  overflow="visible"/>
		</clipPath>
		
			<linearGradient id="SVGID_6_" gradientUnits="userSpaceOnUse" x1="191.1816" y1="643.4961" x2="202.5212" y2="643.4961" gradientTransform="matrix(43.9926 -22.4081 -22.4081 -43.9926 5866.2764 32821.4297)">
			<stop  offset="0" style="stop-color:#69BAE6"/>
			<stop  offset="0.0768" style="stop-color:#64AED8"/>
			<stop  offset="0.2061" style="stop-color:#5796BD"/>
			<stop  offset="0.3722" style="stop-color:#437397"/>
			<stop  offset="0.5665" style="stop-color:#264D6F"/>
			<stop  offset="0.7" style="stop-color:#113355"/>
			<stop  offset="1" style="stop-color:#113355"/>
		</linearGradient>
		<polygon clip-path="url(#SVGID_5_)" fill="url(#SVGID_6_)" points="10.431,59.175 179.699,-27.043 253.456,117.763 
			84.191,203.976 		"/>
	</g>
	<path fill="#577A9B" d="M373.139,19.079c-155.656,0-281.809,91.502-281.809,204.362c0,112.872,126.152,204.34,281.809,204.34
		c155.607,0,281.771-91.468,281.771-204.34C654.91,110.581,528.746,19.079,373.139,19.079 M583.307,350.27
		c-50.378,43.05-125.898,70.452-210.361,70.452c-84.452,0-159.973-27.402-210.366-70.452
		c-30.993-35.659-49.343-79.451-49.343-126.828c0-47.389,18.35-91.191,49.354-126.827c50.394-43.051,125.903-70.452,210.355-70.452
		s159.963,27.39,210.361,70.441c31.009,35.646,49.337,79.427,49.337,126.838C632.644,270.818,614.315,314.622,583.307,350.27"/>
	<path fill="#103255" d="M667.083,213.559h59.032c-6.087-76.418-82.384-142-191.79-175.035l-1.584,5.871
		C610.266,80.65,662.59,142.587,667.083,213.559"/>
	<path fill="#103255" d="M667.305,228.179c-2.191,73.119-55.18,137.164-134.531,174.304l1.572,5.866
		c111.865-33.776,189.069-101.562,192.057-180.17H667.305z"/>
	<g>
		<defs>
			<path id="SVGID_7_" d="M532.773,44.384c39.798,18.62,72.954,44.002,96.416,73.899c23.994,4.615,44.978,10.48,66.668,20.363
				c-32.892-43.199-90.163-78.575-161.512-100.111L532.773,44.384z"/>
		</defs>
		<clipPath id="SVGID_8_">
			<use xlink:href="#SVGID_7_"  overflow="visible"/>
		</clipPath>
		
			<linearGradient id="SVGID_9_" gradientUnits="userSpaceOnUse" x1="195.0859" y1="645.4541" x2="206.425" y2="645.4541" gradientTransform="matrix(-43.9479 -22.8466 -22.8466 43.9479 24207.8535 -23678.5117)">
			<stop  offset="0" style="stop-color:#69BAE6"/>
			<stop  offset="0.0768" style="stop-color:#64AED8"/>
			<stop  offset="0.2061" style="stop-color:#5796BD"/>
			<stop  offset="0.3722" style="stop-color:#437397"/>
			<stop  offset="0.5665" style="stop-color:#264D6F"/>
			<stop  offset="0.7" style="stop-color:#113355"/>
			<stop  offset="1" style="stop-color:#113355"/>
		</linearGradient>
		<polygon clip-path="url(#SVGID_8_)" fill="url(#SVGID_9_)" points="661.151,205.391 491.799,117.348 567.47,-28.21 
			736.827,59.839 		"/>
	</g>
	<g>
		<defs>
			<path id="SVGID_10_" d="M162.595,96.625c-31.02,35.625-49.353,79.427-49.353,126.816c0,47.389,18.333,91.169,49.337,126.806
				c50.399,43.072,125.92,70.475,210.372,70.475c84.446,0,159.968-27.402,210.355-70.475
				c31.009-35.612,49.358-79.417,49.358-126.806c0-47.411-18.35-91.191-49.381-126.849
				c-50.376-43.051-125.898-70.419-210.333-70.419C288.499,26.173,212.989,53.564,162.595,96.625"/>
		</defs>
		<clipPath id="SVGID_11_">
			<use xlink:href="#SVGID_10_"  overflow="visible"/>
		</clipPath>
		
			<radialGradient id="SVGID_12_" cx="201.3442" cy="635.3008" r="11.3332" gradientTransform="matrix(35.8579 0 0 -35.8579 -6846.8228 23004.0098)" gradientUnits="userSpaceOnUse">
			<stop  offset="0" style="stop-color:#FFFFFF"/>
			<stop  offset="0.3252" style="stop-color:#FFFFFF"/>
			<stop  offset="0.4199" style="stop-color:#F7F7F8"/>
			<stop  offset="0.5059" style="stop-color:#E6E6EA"/>
			<stop  offset="0.5887" style="stop-color:#D0D0D8"/>
			<stop  offset="0.6694" style="stop-color:#B4B5C3"/>
			<stop  offset="0.7486" style="stop-color:#9496AA"/>
			<stop  offset="0.8268" style="stop-color:#71768F"/>
			<stop  offset="0.904" style="stop-color:#4D5775"/>
			<stop  offset="0.9787" style="stop-color:#213B5C"/>
			<stop  offset="1" style="stop-color:#113355"/>
		</radialGradient>
		<rect x="113.242" y="26.173" clip-path="url(#SVGID_11_)" fill="url(#SVGID_12_)" width="519.423" height="394.549"/>
	</g>
	<g>
		<defs>
			<path id="SVGID_13_" d="M162.606,96.615c-16.152,18.565-28.835,39.354-37.307,61.72c87.578-47.113,161.047-54.207,246.141-54.207
				c90.013,0,160.913,7.094,249.162,54.084c-8.5-22.311-21.148-43.078-37.285-61.631c-50.389-43.04-125.909-70.419-210.345-70.419
				C288.51,26.163,213,53.542,162.606,96.615"/>
		</defs>
		<clipPath id="SVGID_14_">
			<use xlink:href="#SVGID_13_"  overflow="visible"/>
		</clipPath>
		<defs>
			<filter id="Adobe_OpacityMaskFilter" filterUnits="userSpaceOnUse" x="125.3" y="26.163" width="495.303" height="132.172">
				<feColorMatrix  type="matrix" values="1 0 0 0 0  0 1 0 0 0  0 0 1 0 0  0 0 0 1 0"/>
			</filter>
		</defs>
		<mask maskUnits="userSpaceOnUse" x="125.3" y="26.163" width="495.303" height="132.172" id="SVGID_15_">
			<g filter="url(#Adobe_OpacityMaskFilter)">
				
					<linearGradient id="SVGID_16_" gradientUnits="userSpaceOnUse" x1="193.6094" y1="646.9258" x2="204.9414" y2="646.9258" gradientTransform="matrix(0 -31.5941 -31.5941 0 20811.959 6390.6201)">
					<stop  offset="0" style="stop-color:#FFFFFF"/>
					<stop  offset="0.4983" style="stop-color:#FFFFFF"/>
					<stop  offset="0.5759" style="stop-color:#FBFBFB"/>
					<stop  offset="0.6534" style="stop-color:#EFEFEF"/>
					<stop  offset="0.7309" style="stop-color:#DBDBDB"/>
					<stop  offset="0.8084" style="stop-color:#BFBFBF"/>
					<stop  offset="0.8859" style="stop-color:#9B9B9B"/>
					<stop  offset="0.9625" style="stop-color:#6F6F6F"/>
					<stop  offset="1" style="stop-color:#575757"/>
				</linearGradient>
				<rect x="125.3" y="26.163" clip-path="url(#SVGID_14_)" fill="url(#SVGID_16_)" width="495.303" height="132.172"/>
			</g>
		</mask>
		
			<linearGradient id="SVGID_17_" gradientUnits="userSpaceOnUse" x1="193.6079" y1="646.9238" x2="204.9399" y2="646.9238" gradientTransform="matrix(0 -31.5941 -31.5941 0 20811.8965 6390.5732)">
			<stop  offset="0" style="stop-color:#FFFFFF"/>
			<stop  offset="0.4983" style="stop-color:#FFFFFF"/>
			<stop  offset="0.5662" style="stop-color:#F8F9FC"/>
			<stop  offset="0.6309" style="stop-color:#EBEDF4"/>
			<stop  offset="0.6943" style="stop-color:#D7DCEA"/>
			<stop  offset="0.757" style="stop-color:#BDC6DD"/>
			<stop  offset="0.8191" style="stop-color:#9DACCE"/>
			<stop  offset="0.8808" style="stop-color:#7A90BD"/>
			<stop  offset="0.9409" style="stop-color:#5076AC"/>
			<stop  offset="1" style="stop-color:#005E9D"/>
		</linearGradient>
		
			<rect x="125.3" y="26.163" clip-path="url(#SVGID_14_)" mask="url(#SVGID_15_)" fill="url(#SVGID_17_)" width="495.303" height="132.172"/>
	</g>
	<g>
		<defs>
			<polygon id="SVGID_18_" points="175.583,284.044 166.579,293.02 166.579,314.235 174.388,322.025 209.542,322.025 
				210.588,323.078 210.588,331.677 209.148,333.093 171.283,333.093 166.579,337.63 166.579,346.806 219.413,346.806 
				228.399,337.818 228.399,316.293 220.614,308.503 185.521,308.503 184.497,307.461 184.497,299.106 185.914,297.679 
				222.904,297.679 226.557,293.938 226.557,284.044 			"/>
		</defs>
		<clipPath id="SVGID_19_">
			<use xlink:href="#SVGID_18_"  overflow="visible"/>
		</clipPath>
		
			<radialGradient id="SVGID_20_" cx="205.4624" cy="640.9658" r="11.3315" gradientTransform="matrix(0 41.7253 41.7253 0 -26369.4063 -8621.1543)" gradientUnits="userSpaceOnUse">
			<stop  offset="0" style="stop-color:#69BAE6"/>
			<stop  offset="0.0922" style="stop-color:#64AED8"/>
			<stop  offset="0.2475" style="stop-color:#5796BD"/>
			<stop  offset="0.4469" style="stop-color:#437397"/>
			<stop  offset="0.6802" style="stop-color:#264D6F"/>
			<stop  offset="0.8405" style="stop-color:#113355"/>
			<stop  offset="1" style="stop-color:#113355"/>
		</radialGradient>
		<rect x="166.579" y="284.044" clip-path="url(#SVGID_19_)" fill="url(#SVGID_20_)" width="61.82" height="62.762"/>
	</g>
	<path fill="#FFFFFF" d="M226.557,284.044v9.895l-3.646,3.74h-37.003l-1.417,1.417v8.365l1.029,1.03h35.088l7.786,7.802v21.525
		l-8.986,8.987h-52.823v-9.176l4.704-4.537h37.859l1.434-1.427v-8.588l-1.035-1.053h-35.154l-7.808-7.79v-21.204l8.987-8.987
		H226.557z M229.562,281.057h-3.005h-50.984h-1.234l-0.875,0.862l-8.997,8.998l-0.868,0.874v1.24v21.204v1.251l0.868,0.874
		l7.808,7.79l0.874,0.874h1.245h33.196v5.092h-36.3h-1.201l-0.885,0.829l-4.692,4.527l-0.913,0.886v1.271v9.176v2.998h2.987h52.823
		h1.244l0.886-0.885l8.976-8.986l0.874-0.886v-1.229v-21.525v-1.238l-0.874-0.875l-7.786-7.802l-0.886-0.864h-1.233h-33.123v-4.846
		h35.426h1.256l0.885-0.909l3.658-3.718l0.852-0.885v-1.218v-9.895V281.057z"/>
	<g>
		<defs>
			<path id="SVGID_21_" d="M257.605,297.812h24.396l2.635,2.646v11.321l-2.635,2.611h-24.396V297.812z M239.699,284.044v62.762
				h17.906v-19.767H292.6l10.021-10.016v-22.952L292.6,284.044H239.699z"/>
		</defs>
		<clipPath id="SVGID_22_">
			<use xlink:href="#SVGID_21_"  overflow="visible"/>
		</clipPath>
		
			<radialGradient id="SVGID_23_" cx="205.4561" cy="640.9707" r="11.3051" gradientTransform="matrix(0 42.2779 42.2779 0 -26725.1797 -8734.29)" gradientUnits="userSpaceOnUse">
			<stop  offset="0" style="stop-color:#69BAE6"/>
			<stop  offset="0.0922" style="stop-color:#64AED8"/>
			<stop  offset="0.2475" style="stop-color:#5796BD"/>
			<stop  offset="0.4469" style="stop-color:#437397"/>
			<stop  offset="0.6802" style="stop-color:#264D6F"/>
			<stop  offset="0.8405" style="stop-color:#113355"/>
			<stop  offset="1" style="stop-color:#113355"/>
		</radialGradient>
		<rect x="239.699" y="284.044" clip-path="url(#SVGID_22_)" fill="url(#SVGID_23_)" width="62.922" height="62.762"/>
	</g>
	<path fill="#FFFFFF" d="M292.6,284.044l10.005,10.027v22.942L292.6,327.029h-34.999v19.787h-17.907v-62.772H292.6z M257.601,314.39
		h24.401l2.64-2.623v-11.31l-2.64-2.623h-24.401V314.39 M293.834,281.057H292.6h-52.906l-2.977,1.128v2.989v61.643v2.987h2.977
		h17.907h2.981v-2.987v-16.777H292.6h1.234l0.874-0.885l10.016-10.027l0.885-0.853v-1.261v-22.942v-1.24l-0.885-0.874
		l-10.016-10.026L293.834,281.057z M260.582,300.821h20.182l0.885,0.887v8.808l-0.885,0.887h-20.182V300.821z"/>
	<g>
		<defs>
			<path id="SVGID_24_" d="M330.21,329.043v-27.225l3.663-3.664h20.817l3.697,3.664v27.225l-3.697,3.652h-20.817L330.21,329.043z
				 M322.336,284.044l-9.938,10.027v42.707l9.938,10.027h43.913l10.021-10.027v-42.707l-10.021-10.027H322.336z"/>
		</defs>
		<clipPath id="SVGID_25_">
			<use xlink:href="#SVGID_24_"  overflow="visible"/>
		</clipPath>
		
			<radialGradient id="SVGID_26_" cx="205.4351" cy="640.998" r="11.3299" gradientTransform="matrix(0 42.4818 42.4818 0 -26856.1602 -8775.7705)" gradientUnits="userSpaceOnUse">
			<stop  offset="0" style="stop-color:#69BAE6"/>
			<stop  offset="0.0922" style="stop-color:#64AED8"/>
			<stop  offset="0.2475" style="stop-color:#5796BD"/>
			<stop  offset="0.4469" style="stop-color:#437397"/>
			<stop  offset="0.6802" style="stop-color:#264D6F"/>
			<stop  offset="0.8405" style="stop-color:#113355"/>
			<stop  offset="1" style="stop-color:#113355"/>
		</radialGradient>
		<rect x="312.398" y="284.044" clip-path="url(#SVGID_25_)" fill="url(#SVGID_26_)" width="63.872" height="62.762"/>
	</g>
	<path fill="#FFFFFF" d="M366.245,284.044l10.016,10.027v42.719l-10.016,10.016h-43.903l-9.938-10.016v-42.719l9.938-10.027H366.245
		z M333.879,332.695h20.817l3.679-3.652v-27.225l-3.679-3.664h-20.817l-3.675,3.664v27.225L333.879,332.695 M367.478,281.057h-1.232
		h-43.903h-1.25l-0.869,0.885l-9.949,10.027l-0.874,0.874v1.229v42.719v1.217l0.874,0.885l9.949,10.027l0.869,0.885h1.25h43.903
		h1.232l0.887-0.885l10.015-10.005l0.885-0.885v-1.239v-42.719v-1.229l-0.885-0.886l-10.015-10.038L367.478,281.057z
		 M335.113,301.155h18.349l1.926,1.902v24.745l-1.915,1.904h-18.359l-1.903-1.904v-24.745L335.113,301.155z"/>
	<g>
		<defs>
			<path id="SVGID_27_" d="M405.848,297.347h24.093l2.551,2.567v9.451l-2.551,2.557h-24.093V297.347z M387.963,284.044v62.762
				h17.885v-22.478h18.946l8.41,22.478h19.899l-11.288-25.566l8.593-8.599V293.02l-9.014-8.976H387.963z"/>
		</defs>
		<clipPath id="SVGID_28_">
			<use xlink:href="#SVGID_27_"  overflow="visible"/>
		</clipPath>
		
			<radialGradient id="SVGID_29_" cx="205.4302" cy="640.9707" r="11.348" gradientTransform="matrix(0 42.2677 42.2677 0 -26718.6621 -8732.2266)" gradientUnits="userSpaceOnUse">
			<stop  offset="0" style="stop-color:#69BAE6"/>
			<stop  offset="0.0922" style="stop-color:#64AED8"/>
			<stop  offset="0.2475" style="stop-color:#5796BD"/>
			<stop  offset="0.4469" style="stop-color:#437397"/>
			<stop  offset="0.6802" style="stop-color:#264D6F"/>
			<stop  offset="0.8405" style="stop-color:#113355"/>
			<stop  offset="1" style="stop-color:#113355"/>
		</radialGradient>
		<rect x="387.963" y="284.044" clip-path="url(#SVGID_28_)" fill="url(#SVGID_29_)" width="65.141" height="62.762"/>
	</g>
	<path fill="#FFFFFF" d="M441.406,284.044l8.985,8.987v19.609l-8.576,8.589l11.293,25.576h-19.909l-8.411-22.467h-18.946v22.467
		h-17.884v-62.762H441.406z M405.842,311.922h24.093l2.562-2.557v-9.451l-2.562-2.567h-24.093V311.922 M442.65,281.057h-1.244
		h-53.448h-2.988v2.987v62.762v2.987h2.988h17.884h2.983v-2.987v-19.49h14.016l7.642,20.696l0.78,1.781h1.937h19.909h4.649
		l-1.938-4.238l-10.425-23.683l7.116-7.117l0.885-0.874v-1.24v-19.609v-1.24l-0.885-0.885l-8.997-8.965L442.65,281.057z
		 M408.825,300.356H428.7l0.803,0.786v6.994l-0.791,0.786h-19.887V300.356z"/>
	<g>
		<defs>
			<polygon id="SVGID_30_" points="456.845,284.044 456.845,299.106 477.534,299.106 477.534,346.806 495.418,346.806 
				495.418,299.106 516.108,299.106 516.108,284.044 			"/>
		</defs>
		<clipPath id="SVGID_31_">
			<use xlink:href="#SVGID_30_"  overflow="visible"/>
		</clipPath>
		
			<radialGradient id="SVGID_32_" cx="205.458" cy="640.9375" r="11.3239" gradientTransform="matrix(0 41.7549 41.7549 0 -26388.3438 -8627.1748)" gradientUnits="userSpaceOnUse">
			<stop  offset="0" style="stop-color:#69BAE6"/>
			<stop  offset="0.0922" style="stop-color:#64AED8"/>
			<stop  offset="0.2475" style="stop-color:#5796BD"/>
			<stop  offset="0.4469" style="stop-color:#437397"/>
			<stop  offset="0.6802" style="stop-color:#264D6F"/>
			<stop  offset="0.8405" style="stop-color:#113355"/>
			<stop  offset="1" style="stop-color:#113355"/>
		</radialGradient>
		<rect x="456.845" y="284.044" clip-path="url(#SVGID_31_)" fill="url(#SVGID_32_)" width="59.264" height="62.762"/>
	</g>
	<path fill="#FFFFFF" d="M516.108,284.044v15.052h-20.685v47.71h-17.885v-47.71h-20.694v-15.052H516.108z M519.096,281.057h-2.987
		h-59.264h-3.006v2.987v15.052v3.01h3.006h17.689v44.7v2.998h3.005h17.885h2.987v-2.998v-44.7h17.697h2.987v-3.01v-15.052V281.057z"
		/>
	<g>
		<defs>
			<polygon id="SVGID_33_" points="531.226,284.044 522.218,293.02 522.218,314.235 530.03,322.025 565.157,322.025 
				566.197,323.078 566.197,331.677 564.781,333.093 526.909,333.093 522.218,337.63 522.218,346.806 575.051,346.806 
				584.038,337.818 584.038,316.293 576.234,308.503 541.141,308.503 540.123,307.461 540.123,299.106 541.563,297.679 
				578.526,297.679 582.199,293.938 582.199,284.044 			"/>
		</defs>
		<clipPath id="SVGID_34_">
			<use xlink:href="#SVGID_33_"  overflow="visible"/>
		</clipPath>
		
			<radialGradient id="SVGID_35_" cx="205.4766" cy="640.9209" r="11.3283" gradientTransform="matrix(0 41.115 41.115 0 -25977.4688 -8497.123)" gradientUnits="userSpaceOnUse">
			<stop  offset="0" style="stop-color:#69BAE6"/>
			<stop  offset="0.0922" style="stop-color:#64AED8"/>
			<stop  offset="0.2475" style="stop-color:#5796BD"/>
			<stop  offset="0.4469" style="stop-color:#437397"/>
			<stop  offset="0.6802" style="stop-color:#264D6F"/>
			<stop  offset="0.8405" style="stop-color:#113355"/>
			<stop  offset="1" style="stop-color:#113355"/>
		</radialGradient>
		<rect x="522.218" y="284.044" clip-path="url(#SVGID_34_)" fill="url(#SVGID_35_)" width="61.82" height="62.762"/>
	</g>
	<path fill="#FFFFFF" d="M582.199,284.044v9.895l-3.662,3.74h-36.975l-1.439,1.417v8.365l1.018,1.03h35.094l7.804,7.802v21.525
		l-8.987,8.987h-52.833v-9.176l4.691-4.537h37.872l1.416-1.427v-8.588l-1.04-1.053h-35.139l-7.801-7.79v-21.204l9.008-8.987H582.199
		z M585.188,281.057h-2.989h-50.974h-1.251l-0.874,0.862l-9.009,8.998l-0.874,0.874v1.24v21.204v1.251l0.874,0.874l7.813,7.79
		l0.885,0.874h1.229h33.213v5.092h-36.322h-1.207l-0.862,0.829l-4.703,4.527l-0.919,0.886v1.271v9.176v2.998h3h52.833h1.228
		l0.885-0.885l8.976-8.986l0.887-0.886v-1.229v-21.525v-1.238l-0.887-0.875l-7.79-7.802l-0.887-0.864h-1.228h-33.122v-4.846h35.425
		h1.251l0.884-0.909l3.652-3.718l0.864-0.885v-1.218v-9.895V281.057z"/>
	<g>
		<defs>
			<polygon id="SVGID_36_" points="170.663,96.277 170.663,272.313 220.243,272.313 220.243,215.407 268.949,215.407 
				268.949,167.354 220.592,167.354 220.592,144.401 279.933,144.401 276.68,96.277 			"/>
		</defs>
		<clipPath id="SVGID_37_">
			<use xlink:href="#SVGID_36_"  overflow="visible"/>
		</clipPath>
		
			<radialGradient id="SVGID_38_" cx="206.5566" cy="640.4063" r="11.3434" gradientTransform="matrix(0 35.6894 35.6894 0 -22485.9199 -7384.7642)" gradientUnits="userSpaceOnUse">
			<stop  offset="0" style="stop-color:#69BAE6"/>
			<stop  offset="0.0713" style="stop-color:#64AED8"/>
			<stop  offset="0.1915" style="stop-color:#5796BD"/>
			<stop  offset="0.3458" style="stop-color:#437397"/>
			<stop  offset="0.5263" style="stop-color:#264D6F"/>
			<stop  offset="0.6503" style="stop-color:#113355"/>
			<stop  offset="1" style="stop-color:#113355"/>
		</radialGradient>
		<rect x="170.663" y="96.277" clip-path="url(#SVGID_37_)" fill="url(#SVGID_38_)" width="109.27" height="176.036"/>
	</g>
	<path fill="#FFFFFF" d="M276.674,96.266l3.265,48.135h-59.347v22.975h48.352v48.031h-48.705v56.905h-49.569V96.266H276.674z
		 M279.463,93.289h-2.789H170.669h-2.978v2.977v176.047v2.989h2.978h49.569h3.004v-2.989v-53.918h45.701h2.994v-2.987v-48.031
		v-2.999h-2.994h-45.353V147.39h56.348h3.193l-0.222-3.199l-3.265-48.113L279.463,93.289z"/>
	<g>
		<defs>
			<polygon id="SVGID_39_" points="522.659,96.525 500.631,134.419 478.988,96.525 424.08,96.525 473.195,181.298 421.17,272.169 
				474.523,272.147 499.978,227.646 525.691,272.047 580.573,272.047 527.551,180.712 575.714,96.525 			"/>
		</defs>
		<clipPath id="SVGID_40_">
			<use xlink:href="#SVGID_39_"  overflow="visible"/>
		</clipPath>
		
			<radialGradient id="SVGID_41_" cx="206.5679" cy="640.4063" r="11.3236" gradientTransform="matrix(0 35.6895 35.6895 0 -22486.3379 -7385.1279)" gradientUnits="userSpaceOnUse">
			<stop  offset="0" style="stop-color:#69BAE6"/>
			<stop  offset="0.0713" style="stop-color:#64AED8"/>
			<stop  offset="0.1915" style="stop-color:#5796BD"/>
			<stop  offset="0.3458" style="stop-color:#437397"/>
			<stop  offset="0.5263" style="stop-color:#264D6F"/>
			<stop  offset="0.6503" style="stop-color:#113355"/>
			<stop  offset="1" style="stop-color:#113355"/>
		</radialGradient>
		<rect x="421.17" y="96.525" clip-path="url(#SVGID_40_)" fill="url(#SVGID_41_)" width="159.403" height="175.644"/>
	</g>
	<path fill="#FFFFFF" d="M575.726,96.515l-48.186,84.187l53.044,91.357h-54.882l-25.735-44.412l-25.438,44.49l-53.354,0.022
		l52.024-90.861l-49.114-84.784h54.902l21.648,37.926l22.022-37.926H575.726z M580.872,93.538h-5.146h-53.066h-1.715l-0.875,1.483
		l-19.423,33.422l-19.052-33.411l-0.857-1.494h-1.749h-54.902h-5.19l2.606,4.488l48.229,83.284l-51.162,89.365l-2.563,4.472h5.169
		l53.354-0.021h1.742l0.853-1.506l22.864-39.974l23.136,39.907l0.842,1.495h1.736h54.882h5.18l-2.602-4.483l-52.158-89.863
		l47.322-82.687L580.872,93.538z"/>
	<g>
		<defs>
			<path id="SVGID_42_" d="M348.471,219.457l0.022-70.13c0-8.002,6.357-15.218,14.198-15.218c7.863,0,14.857,7.216,14.857,15.218
				v70.341c0,8.023-6.994,14.299-14.857,14.299C354.851,233.967,348.471,227.471,348.471,219.457 M278.594,184.497
				c0,47.312,37.545,85.625,83.872,85.625c46.337,0,83.881-38.313,83.881-85.625c0-47.233-37.544-85.581-83.881-85.581
				C316.139,98.916,278.594,137.264,278.594,184.497"/>
		</defs>
		<clipPath id="SVGID_43_">
			<use xlink:href="#SVGID_42_"  overflow="visible"/>
		</clipPath>
		
			<radialGradient id="SVGID_44_" cx="206.5767" cy="640.4014" r="11.3283" gradientTransform="matrix(0 35.6891 35.6891 0 -22486.166 -7385.0781)" gradientUnits="userSpaceOnUse">
			<stop  offset="0" style="stop-color:#69BAE6"/>
			<stop  offset="0.0713" style="stop-color:#64AED8"/>
			<stop  offset="0.1915" style="stop-color:#5796BD"/>
			<stop  offset="0.3458" style="stop-color:#437397"/>
			<stop  offset="0.5263" style="stop-color:#264D6F"/>
			<stop  offset="0.6503" style="stop-color:#113355"/>
			<stop  offset="1" style="stop-color:#113355"/>
		</radialGradient>
		<rect x="278.594" y="98.916" clip-path="url(#SVGID_43_)" fill="url(#SVGID_44_)" width="167.753" height="171.206"/>
	</g>
	<path fill="#FFFFFF" d="M362.466,98.927c46.337,0,83.893,38.336,83.893,85.581c0,47.289-37.556,85.604-83.893,85.604
		c-46.327,0-83.872-38.314-83.872-85.604C278.594,137.264,316.139,98.927,362.466,98.927 M362.703,233.989
		c7.862,0,14.846-6.298,14.846-14.333v-70.319c0-8.012-6.983-15.217-14.846-15.217c-7.841,0-14.21,7.205-14.21,15.217l-0.022,70.12
		C348.471,227.471,354.862,233.989,362.703,233.989 M362.466,95.934c-47.915,0-86.865,39.725-86.865,88.574
		c0,48.849,38.95,88.604,86.865,88.604c47.902,0,86.886-39.755,86.886-88.604C449.352,135.659,410.368,95.934,362.466,95.934
		 M362.703,230.989c-6.197,0-11.244-5.18-11.244-11.532l0.011-70.12c0-6.506,5.263-12.217,11.233-12.217
		c6.197,0,11.853,5.821,11.853,12.217v70.319C374.556,225.81,369.128,230.989,362.703,230.989"/>
</g>
</svg>
