<?xml version="1.0" encoding="utf-8"?>
<!-- Generator: Adobe Illustrator 16.0.0, SVG Export Plug-In . SVG Version: 6.00 Build 0)  -->
<!DOCTYPE svg PUBLIC "-//W3C//DTD SVG 1.1//EN" "http://www.w3.org/Graphics/SVG/1.1/DTD/svg11.dtd">
<svg version="1.1" id="Layer_1" xmlns="http://www.w3.org/2000/svg" xmlns:xlink="http://www.w3.org/1999/xlink" x="0px" y="0px"
	 width="1000px" height="446.905px" viewBox="0 0 1000 446.905" enable-background="new 0 0 1000 446.905" xml:space="preserve">
<g>
	<g>
		<defs>
			<path id="SVGID_1_" d="M170.655,96.275v250.486h704.121c69.148,0,125.225-56.088,125.225-125.246
				c0-69.159-56.076-125.241-125.225-125.241H170.655z"/>
		</defs>
		<clipPath id="SVGID_2_">
			<use xlink:href="#SVGID_1_"  overflow="visible"/>
		</clipPath>
		
			<linearGradient id="SVGID_3_" gradientUnits="userSpaceOnUse" x1="198.8608" y1="639.5156" x2="210.1934" y2="639.5156" gradientTransform="matrix(73.1813 0 0 -73.1813 -14382.1875 47022.0859)">
			<stop  offset="0" style="stop-color:#69BAE6"/>
			<stop  offset="0.0922" style="stop-color:#64AED8"/>
			<stop  offset="0.2475" style="stop-color:#5796BD"/>
			<stop  offset="0.4469" style="stop-color:#437397"/>
			<stop  offset="0.6802" style="stop-color:#264D6F"/>
			<stop  offset="0.8405" style="stop-color:#113355"/>
			<stop  offset="1" style="stop-color:#113355"/>
		</linearGradient>
		<rect x="170.655" y="96.275" clip-path="url(#SVGID_2_)" fill="url(#SVGID_3_)" width="829.345" height="250.486"/>
	</g>
	<polygon fill="#FFFFFF" points="788.264,269.525 862.725,269.525 869.286,264.123 873.282,241.813 868.59,236.412 817.404,236.412 
		823.037,204.229 874.002,204.229 880.574,198.607 883.861,179.106 879.401,173.695 805.175,173.695 792.969,159.606 
		796.267,140.605 912.758,140.605 931.296,163.126 924.488,201.418 902.887,219.746 918.148,238.758 910.877,280.084 
		884.803,302.639 767.846,302.639 771.133,283.625 	"/>
	<path fill="#FFFFFF" d="M746.242,223.442c0,123.398-167.068,223.443-373.126,223.443C167.046,446.885,0,346.84,0,223.442
		C0,100.021,167.046-0.002,373.116-0.002C579.174-0.002,746.242,100.021,746.242,223.442"/>
	<path fill="#849EB9" d="M373.127-0.002C167.046-0.002,0,100.032,0,223.43c0,123.41,167.046,223.478,373.127,223.478
		c206.059,0,373.115-100.068,373.115-223.478C746.242,100.032,579.186-0.002,373.127-0.002 M373.127,427.795
		c-155.648,0-281.801-91.48-281.801-204.365c0-112.851,126.153-204.348,281.801-204.348c155.614,0,281.779,91.498,281.779,204.348
		C654.906,336.314,528.741,427.795,373.127,427.795"/>
	<path fill="#FFFFFF" d="M364.805,427.65C213.03,424.441,91.326,334.289,91.326,223.43c0-110.836,121.705-201.011,273.479-204.204
		V7.202C166.494,9.819,7.083,105.593,7.083,223.43c0,117.853,159.411,213.628,357.722,216.251V427.65z"/>
	<path fill="#FFFFFF" d="M381.416,7.202v12.024c151.785,3.193,273.501,93.368,273.501,204.216
		c0,110.847-121.716,201-273.501,204.208v12.031c198.311-2.635,357.732-98.398,357.732-216.24
		C739.148,105.577,579.727,9.819,381.416,7.202"/>
	<path fill="#103255" d="M79.152,213.559c4.482-70.852,56.675-132.684,133.967-168.984l-1.583-5.926
		c-109.221,33.057-185.318,98.58-191.405,174.91H79.152z"/>
	<path fill="#103255" d="M78.93,228.18H19.833c2.999,78.508,80.037,146.25,191.704,180.061l1.583-5.932
		C133.934,365.145,81.144,301.188,78.93,228.18"/>
	<g>
		<defs>
			<path id="SVGID_4_" d="M50.721,138.292c21.592-9.75,42.53-15.544,66.491-20.12c23.384-29.759,56.375-55.026,95.94-73.607
				l-1.594-5.915C140.574,60.136,83.579,95.334,50.721,138.292"/>
		</defs>
		<clipPath id="SVGID_5_">
			<use xlink:href="#SVGID_4_"  overflow="visible"/>
		</clipPath>
		
			<linearGradient id="SVGID_6_" gradientUnits="userSpaceOnUse" x1="189.1948" y1="644.5078" x2="200.5329" y2="644.5078" gradientTransform="matrix(43.9926 -22.4081 -22.4081 -43.9926 5976.4014 32821.4297)">
			<stop  offset="0" style="stop-color:#69BAE6"/>
			<stop  offset="0.0768" style="stop-color:#64AED8"/>
			<stop  offset="0.2061" style="stop-color:#5796BD"/>
			<stop  offset="0.3722" style="stop-color:#437397"/>
			<stop  offset="0.5665" style="stop-color:#264D6F"/>
			<stop  offset="0.7" style="stop-color:#113355"/>
			<stop  offset="1" style="stop-color:#113355"/>
		</linearGradient>
		<polygon clip-path="url(#SVGID_5_)" fill="url(#SVGID_6_)" points="10.425,59.173 179.685,-27.045 253.447,117.762 
			84.176,203.975 		"/>
	</g>
	<path fill="#577A9B" d="M373.127,19.077c-155.648,0-281.801,91.503-281.801,204.365c0,112.873,126.153,204.343,281.801,204.343
		c155.614,0,281.779-91.471,281.779-204.343C654.906,110.58,528.741,19.077,373.127,19.077 M583.302,350.27
		c-50.388,43.051-125.899,70.455-210.352,70.455c-84.453,0-159.986-27.404-210.374-70.455
		c-31.01-35.658-49.349-79.449-49.349-126.828c0-47.39,18.338-91.193,49.359-126.829C212.975,53.562,288.497,26.16,372.95,26.16
		c84.441,0,159.952,27.391,210.341,70.442c31.021,35.647,49.359,79.428,49.359,126.84C632.65,270.82,614.313,314.623,583.302,350.27
		"/>
	<path fill="#103255" d="M667.079,213.559h59.021c-6.087-76.419-82.384-142.002-191.792-175.038l-1.572,5.871
		C610.251,80.648,662.587,142.586,667.079,213.559"/>
	<path fill="#103255" d="M667.301,228.18c-2.202,73.119-55.18,137.164-134.531,174.307l1.56,5.865
		c111.867-33.777,189.07-101.564,192.082-180.172H667.301z"/>
	<g>
		<defs>
			<path id="SVGID_7_" d="M532.78,44.382c39.786,18.62,72.943,44.002,96.405,73.9c23.983,4.604,44.966,10.48,66.668,20.353
				C662.951,95.434,605.69,60.069,534.329,38.533L532.78,44.382z"/>
		</defs>
		<clipPath id="SVGID_8_">
			<use xlink:href="#SVGID_7_"  overflow="visible"/>
		</clipPath>
		
			<linearGradient id="SVGID_9_" gradientUnits="userSpaceOnUse" x1="197.0703" y1="646.4805" x2="208.3931" y2="646.4805" gradientTransform="matrix(-43.9479 -22.8466 -22.8466 43.9479 24317.9785 -23678.5117)">
			<stop  offset="0" style="stop-color:#69BAE6"/>
			<stop  offset="0.0768" style="stop-color:#64AED8"/>
			<stop  offset="0.2061" style="stop-color:#5796BD"/>
			<stop  offset="0.3722" style="stop-color:#437397"/>
			<stop  offset="0.5665" style="stop-color:#264D6F"/>
			<stop  offset="0.7" style="stop-color:#113355"/>
			<stop  offset="1" style="stop-color:#113355"/>
		</linearGradient>
		<polygon clip-path="url(#SVGID_8_)" fill="url(#SVGID_9_)" points="661.159,205.38 491.811,117.341 567.465,-28.207 
			736.824,59.832 		"/>
	</g>
	<g>
		<defs>
			<path id="SVGID_10_" d="M162.587,96.624c-31.021,35.625-49.359,79.429-49.359,126.818c0,47.388,18.338,91.169,49.337,126.806
				c50.399,43.072,125.932,70.477,210.385,70.477c84.453,0,159.964-27.404,210.341-70.477c31.021-35.613,49.37-79.418,49.37-126.806
				c0-47.412-18.349-91.193-49.381-126.852C532.902,53.54,457.392,26.17,372.95,26.17C288.497,26.17,212.975,53.562,162.587,96.624"
				/>
		</defs>
		<clipPath id="SVGID_11_">
			<use xlink:href="#SVGID_10_"  overflow="visible"/>
		</clipPath>
		
			<radialGradient id="SVGID_12_" cx="198.2725" cy="635.3008" r="11.3282" gradientTransform="matrix(35.8579 0 0 -35.8579 -6736.6978 23004.0098)" gradientUnits="userSpaceOnUse">
			<stop  offset="0" style="stop-color:#FFFFFF"/>
			<stop  offset="0.3252" style="stop-color:#FFFFFF"/>
			<stop  offset="0.4199" style="stop-color:#F7F7F8"/>
			<stop  offset="0.5059" style="stop-color:#E6E6EA"/>
			<stop  offset="0.5887" style="stop-color:#D0D0D8"/>
			<stop  offset="0.6694" style="stop-color:#B4B5C3"/>
			<stop  offset="0.7486" style="stop-color:#9496AA"/>
			<stop  offset="0.8268" style="stop-color:#71768F"/>
			<stop  offset="0.904" style="stop-color:#4D5775"/>
			<stop  offset="0.9787" style="stop-color:#213B5C"/>
			<stop  offset="1" style="stop-color:#113355"/>
		</radialGradient>
		<rect x="113.228" y="26.17" clip-path="url(#SVGID_11_)" fill="url(#SVGID_12_)" width="519.434" height="394.554"/>
	</g>
	<g>
		<defs>
			<path id="SVGID_13_" d="M162.587,96.613c-16.125,18.554-28.819,39.332-37.296,61.688v0.033
				c87.574-47.113,161.048-54.207,246.154-54.207c90.009,0,160.905,7.094,249.142,54.085c-8.477-22.312-21.138-43.079-37.272-61.632
				c-50.389-43.04-125.911-70.42-210.352-70.42C288.508,26.16,212.997,53.54,162.587,96.613"/>
		</defs>
		<clipPath id="SVGID_14_">
			<use xlink:href="#SVGID_13_"  overflow="visible"/>
		</clipPath>
		<defs>
			<filter id="Adobe_OpacityMaskFilter" filterUnits="userSpaceOnUse" x="125.291" y="26.16" width="495.295" height="132.174">
				<feColorMatrix  type="matrix" values="1 0 0 0 0  0 1 0 0 0  0 0 1 0 0  0 0 0 1 0"/>
			</filter>
		</defs>
		<mask maskUnits="userSpaceOnUse" x="125.291" y="26.16" width="495.295" height="132.174" id="SVGID_15_">
			<g filter="url(#Adobe_OpacityMaskFilter)">
				
					<linearGradient id="SVGID_16_" gradientUnits="userSpaceOnUse" x1="193.6089" y1="650.4121" x2="204.9422" y2="650.4121" gradientTransform="matrix(0 -31.5941 -31.5941 0 20922.084 6390.6201)">
					<stop  offset="0" style="stop-color:#FFFFFF"/>
					<stop  offset="0.4983" style="stop-color:#FFFFFF"/>
					<stop  offset="0.5759" style="stop-color:#FBFBFB"/>
					<stop  offset="0.6534" style="stop-color:#EFEFEF"/>
					<stop  offset="0.7309" style="stop-color:#DBDBDB"/>
					<stop  offset="0.8084" style="stop-color:#BFBFBF"/>
					<stop  offset="0.8859" style="stop-color:#9B9B9B"/>
					<stop  offset="0.9625" style="stop-color:#6F6F6F"/>
					<stop  offset="1" style="stop-color:#575757"/>
				</linearGradient>
				<rect x="125.269" y="26.16" clip-path="url(#SVGID_14_)" fill="url(#SVGID_16_)" width="495.317" height="132.174"/>
			</g>
		</mask>
		
			<linearGradient id="SVGID_17_" gradientUnits="userSpaceOnUse" x1="193.6074" y1="650.4102" x2="204.9407" y2="650.4102" gradientTransform="matrix(0 -31.5941 -31.5941 0 20922.0215 6390.5732)">
			<stop  offset="0" style="stop-color:#FFFFFF"/>
			<stop  offset="0.4983" style="stop-color:#FFFFFF"/>
			<stop  offset="0.5662" style="stop-color:#F8F9FC"/>
			<stop  offset="0.6309" style="stop-color:#EBEDF4"/>
			<stop  offset="0.6943" style="stop-color:#D7DCEA"/>
			<stop  offset="0.757" style="stop-color:#BDC6DD"/>
			<stop  offset="0.8191" style="stop-color:#9DACCE"/>
			<stop  offset="0.8808" style="stop-color:#7A90BD"/>
			<stop  offset="0.9409" style="stop-color:#5076AC"/>
			<stop  offset="1" style="stop-color:#005E9D"/>
		</linearGradient>
		
			<rect x="125.291" y="26.16" clip-path="url(#SVGID_14_)" mask="url(#SVGID_15_)" fill="url(#SVGID_17_)" width="495.295" height="132.174"/>
	</g>
	<g>
		<defs>
			<polygon id="SVGID_18_" points="175.568,284.045 166.571,293.02 166.571,314.236 174.384,322.027 209.544,322.027 
				210.574,323.078 210.574,331.678 209.134,333.094 171.285,333.094 166.571,337.633 166.571,346.807 219.405,346.807 
				228.392,337.82 228.392,316.295 220.589,308.504 185.517,308.504 184.488,307.463 184.488,299.107 185.905,297.68 
				222.891,297.68 226.555,293.939 226.555,284.045 			"/>
		</defs>
		<clipPath id="SVGID_19_">
			<use xlink:href="#SVGID_18_"  overflow="visible"/>
		</clipPath>
		
			<radialGradient id="SVGID_20_" cx="205.4624" cy="638.3027" r="11.3231" gradientTransform="matrix(0 41.7253 41.7253 0 -26259.1875 -8621.1543)" gradientUnits="userSpaceOnUse">
			<stop  offset="0" style="stop-color:#69BAE6"/>
			<stop  offset="0.0922" style="stop-color:#64AED8"/>
			<stop  offset="0.2475" style="stop-color:#5796BD"/>
			<stop  offset="0.4469" style="stop-color:#437397"/>
			<stop  offset="0.6802" style="stop-color:#264D6F"/>
			<stop  offset="0.8405" style="stop-color:#113355"/>
			<stop  offset="1" style="stop-color:#113355"/>
		</radialGradient>
		<rect x="166.571" y="284.045" clip-path="url(#SVGID_19_)" fill="url(#SVGID_20_)" width="61.82" height="62.762"/>
	</g>
	<path fill="#FFFFFF" d="M226.555,284.045v9.895l-3.664,3.74h-36.997l-1.417,1.416v8.367l1.04,1.029H220.6l7.78,7.803v21.525
		l-8.987,8.986h-52.822v-9.174l4.714-4.539h37.849l1.439-1.426v-8.59l-1.029-1.051h-35.161l-7.813-7.791v-21.205l8.997-8.986
		H226.555z M229.554,281.057h-2.999h-50.986h-1.24l-0.874,0.863l-8.986,8.998l-0.885,0.875v1.238v21.205v1.25l0.885,0.875
		l7.802,7.791l0.864,0.873h1.25h33.191v5.092h-36.29h-1.206l-0.886,0.83l-4.692,4.527l-0.918,0.885v1.273v9.174v3h2.988h52.822
		h1.251l0.874-0.887l8.998-8.986l0.863-0.885v-1.229v-21.525v-1.24l-0.863-0.873l-7.813-7.803l-0.863-0.863h-1.24h-33.124v-4.848
		h35.415h1.273l0.875-0.908l3.663-3.719l0.853-0.885v-1.217v-9.895V281.057z"/>
	<g>
		<defs>
			<path id="SVGID_21_" d="M257.608,297.813h24.381l2.634,2.645v11.322l-2.634,2.613h-24.381V297.813z M239.691,284.045v62.762
				h17.917v-19.766h34.972l10.004-10.016v-22.953l-10.004-10.027H239.691z"/>
		</defs>
		<clipPath id="SVGID_22_">
			<use xlink:href="#SVGID_21_"  overflow="visible"/>
		</clipPath>
		
			<radialGradient id="SVGID_23_" cx="205.4561" cy="638.3701" r="11.3064" gradientTransform="matrix(0 42.2779 42.2779 0 -26615.0547 -8734.29)" gradientUnits="userSpaceOnUse">
			<stop  offset="0" style="stop-color:#69BAE6"/>
			<stop  offset="0.0922" style="stop-color:#64AED8"/>
			<stop  offset="0.2475" style="stop-color:#5796BD"/>
			<stop  offset="0.4469" style="stop-color:#437397"/>
			<stop  offset="0.6802" style="stop-color:#264D6F"/>
			<stop  offset="0.8405" style="stop-color:#113355"/>
			<stop  offset="1" style="stop-color:#113355"/>
		</radialGradient>
		<rect x="239.691" y="284.045" clip-path="url(#SVGID_22_)" fill="url(#SVGID_23_)" width="62.894" height="62.762"/>
	</g>
	<path fill="#FFFFFF" d="M292.581,284.045l10.016,10.027v22.941l-10.016,10.016h-34.983v19.789h-17.907v-62.773H292.581z
		 M257.598,314.393H282l2.623-2.625v-11.311L282,297.836h-24.403V314.393 M293.82,281.057h-1.24h-52.89l-2.988,1.129v2.988v61.645
		v2.988h2.988h17.907h2.977v-2.988v-16.779h32.006h1.24l0.885-0.885l10.004-10.027l0.886-0.852v-1.262v-22.941v-1.24l-0.886-0.875
		l-10.004-10.025L293.82,281.057z M260.574,300.822h20.187l0.864,0.887v8.809l-0.864,0.885h-20.187V300.822z"/>
	<g>
		<defs>
			<path id="SVGID_24_" d="M330.22,329.043v-27.225l3.642-3.664h20.828l3.686,3.664v27.225l-3.686,3.654h-20.828L330.22,329.043z
				 M322.329,284.045l-9.938,10.027v42.707l9.938,10.027h43.914l10.016-10.027v-42.707l-10.016-10.027H322.329z"/>
		</defs>
		<clipPath id="SVGID_25_">
			<use xlink:href="#SVGID_24_"  overflow="visible"/>
		</clipPath>
		
			<radialGradient id="SVGID_26_" cx="205.4351" cy="638.3896" r="11.3299" gradientTransform="matrix(0 42.4818 42.4818 0 -26746.0352 -8775.7705)" gradientUnits="userSpaceOnUse">
			<stop  offset="0" style="stop-color:#69BAE6"/>
			<stop  offset="0.0922" style="stop-color:#64AED8"/>
			<stop  offset="0.2475" style="stop-color:#5796BD"/>
			<stop  offset="0.4469" style="stop-color:#437397"/>
			<stop  offset="0.6802" style="stop-color:#264D6F"/>
			<stop  offset="0.8405" style="stop-color:#113355"/>
			<stop  offset="1" style="stop-color:#113355"/>
		</radialGradient>
		<rect x="312.391" y="284.045" clip-path="url(#SVGID_25_)" fill="url(#SVGID_26_)" width="63.868" height="62.762"/>
	</g>
	<path fill="#FFFFFF" d="M366.243,284.045l10.016,10.027v42.719l-10.016,10.016h-43.914l-9.938-10.016v-42.719l9.938-10.027H366.243
		z M333.861,332.697h20.828l3.686-3.654v-27.225l-3.686-3.664h-20.828l-3.652,3.664v27.225L333.861,332.697 M367.46,281.057h-1.218
		h-43.914h-1.251l-0.874,0.885l-9.938,10.027l-0.885,0.875v1.229v42.719v1.217l0.885,0.887l9.938,10.025l0.874,0.887h1.251h43.914
		h1.218l0.896-0.887l10.027-10.004l0.864-0.887v-1.238v-42.719v-1.229l-0.864-0.887l-10.027-10.037L367.46,281.057z
		 M335.101,301.154h18.349l1.926,1.904v24.746l-1.915,1.902h-18.36l-1.904-1.902v-24.746L335.101,301.154z"/>
	<g>
		<defs>
			<path id="SVGID_27_" d="M405.831,297.348h24.104l2.557,2.568v9.449l-2.557,2.559h-24.104V297.348z M387.957,284.045v62.762
				h17.874V324.33h18.957l8.412,22.477h19.899l-11.3-25.564l8.577-8.6V293.02l-8.987-8.975H387.957z"/>
		</defs>
		<clipPath id="SVGID_28_">
			<use xlink:href="#SVGID_27_"  overflow="visible"/>
		</clipPath>
		
			<radialGradient id="SVGID_29_" cx="205.4302" cy="638.3711" r="11.344" gradientTransform="matrix(0 42.2677 42.2677 0 -26608.5371 -8732.2266)" gradientUnits="userSpaceOnUse">
			<stop  offset="0" style="stop-color:#69BAE6"/>
			<stop  offset="0.0922" style="stop-color:#64AED8"/>
			<stop  offset="0.2475" style="stop-color:#5796BD"/>
			<stop  offset="0.4469" style="stop-color:#437397"/>
			<stop  offset="0.6802" style="stop-color:#264D6F"/>
			<stop  offset="0.8405" style="stop-color:#113355"/>
			<stop  offset="1" style="stop-color:#113355"/>
		</radialGradient>
		<rect x="387.957" y="284.045" clip-path="url(#SVGID_28_)" fill="url(#SVGID_29_)" width="65.142" height="62.762"/>
	</g>
	<path fill="#FFFFFF" d="M441.389,284.045l8.997,8.986v19.611l-8.587,8.588l11.3,25.576h-19.899l-8.412-22.467h-18.957v22.467
		h-17.874v-62.762H441.389z M405.831,311.924h24.104l2.557-2.559v-9.449l-2.557-2.568h-24.104V311.924 M442.64,281.057h-1.251
		h-53.432h-2.999v2.988v62.762v2.988h2.999h17.874h2.988v-2.988v-19.488h14.021l7.626,20.695l0.774,1.781h1.959h19.899h4.659
		l-1.937-4.238l-10.437-23.684l7.116-7.117l0.886-0.873v-1.24v-19.611v-1.238l-0.886-0.887l-8.986-8.965L442.64,281.057z
		 M408.818,300.357h19.876l0.808,0.785v6.994l-0.797,0.787h-19.888V300.357z"/>
	<g>
		<defs>
			<polygon id="SVGID_30_" points="456.838,284.045 456.838,299.107 477.512,299.107 477.512,346.807 495.418,346.807 
				495.418,299.107 516.103,299.107 516.103,284.045 			"/>
		</defs>
		<clipPath id="SVGID_31_">
			<use xlink:href="#SVGID_30_"  overflow="visible"/>
		</clipPath>
		
			<radialGradient id="SVGID_32_" cx="205.4609" cy="638.2998" r="11.3208" gradientTransform="matrix(0 41.7549 41.7549 0 -26278.2188 -8627.1748)" gradientUnits="userSpaceOnUse">
			<stop  offset="0" style="stop-color:#69BAE6"/>
			<stop  offset="0.0922" style="stop-color:#64AED8"/>
			<stop  offset="0.2475" style="stop-color:#5796BD"/>
			<stop  offset="0.4469" style="stop-color:#437397"/>
			<stop  offset="0.6802" style="stop-color:#264D6F"/>
			<stop  offset="0.8405" style="stop-color:#113355"/>
			<stop  offset="1" style="stop-color:#113355"/>
		</radialGradient>
		<rect x="456.838" y="284.045" clip-path="url(#SVGID_31_)" fill="url(#SVGID_32_)" width="59.264" height="62.762"/>
	</g>
	<path fill="#FFFFFF" d="M516.103,284.045v15.051h-20.684v47.711h-17.896v-47.711h-20.685v-15.051H516.103z M519.09,281.057h-2.987
		h-59.264h-2.999v2.988v15.051v3.012h2.999h17.686v44.699v3h2.999h17.896h2.988v-3v-44.699h17.696h2.987v-3.012v-15.051V281.057z"/>
	<g>
		<defs>
			<polygon id="SVGID_33_" points="531.21,284.045 522.213,293.02 522.213,314.236 530.036,322.027 565.162,322.027 
				566.191,323.078 566.191,331.678 564.787,333.094 526.904,333.094 522.213,337.633 522.213,346.807 575.035,346.807 
				584.021,337.82 584.021,316.295 576.241,308.504 541.137,308.504 540.118,307.463 540.118,299.107 541.557,297.68 
				578.532,297.68 582.195,293.939 582.195,284.045 			"/>
		</defs>
		<clipPath id="SVGID_34_">
			<use xlink:href="#SVGID_33_"  overflow="visible"/>
		</clipPath>
		
			<radialGradient id="SVGID_35_" cx="205.4766" cy="638.2285" r="11.3286" gradientTransform="matrix(0 41.115 41.115 0 -25867.25 -8497.123)" gradientUnits="userSpaceOnUse">
			<stop  offset="0" style="stop-color:#69BAE6"/>
			<stop  offset="0.0922" style="stop-color:#64AED8"/>
			<stop  offset="0.2475" style="stop-color:#5796BD"/>
			<stop  offset="0.4469" style="stop-color:#437397"/>
			<stop  offset="0.6802" style="stop-color:#264D6F"/>
			<stop  offset="0.8405" style="stop-color:#113355"/>
			<stop  offset="1" style="stop-color:#113355"/>
		</radialGradient>
		<rect x="522.213" y="284.045" clip-path="url(#SVGID_34_)" fill="url(#SVGID_35_)" width="61.809" height="62.762"/>
	</g>
	<path fill="#FFFFFF" d="M582.195,284.045v9.895l-3.663,3.74h-36.976l-1.438,1.416v8.367l1.019,1.029h35.094l7.791,7.803v21.525
		l-8.998,8.986h-52.811v-9.174l4.691-4.539h37.883l1.404-1.426v-8.59l-1.029-1.051h-35.137l-7.813-7.791v-21.205l8.997-8.986
		H582.195z M585.184,281.057h-2.988H531.21h-1.229l-0.885,0.863l-8.998,8.998l-0.875,0.875v1.238v21.205v1.25l0.875,0.875
		l7.813,7.791l0.863,0.873h1.251h33.189v5.092h-36.311h-1.195l-0.874,0.83l-4.693,4.527l-0.919,0.885v1.273v9.174v3h2.99h52.811
		h1.251l0.886-0.887l8.975-8.986l0.886-0.885v-1.229v-21.525v-1.24l-0.886-0.873l-7.802-7.803l-0.874-0.863h-1.229h-33.124v-4.848
		h35.426h1.261l0.875-0.908l3.652-3.719l0.863-0.885v-1.217v-9.895V281.057z"/>
	<g>
		<defs>
			<polygon id="SVGID_36_" points="170.655,96.275 170.655,272.313 220.235,272.313 220.235,215.407 268.93,215.407 268.93,167.354 
				220.578,167.354 220.578,144.4 279.931,144.4 276.666,96.275 			"/>
		</defs>
		<clipPath id="SVGID_37_">
			<use xlink:href="#SVGID_36_"  overflow="visible"/>
		</clipPath>
		
			<radialGradient id="SVGID_38_" cx="206.5566" cy="637.332" r="11.3437" gradientTransform="matrix(0 35.6894 35.6894 0 -22375.7637 -7384.7642)" gradientUnits="userSpaceOnUse">
			<stop  offset="0" style="stop-color:#69BAE6"/>
			<stop  offset="0.0713" style="stop-color:#64AED8"/>
			<stop  offset="0.1915" style="stop-color:#5796BD"/>
			<stop  offset="0.3458" style="stop-color:#437397"/>
			<stop  offset="0.5263" style="stop-color:#264D6F"/>
			<stop  offset="0.6503" style="stop-color:#113355"/>
			<stop  offset="1" style="stop-color:#113355"/>
		</radialGradient>
		<rect x="170.655" y="96.275" clip-path="url(#SVGID_37_)" fill="url(#SVGID_38_)" width="109.276" height="176.037"/>
	</g>
	<path fill="#FFFFFF" d="M276.666,96.264l3.265,48.136h-59.353v22.976h48.352v48.031h-48.706v56.906h-49.581V96.264H276.666z
		 M279.455,93.287h-2.789H170.644h-2.966v2.978v176.048v2.99h2.966h49.581h3v-2.99v-53.917h45.707h2.999v-2.988v-48.031v-3h-2.999
		h-45.353v-16.988h56.354h3.198l-0.232-3.199l-3.253-48.114L279.455,93.287z"/>
	<g>
		<defs>
			<polygon id="SVGID_39_" points="522.654,96.525 500.631,134.418 478.983,96.525 424.069,96.525 473.184,181.298 421.169,272.17 
				474.513,272.148 499.967,227.646 525.698,272.049 580.569,272.049 527.546,180.712 575.721,96.525 			"/>
		</defs>
		<clipPath id="SVGID_40_">
			<use xlink:href="#SVGID_39_"  overflow="visible"/>
		</clipPath>
		
			<radialGradient id="SVGID_41_" cx="206.5679" cy="637.3311" r="11.3238" gradientTransform="matrix(0 35.6895 35.6895 0 -22376.1816 -7385.1279)" gradientUnits="userSpaceOnUse">
			<stop  offset="0" style="stop-color:#69BAE6"/>
			<stop  offset="0.0713" style="stop-color:#64AED8"/>
			<stop  offset="0.1915" style="stop-color:#5796BD"/>
			<stop  offset="0.3458" style="stop-color:#437397"/>
			<stop  offset="0.5263" style="stop-color:#264D6F"/>
			<stop  offset="0.6503" style="stop-color:#113355"/>
			<stop  offset="1" style="stop-color:#113355"/>
		</radialGradient>
		<rect x="421.169" y="96.525" clip-path="url(#SVGID_40_)" fill="url(#SVGID_41_)" width="159.4" height="175.645"/>
	</g>
	<path fill="#FFFFFF" d="M575.721,96.514l-48.175,84.187l53.023,91.36h-54.871l-25.731-44.414l-25.454,44.49l-53.343,0.021
		l52.015-90.86l-49.115-84.784h54.915l21.647,37.927l22.023-37.927H575.721z M580.867,93.536h-5.146h-53.066h-1.715l-0.874,1.483
		l-19.424,33.423L481.584,95.03l-0.852-1.494h-1.749h-54.915h-5.18l2.601,4.488l48.241,83.285l-51.175,89.367l-2.567,4.471h5.18
		l53.343-0.021h1.748l0.852-1.506l22.876-39.975l23.12,39.908l0.853,1.494h1.737h54.871h5.19l-2.613-4.482l-52.147-89.864
		l47.323-82.688L580.867,93.536z"/>
	<g>
		<defs>
			<path id="SVGID_42_" d="M348.47,219.458l0.011-70.132c0-8.001,6.363-15.217,14.199-15.217c7.879,0,14.874,7.216,14.874,15.217
				v70.343c0,8.023-6.994,14.298-14.874,14.298C354.844,233.967,348.47,227.471,348.47,219.458 M278.581,184.497
				c0,47.312,37.562,85.625,83.877,85.625c46.338,0,83.911-38.313,83.911-85.625c0-47.234-37.572-85.582-83.911-85.582
				C316.143,98.915,278.581,137.262,278.581,184.497"/>
		</defs>
		<clipPath id="SVGID_43_">
			<use xlink:href="#SVGID_42_"  overflow="visible"/>
		</clipPath>
		
			<radialGradient id="SVGID_44_" cx="206.5752" cy="637.3252" r="11.3267" gradientTransform="matrix(0 35.6891 35.6891 0 -22376.0098 -7385.0781)" gradientUnits="userSpaceOnUse">
			<stop  offset="0" style="stop-color:#69BAE6"/>
			<stop  offset="0.0713" style="stop-color:#64AED8"/>
			<stop  offset="0.1915" style="stop-color:#5796BD"/>
			<stop  offset="0.3458" style="stop-color:#437397"/>
			<stop  offset="0.5263" style="stop-color:#264D6F"/>
			<stop  offset="0.6503" style="stop-color:#113355"/>
			<stop  offset="1" style="stop-color:#113355"/>
		</radialGradient>
		<rect x="278.581" y="98.915" clip-path="url(#SVGID_43_)" fill="url(#SVGID_44_)" width="167.788" height="171.207"/>
	</g>
	<path fill="#FFFFFF" d="M362.447,98.925c46.349,0,83.91,38.337,83.91,85.583c0,47.289-37.561,85.604-83.91,85.604
		c-46.316,0-83.866-38.314-83.866-85.604C278.581,137.262,316.131,98.925,362.447,98.925 M362.691,233.988
		c7.868,0,14.852-6.297,14.852-14.332v-70.321c0-8.012-6.983-15.217-14.852-15.217c-7.847,0-14.21,7.205-14.21,15.217l-0.011,70.122
		C348.47,227.471,354.844,233.988,362.691,233.988 M362.447,95.933c-47.898,0-86.854,39.725-86.854,88.575
		c0,48.85,38.957,88.604,86.854,88.604c47.909,0,86.888-39.754,86.888-88.604C449.335,135.657,410.356,95.933,362.447,95.933
		 M362.691,230.99c-6.198,0-11.233-5.18-11.233-11.533l0.011-70.122c0-6.507,5.257-12.218,11.222-12.218
		c6.208,0,11.863,5.821,11.863,12.218v70.321C374.554,225.811,369.121,230.99,362.691,230.99"/>
</g>
</svg>
