<?xml version="1.0" encoding="utf-8"?>
<!-- Generator: Adobe Illustrator 22.0.0, SVG Export Plug-In . SVG Version: 6.00 Build 0)  -->
<svg version="1.1" id="Layer_1" xmlns="http://www.w3.org/2000/svg" xmlns:xlink="http://www.w3.org/1999/xlink" x="0px" y="0px"
	 width="323px" height="234px" viewBox="0 0 322.1 233.4" style="enable-background:new 0 0 322.1 233.4;" xml:space="preserve">
<style type="text/css">
	.st0{fill:#01216A;}
	.st1{fill:#EE0AF6;}
	.st2{fill:#FFFFFF;}
</style>
<path class="st0" d="M169.2,9.8H70.8c-32.1,0-57.9,25.9-57.9,57.9v98.5c0,32.1,25.9,57.9,57.9,57.9h98.5c32.1,0,57.9-25.9,57.9-57.9
	V67.7C227.2,35.7,201.3,9.8,169.2,9.8z"/>
<path class="st1" d="M316.2,171.3c0,15.5-6.4,30-18,41c-11.5,10.9-27,17-43.3,17h-54.2c3.5-2.3,6.8-5,9.9-7.9
	c6.9-6.5,12.3-14.1,16-22.5c3.9-8.7,5.9-18,5.9-27.6V62c0-9.5-2-18.9-5.9-27.6c-3.7-8.4-9.2-16-16-22.5c-3.1-2.9-6.4-5.5-9.9-7.9
	h54.2c16.3,0,31.7,6,43.3,17c11.6,11,18,25.5,18,41V171.3z"/>
<g>
	<path class="st2" d="M258.1,2h-88.7l0,0H64C29.7,2,2,29.8,2,64v105.4c0,34.3,27.8,62,62,62h105.4c5.4,0,10.5-0.7,15.5-2
		c-5,1.3-10.2,2-15.5,2h88.7c34.3,0,62-27.8,62-62V64C320.1,29.8,292.4,2,258.1,2z M138.5,61.4H163l0,0l0,0l9.7,16.9l9.8-16.9h23.7
		l0,0l0,0l-10.6,18.4l-11,19.1l23.7,40.8h-24.5l-11.5-19.8l-1.8,3.2l-9.5,16.7h-23.8l23.2-40.6L138.5,61.4L138.5,61.4L138.5,61.4z
		 M25.3,61.3L25.3,61.3h47.3l0.3,4.6L74,82.8H47.5V93h21.7l0,0l0,0v21.4H47.5v25.4l0,0l0,0H25.4L25.3,61.3L25.3,61.3z M51.1,169.1
		l-1.7,1.7l-0.7,0.7l-0.5,0.5l-1.1,1.1H23.5V169l2.1-2l0,0l0,0h16.9l0,0l0.1-0.1l0,0l0.6-0.5v-3.8l-0.1-0.1l-0.3-0.3l0,0l0,0H27.1
		l-3.5-3.5v-9.6l4-4l0,0l0,0h22.8v4.4l-1.6,1.7l0,0l0,0H32.2l-0.2,0.2l-0.5,0.5l0,0v3.7l0.5,0.5l0,0h15.7l3.5,3.5v9.5H51.1z
		 M84.3,159.8L84.3,159.8L84.3,159.8l-0.3,0.3l-4.2,4.2H64.2v8.8l0,0l0,0h-8v-28l0,0l0,0h23.6l1.8,1.8l2.7,2.7l0,0l0,0V159.8z
		 M73.5,100.7c0-21.1,16.8-38.2,37.4-38.2c20.7,0,37.5,17.1,37.5,38.2s-16.8,38.2-37.5,38.2C90.3,138.9,73.5,121.8,73.5,100.7z
		 M117.1,168.7l-4.5,4.5H93l-4.4-4.5l0,0v-19.1l0,0l4.4-4.5h19.6l0.6,0.6l3.9,3.9V168.7z M151.4,173.1h-8.9l-3.8-10h-8.5v10l0,0l0,0
		h-8v-28l0,0h24l4,4v8.8l-3.8,3.8l2.9,6.6L151.4,173.1L151.4,173.1L151.4,173.1z M179.6,151.8h-9.2v21.3h-8v-21.3h-9.2l0,0l0,0v-6.7
		h26.5l0,0l0,0L179.6,151.8L179.6,151.8z M182.3,169L182.3,169l1-1l1.1-1l0,0l0,0h16.9l0,0l0,0l0.1-0.1l0.5-0.5l0,0v-3.8l-0.5-0.5
		h-15.7l-0.6-0.6l-1.5-1.5l-1-1l-0.4-0.4v-9.5l4-4l0,0H209v4.4l-1.6,1.7l0,0h-16.5l-0.6,0.6l0,0l0,0v3.7l0.1,0.1l0.3,0.3h15.7l3,3
		l0.5,0.5v9.6l-0.1,0.1l-2.9,2.9l-0.9,0.9l-0.1,0.1l0,0l0,0h-23.6L182.3,169L182.3,169z M313.9,169.4c0,14.9-5.8,28.9-16.4,39.5
		c-10.5,10.5-24.6,16.4-39.5,16.4h-49.4c3.2-2.2,6.2-4.8,9-7.6c6.3-6.3,11.2-13.6,14.6-21.7c3.6-8.4,5.4-17.4,5.4-26.6V64
		c0-9.2-1.8-18.2-5.4-26.6c-3.4-8.1-8.4-15.4-14.6-21.7c-2.8-2.8-5.8-5.3-9-7.6H258c14.9,0,28.9,5.8,39.5,16.4
		c10.6,10.6,16.4,24.6,16.4,39.5V169.4z"/>
	<polygon class="st2" points="107.5,151.4 98.2,151.4 96.6,153.1 96.6,165.2 98.2,166.8 107.5,166.8 109.1,165.2 109.1,153.1 
		107.7,151.6 	"/>
	<polygon class="st2" points="130.3,151.1 130.3,157.6 141.1,157.6 142.1,156.5 142.2,156.4 142.2,152.2 141.1,151.1 	"/>
	<path class="st2" d="M117.7,116.4V85c0-3.6-3.1-6.8-6.6-6.8s-6.3,3.2-6.3,6.8v31.3c0,3.6,2.8,6.5,6.4,6.5
		C114.6,122.8,117.7,120,117.7,116.4z"/>
	<polygon class="st2" points="75.1,151.3 64.2,151.3 64.2,158.7 75.1,158.7 76.2,157.5 76.2,152.4 75.5,151.8 	"/>
	<path class="st0" d="M295.7,64.6c-4.7-3.6-11.1-5.4-19.4-5.4h-1.1c-8.3,0-14.7,1.8-19.4,5.4c-4.7,3.6-7,9.7-7,18.4v12.5h17.7V84.9
		c0-4,0.9-6.7,2.6-8.1s3.6-2.2,5.8-2.2h1.4c2.1,0,4.1,0.7,5.8,2.2c1.7,1.4,2.6,4.2,2.6,8.1V97c0,3.8-0.8,6.4-2.5,8s-3.9,2.3-6.8,2.3
		h-12.1v15.1H277c2.1,0,4,0.7,5.5,2.1c1.5,1.4,2.3,3.6,2.3,6.6v17.5c0,4-0.9,6.7-2.6,8.1c-1.7,1.4-3.6,2.2-5.8,2.2h-1.2
		c-2.1,0-4.1-0.7-5.8-2.2c-1.7-1.4-2.6-4.2-2.6-8.1v-13.2h-18v15.1c0,15.9,8.3,23.8,24.8,23.8h4.3c16.5,0,24.8-7.9,24.8-23.8v-19.8
		c0-1.5-0.1-3.1-0.3-4.8c-0.2-1.7-0.7-3.3-1.4-4.9c-0.8-1.6-1.8-2.9-3.3-4.1c-1.4-1.2-3.4-2-5.9-2.4c2.4-0.3,4.2-1.1,5.6-2.3
		c1.4-1.2,2.5-2.7,3.3-4.4c0.8-1.7,1.3-3.5,1.6-5.5c0.3-1.9,0.4-3.8,0.4-5.5V83C302.7,74.3,300.3,68.1,295.7,64.6z"/>
</g>
</svg>
