<?xml version="1.0" encoding="utf-8"?>
<!-- Generator: Adobe Illustrator 22.0.0, SVG Export Plug-In . SVG Version: 6.00 Build 0)  -->
<svg version="1.1" id="Layer_1" xmlns="http://www.w3.org/2000/svg" xmlns:xlink="http://www.w3.org/1999/xlink" x="0px" y="0px"
	 width="323px" height="234px" viewBox="0 0 322.5 233.7" style="enable-background:new 0 0 322.5 233.7;" xml:space="preserve">
<style type="text/css">
	.st0{fill:#01216A;}
	.st1{fill:#AAF750;}
	.st2{fill:#FFFFFF;}
</style>
<path class="st0" d="M168.4,9.9H70.1C38,9.9,12.2,35.8,12.2,67.8v98.5c0,32.1,25.9,57.9,57.9,57.9h98.5c32.1,0,57.9-25.9,57.9-57.9
	V67.8C226.4,35.8,200.6,9.9,168.4,9.9z"/>
<path class="st1" d="M316.3,171.7c0,15.5-6.4,30-18,41c-11.5,10.9-27,17-43.3,17h-54.2c3.5-2.3,6.8-5,9.9-7.9
	c6.9-6.5,12.3-14.1,16-22.5c3.9-8.7,5.9-18,5.9-27.6V62.4c0-9.5-2-18.9-5.9-27.6c-3.7-8.4-9.2-16-16-22.5c-3.1-2.9-6.4-5.5-9.9-7.9
	H255c16.3,0,31.7,6,43.3,17s18,25.5,18,41V171.7z"/>
<g>
	<path class="st2" d="M258.3,2h-88.8c2.8,0,5.5,0.2,8.1,0.5c-2.7-0.3-5.4-0.5-8.1-0.5H64.1C29.8,2,2,29.8,2,64.1v105.5
		c0,34.3,27.8,62.1,62.1,62.1h105.5c2.8,0,5.5-0.2,8.1-0.5c-2.7,0.3-5.4,0.5-8.1,0.5h88.8c34.3,0,62.1-27.8,62.1-62.1V64.1
		C320.4,29.8,292.6,2,258.3,2z M201.6,162.2h-15.7l-0.6-0.6l-1.5-1.5l-1-1l-0.4-0.4v-9.5l4-4l0,0h22.8v4.4l-1.6,1.7l0,0h-16.5
		l-0.6,0.6l0,0l0,0v3.7l0.1,0.1l0.3,0.3h15.7l3,3l0.5,0.5v9.6l-0.1,0.1l-2.9,2.9l-1,1l0,0l0,0l0,0h-23.6v-4l0,0l1-0.9l1.1-1l0,0l0,0
		h16.9l0,0l0,0l0.1-0.1l0.5-0.5l0,0v-3.8L201.6,162.2z M138.6,61.4h24.5l0,0l0,0l9.7,16.9l9.8-16.9h23.7l0,0l0,0l-10.6,18.5
		l-11,19.2l23.7,40.8h-24.5l-11.5-19.8l-1.8,3.2l-9.5,16.7h-23.8l23.2-40.6L138.6,61.4L138.6,61.4L138.6,61.4z M25.4,61.3L25.4,61.3
		h47.4l0.3,4.6l1.1,16.9H47.7v10.3h21.6l0,0l0,0v21.5H47.5V140l0,0l0,0H25.4V61.3L25.4,61.3z M51.2,169.2l-1.7,1.7l-0.7,0.7
		l-0.5,0.5l-1.2,1.2H23.5v-4.2l2.1-2l0,0l0,0h16.9l0,0l0.1-0.1l0,0l0.6-0.5v-3.8l-0.1-0.1l-0.3-0.3l0,0l0,0H27.1l-3.5-3.5v-9.5l4-4
		l0,0l0,0h22.8v4.4l-1.6,1.7l0,0l0,0H32.2l-0.2,0.2l-0.5,0.5l0,0v3.7l0.5,0.5l0,0h15.7l3.5,3.5L51.2,169.2L51.2,169.2z M84.3,159.9
		L84.3,159.9L84.3,159.9l-0.3,0.3l-4.2,4.2H64.2v8.8l0,0l0,0h-8v-28l0,0l0,0h23.6l1.8,1.8l2.7,2.7l0,0l0,0V159.9z M73.6,100.7
		c0-21.1,16.8-38.2,37.5-38.2s37.5,17.1,37.5,38.2s-16.8,38.2-37.5,38.2C90.4,139,73.6,121.9,73.6,100.7z M117.2,168.8l-4.5,4.5
		H93.2l-4.4-4.5l0,0v-19.1l0,0l4.4-4.5h19.6l0.6,0.6l3.9,3.9v19.1H117.2z M151.6,173.2h-8.9l-3.8-10h-8.5v10l0,0l0,0h-8v-28l0,0
		h23.9l4,4v8.8l-3.8,3.8l2.9,6.5L151.6,173.2L151.6,173.2L151.6,173.2z M170.5,173.2h-8v-21.3h-9.3l0,0l0,0v-6.7h26.5l0,0l0,0v6.7
		h-9.2V173.2z M314.2,169.5c0,14.9-5.8,29-16.4,39.5c-10.6,10.6-24.6,16.4-39.5,16.4h-49.4c3.2-2.2,6.2-4.8,9-7.6
		c6.3-6.3,11.2-13.6,14.6-21.7c3.6-8.4,5.4-17.4,5.4-26.6V64.1c0-9.2-1.8-18.2-5.4-26.6c-3.4-8.1-8.4-15.4-14.6-21.7
		c-2.8-2.8-5.8-5.3-9-7.6h49.4c14.9,0,29,5.8,39.5,16.4c10.6,10.5,16.4,24.5,16.4,39.5V169.5z"/>
	<path class="st0" d="M295.6,65.1c-4.5-3.5-11.1-5.3-19.7-5.3h-0.3c-8.6,0-15.2,1.8-19.7,5.3s-6.8,9.5-6.8,17.9v18.4h17.7V84.9
		c0-3.9,0.8-6.4,2.3-7.7c1.6-1.3,3.6-1.9,6.2-1.9s4.7,0.6,6.4,1.9c1.7,1.3,2.5,3.9,2.5,7.7v11c0,1.5-0.2,2.9-0.7,4.1
		s-1.2,2.5-2.3,3.8c-1,1.3-2.3,2.7-3.9,4.3c-1.6,1.6-3.4,3.4-5.6,5.4c-2.8,2.7-5.6,5.3-8.3,7.9c-2.7,2.6-5.2,5.2-7.4,8
		c-2.2,2.7-4,5.6-5.3,8.6s-2,6.3-2,9.8v26.1h53.5v-15.5h-35.5v-10.3c0-3.1,1.4-6.3,4.2-9.6c2.8-3.3,6.6-7.2,11.3-11.7
		c2.7-2.6,5.2-5,7.7-7.2c2.4-2.2,4.5-4.4,6.4-6.7c1.8-2.3,3.3-4.7,4.4-7.4c1.1-2.7,1.6-5.8,1.6-9.3V82.9
		C302.4,74.6,300.1,68.6,295.6,65.1z"/>
	<path class="st2" d="M117.8,116.4V85c0-3.6-3.1-6.8-6.6-6.8s-6.3,3.2-6.3,6.8v31.3c0,3.6,2.8,6.5,6.4,6.5
		C114.7,122.8,117.8,120,117.8,116.4z"/>
	<polygon class="st2" points="107.6,151.5 98.3,151.5 96.7,153.1 96.7,165.3 98.3,166.9 107.6,166.9 109.3,165.3 109.3,153.1 
		107.8,151.7 	"/>
	<polygon class="st2" points="130.5,151.1 130.5,157.7 141.2,157.7 142.3,156.6 142.4,156.5 142.4,152.3 141.2,151.1 	"/>
	<polygon class="st2" points="75.1,151.4 64.2,151.4 64.2,158.8 75.1,158.8 76.3,157.6 76.3,152.5 75.6,151.8 	"/>
</g>
</svg>
