<?xml version="1.0" encoding="UTF-8" standalone="no"?>
<!-- Generator: Adobe Illustrator 22.0.0, SVG Export Plug-In . SVG Version: 6.00 Build 0)  -->

<svg
   version="1.1"
   id="Layer_1"
   x="0px"
   y="0px"
   width="239"
   height="239"
   viewBox="0 0 239 239"
   xml:space="preserve"
   xmlns="http://www.w3.org/2000/svg"
   xmlns:svg="http://www.w3.org/2000/svg"><defs
   id="defs27" />
<style
   type="text/css"
   id="style2">
	.st0{fill:#01216A;}
	.st1{fill:#FFFFFF;}
</style>

<g
   id="g22"
   transform="translate(-0.64275504,-0.75224126)"
   style="fill:#01216a;fill-opacity:1">
	<polygon
   class="st1"
   points="145.9,156.2 134.6,156.2 134.6,163 145.9,163 146.9,162 147,161.8 147,157.4 "
   id="polygon6"
   style="fill:#01216a;fill-opacity:1" />
	<polygon
   class="st1"
   points="77.1,164.2 78.3,162.9 78.3,157.7 77.6,157 77.1,156.5 65.7,156.5 65.7,164.2 "
   id="polygon8"
   style="fill:#01216a;fill-opacity:1" />
	<g
   id="g18"
   style="fill:#01216a;fill-opacity:1">
		<path
   class="st1"
   d="M 175.3,1 H 65.6 C 29.9,1 1,29.9 1,65.6 V 175.4 C 1,211.1 29.9,240 65.6,240 h 109.8 c 35.7,0 64.6,-28.9 64.6,-64.6 V 65.6 C 240,29.9 211,1 175.3,1 Z m -32.2,61.9 h 25.5 v 0 0 l 10.1,17.6 10.2,-17.6 h 24.7 v 0 0 l -11.1,19.4 -11.3,19.8 24.7,42.5 h -25.5 l -12,-20.7 -2.3,4 -9.6,16.7 h -24.8 l 24.2,-42.2 z M 25.3,62.8 v 0 0 h 49.3 l 0.4,5.3 1.2,17.1 H 48.6 v 10.6 h 22.5 v 0 0 22.3 H 48.5 v 26.5 0 0 H 25.4 Z m 26.8,112.3 -1.8,1.8 -0.7,0.7 -0.4,0.4 -1.2,1.2 H 23.4 v -4.3 l 2.2,-2.1 v 0 0 h 17.6 l 0.1,-0.1 v 0 l 0.6,-0.6 v -4 l -0.1,-0.1 -0.3,-0.4 v 0 0 H 27.2 L 23.6,164 v -9.9 l 4.2,-4.2 v 0 0 h 23.7 v 4.6 l -1.7,1.7 v 0 0 H 32.6 l -0.2,0.2 -0.5,0.5 v 3.9 l 0.5,0.5 h 16.3 l 3.6,3.6 v 10.2 z m 34.6,-9.7 v 0 0 l -0.3,0.3 -4.3,4.3 H 65.8 v 9.2 0 0 h -8.3 v -29.2 0 0 h 24.6 l 1.9,1.9 2.8,2.8 v 0 0 z M 75.5,103.8 c 0,-22 17.5,-39.8 39,-39.8 21.5,0 39,17.8 39,39.8 0,22 -17.5,39.8 -39,39.8 -21.6,0 -39,-17.8 -39,-39.8 z m 45.4,50.9 -4.2,-4.2 4.2,4.2 v 19.9 l -1.1,1.1 1.1,-1.1 v 0 l -4.7,4.7 H 95.8 l -4.6,-4.7 v 0 l 4.6,4.7 h 20.4 l 3.5,-3.5 -3.5,3.5 H 95.8 l -4.6,-4.7 v -19.9 l 4.6,-4.7 h 20.4 l 0.5,0.5 -0.5,-0.5 H 95.8 l -4.6,4.7 v 0 l 4.6,-4.7 h 20.4 z m 35.7,24.5 h -9.3 l -3.9,-10.4 h -8.8 v 10.4 0 0 h -8.3 v -29.2 0 0 h 24.8 l 4.2,4.2 v 9.1 l -4,4 3,6.9 z m 29.3,-22.1 h -9.6 v 22.2 H 168 v -22.2 h -9.6 v 0 0 -7 H 186 v 0 0 7 z m 31.6,18 -3.1,3.1 -1,1 h -24.6 v -4.3 l 1.1,-1 1.1,-1.1 h 17.6 l 0.1,-0.1 0.6,-0.6 v -4 l -0.5,-0.5 h -16.3 l -2.2,-2.2 -1.5,-1.5 V 154 l 4.2,-4.2 h 23.6 v 4.6 l -1.7,1.7 h -17.2 l -0.7,0.7 v 0 0 3.9 l 0.5,0.5 h 16.3 l 3.6,3.6 z"
   id="path10"
   style="fill:#01216a;fill-opacity:1" />
		<polygon
   class="st1"
   points="101.2,172.7 110.9,172.7 112.6,171 112.6,158.3 112.6,158.3 112.6,171 110.9,172.7 101.2,172.7 99.5,171 "
   id="polygon12"
   style="fill:#01216a;fill-opacity:1" />
		<polygon
   class="st1"
   points="112.6,171 112.6,158.3 111,156.7 110.9,156.6 101.2,156.6 99.5,158.3 99.5,171 101.2,172.7 110.9,172.7 "
   id="polygon14"
   style="fill:#01216a;fill-opacity:1" />
		<polygon
   class="st1"
   points="111,156.7 112.6,158.3 110.9,156.6 101.2,156.6 99.5,158.3 101.2,156.6 110.9,156.6 "
   id="polygon16"
   style="fill:#01216a;fill-opacity:1" />
	</g>
	<path
   class="st1"
   d="M 121.5,120.1 V 87.4 c 0,-3.7 -3.2,-7.1 -6.9,-7.1 -3.6,0 -6.6,3.3 -6.6,7.1 V 120 c 0,3.7 3,6.8 6.6,6.8 3.6,0 6.9,-2.9 6.9,-6.7 z"
   id="path20"
   style="fill:#01216a;fill-opacity:1" />
</g>
</svg>
