<?xml version="1.0" encoding="utf-8"?>
<!-- Generator: Adobe Illustrator 22.0.1, SVG Export Plug-In . SVG Version: 6.00 Build 0)  -->
<svg version="1.1" id="Layer_1" xmlns="http://www.w3.org/2000/svg" xmlns:xlink="http://www.w3.org/1999/xlink" x="0px" y="0px"
	 width="1000px" height="437.3015442px" viewBox="0 0 1000 437.3015442" enable-background="new 0 0 1000 437.3015442"
	 xml:space="preserve">
<g>
	<linearGradient id="SVGID_1_" gradientUnits="userSpaceOnUse" x1="564.0459595" y1="218.6507721" x2="1000" y2="218.6507721">
		<stop  offset="0" style="stop-color:#E84E27"/>
		<stop  offset="1" style="stop-color:#E52A2F"/>
	</linearGradient>
	<polygon fill="url(#SVGID_1_)" points="564.0459595,387.6007385 1000,437.3015442 951.6473389,0 564.0459595,0 	"/>
	<path fill="#FFFFFF" d="M616.1130371,202.7774506c0-42.1730499,15.8497925-78.1705704,47.5493164-107.9925613
		c31.6995239-29.8069153,70.0646973-44.7141418,115.1256714-44.7141418c23.4504395,0,46.3278198,3.1518555,68.6019287,9.4480286
		c22.2741089,6.3037186,37.8933105,19.1003265,37.8933105,19.1003265l-24.6331787,76.0591965
		c-3.1217041-1.7719727-1.8742676-3.0845795-18.2216797-7.4579773c-16.3474121-4.3658447-32.5742188-6.552536-48.6652832-6.552536
		c-17.5991211,0-32.6646729,6.4620514-45.211792,19.3710938c-12.5320435,12.9165802-18.805542,28.6230774-18.805542,47.1044312
		c0,17.3502808,5.1726685,32.1971893,15.53302,44.5407104c10.3604126,12.3510437,22.6511841,18.519043,36.8722534,18.519043
		c11.4914551,0,21.1882935-3.5741272,29.1056519-10.7298889c7.9324341-7.155777,11.8986206-16.173996,11.8986206-27.0697784
		l-47.5493164,11.5894928l3.9209595-69.1372681h142.2709351c2.5033569,9.3726349,3.7399902,18.1721954,3.7399902,26.3986816
		c0,40.943985-15.1259155,75.9612732-45.3927612,105.0518494c-30.2518311,29.098114-66.7319336,43.6434021-109.4101563,43.6434021
		c-42.6782837,0-79.1130981-14.356781-109.3196411-43.070343
		C631.2087402,278.1656494,616.1130371,243.4650574,616.1130371,202.7774506z"/>
	<g>
		<path fill="#FFFFFF" d="M98.5528107,169.7996674c-7.3063889,7.8433075-21.5636444,12.6537781-33.8618851,12.6537781
			C28.8700314,182.4534454,0,155.1868896,0,117.5811234s28.8700314-64.8723145,64.6909256-64.8723145
			c24.2337036,0,45.4418259,12.8351555,56.6734924,33.1508369l-30.4735184,8.0174332
			c-5.8842926-7.125-16.3976593-11.5799332-26.1999741-11.5799332c-20.6711998,0-33.5063553,14.786911-33.5063553,35.2839813
			c0,21.9191666,14.7941685,35.6467667,35.2912369,35.6467667c19.9528961,0,28.6886368-10.3392334,32.2511368-19.6046295v-0.1813965
			H65.9388885v-24.0595703h58.2769775v70.5752258H98.5528107c0-8.1988373,0.1741333-9.9837036,0.1741333-10.1578522H98.5528107z"/>
		<path fill="#FFFFFF" d="M223.7336731,160.35289h-49.3670959l-7.125,19.6046295h-32.2583923l49.904007-124.7527924h28.3331146
			l49.896759,124.7527924h-32.2511292L223.7336731,160.35289z M214.1127472,134.1529083l-8.9098663-24.2337036
			c-2.6773224-7.1322479-5.8842926-18.3566666-6.0656891-18.3566666h-0.1741333
			c-0.1813965,0-3.3883667,11.2244186-6.0584259,18.3566666l-8.9098816,24.2337036H214.1127472z"/>
		<path fill="#FFFFFF" d="M398.1002502,55.204731v124.7527924h-29.4069519v-30.473526
			c0-29.5883331,1.073822-44.2011108,0.8924561-44.2011108h-0.1741333c-0.1813965,0-10.1651001,17.1087036-11.2316895,18.8935776
			l-14.6127625,24.9520035h-15.5052185l-14.612793-24.9520035c-1.0665588-1.784874-11.0502625-18.8935776-11.2316589-18.8935776
			h-0.1741333c-0.1813965,0,0.8924255,14.6127777,0.8924255,44.2011108v30.473526h-29.4069214V55.204731h28.1589661
			l23.3412781,37.7871666c9.0912476,14.786911,10.5205994,17.9938812,10.6947327,17.9938812h0.1813965
			c0.1741333,0,1.6034851-3.2069702,10.6947632-17.9938812l23.3412781-37.7871666H398.1002502z"/>
		<path fill="#FFFFFF" d="M517.7668457,151.9799194v27.9776001h-91.7833252V55.204731h90.7095337v27.9848442h-60.7729187V103.67939
			h47.5894775v26.1999741h-47.5894775v22.1005554H517.7668457z"/>
	</g>
	<g>
		<path fill="#FFFFFF" d="M98.3460312,209.832901v10.0731964h-43.953743v118.1270752H43.7673378V219.9060974H0V209.832901
			H98.3460312z"/>
		<path fill="#FFFFFF" d="M171.4680481,207.2679901c36.810791,0,66.6650391,28.02005,66.6650391,66.6650543
			s-29.854248,66.6650391-66.6650391,66.6650391s-66.4786301-28.02005-66.4786301-66.6650391
			S134.6572571,207.2679901,171.4680481,207.2679901z M171.4680481,330.3384705
			c31.1367035,0,55.861145-23.0691833,55.861145-56.405426c0-33.6941528-24.7244415-56.4054413-55.861145-56.4054413
			c-31.3156433,0-55.674736,22.7112885-55.674736,56.4054413
			C115.7933121,307.2692871,140.1524048,330.3384705,171.4680481,330.3384705z"/>
		<path fill="#FFFFFF" d="M324.2883911,207.2679901c36.810791,0,66.6650391,28.02005,66.6650391,66.6650543
			s-29.854248,66.6650391-66.6650391,66.6650391s-66.4786377-28.02005-66.4786377-66.6650391
			S287.4776001,207.2679901,324.2883911,207.2679901z M324.2883911,330.3384705
			c31.1366882,0,55.861145-23.0691833,55.861145-56.405426c0-33.6941528-24.7244568-56.4054413-55.861145-56.4054413
			c-31.3156433,0-55.6747437,22.7112885-55.6747437,56.4054413
			C268.6136475,307.2692871,292.9727478,330.3384705,324.2883911,330.3384705z"/>
		<path fill="#FFFFFF" d="M517.7668457,209.832901v128.2002716h-9.8867798l-65.3825989-88.0938873
			c-10.9902954-15.0166016-16.4854431-23.2555847-16.6643982-23.2555847h-0.1864014
			c-0.1789246,0,0.3653564,15.0165863,0.3653564,33.3287811v78.0206909h-10.4385376V209.832901h9.8942566l65.196167,87.7285309
			c10.0732117,13.5477295,16.6643982,22.7038269,16.8507996,22.7038269h0.1789551
			c0.1864014,0-0.5517578-15.3819275-0.5517578-32.5980835V209.832901H517.7668457z"/>
	</g>
	<g>
		<path fill="#FFFFFF" d="M918.1682129,395.5713501H902.878418v-17.9109497H889.850769v17.9109497h-15.2897339v-50.3232422
			h15.2897339v17.8449402h13.0276489v-17.8449402h15.2897949V395.5713501z"/>
	</g>
	<path fill="#FFFFFF" d="M946.4649658,395.5713501h-22.2659302v-50.3232422h22.2659302
		c14.7943726,0,25.9520874,10.9017944,25.9520874,25.3618469
		C972.4170532,385.0741272,961.5028687,395.5713501,946.4649658,395.5713501z M939.4887695,381.0081177h6.9761963
		c4.9121704,0,10.2000122-3.2527771,10.2000122-10.3981628c0-7.087616-5.1309814-10.7944641-10.2000122-10.7944641h-6.9761963
		V381.0081177z"/>
</g>
</svg>
