<?xml version="1.0" encoding="UTF-8"?>
<svg width="515px" height="214px" viewBox="0 0 515 214" version="1.1" xmlns="http://www.w3.org/2000/svg" xmlns:xlink="http://www.w3.org/1999/xlink">
    <title>hbo-logo-blk</title>
    <g id="hbo-logo-blk" stroke="none" stroke-width="1" fill="none" fill-rule="evenodd">
        <polyline id="Fill-15" fill="#000000" points="148 206 92.7748343 206 92.7748343 127.236832 56.9262346 127.236832 56.9262346 206 0 206 0 3 56.9262346 3 56.9262346 78.5141926 92.7748343 78.5141926 92.7748343 3 148 3 148 206"></polyline>
        <path d="M401.005705,143.628279 C423.414785,143.628279 441.581907,125.478317 441.581907,103.082954 C441.581907,80.6935779 423.414785,62.5406226 401.005705,62.5406226 C378.593629,62.5406226 360.428504,80.6935779 360.428504,103.082954 C360.428504,125.478317 378.593629,143.628279 401.005705,143.628279 Z M349.389229,103.082954 C349.389229,74.6013527 372.497313,51.5095644 401.005705,51.5095644 C429.513098,51.5095644 452.625177,74.6013527 452.625177,103.082954 C452.625177,131.569545 429.513098,154.660335 401.005705,154.660335 C372.497313,154.660335 349.389229,131.569545 349.389229,103.082954 Z M277.515608,103.082954 C283.90251,102.274782 294.549344,94.9782795 298.300002,90.3208102 C296.981879,96.0957528 296.881023,112.809961 298.421828,118.584904 C294.140926,111.999793 284.005363,103.89412 277.515608,103.082954 Z M240.407465,48.482409 C248.518911,48.482409 254.906812,56.4833185 254.906812,65.6017014 C254.906812,74.7200843 248.518911,82.7259825 240.407465,82.7259825 L212.527179,82.7259825 L212.527179,48.482409 L240.407465,48.482409 Z M240.305611,124.560393 C248.416058,124.560393 254.804957,132.565293 254.804957,141.680683 C254.804957,150.800064 248.416058,158.801971 240.305611,158.801971 L212.425324,158.801971 L212.425324,124.560393 L240.305611,124.560393 Z M400.971753,207 C457.781832,206.978042 504.012979,159.814681 504,103.043045 C503.989013,45.0741153 457.781832,0.0429330444 400.971753,1.42108547e-14 C344.227581,-0.0408774558 315.233881,41.6947562 308.070085,58.5406667 C308.13699,33.251846 283.191523,3.40233726 254.012087,3.37040945 L160,3.37040945 L160,205.991274 L247.651147,206.008235 C282.98981,206.008235 308.135991,175.412414 308.17893,149.176734 C316.24544,165.6884 344.227581,207.019948 400.971753,207 L400.971753,207 Z" id="Fill-16" fill="#000000"></path>
        <path d="M488.922898,14.607214 L488.922898,10.1432842 L491.85748,10.1432842 C493.359191,10.1432842 494.959246,10.4730969 494.959246,12.2586688 C494.959246,14.4756875 493.326738,14.607214 491.499508,14.607214 L488.922898,14.607214 Z M488.922898,16.4585492 L491.401164,16.4585492 L495.154951,22.708051 L497.570277,22.708051 L493.522442,16.3599043 C495.611266,16.0948585 497.210338,14.9719012 497.210338,12.3911917 C497.210338,9.54842567 495.546359,8.29194898 492.183982,8.29194898 L486.7672,8.29194898 L486.7672,22.708051 L488.922898,22.708051 L488.922898,16.4585492 Z M491.533929,28 C498.255733,28 504,22.708051 504,15.4671184 C504,8.29194898 498.255733,3 491.533929,3 C484.743283,3 479,8.29194898 479,15.4671184 C479,22.708051 484.743283,28 491.533929,28 Z M481.480233,15.4671184 C481.480233,9.54842567 485.885056,5.0834994 491.533929,5.0834994 C497.113961,5.0834994 501.519767,9.54842567 501.519767,15.4671184 C501.519767,21.4854524 497.113961,25.9165006 491.533929,25.9165006 C485.885056,25.9165006 481.480233,21.4854524 481.480233,15.4671184 L481.480233,15.4671184 Z" id="Fill-17" fill="#000000"></path>
    </g>
</svg>