<?xml version="1.0" encoding="utf-8"?>
<!-- Generator: Adobe Illustrator 23.0.3, SVG Export Plug-In . SVG Version: 6.00 Build 0)  -->
<svg version="1.1" id="Capa_1" xmlns="http://www.w3.org/2000/svg" xmlns:xlink="http://www.w3.org/1999/xlink" x="0px" y="0px"
	 viewBox="0 0 51 35" style="enable-background:new 0 0 51 35;" xml:space="preserve">
<style type="text/css">
	.st0{fill-rule:evenodd;clip-rule:evenodd;fill:#1D1D1B;}
</style>
<g>
	<path class="st0" d="M0,24.7h50.5v-0.5H0V24.7z"/>
	<g>
		<path class="st0" d="M2.3,31.3c0.3,0,0.5,0,0.7-0.1c0.2-0.1,0.4-0.2,0.5-0.3c0.1-0.1,0.3-0.3,0.3-0.4C3.9,30.3,4,30.1,4,29.9v0
			c0-0.4-0.2-0.8-0.5-1c-0.3-0.2-0.7-0.3-1.2-0.3H0.7v2.7H2.3L2.3,31.3z M0,27.9h2.3c0.3,0,0.7,0,1,0.1c0.3,0.1,0.5,0.2,0.7,0.4
			c0.2,0.2,0.4,0.4,0.5,0.6c0.1,0.2,0.2,0.5,0.2,0.8v0c0,0.3-0.1,0.6-0.2,0.9s-0.3,0.5-0.5,0.6c-0.2,0.2-0.5,0.3-0.8,0.4
			c-0.3,0.1-0.6,0.1-0.9,0.1H0.7v2.2H0L0,27.9L0,27.9z M8.9,33.5c0.4,0,0.7-0.1,1-0.2s0.6-0.3,0.8-0.5c0.2-0.2,0.4-0.5,0.5-0.8
			c0.1-0.3,0.2-0.6,0.2-1v0c0-0.4-0.1-0.7-0.2-1c-0.1-0.3-0.3-0.6-0.5-0.8c-0.2-0.2-0.5-0.4-0.8-0.6c-0.3-0.1-0.6-0.2-1-0.2
			c-0.4,0-0.7,0.1-1,0.2c-0.3,0.1-0.6,0.3-0.8,0.5c-0.2,0.2-0.4,0.5-0.5,0.8c-0.1,0.3-0.2,0.7-0.2,1v0c0,0.4,0.1,0.7,0.2,1
			c0.1,0.3,0.3,0.6,0.5,0.8c0.2,0.2,0.5,0.4,0.8,0.6C8.2,33.5,8.5,33.5,8.9,33.5 M8.8,34.2c-0.5,0-0.9-0.1-1.3-0.3
			c-0.4-0.2-0.7-0.4-1-0.7c-0.3-0.3-0.5-0.6-0.6-1c-0.2-0.4-0.2-0.8-0.2-1.2v0c0-0.4,0.1-0.8,0.2-1.2c0.1-0.4,0.4-0.7,0.7-1
			c0.6-0.6,1.4-1,2.3-1c0.9,0,1.7,0.3,2.3,1c0.3,0.3,0.5,0.6,0.6,1c0.2,0.4,0.2,0.8,0.2,1.2v0c0,0.4-0.1,0.8-0.2,1.2
			c-0.2,0.4-0.4,0.7-0.6,1C10.5,33.9,9.7,34.2,8.8,34.2 M16.1,31c0.2,0,0.4,0,0.6-0.1c0.2-0.1,0.4-0.1,0.5-0.3
			c0.1-0.1,0.3-0.2,0.3-0.4c0.1-0.2,0.1-0.3,0.1-0.5v0c0-0.4-0.1-0.7-0.4-0.9c-0.3-0.2-0.7-0.3-1.2-0.3h-1.9V31
			C14.2,31,16.1,31,16.1,31z M13.5,27.9h2.7c0.4,0,0.7,0.1,1,0.2c0.3,0.1,0.5,0.3,0.7,0.5c0.2,0.2,0.3,0.3,0.4,0.5
			c0.1,0.2,0.1,0.4,0.1,0.7v0c0,0.3,0,0.5-0.1,0.7c-0.1,0.2-0.2,0.4-0.4,0.5c-0.2,0.2-0.3,0.3-0.5,0.4c-0.2,0.1-0.4,0.2-0.7,0.2
			l1.9,2.5h-0.9L16,31.7h-1.8v2.4h-0.7C13.5,34.1,13.5,27.9,13.5,27.9z M21.5,28.5h-2.1v-0.6h4.9v0.6h-2.1v5.6h-0.7V28.5z
			 M28.1,34.2c-0.4,0-0.7-0.1-1.1-0.2c-0.3-0.1-0.6-0.3-0.8-0.5c-0.2-0.2-0.4-0.5-0.5-0.8c-0.1-0.4-0.2-0.8-0.2-1.2v-3.6h0.7v3.6
			c0,0.7,0.2,1.2,0.5,1.6c0.3,0.4,0.8,0.5,1.4,0.5c0.6,0,1-0.2,1.4-0.5c0.3-0.3,0.5-0.9,0.5-1.5v-3.6h0.7v3.6c0,0.5-0.1,0.9-0.2,1.2
			c-0.1,0.3-0.3,0.6-0.5,0.9c-0.2,0.2-0.5,0.4-0.8,0.5C28.8,34.1,28.5,34.2,28.1,34.2 M35.3,34.2c-0.5,0-0.9-0.1-1.3-0.2
			c-0.4-0.2-0.7-0.4-1-0.7c-0.3-0.3-0.5-0.6-0.6-1c-0.1-0.4-0.2-0.8-0.2-1.3v0c0-0.4,0.1-0.8,0.2-1.2s0.4-0.7,0.6-1
			c0.3-0.3,0.6-0.5,1-0.7c0.4-0.2,0.8-0.3,1.3-0.3c0.3,0,0.5,0,0.7,0.1c0.2,0,0.4,0.1,0.6,0.2c0.2,0.1,0.4,0.2,0.5,0.3
			c0.2,0.1,0.3,0.2,0.5,0.4l-0.5,0.5c-0.1-0.1-0.2-0.2-0.4-0.3c-0.3-0.2-0.6-0.3-0.9-0.4c-0.2,0-0.4-0.1-0.6-0.1
			c-0.3,0-0.7,0.1-1,0.2c-0.3,0.1-0.5,0.3-0.7,0.6c-0.2,0.2-0.4,0.5-0.5,0.8c-0.1,0.3-0.2,0.6-0.2,1v0c0,0.4,0.1,0.7,0.2,1
			c0.1,0.3,0.3,0.6,0.5,0.8s0.5,0.4,0.8,0.5c0.3,0.1,0.6,0.2,1,0.2c0.4,0,0.7-0.1,1-0.2c0.3-0.1,0.6-0.3,0.8-0.4v-1.5h-1.9v-0.6h2.6
			v2.5c-0.3,0.3-0.6,0.5-1.1,0.7C36.3,34.1,35.8,34.2,35.3,34.2 M43.4,31.8L42,28.6l-1.4,3.2H43.4L43.4,31.8z M41.7,27.8h0.7
			l2.8,6.3h-0.8l-0.7-1.6h-3.4l-0.7,1.6h-0.7L41.7,27.8z M46.4,27.9h0.7v5.6h3.5v0.7h-4.2V27.9z M50.2,0.9c0.1,0,0.1,0,0.1,0
			c0,0,0-0.1,0-0.1v0c0,0,0-0.1,0-0.1c0,0-0.1,0-0.1,0H50v0.3H50.2L50.2,0.9z M49.9,0.5h0.4c0.1,0,0.2,0,0.2,0.1
			c0,0,0.1,0.1,0.1,0.2v0c0,0.1,0,0.1-0.1,0.2c0,0-0.1,0.1-0.1,0.1l0.2,0.3h-0.2l-0.2-0.3H50v0.3h-0.2C49.9,1.3,49.9,0.5,49.9,0.5z
			 M50.2,1.7c0.2,0,0.4-0.1,0.5-0.2c0.1-0.1,0.1-0.1,0.1-0.2c0-0.1,0.1-0.2,0.1-0.3v0c0-0.2-0.1-0.4-0.2-0.5
			c-0.1-0.1-0.1-0.1-0.2-0.2c-0.3-0.1-0.6-0.1-0.8,0.2c-0.1,0.1-0.2,0.3-0.2,0.5v0C49.5,1.3,49.8,1.7,50.2,1.7
			C50.2,1.7,50.2,1.7,50.2,1.7z M50.2,1.7c-0.4,0-0.8-0.3-0.8-0.8c0,0,0,0,0,0v0c0-0.2,0.1-0.4,0.2-0.5c0.1-0.1,0.3-0.2,0.6-0.2
			c0.4,0,0.8,0.3,0.8,0.8c0,0,0,0,0,0v0c0,0.3-0.2,0.6-0.5,0.7C50.4,1.7,50.3,1.7,50.2,1.7z"/>
	</g>
	<path class="st0" d="M40.1,15.9c-2.9,0-5.2-2.3-5.2-5.2c0-2.9,2.3-5.2,5.2-5.2c0,0,0,0,0,0c2.9,0,5.2,2.3,5.2,5.2c0,0,0,0,0,0
		C45.4,13.5,43,15.9,40.1,15.9z M27.6,10.8c0.7-0.2,1.4-0.5,1.9-1c0,0.3,0,0.6,0,0.9c0,0.4,0,0.8,0.1,1.1
		C29,11.3,28.3,10.9,27.6,10.8z M24.1,8.4h-2.8V5.3h2.9c0.7,0,1.3,0.8,1.3,1.6C25.4,7.6,24.8,8.4,24.1,8.4z M24.2,16.2h-2.9v-3.2H24
		c0.8,0,1.5,0.8,1.5,1.6C25.4,15.4,25,16.2,24.2,16.2z M40.1,0c-3.8,0-7.4,2.1-9.3,5.4c-0.4-2.9-2.4-4.8-5.4-4.8h-9.6V21h9.5
		c0,0,0.1,0,0.1,0c3.1,0,5.1-2,5.5-5c1.9,3.3,5.4,5.3,9.2,5.3c5.9,0,10.7-4.8,10.7-10.7C50.8,4.8,46,0,40.1,0z M40.1,6.6
		c-2.3,0-4.1,1.9-4,4.2c0,2.2,1.8,4,4,4c2.3,0,4.1-1.8,4.1-4.1C44.2,8.4,42.4,6.6,40.1,6.6z M9.3,8.3H5.5V0.5H0V21h5.5v-8h3.9v8h5.4
		V0.5H9.3V8.3z"/>
</g>
</svg>
