<?xml version="1.0" encoding="UTF-8" standalone="no"?>
<svg xmlns="http://www.w3.org/2000/svg" version="1.2" width="1000" height="579.40198">
  <g transform="translate(-133.41894,-822.16314) matrix(17.544211,0,0,17.544211,-8113.062,-276.98168)">
    <path d="m 525.826,67.534 c -0.641,-0.86 -3.175,-2.788 -5.936,-4.884 0.067,0.055 0.134,0.109 0.199,0.165 0.007,0.007 0.016,0.014 0.022,0.021 0.062,0.054 0.124,0.109 0.186,0.165 0.01,0.008 0.018,0.017 0.027,0.026 0.062,0.055 0.121,0.111 0.18,0.169 0.007,0.007 0.014,0.014 0.021,0.021 0.122,0.119 0.239,0.241 0.352,0.367 0.01,0.008 0.017,0.018 0.025,0.026 0.053,0.06 0.106,0.12 0.158,0.181 0.009,0.011 0.018,0.022 0.027,0.033 0.052,0.061 0.103,0.123 0.151,0.185 0.008,0.01 0.016,0.02 0.021,0.028 0.053,0.066 0.104,0.133 0.153,0.2 0.251,0.336 0.222,0.525 0.03,0.688 -0.193,0.161 -5.962,4.952 -6.196,5.138 -0.237,0.186 -0.435,0.06 -0.517,-0.016 -0.796,-0.735 -1.656,-1 -2.923,-0.749 -2.044,0.401 -3.806,2.646 -3.743,4.855 l 0.002,0.044 c 0.064,2.275 1.924,3.368 3.969,2.964 0.046,-0.009 0.092,-0.019 0.136,-0.029 0.036,-0.462 0.088,-0.685 0.088,-0.685 0.341,-2.034 1.948,-3.663 3.678,-4.002 1.041,-0.206 1.806,-0.059 2.487,0.406 0.009,0.007 0.432,0.34 0.434,0.342 0.084,0.076 0.279,0.203 0.517,0.016 l 6.401,-5.072 c 0.096,-0.076 0.158,-0.192 0.158,-0.322 0.003,-0.111 -0.039,-0.208 -0.107,-0.281" />
    <path d="m 526.957,80.517 -4.613,-3.657 -0.002,0.001 c 0.01,0.008 0.02,0.019 0.028,0.029 0,0.001 10e-4,0.001 10e-4,0.003 0.008,0.01 0.016,0.021 0.021,0.032 0,0.001 10e-4,0.002 0.002,0.003 0.005,0.012 0.01,0.024 0.013,0.036 0,0 0,0.001 0,0.002 0.025,0.092 10e-4,0.208 -0.039,0.32 -0.001,0.001 -0.001,0.003 -0.002,0.006 -0.005,0.014 -0.011,0.027 -0.016,0.041 -10e-4,0.003 -0.002,0.007 -0.004,0.011 -0.006,0.012 -0.01,0.025 -0.017,0.037 -10e-4,0.004 -0.003,0.009 -0.005,0.014 -0.006,0.011 -0.011,0.022 -0.015,0.033 -0.003,0.005 -0.005,0.01 -0.009,0.016 -0.004,0.009 -0.008,0.02 -0.013,0.029 -0.004,0.007 -0.006,0.014 -0.009,0.02 -0.005,0.007 -0.025,0.049 -0.032,0.061 -1.85,3.679 -5.513,7.109 -10.33,8.068 -0.964,0.192 -1.839,0.281 -2.628,0.272 -5.464,0.016 -9.393,-3.649 -9.538,-10.171 l -10e-4,-0.068 c -0.067,-3.33 0.743,-6.219 2.216,-8.555 0.01,-0.017 0.021,-0.035 0.032,-0.053 -0.488,-0.387 -3.847,-3.034 -3.953,-3.116 0.072,0.064 0.119,0.157 0.119,0.262 l 0,0.246 0,6.862 0,0.002 c 0,0.177 -0.13,0.323 -0.301,0.349 l -7.21,1.18 c 0,0 0,0 -10e-4,0 l 10e-4,0.003 c -0.099,0 -0.18,0.08 -0.18,0.181 l -10e-4,-0.001 0,3.009 10e-4,0 c 0,0.1 0.081,0.18 0.18,0.18 l 0,0.002 c 0,0 6.081,-0.998 6.109,-0.998 0.195,0 0.353,0.158 0.353,0.353 l 0,0.004 0,6.991 0,0.002 c 0,0.176 -0.128,0.321 -0.296,0.348 l -6.165,1.007 c 0,0 0,0 -0.001,0 l 0.001,0.002 c -0.089,0 -0.163,0.066 -0.177,0.151 l 0,4.39 0,0.002 c 0,0.184 -0.139,0.335 -0.319,0.352 0,0 -7.103,1.165 -7.883,1.287 -0.01,0.002 -0.02,0.003 -0.029,0.004 -0.025,0.004 -0.039,0.006 -0.041,0.006 -0.195,0 -0.353,-0.157 -0.353,-0.353 l 0,-0.002 0,-20.087 -3.267,-2.573 c 0,0 0.002,0.001 0.005,0.004 0.081,0.064 0.132,0.164 0.132,0.275 l 0,0.251 0,22.754 0,0.002 c 0,0.173 -0.124,0.316 -0.287,0.347 l -8.129,1.329 c -0.024,0.006 -0.049,0.009 -0.075,0.009 -0.07,0 -0.135,-0.021 -0.19,-0.057 l 4.482,3.555 c 0.093,0.072 0.161,0.123 0.259,0.113 0.007,0 9.808,-1.604 9.808,-1.604 0.166,-0.029 0.292,-0.173 0.292,-0.347 l 0,-1.402 1.662,1.321 c 0.119,0.093 0.247,0.071 0.247,0.071 l 8.018,-1.311 c 0.167,-0.027 0.296,-0.172 0.296,-0.348 l 0,-4.487 c 0.005,-0.078 0.058,-0.142 0.13,-0.163 l 0.046,-0.008 c 0.001,0 0.002,0 0.003,0 l 7.189,-1.177 c 0.167,-0.028 0.294,-0.173 0.294,-0.349 l 0,-1.789 c 2.764,2.677 6.771,4.524 6.774,4.525 1.96,0.937 4.36,1.182 7.003,0.656 4.817,-0.959 8.47,-4.369 10.319,-8.047 0.1,-0.195 0.284,-0.545 0.095,-0.698" />
  </g>
</svg>
