<?xml version="1.0" encoding="UTF-8" standalone="no"?>
<svg
   version="1.2"
   viewBox="0 0 400.00079 63.429962"
   width="400.00079"
   height="63.429962"
   id="svg7"
   sodipodi:docname="larock22.svg"
   inkscape:version="1.1.2 (0a00cf5339, 2022-02-04)"
   xmlns:inkscape="http://www.inkscape.org/namespaces/inkscape"
   xmlns:sodipodi="http://sodipodi.sourceforge.net/DTD/sodipodi-0.dtd"
   xmlns="http://www.w3.org/2000/svg"
   xmlns:svg="http://www.w3.org/2000/svg"
   xmlns:rdf="http://www.w3.org/1999/02/22-rdf-syntax-ns#"
   xmlns:cc="http://creativecommons.org/ns#"
   xmlns:dc="http://purl.org/dc/elements/1.1/">
  <defs
     id="defs11" />
  <sodipodi:namedview
     id="namedview9"
     pagecolor="#ffffff"
     bordercolor="#666666"
     borderopacity="1.0"
     inkscape:pageshadow="2"
     inkscape:pageopacity="0.0"
     inkscape:pagecheckerboard="0"
     showgrid="false"
     inkscape:zoom="1.9568762"
     inkscape:cx="180.90056"
     inkscape:cy="43.947593"
     inkscape:window-width="1920"
     inkscape:window-height="1011"
     inkscape:window-x="0"
     inkscape:window-y="0"
     inkscape:window-maximized="1"
     inkscape:current-layer="svg7" />
  <title
     id="title2">LaRock22 (1)</title>
  <style
     id="style4">
		.s0 { fill: #0f1029 } 
	</style>
  <path
     id="Path 0"
     fill-rule="evenodd"
     class="s0"
     d="m 149.8037,2.4e-4 c 114.2828,0 142.9169,0.0217 142.9169,0.0942 0,0.0435 -4.8569,8.06106 -21.5734,35.53533 l 9.7718,0.0217 c 6.5677,0.007 9.7646,0.0362 9.7574,0.087 -0.014,0.0435 -4.3423,6.28501 -19.232,27.68449 l -135.7258,0.007 C 6.5098,63.43001 0,63.42296 0,63.30678 0,63.23428 1.5369,49.00421 3.4071,31.67874 5.2847,14.35328 6.836,0.1377 6.8505,0.0942 6.8795,0.0217 35.5281,0 149.8037,0 Z m 6.8867,7.51012 c -0.5582,0.058 -1.4571,0.18848 -1.9935,0.28997 -0.5365,0.10149 -1.3701,0.28271 -1.8486,0.3987 -0.4784,0.12324 -1.3266,0.36971 -1.8848,0.55094 -0.5581,0.18123 -1.4063,0.49294 -1.8847,0.68867 -0.4785,0.20297 -1.3774,0.61617 -1.9936,0.92789 -0.6161,0.31171 -1.5295,0.8264 -2.0297,1.13811 -0.5002,0.31172 -1.2904,0.84815 -1.7543,1.20336 -0.4712,0.34796 -1.2396,0.97139 -1.7036,1.38459 -0.4712,0.4132 -1.1453,1.05112 -1.5078,1.42808 -0.3552,0.37696 -0.9569,1.05838 -1.3338,1.51507 -0.377,0.4567 -0.8989,1.14537 -1.1671,1.52232 -0.2683,0.37696 -0.7322,1.09462 -1.0294,1.59482 -0.3045,0.50019 -0.7394,1.29759 -0.9859,1.77604 -0.2392,0.47844 -0.6017,1.26135 -0.7974,1.73979 -0.203,0.47845 -0.5147,1.3121 -0.6959,1.84854 -0.1812,0.53643 -0.4567,1.48607 -0.6162,2.10225 -0.1595,0.61618 -0.3697,1.59481 -0.4712,2.17474 -0.1015,0.57993 -0.2392,1.45708 -0.2972,1.95727 -0.065,0.50019 -0.1305,1.7253 -0.1595,2.71843 -0.029,1.15987 -0.01,2.20374 0.043,2.89966 0.051,0.60168 0.1667,1.55857 0.2682,2.1385 0.094,0.57993 0.29,1.48608 0.4277,2.01526 0.1378,0.52194 0.406,1.37009 0.5872,1.88478 0.1812,0.50744 0.5727,1.41359 0.8627,2.00802 0.2972,0.60168 0.7974,1.47882 1.1091,1.95727 0.3117,0.47844 0.7756,1.13086 1.0294,1.44983 0.2537,0.31896 0.8191,0.94963 1.2613,1.40633 0.4422,0.44945 1.1454,1.10187 1.5658,1.44983 0.4132,0.34071 1.1526,0.8844 1.6311,1.20336 0.4784,0.31896 1.2903,0.79741 1.8123,1.06562 0.5219,0.26822 1.3991,0.66693 1.9572,0.89165 0.5582,0.22472 1.5079,0.55094 2.1023,0.72491 0.6017,0.17398 1.5078,0.39871 2.0298,0.5002 0.5219,0.10148 1.3193,0.23197 1.776,0.28996 0.4567,0.0652 1.4571,0.14498 2.211,0.19573 1.0004,0.058 1.7688,0.058 2.8127,0 0.7829,-0.0435 1.8122,-0.13049 2.2834,-0.18848 0.464,-0.058 1.2904,-0.19573 1.8268,-0.29721 0.5365,-0.0942 1.3556,-0.28272 1.8123,-0.39871 0.4567,-0.12323 1.1454,-0.31896 1.5223,-0.44219 0.377,-0.11599 1.1961,-0.41321 1.8123,-0.65968 0.6162,-0.23922 1.6166,-0.68867 2.211,-0.99313 0.6017,-0.30447 1.5078,-0.81915 2.0298,-1.13812 0.5219,-0.32621 1.3338,-0.87714 1.8123,-1.2396 0.4784,-0.35521 1.1671,-0.8989 1.5223,-1.21061 0.3552,-0.31171 0.9931,-0.91339 1.4136,-1.33384 0.4204,-0.4277 1.0076,-1.06563 1.3121,-1.42084 0.2972,-0.36245 0.7394,-0.91339 0.9786,-1.23235 0.2392,-0.31896 0.6379,-0.8699 0.8771,-1.23236 0.2393,-0.36245 0.6017,-0.94239 0.8192,-1.30484 0.2102,-0.36246 0.5654,-1.02938 0.7974,-1.48608 0.232,-0.45669 0.5799,-1.2251 0.7829,-1.70355 0.203,-0.47844 0.5147,-1.31209 0.7032,-1.84853 0.1812,-0.53644 0.4712,-1.55132 0.6524,-2.24724 0.174,-0.69591 0.3987,-1.77604 0.5002,-2.39222 0.1015,-0.61617 0.2392,-1.64555 0.2972,-2.28348 0.058,-0.65242 0.1087,-1.89927 0.1087,-2.84166 0,-1.01488 -0.043,-2.11675 -0.1159,-2.75468 -0.058,-0.59443 -0.174,-1.41358 -0.2538,-1.83403 -0.08,-0.42045 -0.2537,-1.18162 -0.3914,-1.70355 -0.1305,-0.51469 -0.3697,-1.2976 -0.5292,-1.7398 -0.1595,-0.43495 -0.4422,-1.13812 -0.6234,-1.55857 -0.1885,-0.42045 -0.5075,-1.05112 -0.7104,-1.41358 -0.203,-0.35521 -0.5727,-0.96414 -0.8265,-1.34109 -0.2537,-0.37696 -0.6814,-0.96414 -0.9496,-1.30485 -0.2682,-0.33346 -0.7539,-0.8844 -1.0729,-1.2251 -0.3189,-0.33347 -0.9061,-0.89165 -1.3048,-1.23236 -0.3987,-0.34796 -1.0511,-0.8554 -1.4498,-1.13812 -0.3987,-0.28271 -1.0004,-0.68142 -1.3411,-0.88439 -0.3407,-0.20298 -1.0874,-0.59443 -1.6673,-0.8699 -0.58,-0.28272 -1.4644,-0.65967 -1.9718,-0.8409 -0.5147,-0.18123 -1.2759,-0.43495 -1.7036,-0.55094 -0.4349,-0.12323 -1.1743,-0.29721 -1.6528,-0.3987 -0.4784,-0.0942 -1.3773,-0.24647 -1.9935,-0.32621 -0.8336,-0.11599 -1.631,-0.15948 -3.1171,-0.17398 -1.0946,-0.0145 -2.153,-0.0145 -2.356,0 -0.1957,0.0145 -0.8191,0.0797 -1.3773,0.14498 z m 51.0702,0.058 c -0.5002,0.0652 -1.3918,0.21747 -1.9935,0.34071 -0.5944,0.12323 -1.5731,0.36245 -2.1747,0.53643 -0.5945,0.16673 -1.5731,0.49294 -2.1748,0.72492 -0.5944,0.22472 -1.6093,0.66692 -2.2472,0.97863 -0.6379,0.31171 -1.6021,0.83365 -2.1385,1.15987 -0.5365,0.32621 -1.2541,0.79015 -1.5948,1.03662 -0.3407,0.24647 -0.9279,0.68867 -1.3049,0.98589 -0.3769,0.30446 -1.1743,1.02213 -1.7688,1.60206 -0.5944,0.57993 -1.4063,1.44258 -1.8123,1.92827 -0.3987,0.47845 -0.9931,1.24686 -1.3121,1.70355 -0.3189,0.44945 -0.7901,1.16712 -1.0366,1.58757 -0.2537,0.42045 -0.6669,1.16711 -0.9206,1.6673 -0.2465,0.50019 -0.6089,1.2686 -0.7974,1.70355 -0.1885,0.4422 -0.5147,1.31934 -0.7322,1.95727 -0.2175,0.63793 -0.5219,1.6673 -0.6742,2.28348 -0.1594,0.61618 -0.3697,1.61656 -0.4712,2.21099 -0.1015,0.60168 -0.2392,1.59481 -0.3044,2.21099 -0.087,0.76841 -0.1233,1.7253 -0.1305,3.0084 0,1.34834 0.036,2.18199 0.1232,2.9359 0.073,0.57994 0.2247,1.52232 0.3407,2.10226 0.116,0.57993 0.3262,1.44258 0.464,1.92102 0.1377,0.47844 0.3842,1.19611 0.5364,1.59481 0.1595,0.39871 0.4495,1.06563 0.6452,1.48608 0.1957,0.42045 0.5872,1.13811 0.8626,1.59481 0.2755,0.4567 0.7322,1.14537 1.0149,1.52232 0.2827,0.37696 0.7902,1.00039 1.1236,1.37734 0.3407,0.37696 0.9424,0.97864 1.3339,1.33384 0.3987,0.35521 1.0366,0.87715 1.4136,1.15987 0.3769,0.28271 1.0004,0.71041 1.3773,0.94964 0.377,0.23197 1.0946,0.63067 1.5948,0.88439 0.5002,0.25372 1.3121,0.61618 1.8123,0.81191 0.5002,0.19572 1.1816,0.44219 1.5223,0.55093 0.3407,0.10149 1.0729,0.30447 1.6311,0.4422 0.5582,0.13773 1.573,0.32621 2.2472,0.4277 0.6742,0.10149 1.8703,0.21747 2.646,0.26097 1.0293,0.0507 1.805,0.0507 2.8634,-0.007 0.7974,-0.0435 1.805,-0.13049 2.2472,-0.18848 0.4422,-0.058 1.0946,-0.15223 1.4498,-0.21747 0.3552,-0.058 1.1889,-0.23923 1.8486,-0.39871 0.6596,-0.16673 1.573,-0.42045 2.0297,-0.57268 0.4567,-0.15223 1.1889,-0.4132 1.6311,-0.58718 0.4422,-0.17398 1.3338,-0.57993 1.9935,-0.90614 0.6597,-0.33346 1.5658,-0.81916 2.0153,-1.09462 0.4494,-0.26822 1.2323,-0.79741 1.7398,-1.15987 0.5074,-0.36971 1.1888,-0.89889 1.5223,-1.18161 0.4422,-0.37696 0.5799,-0.53644 0.5509,-0.63068 -0.022,-0.0725 -1.6455,-2.42846 -3.6028,-5.23388 -1.9645,-2.80542 -3.5883,-5.11065 -3.6173,-5.12515 -0.036,-0.0145 -0.2465,0.12324 -0.4712,0.31171 -0.232,0.18848 -0.7177,0.52919 -1.0729,0.76117 -0.3552,0.23197 -1.0439,0.61617 -1.5223,0.85539 -0.4785,0.23198 -1.1961,0.54369 -1.5948,0.68867 -0.3987,0.15224 -1.0802,0.36246 -1.5224,0.47845 -0.4422,0.10873 -1.1091,0.26097 -1.486,0.33346 -0.4785,0.087 -1.0729,0.12323 -1.9573,0.12323 -1.1019,0 -1.3483,-0.0217 -1.8848,-0.16673 -0.3407,-0.087 -0.8481,-0.26097 -1.1236,-0.3842 -0.2755,-0.11599 -0.7684,-0.38421 -1.0874,-0.59443 -0.3189,-0.21023 -0.8119,-0.60168 -1.0873,-0.8844 -0.2828,-0.27547 -0.6887,-0.74666 -0.8989,-1.04387 -0.2103,-0.29722 -0.5292,-0.82641 -0.7032,-1.17437 -0.174,-0.35521 -0.4132,-0.92064 -0.5292,-1.2686 -0.1232,-0.35521 -0.2827,-0.96413 -0.3697,-1.36284 -0.1015,-0.47844 -0.1667,-1.13086 -0.1957,-1.92102 -0.022,-0.72492 -0.01,-1.50058 0.044,-1.95727 0.043,-0.42045 0.1522,-1.08737 0.2319,-1.48608 0.08,-0.3987 0.2828,-1.13086 0.4422,-1.63106 0.1595,-0.50019 0.522,-1.34834 0.7902,-1.88477 0.2755,-0.53644 0.7249,-1.29035 0.9931,-1.66006 0.2683,-0.37696 0.7974,-1.00038 1.1744,-1.38459 0.377,-0.39145 0.9641,-0.90614 1.3048,-1.15261 0.3408,-0.25372 1.0077,-0.64518 1.4861,-0.8844 0.4785,-0.23197 1.1961,-0.51469 1.5948,-0.62342 0.6815,-0.18848 0.8119,-0.20298 2.1748,-0.20298 1.2396,0 1.573,0.0217 2.2835,0.17398 0.4567,0.0942 1.2251,0.29721 1.7035,0.4567 0.4785,0.15948 1.1961,0.44944 1.5948,0.63792 0.3987,0.18848 1.0294,0.54369 1.3991,0.79016 0.3625,0.24647 0.9352,0.68142 1.2686,0.97863 l 0.5944,0.53644 c 7.3579,-8.0393 9.5037,-10.40978 9.5182,-10.45327 0.014,-0.0435 -0.2973,-0.3987 -0.6887,-0.79741 -0.3915,-0.39145 -1.0511,-0.99313 -1.4716,-1.32659 -0.4204,-0.34071 -1.0729,-0.81916 -1.4498,-1.07288 -0.377,-0.24647 -1.0439,-0.65242 -1.4861,-0.89889 -0.4422,-0.23922 -1.2033,-0.61618 -1.7035,-0.8264 C 221.3243,9.11267 220.5269,8.80096 220.0484,8.64148 219.57,8.482 218.7871,8.25002 218.3086,8.12679 217.8302,8.0108 217.0835,7.84407 216.6413,7.76433 c -0.4422,-0.087 -1.2178,-0.20298 -1.7398,-0.26822 -0.5582,-0.0652 -1.7253,-0.12323 -2.8634,-0.13773 -1.0584,-0.0145 -2.2472,0 -2.6459,0.0362 -0.3987,0.0362 -1.1309,0.11599 -1.6311,0.17398 z M 18.2679,31.95449 c -1.3991,12.86724 -2.5372,23.45099 -2.5372,23.52348 0,0.11599 0.9931,0.12324 19.8264,0.12324 18.8188,0 19.8264,-0.007 19.8699,-0.12324 0.022,-0.0725 0.5582,-1.55131 1.2034,-3.28386 0.6379,-1.73255 1.2251,-3.32736 1.2976,-3.53033 l 0.1377,-0.38421 h 13.7734 c 0.058,0.31171 0.3335,1.93552 0.6524,3.8058 0.319,1.87753 0.58,3.42885 0.58,3.4651 0,0.029 3.2621,0.0507 7.2491,0.0507 4.7844,0 7.2491,-0.0217 7.2491,-0.0725 0,-0.0362 -2.3342,-10.62001 -5.1831,-23.50174 C 79.5377,19.13795 77.189,8.51794 77.1672,8.43095 L 77.1312,8.26422 60.7119,8.30042 46.431,42.33517 c -13.4761,0 -14.317,-0.0145 -14.317,-0.10874 0,-0.058 0.8119,-7.63335 1.8123,-16.83252 0.9931,-9.20642 1.8195,-16.81802 1.8267,-16.92676 l 0.022,-0.20298 c -14.9188,0 -14.9695,0 -14.9695,0.14499 0,0.0797 -1.1454,10.67074 -2.5372,23.54523 z M 95.7975,8.5035 c -0.022,0.12323 -1.1598,10.64175 -2.5372,23.35675 -1.3773,12.72226 -2.5154,23.26252 -2.5372,23.4365 l -0.036,0.30446 h 14.9332 c 0.058,-0.36246 0.464,-4.11027 0.9424,-8.55399 0.4785,-4.44373 0.8844,-8.20604 0.9062,-8.35102 0.022,-0.15223 0.058,-0.26097 0.094,-0.24647 0.029,0.0145 1.718,3.87829 3.7478,8.59024 l 3.697,8.56124 c 12.8963,0 16.6368,-0.0145 16.6368,-0.0362 0,-0.0217 -2.3559,-4.46547 -5.2339,-9.87334 -2.8779,-5.41511 -5.2338,-9.88784 -5.2338,-9.93858 -0.01,-0.0652 0.2899,-0.20298 0.7539,-0.36971 0.4204,-0.15223 1.0221,-0.39145 1.3411,-0.53643 0.3189,-0.13774 0.8554,-0.41321 1.1961,-0.60168 0.3407,-0.18848 0.8481,-0.49295 1.1236,-0.68142 0.2754,-0.18848 0.7684,-0.55094 1.0874,-0.79741 0.3189,-0.25372 0.8699,-0.73941 1.2251,-1.08012 0.3479,-0.34071 0.8844,-0.9134 1.1888,-1.27585 0.3045,-0.35521 0.7757,-0.99314 1.0511,-1.41359 0.2755,-0.42045 0.638,-1.02213 0.812,-1.34109 0.1739,-0.31896 0.4639,-0.93514 0.6379,-1.37734 0.1812,-0.43495 0.4277,-1.12362 0.5437,-1.52232 0.116,-0.3987 0.2899,-1.13087 0.3697,-1.63106 0.087,-0.50019 0.1812,-1.34834 0.203,-1.88478 0.022,-0.57993 0.01,-1.30484 -0.044,-1.77604 -0.051,-0.43495 -0.1523,-1.10912 -0.2393,-1.48607 -0.08,-0.37696 -0.2392,-0.97864 -0.3624,-1.34109 -0.116,-0.35521 -0.377,-0.99314 -0.5727,-1.41359 -0.203,-0.42045 -0.5509,-1.03663 -0.7684,-1.37734 -0.2247,-0.34071 -0.5944,-0.8409 -0.8192,-1.12361 -0.2247,-0.27547 -0.6886,-0.76841 -1.0293,-1.08738 -0.3335,-0.31896 -0.9207,-0.7974 -1.2976,-1.06562 -0.377,-0.26822 -1.0729,-0.68867 -1.5514,-0.92789 -0.4784,-0.23922 -1.2106,-0.54369 -1.631,-0.68867 -0.4205,-0.13774 -1.0729,-0.31171 -1.4499,-0.39146 -0.3769,-0.0797 -1.0293,-0.18122 -1.4498,-0.22472 -0.5002,-0.0507 -4.9946,-0.0725 -13.2079,-0.0725 H 95.8405 Z m 134.5442,12.56277 c -0.6959,6.41549 -1.8195,16.78903 -2.5009,23.05229 -0.6815,6.25602 -1.2324,11.40291 -1.2396,11.43191 0,0.029 3.3563,0.058 7.4521,0.058 h 7.4449 c 0.072,-0.31172 0.6451,-5.48036 1.3193,-11.69288 0.7539,-6.97368 1.2468,-11.27967 1.2903,-11.26518 0.044,0.0145 2.356,5.18315 5.1469,11.4899 l 5.0744,11.46091 16.4194,0.007 c -0.5437,-1.10187 -3.2404,-6.4155 -6.3285,-12.52653 l -5.6326,-11.1057 C 270.8789,14.41856 274.402,9.27891 274.4238,9.22817 c 0.022,-0.0725 -1.6456,-0.0942 -8.1481,-0.0942 h -8.177 C 247.399,26.329 244.2673,31.31641 244.2383,31.31641 c -0.029,0 -0.044,-0.0725 -0.036,-0.15948 0.01,-0.087 0.5437,-4.98741 1.1816,-10.88822 0.638,-5.9008 1.1527,-10.82298 1.1527,-10.93171 V 9.14127 c -14.5273,0 -14.9333,0 -14.9333,0.12324 0,0.0725 -0.5654,5.37886 -1.2613,11.80161 z M 316.2079,0.00749 h 83.7929 l -0.036,0.26822 c -0.022,0.15223 -1.5731,14.41131 -3.4434,31.70053 -1.8775,17.28197 -3.4216,31.4323 -3.4288,31.43955 -0.015,0.007 -26.7639,0.007 -118.8715,-0.0145 l 37.9058,-33.9985 -10.649,-0.0217 c -5.8574,-0.007 -10.6418,-0.0435 -10.6418,-0.0797 0,-0.0362 5.2919,-6.15453 11.7509,-13.60665 6.4662,-7.45213 12.1713,-14.03435 12.686,-14.62153 z m 11.1274,6.95919 c -0.3624,0.0435 -1.0294,0.14498 -1.4861,0.22472 -0.4639,0.0797 -1.2106,0.23922 -1.6673,0.35521 -0.4639,0.11598 -1.2758,0.36246 -1.8122,0.54368 -0.5437,0.18848 -1.4354,0.55819 -1.9936,0.82641 -0.5582,0.26822 -1.3411,0.69592 -1.7398,0.94239 -0.3987,0.25372 -1.0221,0.68142 -1.3773,0.94963 -0.3625,0.26822 -0.9931,0.81191 -1.4063,1.20336 -0.4205,0.39871 -1.0294,1.04388 -1.3701,1.44258 -0.3335,0.39871 -0.9207,1.19611 -1.3121,1.77604 -0.3842,0.57994 -0.9642,1.57307 -1.2904,2.21099 -0.3262,0.63793 -0.7684,1.61656 -0.9858,2.17475 -0.2175,0.55818 -0.522,1.39184 -0.667,1.84853 -0.1522,0.4567 -0.4132,1.40634 -0.5872,2.10226 -0.1812,0.69591 -0.3189,1.32659 -0.3189,1.39908 0,0.11599 0.4059,0.12324 7.5174,0.12324 h 7.5246 c 0.08,-1.48608 0.1522,-2.16025 0.2102,-2.44297 0.065,-0.28996 0.1957,-0.73216 0.2972,-0.97863 0.1015,-0.25372 0.3262,-0.64518 0.5074,-0.8699 0.174,-0.23197 0.493,-0.53644 0.7032,-0.67417 0.2102,-0.13773 0.5727,-0.31896 0.7974,-0.3987 0.232,-0.0797 0.6524,-0.18123 0.9424,-0.22473 0.29,-0.0435 0.8192,-0.0652 1.1816,-0.0435 q 0.6524,0.0362 1.2686,0.23923 c 0.4132,0.13773 0.7539,0.31171 1.0439,0.53643 0.2465,0.18848 0.5219,0.49294 0.6669,0.72492 0.1305,0.21747 0.2972,0.60893 0.3625,0.86989 0.094,0.36971 0.1087,0.68867 0.08,1.48608 -0.022,0.63792 -0.094,1.2831 -0.1957,1.7398 -0.1233,0.59443 -0.203,0.79015 -0.4277,1.08737 -0.1523,0.20297 -0.6887,0.81915 -1.1817,1.37734 -0.5002,0.55818 -1.4788,1.57306 -2.1675,2.24723 -0.6959,0.68142 -1.7397,1.66006 -2.3124,2.17475 -0.58,0.52193 -1.4136,1.26135 -1.8486,1.6383 -0.4422,0.38421 -1.3701,1.16712 -2.066,1.74705 -0.7031,0.57268 -2.0732,1.6818 -3.0446,2.45746 -0.9787,0.78291 -2.4792,1.95727 -3.3346,2.60969 -0.8627,0.65967 -2.2763,1.7398 -3.1534,2.39222 -0.8771,0.65967 -2.5444,1.89203 -3.6971,2.74743 -1.1598,0.84815 -2.1095,1.54407 -2.1167,1.55132 0,0 -0.1885,1.73979 -0.4205,3.84929 -0.2247,2.11676 -0.4204,3.95079 -0.4422,4.08127 l -0.029,0.23198 h 38.493 c 0.051,-0.25372 0.3262,-2.75468 0.6452,-5.72683 0.3189,-2.97215 0.5872,-5.44411 0.5872,-5.4876 0,-0.0725 -1.8123,-0.0942 -8.8077,-0.0942 -5.7994,0 -8.8223,-0.0217 -8.844,-0.0725 -0.022,-0.0362 0.2465,-0.23923 0.5944,-0.44945 0.348,-0.20298 1.5006,-0.91339 2.559,-1.56582 1.0511,-0.65967 2.7184,-1.72529 3.697,-2.37047 0.9714,-0.65242 2.3125,-1.57306 2.9722,-2.05151 0.6524,-0.47844 1.5731,-1.17436 2.037,-1.55132 0.4639,-0.3697 1.2324,-1.02213 1.7035,-1.44983 0.4712,-0.4277 1.1237,-1.05837 1.4499,-1.41358 0.3189,-0.34796 0.8046,-0.91339 1.0801,-1.2541 0.2755,-0.34071 0.6959,-0.92789 0.9496,-1.30485 0.2465,-0.37695 0.5945,-0.96413 0.7757,-1.30485 0.1812,-0.34071 0.4639,-0.95688 0.6307,-1.37733 0.1667,-0.42045 0.3624,-0.98589 0.4349,-1.2686 0.072,-0.27547 0.2102,-0.99314 0.3117,-1.59482 0.1015,-0.59443 0.2393,-1.57306 0.2973,-2.17474 0.073,-0.62343 0.1159,-1.73255 0.1159,-2.60969 0,-0.94964 -0.036,-1.84854 -0.1087,-2.39222 -0.065,-0.47845 -0.2102,-1.27585 -0.3407,-1.77604 -0.1232,-0.5002 -0.3117,-1.14537 -0.4277,-1.42809 -0.116,-0.28996 -0.348,-0.7974 -0.5147,-1.12361 -0.1595,-0.33347 -0.4494,-0.82641 -0.6379,-1.10912 -0.1885,-0.27547 -0.5365,-0.71767 -0.7684,-0.97864 -0.232,-0.26097 -0.6307,-0.65967 -0.8917,-0.89164 -0.2682,-0.23923 -0.6741,-0.56544 -0.9134,-0.73217 -0.2392,-0.17398 -0.6959,-0.45669 -1.0148,-0.63792 -0.319,-0.18123 -0.9424,-0.4857 -1.3774,-0.67417 -0.4422,-0.18123 -1.1744,-0.44945 -1.631,-0.58718 -0.464,-0.13774 -1.3121,-0.34796 -1.8848,-0.46395 -0.58,-0.11599 -1.4644,-0.26097 -1.9573,-0.31896 -0.5002,-0.0652 -1.4788,-0.14499 -2.1747,-0.18848 -0.7032,-0.0362 -1.7253,-0.0652 -2.2835,-0.058 -0.5582,0 -1.4064,0.0362 -1.8848,0.0652 -0.4784,0.029 -1.1671,0.0942 -1.5223,0.13773 z m 42.6975,0 c -0.3625,0.0435 -1.0294,0.14498 -1.4861,0.22472 -0.4639,0.0797 -1.2106,0.23922 -1.6673,0.35521 -0.4639,0.11598 -1.2758,0.36246 -1.8123,0.54368 -0.5436,0.18848 -1.5005,0.59443 -2.1385,0.90615 -0.6379,0.31171 -1.544,0.8264 -2.008,1.13811 -0.4639,0.31172 -1.1671,0.83366 -1.5585,1.15262 -0.3915,0.32621 -0.9932,0.88439 -1.3266,1.23235 -0.3408,0.35521 -0.8337,0.90615 -1.0874,1.22511 -0.261,0.31896 -0.7684,1.01488 -1.1236,1.55857 -0.3625,0.53643 -0.8917,1.43533 -1.1744,1.99351 -0.2827,0.55819 -0.6814,1.40634 -0.8844,1.88478 -0.1957,0.47844 -0.5292,1.36284 -0.7249,1.95727 -0.203,0.60168 -0.493,1.59481 -0.6524,2.21099 -0.1523,0.61618 -0.3045,1.26135 -0.3262,1.43533 l -0.043,0.30447 h 15.1144 c -0.044,-0.76116 -0.015,-1.29035 0.029,-1.66731 0.043,-0.37695 0.1305,-0.88439 0.1958,-1.12362 0.058,-0.23922 0.2174,-0.64517 0.3407,-0.90614 0.1304,-0.26822 0.3987,-0.64517 0.6306,-0.8699 0.2393,-0.24647 0.58,-0.49294 0.8699,-0.63067 0.2538,-0.12324 0.7467,-0.28272 1.0874,-0.35521 0.4422,-0.087 0.8119,-0.10874 1.3411,-0.087 0.5147,0.029 0.8916,0.0942 1.3048,0.23922 0.319,0.10149 0.7395,0.29722 0.9352,0.42045 0.1957,0.13049 0.4784,0.37696 0.6234,0.55819 0.1378,0.18122 0.3335,0.52193 0.4277,0.76116 0.1378,0.34071 0.1812,0.62342 0.2102,1.30484 0.015,0.49294 -0.01,1.13812 -0.058,1.48608 -0.043,0.34071 -0.1377,0.84815 -0.2029,1.12362 -0.1088,0.47119 -0.1595,0.56543 -0.8409,1.37733 -0.406,0.47845 -1.3194,1.47158 -2.0371,2.20375 -0.7176,0.73216 -1.8122,1.79778 -2.4284,2.36322 -0.6234,0.56543 -1.6456,1.48607 -2.2835,2.03701 -0.6379,0.55818 -1.6383,1.39908 -2.211,1.88478 -0.5799,0.47844 -1.66,1.35559 -2.3922,1.95002 -0.7394,0.59443 -2.0805,1.64555 -2.9722,2.34147 -0.8988,0.70317 -3.1171,2.38497 -4.9366,3.74056 -1.8196,1.36284 -3.7333,2.78368 -4.2553,3.16063 -0.5872,0.4277 -0.9569,0.73942 -0.9569,0.81916 0,0.0652 -0.1812,1.77604 -0.3987,3.8058 -0.2174,2.02251 -0.4132,3.79855 -0.4349,3.95078 l -0.036,0.26822 38.522,-0.0362 c 0.9278,-8.4815 1.1961,-11.0187 1.1961,-11.10569 l 0.01,-0.16673 c -13.6574,0 -17.63,-0.0217 -17.6517,-0.0507 -0.022,-0.0362 0.3334,-0.28272 0.7756,-0.55819 0.4495,-0.27546 1.6021,-0.99313 2.559,-1.59481 0.9569,-0.59443 2.4067,-1.52232 3.2259,-2.05876 0.8119,-0.53643 2.0732,-1.39183 2.7909,-1.90652 0.7177,-0.50744 1.7615,-1.2976 2.327,-1.74705 0.5654,-0.44944 1.428,-1.17436 1.9137,-1.61656 0.4857,-0.43495 1.1527,-1.08737 1.4789,-1.44983 0.3262,-0.35521 0.7901,-0.89889 1.0366,-1.19611 0.2392,-0.29721 0.6524,-0.86989 0.9206,-1.2686 0.2683,-0.3987 0.6887,-1.14536 0.9497,-1.6673 0.2537,-0.51469 0.5727,-1.2686 0.7104,-1.66731 0.1377,-0.3987 0.3334,-1.2106 0.4349,-1.81228 0.1088,-0.59443 0.2393,-1.46433 0.3045,-1.92103 0.058,-0.45669 0.1377,-1.38458 0.1812,-2.066 0.044,-0.81191 0.044,-1.63106 -0.01,-2.39222 -0.036,-0.63793 -0.1232,-1.47158 -0.1812,-1.84854 -0.065,-0.37695 -0.1957,-1.00038 -0.2972,-1.37733 -0.1015,-0.37696 -0.319,-1.02938 -0.4857,-1.44983 -0.1667,-0.42045 -0.4567,-1.02213 -0.6524,-1.3411 -0.1885,-0.31896 -0.5075,-0.80465 -0.7177,-1.08737 -0.2102,-0.27547 -0.6089,-0.73216 -0.8916,-1.01488 -0.2828,-0.27547 -0.7539,-0.68867 -1.0512,-0.91339 -0.2972,-0.22472 -0.8191,-0.57268 -1.1526,-0.77566 -0.3407,-0.20298 -1.0004,-0.52919 -1.4716,-0.73216 -0.4639,-0.20298 -1.2323,-0.4857 -1.7035,-0.63068 -0.464,-0.13773 -1.3266,-0.34796 -1.8993,-0.46395 -0.5799,-0.11598 -1.4643,-0.26096 -1.9573,-0.31896 -0.5001,-0.0652 -1.4643,-0.14498 -2.1385,-0.18848 -0.6814,-0.0362 -1.7108,-0.0652 -2.2834,-0.058 -0.58,0 -1.4426,0.0362 -1.9211,0.0652 -0.4784,0.029 -1.1671,0.0942 -1.5223,0.13774 z m -255.605,13.22969 0.464,0.25372 c 0.2609,0.14498 0.6162,0.4277 0.8264,0.65242 0.1957,0.21748 0.4277,0.54369 0.5219,0.72492 0.087,0.18123 0.232,0.55818 0.319,0.83365 0.087,0.28272 0.174,0.80466 0.1957,1.15986 0.029,0.4567 0.01,0.86265 -0.08,1.3411 -0.065,0.37695 -0.2175,0.93514 -0.3407,1.23235 -0.116,0.29722 -0.3335,0.73942 -0.4784,0.97864 -0.145,0.23922 -0.493,0.66692 -0.7757,0.94239 -0.3335,0.33346 -0.6742,0.59443 -0.9786,0.74666 -0.261,0.13048 -0.638,0.26822 -0.8337,0.30446 -0.2102,0.0435 -1.2976,0.0652 -4.7917,0.0362 l 0.4857,-4.49447 c 0.2755,-2.47196 0.493,-4.55246 0.5002,-4.62495 0.01,-0.12324 0.1377,-0.13049 4.9657,-0.087 z m 44.1473,1.80504 c 1.1309,0.0217 1.3991,0.0507 2.0298,0.21747 0.3987,0.10149 1.0511,0.34796 1.4498,0.54369 0.3987,0.19573 0.9859,0.56543 1.3049,0.8264 0.3189,0.25372 0.7974,0.73942 1.0729,1.07288 0.2682,0.33346 0.6306,0.88439 0.8046,1.2251 0.174,0.34071 0.4205,0.9134 0.5365,1.2686 0.1232,0.36246 0.2754,0.94964 0.3334,1.30485 0.065,0.36246 0.1377,1.04388 0.1595,1.52232 0.022,0.48569 0.01,1.23961 -0.043,1.70355 -0.044,0.4567 -0.145,1.15986 -0.2247,1.55857 -0.08,0.3987 -0.2755,1.11637 -0.435,1.59481 -0.1595,0.47844 -0.4567,1.19611 -0.6597,1.59481 -0.2029,0.39871 -0.5219,0.95689 -0.7176,1.23236 -0.1958,0.28271 -0.5437,0.73941 -0.7829,1.01488 -0.232,0.28272 -0.6814,0.72491 -1.0004,0.98588 -0.3117,0.26822 -0.8119,0.63793 -1.1091,0.83365 -0.3045,0.18848 -0.8119,0.4712 -1.1454,0.62343 -0.3262,0.15223 -0.8844,0.35521 -1.2323,0.46395 -0.348,0.10148 -0.9424,0.23197 -1.3194,0.28271 -0.3842,0.058 -0.9931,0.10874 -1.3628,0.10874 -0.3697,0 -0.9207,-0.0362 -1.2324,-0.0797 -0.3045,-0.0435 -0.8409,-0.15948 -1.1743,-0.25372 -0.3408,-0.10149 -0.8482,-0.28996 -1.1237,-0.42045 -0.2827,-0.13048 -0.7249,-0.37695 -0.9786,-0.55093 -0.261,-0.18123 -0.6887,-0.52194 -0.9424,-0.76841 -0.261,-0.24647 -0.6379,-0.68142 -0.8481,-0.97864 -0.203,-0.29721 -0.493,-0.78291 -0.638,-1.08012 -0.1522,-0.29722 -0.3624,-0.81916 -0.4712,-1.15987 -0.1159,-0.34071 -0.2537,-0.92789 -0.3189,-1.30484 -0.058,-0.37696 -0.1305,-1.00038 -0.1595,-1.37734 -0.022,-0.37696 -0.01,-1.09462 0.036,-1.59481 0.044,-0.50019 0.1595,-1.2976 0.2537,-1.77604 0.1015,-0.47845 0.2972,-1.21061 0.4422,-1.63106 0.145,-0.42045 0.3915,-1.02213 0.5437,-1.3411 0.145,-0.31896 0.5074,-0.93514 0.8046,-1.37733 0.3408,-0.51469 0.7902,-1.05838 1.2541,-1.52232 0.4277,-0.4277 1.0149,-0.92065 1.4209,-1.18886 0.3769,-0.25373 0.9496,-0.57994 1.2686,-0.73217 0.3189,-0.15223 0.8554,-0.36246 1.1961,-0.46394 0.3335,-0.10874 0.8554,-0.23923 1.1599,-0.29722 0.3769,-0.0725 0.9423,-0.0942 1.8485,-0.0797 z m -91.1,0.98588 c 0.036,0 0.6089,3.24037 1.2759,7.19841 0.6741,3.95078 1.2396,7.27814 1.3121,7.58986 H 66.018 c -2.2182,0 -4.0377,-0.0145 -4.0377,-0.0363 0.01,-0.0145 1.2106,-3.29837 2.6821,-7.2999 1.4789,-4.00153 2.6967,-7.31439 2.7185,-7.35788 0.014,-0.0507 0.058,-0.0942 0.094,-0.0942 z"
     style="stroke-width:0.0724914" />
  <metadata
     id="metadata828">
    <rdf:RDF>
      <cc:Work
         rdf:about="">
        <dc:title>LaRock22 (1)</dc:title>
      </cc:Work>
    </rdf:RDF>
  </metadata>
</svg>
