<svg enable-background="new 0 0 93.5 71.5" viewBox="0 0 93.5 71.5" xmlns="http://www.w3.org/2000/svg" xmlns:xlink="http://www.w3.org/1999/xlink"><linearGradient id="a"><stop offset="0" stop-color="#6a859b"/><stop offset=".0103093" stop-color="#6a859b"/><stop offset=".8275" stop-color="#d0dbeb"/><stop offset=".9948" stop-color="#d0dbeb"/><stop offset=".9975" stop-color="#d0dbeb"/><stop offset="1" stop-color="#d0dbeb"/></linearGradient><linearGradient id="b" gradientUnits="userSpaceOnUse" x1="25.8584" x2="25.8584" xlink:href="#a" y1="49.6318" y2="71.3711"/><linearGradient id="c" gradientUnits="userSpaceOnUse" x1="67.5996" x2="67.5996" xlink:href="#a" y1="49.7225" y2="71.37"/><radialGradient id="d" cx="26.30425834" cy="26.35605457" gradientUnits="userSpaceOnUse" r="65.04734763"><stop offset="0" stop-color="#d4def0"/><stop offset=".3539" stop-color="#d4def0"/><stop offset=".3855" stop-color="#d4def0"/><stop offset="1" stop-color="#6a83a4"/></radialGradient><linearGradient id="e" gradientUnits="userSpaceOnUse" x1="92.5899" x2="74.4684" y1="70.2702" y2="-42.04"><stop offset="0" stop-color="#6a859b"/><stop offset=".0103093" stop-color="#6a859b"/><stop offset=".9788" stop-color="#d0dbeb"/><stop offset=".9948" stop-color="#d0dbeb"/><stop offset=".9975" stop-color="#d0dbeb"/><stop offset="1" stop-color="#d0dbeb"/></linearGradient><linearGradient id="f"><stop offset="0" stop-color="#6a859b"/><stop offset=".0103093" stop-color="#6a859b"/><stop offset=".3236" stop-color="#d0dbeb"/><stop offset=".9948" stop-color="#d0dbeb"/><stop offset=".9975" stop-color="#d0dbeb"/><stop offset="1" stop-color="#d0dbeb"/></linearGradient><linearGradient id="g" gradientUnits="userSpaceOnUse" x1="66.8234" x2="68.5065" xlink:href="#f" y1="48.148" y2="61.7709"/><linearGradient id="h" gradientUnits="userSpaceOnUse" x1="-32.076" x2="71.6293" y1="144.5631" y2="46.1759"><stop offset="0" stop-color="#6a859b"/><stop offset=".0103093" stop-color="#6a859b"/><stop offset=".6698" stop-color="#6a859b"/><stop offset=".9948" stop-color="#d0dbeb"/><stop offset=".9975" stop-color="#d0dbeb"/><stop offset="1" stop-color="#d0dbeb"/></linearGradient><linearGradient id="i" gradientUnits="userSpaceOnUse" x1="20.2375" x2="61.9228" xlink:href="#f" y1="45.3552" y2="83.1365"/><linearGradient id="j" gradientUnits="userSpaceOnUse" x1="28.5706" x2="21.4492" xlink:href="#a" y1="41.6934" y2="79.7168"/><linearGradient id="k"><stop offset="0" stop-color="#a1bfde"/><stop offset=".0103093" stop-color="#a1bfde"/><stop offset=".4266" stop-color="#a1bfde"/><stop offset=".6292" stop-color="#d0dbeb"/><stop offset=".8178" stop-color="#d0dbeb"/><stop offset="1" stop-color="#6a859b"/></linearGradient><linearGradient id="l" gradientUnits="userSpaceOnUse" x1=".6029" x2="12.1588" xlink:href="#k" y1="35.75" y2="35.75"/><linearGradient id="m" gradientUnits="userSpaceOnUse" x1="11.8917" x2="30.5972" xlink:href="#k" y1=".5368" y2="20.1492"/><linearGradient id="n" gradientUnits="userSpaceOnUse" x1="35.8857" x2="45.166" y1="24.9097" y2="35.818"><stop offset="0" stop-color="#6a859b"/><stop offset=".0103093" stop-color="#6a859b"/><stop offset=".9012" stop-color="#d0dbeb"/><stop offset=".9948" stop-color="#d0dbeb"/><stop offset=".9975" stop-color="#d0dbeb"/><stop offset="1" stop-color="#d0dbeb"/></linearGradient><linearGradient id="o" gradientUnits="userSpaceOnUse" x1="54.5003" x2="42.3121" xlink:href="#f" y1="28.9449" y2="40.5956"/><linearGradient id="p" gradientUnits="userSpaceOnUse" x1="57.5227" x2="81.4486" xlink:href="#f" y1="12.9668" y2="12.9668"/><linearGradient id="q" gradientUnits="userSpaceOnUse" x1="52.7945" x2="40.4657" y1="29.4867" y2="29.4867"><stop offset="0" stop-color="#f29a80"/><stop offset=".1769" stop-color="#f29a80"/><stop offset="1" stop-color="#d2121d"/></linearGradient><linearGradient id="r" gradientUnits="userSpaceOnUse" x1="56.3231" x2="48.9496" y1="2.8963" y2="15.4408"><stop offset="0" stop-color="#e42927"/><stop offset=".3747" stop-color="#e42926"/><stop offset=".6348" stop-color="#e42926"/><stop offset="1" stop-color="#c81d1d"/></linearGradient><radialGradient id="s" cx="26.37668634" cy="22.57663849" gradientUnits="userSpaceOnUse" r="41.13273357"><stop offset="0" stop-color="#f7b5a3"/><stop offset=".0505618" stop-color="#f7b5a3"/><stop offset=".8034" stop-color="#e53b21"/><stop offset="1" stop-color="#d21222"/></radialGradient><linearGradient id="t"><stop offset="0" stop-color="#fff"/><stop offset=".1368" stop-color="#fff"/><stop offset=".7732" stop-color="#e42926"/><stop offset="1" stop-color="#c81d1d"/></linearGradient><linearGradient id="u" gradientUnits="userSpaceOnUse" x1="57.3151" x2="33.8668" xlink:href="#t" y1="40.2295" y2="32.8442"/><linearGradient id="v" gradientUnits="userSpaceOnUse" x1="87.8545" x2="14.0191" xlink:href="#t" y1="-46.9377" y2="102.1649"/><linearGradient id="w" gradientUnits="userSpaceOnUse" x1="40.3769" x2="129.9517" y1="1.2441" y2="2.057"><stop offset="0" stop-color="#e42927"/><stop offset=".1368" stop-color="#e42927"/><stop offset=".7732" stop-color="#e42926"/><stop offset="1" stop-color="#c81d1d"/></linearGradient><linearGradient id="x" gradientUnits="userSpaceOnUse" x1="56.2823" x2="43.3362" xlink:href="#t" y1="1.0514" y2="21.9872"/><path d="m25.5 71.1 2.5-19.8-1.6-1.7-2.6 21.4h1.7z" fill="url(#b)"/><path d="m67.9 71.1-2.4-19.7 1.6-1.7 2.7 21.4z" fill="url(#c)"/><path d="m12.1.7-11.4 70.4h23l2.6-21.4 20.3 21.4 20.4-21.4 2.6 21.4h23l-11.3-70.4-34.6 36.1z" fill="url(#d)"/><path d="m81.3 1.1 11.3 70h.3l-11.4-70.7z" fill="url(#e)"/><path d="m69.5 71.1h.3l-2.7-21.8-.2.7z" fill="url(#g)"/><path d="m67 50 .3-.7-20.6 21.5" fill="url(#h)"/><path d="m46.7 70.8-20.4-21.5.3.7" fill="url(#i)"/><path d="m23.6 71.1h.3l2.6-21.1-.3-.7z" fill="url(#j)"/><path d="m12 .4-11.4 70.7h.4l11.3-70c-.1 0-.3-.7-.3-.7z" fill="url(#l)"/><path d="m12 .4.2.7 22.6 23.6.2-.3z" fill="url(#m)"/><path d="m46.7 37.1v-.4l-11.7-12.3-.2.3z" fill="url(#n)"/><path d="m57.7 25.5-.2-.2-10.8 11.3v.4z" fill="url(#o)"/><path d="m57.6 25.4.2.2 23.5-24.5.2-.7z" fill="url(#p)"/><path d="m40.2 29.9 1.6 1.7c2.9-2.4 6.8-2.4 9.7 0l1.6-1.7c-2.1-1.8-4.4-2.5-6.5-2.5-2.7 0-5.1 1.2-6.4 2.5z" fill="url(#q)"/><path d="m47.5 15.5s1.3.1 2.6.3c3.1-5.6 6.4-10.8 6.4-10.8v-3.8c-2.1 2.7-7.4 11.4-9 14.3z" fill="url(#r)"/><path d="m41.6 1.3c-7.1 10-13.8 21.9-15.6 30.1-.5 1.8-.8 3.6-.8 5.5 0 11.8 9.7 21.4 21.5 21.4 11.9 0 21.5-9.6 21.5-21.4 0-11.6-9.3-21-21-21.4 3.2-5.5 6.5-10.8 8.9-14.3 0 .1-14.5.1-14.5.1zm-4.5 35.6c0-5.3 4.3-9.6 9.6-9.6s9.6 4.3 9.6 9.6-4.3 9.6-9.6 9.6-9.6-4.3-9.6-9.6z" fill="url(#s)"/><path d="m37 36.9c0 5.4 4.4 9.7 9.8 9.7s9.8-4.4 9.8-9.7-4.4-9.7-9.8-9.7-9.8 4.4-9.8 9.7zm.3 0c0-5.2 4.2-9.4 9.4-9.4s9.4 4.2 9.4 9.4-4.2 9.4-9.4 9.4-9.4-4.2-9.4-9.4z" fill="url(#u)"/><path d="m25.8 31.4c-.5 1.9-.8 3.7-.8 5.6 0 11.9 9.8 21.5 21.7 21.5s21.7-9.7 21.7-21.5c0-11.5-9.3-21.1-20.9-21.4h-.3l-.2.2h.3c11.4.2 20.8 9.7 20.8 21.2 0 11.7-9.6 21.2-21.4 21.2s-21.3-9.5-21.3-21.2c0-1.8.3-3.7.8-5.5 1.7-7.4 7.7-18.8 15.6-30l-.3-.3c-6.2 8.7-13.6 21.3-15.7 30.2z" fill="url(#v)"/><path d="m41.5 1.2.2.3h14.2l.6-.3z" fill="url(#w)"/><path d="m56 1.5c-2.3 3.3-5.5 8.3-8.8 14l-.2.3.5-.3c3.4-5.8 6.7-11.1 9-14.3 0 0-.5.3-.5.3z" fill="url(#x)"/></svg>