<svg xmlns="http://www.w3.org/2000/svg" xmlns:xlink="http://www.w3.org/1999/xlink" width="183" height="57.726" viewBox="0 0 183 57.726"><defs><clipPath id="a"><rect width="183" height="57.726" fill="#fff"/></clipPath></defs><g transform="translate(-260 232.492)"><g transform="translate(260 -232.492)"><path d="M21.047,94.4.851,67.47v41.014H8.82V91.323L21.047,107.67,33.274,91.323v17.161h7.968V67.47Z" transform="translate(-0.643 -50.966)" fill="#fff"/><path d="M211.273,85.842l3.591,8.036h-7.211ZM210.553,68.5,192.773,108.1h8.475l2.642-5.842.183-.44h14.394l.186.409,2.619,5.873h8.5L211.966,68.525l-.718-1.559Z" transform="translate(-145.618 -50.585)" fill="#fff"/><g clip-path="url(#a)"><path d="M360.968,107.2a20.753,20.753,0,0,1-20.715-20.715A20.777,20.777,0,0,1,360.76,65.774v7.943a12.764,12.764,0,0,0-8.8,21.783,12.724,12.724,0,0,0,16.429,1.345A12.868,12.868,0,0,0,373,90.738l.1-.279H361.176V82.516h20.13a20.257,20.257,0,0,1,.377,3.971A20.776,20.776,0,0,1,360.968,107.2" transform="translate(-257.022 -49.685)" fill="#fff"/><rect width="8.854" height="34.892" transform="translate(131.452 22.626)" fill="#fff"/><path d="M623.654,107.2a20.753,20.753,0,0,1-20.715-20.715A20.693,20.693,0,0,1,631.684,67.4a21.742,21.742,0,0,1,6.471,4.289l-5.624,5.624a12.445,12.445,0,0,0-8.876-3.6A12.763,12.763,0,0,0,614.642,95.5a12.74,12.74,0,0,0,17.889.133l5.624,5.625a21.5,21.5,0,0,1-6.471,4.314,20.058,20.058,0,0,1-8.03,1.632" transform="translate(-455.451 -49.682)" fill="#fff"/><path d="M536.638,17.84a9.023,9.023,0,1,1-9.023-9.023,9.023,9.023,0,0,1,9.023,9.023" transform="translate(-391.736 -6.66)" fill="#915697"/></g></g></g></svg>