<?xml version="1.0" encoding="utf-8"?>
<!-- Generator: Adobe Illustrator 23.0.0, SVG Export Plug-In . SVG Version: 6.00 Build 0)  -->
<svg version="1.1" id="Capa_1" xmlns="http://www.w3.org/2000/svg" xmlns:xlink="http://www.w3.org/1999/xlink" x="0px" y="0px"
	 viewBox="0 0 809 809" enable-background="new 0 0 809 809" xml:space="preserve">
<rect fill="#7CC5CB" width="809" height="809"/>
<polygon fill="#6A4996" points="28.8,149.2 103.5,149.2 164.4,248.1 225.4,149.2 300.1,149.2 300.1,404.5 229.8,404.5 229.8,257.9 
	164.4,357.8 163,357.8 98.1,258.6 98.1,404.5 28.8,404.5 "/>
<path fill="#6A4996" d="M552.5,366.6l39.4-47.1c25.1,20,53.2,30.6,82.8,30.6c19,0,29.2-6.6,29.2-17.5v-0.7
	c0-10.6-8.4-16.4-43.1-24.4c-54.4-12.4-96.3-27.7-96.3-80.2v-0.7c0-47.4,37.6-81.7,98.8-81.7c43.4,0,77.3,11.7,105.1,33.9l-35.4,50
	c-23.4-16.4-48.9-25.2-71.5-25.2c-17.1,0-25.5,7.3-25.5,16.4v0.7c0,11.7,8.8,16.8,44.1,24.8c58.7,12.8,95.2,31.7,95.2,79.5v0.7
	c0,52.2-41.2,83.2-103.2,83.2C626.9,408.9,583.8,394.7,552.5,366.6"/>
<path fill="#6A4996" d="M580.3,153.1h-81.1l19.6,49.7C518.7,202.7,534.7,174.9,580.3,153.1"/>
<path fill="#6A4996" d="M403.2,147.4h68.2l108.7,257.2h-75.9l-18.6-45.6h-98.5l-18.2,45.6h-74.4L403.2,147.4z M465.2,303.9
	l-28.4-72.6L408,303.9H465.2z"/>
<path fill="#6A4996" d="M542.6,557.2v-0.7c0-74.4,57.3-132.8,134.6-132.8c52.1,0,85.7,21.9,108.3,53.3l-53.2,41.2
	c-14.6-18.2-31.4-29.9-55.8-29.9c-35.8,0-60.9,30.3-60.9,67.5v0.7c0,38.3,25.2,68.2,60.9,68.2c26.6,0,42.3-12.4,57.6-31l53.2,37.9
	c-24.1,33.2-56.5,57.7-113.1,57.7C601.3,689.2,542.6,633.4,542.6,557.2"/>
<path fill="#6A4996" d="M22.7,552.2v-0.7c0-74.4,57.3-132.8,134.6-132.8c52.1,0,85.7,21.9,108.3,53.3l-53.2,41.2
	c-14.6-18.2-31.3-29.9-55.8-29.9c-35.7,0-60.9,30.3-60.9,67.5v0.7c0,38.3,25.1,68.2,60.9,68.2c26.6,0,42.3-12.4,57.7-31l53.2,37.9
	c-24.1,33.2-56.5,57.7-113.1,57.7C81.4,684.2,22.7,628.4,22.7,552.2"/>
<polygon fill="#6A4996" points="252.1,423.8 322.8,423.8 322.8,519.4 386.1,519.4 386.1,423.8 456.8,423.8 456.8,679.1 386.1,679.1 
	386.1,582.1 322.8,582.1 322.8,679.1 252.1,679.1 "/>
<rect x="465.9" y="517.6" fill="#6A4996" width="70.8" height="161.5"/>
<path fill="#E55B53" d="M552.6,455.5c0,23.8-19.3,43.1-43.1,43.1c-23.8,0-43.1-19.3-43.1-43.1c0-23.8,19.3-43.2,43.1-43.2
	C533.3,412.3,552.6,431.7,552.6,455.5"/>
<g>
</g>
<g>
</g>
<g>
</g>
<g>
</g>
<g>
</g>
<g>
</g>
</svg>
