<?xml version="1.0" encoding="UTF-8"?>
<svg id="Layer_2" data-name="Layer 2" xmlns="http://www.w3.org/2000/svg" xmlns:xlink="http://www.w3.org/1999/xlink" viewBox="0 0 1093.81 501.43">
  <defs>
    <style>
      .cls-1 {
        fill: url(#linear-gradient);
      }

      .cls-2 {
        fill: #f5832e;
      }

      .cls-3 {
        fill: #f6bb1f;
      }

      .cls-4 {
        fill: #fff;
      }

      .cls-5 {
        fill: #d33637;
      }

      .cls-6 {
        fill: #34b15b;
      }

      .cls-7 {
        fill: #1b88c6;
      }

      .cls-8 {
        fill: #766eb2;
      }
    </style>
    <linearGradient id="linear-gradient" x1="329.54" y1="205.08" x2="588.2" y2="38.88" gradientUnits="userSpaceOnUse">
      <stop offset="0" stop-color="#34b15b"/>
      <stop offset=".13" stop-color="#1b88c6"/>
      <stop offset=".28" stop-color="#766eb2"/>
      <stop offset=".52" stop-color="#d33637"/>
      <stop offset=".94" stop-color="#f5832e"/>
    </linearGradient>
  </defs>
  <g id="Layer_1-2" data-name="Layer 1">
    <g>
      <g>
        <polygon class="cls-1" points="604.45 61.53 563.53 44.48 563.51 44.45 479.16 9.33 466.55 4.07 466.55 4.07 456.76 0 446.07 .06 298.45 63.62 309.29 88.8 451.58 27.53 465.57 33.36 544.54 66.26 544.54 192.15 498.4 192.15 476.41 165.86 514.63 124.98 494.61 106.26 458.69 144.67 426.62 106.32 405.6 123.91 439.83 164.85 414.31 192.15 363.72 192.15 363.72 91.45 336.32 91.45 336.32 205.85 350.02 219.56 420.26 219.56 430.27 215.21 457.55 186.03 481.48 214.65 491.99 219.56 558.24 219.56 571.95 205.85 571.95 77.68 593.91 86.83 604.45 61.53"/>
        <g>
          <path id="_2017_Peaock_White" data-name="2017 Peaock White" class="cls-4" d="m345.48,182.63c-4.36-14.32-17.54-23.54-31.77-23.51,1.12-1.03,2.19-2.14,3.18-3.35,11.68-14.11,9.71-35.03-4.41-46.71-11.57-9.57-27.7-9.97-39.57-2.04.23-1.03.41-2.08.54-3.15,2.21-18.19-10.75-34.72-28.94-36.93-15.19-1.84-29.22,6.89-34.72,20.41-5.5-13.52-19.53-22.25-34.72-20.41-18.19,2.21-31.14,18.74-28.94,36.93.13,1.07.31,2.12.54,3.15-11.88-7.94-28.01-7.54-39.57,2.04-14.11,11.68-16.09,32.59-4.41,46.71,1,1.2,2.06,2.32,3.18,3.35-14.23-.02-27.41,9.19-31.77,23.51-5.34,17.53,4.54,36.06,22.07,41.4,3.67,1.12,7.39,1.57,11.02,1.42h205.21c3.63.15,7.35-.3,11.02-1.42,17.53-5.34,27.41-23.87,22.07-41.4Z"/>
          <path id="_2017_G" data-name="2017 G" class="cls-6" d="m224.83,219.56l73.64-49.71c2.22-1.5,4.68-2.72,7.37-3.55,14.31-4.4,29.45,3.7,33.82,18.08,4.37,14.38-3.68,29.6-17.98,34-2.84.87-5.71,1.18-8.52,1.19h-88.32Z"/>
          <path id="_2017_B" data-name="2017 B" class="cls-7" d="m308.55,113.73c-11.54-9.52-28.61-7.88-38.14,3.66-1.79,2.17-3.55,5.47-4.2,7.01l-35.7,83.72,75.33-50.62c2.35-1.57,4.5-3.37,6.36-5.63,9.52-11.54,7.88-28.61-3.66-38.14Z"/>
          <path id="_2017_P" data-name="2017 P" class="cls-8" d="m243.79,72.99c-14.85-1.79-28.35,8.8-30.14,23.65-.19,1.58-.22,3.12-.13,4.65h8.7c2.12,0,5.89-.13,6.96,2.33-5.73,3.62-13.91,6.72-12.86,16.23l12.39,77.08,36.44-85.69c1.08-2.53,1.95-5.23,2.29-8.11,1.79-14.85-8.8-28.35-23.65-30.14Z"/>
          <path id="_2017_R" data-name="2017 R" class="cls-5" d="m205.69,104.8c.43-2.67.59-5.37.25-8.17-1.79-14.85-15.29-25.44-30.14-23.65-14.85,1.79-25.44,15.29-23.65,30.14.35,2.88,1.21,5.58,2.29,8.11l36.44,85.69,14.81-92.13Z"/>
          <path id="_2017_B-2" data-name="2017 B" class="cls-2" d="m110.92,113.78c-11.51,9.56-13.09,26.64-3.53,38.15,1.8,2.16,4.71,4.5,6.1,5.43l75.58,50.7-35.67-83.46c-1.1-2.6-2.47-5.05-4.34-7.3-9.56-11.51-26.64-13.09-38.15-3.53Z"/>
          <path id="_2017_Y" data-name="2017 Y" class="cls-3" d="m194.83,219.56l-73.64-49.71c-2.22-1.5-4.68-2.72-7.37-3.55-14.31-4.4-29.45,3.7-33.82,18.08-4.37,14.38,3.68,29.6,17.98,34,2.84.87,5.71,1.18,8.52,1.19h88.32Z"/>
        </g>
      </g>
      <path class="cls-4" d="m346.42,253.01c-68.6,0-124.21,55.61-124.21,124.21s55.61,124.21,124.21,124.21,124.21-55.61,124.21-124.21-55.61-124.21-124.21-124.21Zm0,206.84c-45.64,0-82.63-37-82.63-82.63s37-82.63,82.63-82.63,82.63,37,82.63,82.63-37,82.63-82.63,82.63Zm-239.89-166.36c-19.32,0-34.51,6.6-45.59,19.81-11.08,13.21-16.62,31.32-16.62,54.33v127.83H0V162h44.32v122.54h.85c14.2-21.02,36.22-31.53,66.05-31.53,19.03,0,35.93,3.91,50.71,11.72,14.77,7.82,26.42,19.32,34.94,34.52,8.52,15.2,12.78,33.31,12.78,54.33v141.89h-44.32v-128.26c0-25.28-4.83-43.89-14.49-55.82-9.66-11.93-24.43-17.9-44.32-17.9Zm635.32,0c-19.6,0-33.87,5.54-42.82,16.62-8.95,11.08-13.42,28.55-13.42,52.41v132.95h-44.32v-137.21c0-22.16-4.76-38.49-14.27-49-9.52-10.51-22.66-15.77-39.41-15.77-38.92,0-58.38,23.16-58.38,69.46v132.52h-44.31v-236.06h40.91v25.57h.85c9.65-11.36,19.6-19.53,29.83-24.5,10.23-4.97,22.86-7.45,37.92-7.45s30.25,3.55,43.89,10.65c13.64,7.1,23.44,16.77,29.4,28.98,8.52-13.64,19.03-23.65,31.53-30.04,12.5-6.39,27.98-9.59,46.45-9.59,30.39,0,54.04,8.88,70.95,26.63,16.9,17.76,25.35,41.97,25.35,72.65v143.17h-44.31v-132.09c0-22.44-4.69-39.7-14.06-51.77-9.37-12.07-23.29-18.11-41.76-18.11Zm232.65,167.46c13.92,0,26.91-3.47,38.99-10.44,12.07-6.96,21.52-16.68,28.34-29.19h44.32c-9.09,24.44-23.94,43.89-44.53,58.38-20.6,14.49-43.54,21.73-68.82,21.73-21.59,0-41.62-5.75-60.08-17.26-18.47-11.5-33.1-26.63-43.89-45.38-10.8-18.75-16.19-38.49-16.19-59.23,0-24.14,5.54-45.87,16.62-65.2,11.08-19.31,25.63-34.37,43.68-45.17,18.04-10.79,37.56-16.19,58.59-16.19,22.72,0,43.39,5.4,62,16.19,18.6,10.8,33.3,25.5,44.1,44.1,10.79,18.61,16.19,38.99,16.19,61.15,0,9.37-.43,16.76-1.28,22.16h-195.58c5.11,19.6,14.77,35.23,28.97,46.87,14.2,11.65,30.39,17.47,48.58,17.47Zm-1.7-167.46c-12.22,0-23.93,2.98-35.15,8.95-11.23,5.96-20.53,14.21-27.91,24.71-7.39,10.51-11.65,22.3-12.78,35.37h152.55c-1.14-13.06-5.4-24.85-12.78-35.37-7.39-10.51-16.76-18.75-28.12-24.71-11.36-5.97-23.3-8.95-35.79-8.95Z"/>
    </g>
  </g>
</svg>