<?xml version="1.0" encoding="UTF-8" standalone="no"?>
<!-- Generator: Adobe Illustrator 16.0.0, SVG Export Plug-In . SVG Version: 6.00 Build 0)  -->

<svg
   version="1.1"
   id="Layer_1"
   x="0px"
   y="0px"
   width="966.81097"
   height="166.25"
   viewBox="0 0 966.81097 166.25"
   enable-background="new 0 0 1000 166.25"
   xml:space="preserve"
   sodipodi:docname="NickMusic_(Purple).svg"
   inkscape:version="1.1.2 (b8e25be833, 2022-02-05)"
   xmlns:inkscape="http://www.inkscape.org/namespaces/inkscape"
   xmlns:sodipodi="http://sodipodi.sourceforge.net/DTD/sodipodi-0.dtd"
   xmlns="http://www.w3.org/2000/svg"
   xmlns:svg="http://www.w3.org/2000/svg"><defs
   id="defs53" /><sodipodi:namedview
   id="namedview51"
   pagecolor="#ffffff"
   bordercolor="#666666"
   borderopacity="1.0"
   inkscape:pageshadow="2"
   inkscape:pageopacity="0.0"
   inkscape:pagecheckerboard="0"
   showgrid="false"
   inkscape:zoom="0.977"
   inkscape:cx="500"
   inkscape:cy="83.418628"
   inkscape:window-width="1128"
   inkscape:window-height="682"
   inkscape:window-x="-6"
   inkscape:window-y="-6"
   inkscape:window-maximized="1"
   inkscape:current-layer="g48" />
<g
   id="g48">
	<g
   id="g36">
		<path
   id="C_12_"
   fill="#ff6701"
   d="m 234.829,127.904 c -2.522,4.613 -5.777,7.35 -9.576,7.369 -3.81,-0.025 -7.054,-2.756 -9.575,-7.369 -2.482,-4.685 -3.955,-10.723 -3.965,-17.807 0.009,-7.073 1.483,-13.121 3.965,-17.795 2.521,-4.611 5.776,-7.349 9.575,-7.371 3.799,0.025 7.054,2.76 9.576,7.371 1.833,3.475 3.12,7.698 3.666,12.537 h 42.722 C 279.961,91.514 273.979,79.427 265.01,70.519 254.887,60.432 240.708,54.127 225.253,54.127 c -15.455,0 -29.644,6.305 -39.756,16.392 -10.143,10.066 -16.475,24.191 -16.464,39.578 -0.009,15.387 6.321,29.512 16.464,39.579 v 0.072 c 10.112,10.097 24.301,16.4 39.756,16.392 15.456,0.009 29.634,-6.295 39.757,-16.392 v -0.072 c 8.968,-8.908 14.951,-20.994 16.207,-34.311 h -42.722 c -0.546,4.829 -1.833,9.053 -3.666,12.539" />
		<path
   id="I_12_"
   fill="#ff6701"
   d="m 158.373,40.431 c 4.294,-4.274 6.951,-10.18 6.951,-16.699 0,-6.529 -2.656,-12.424 -6.951,-16.708 -4.293,-4.265 -10.225,-6.91 -16.773,-6.91 -6.548,0 -12.479,2.645 -16.773,6.92 -4.293,4.274 -6.961,10.168 -6.961,16.698 0,6.52 2.667,12.424 6.961,16.699 l 5.242,5.218 c 8.743,8.713 9.37,11.02 1.051,19.291 l -4.768,4.747 c -3.902,3.885 -6.312,9.256 -6.312,15.181 v 76.707 h 43.134 V 84.867 c 0,-5.925 -2.42,-11.296 -6.323,-15.181 l -4.767,-4.736 c -8.319,-8.271 -7.702,-10.589 1.05,-19.302 l 5.242,-5.219 z" />
		<path
   id="K_6_"
   fill="#ff6701"
   d="m 385.801,85.554 c 5.983,-10.097 2.615,-23.126 -7.537,-29.08 -10.153,-5.966 -23.229,-2.604 -29.223,7.503 l -19.328,34.381 v -22.92 c 0,-11.728 -9.555,-21.24 -21.335,-21.24 -11.79,0 -21.346,9.512 -21.346,21.24 v 86.137 h 42.681 v -33.899 l 22.613,34.618 c 0,0 27.41,-0.019 35.246,-0.019 6.239,0 9.123,-6.23 4.015,-13.879 L 369.613,114.804 385.8,85.559 Z" />
		<path
   id="N_6_"
   fill="#ff6701"
   d="m 56.222,54.187 c -15.456,0 -29.645,6.304 -39.756,16.392 C 6.333,80.634 0,94.77 0,110.146 v 51.429 H 42.681 V 138.91 111.029 c 0.008,-6.13 1.482,-11.358 3.975,-15.419 2.512,-3.996 5.755,-6.363 9.565,-6.385 3.809,0.024 7.063,2.389 9.575,6.385 2.482,4.061 3.955,9.289 3.965,15.419 v 50.546 h 42.67 V 110.146 C 112.448,94.77 106.11,80.634 95.976,70.579 85.867,60.491 71.677,54.187 56.222,54.187" />
	</g>
	<g
   id="g44">
		<path
   id="C_11_"
   fill="#6f319b"
   d="m 920.393,127.974 c -2.512,4.604 -5.772,7.348 -9.56,7.353 -3.813,-0.005 -7.056,-2.749 -9.594,-7.353 -2.46,-4.695 -3.961,-10.724 -3.961,-17.824 0,-7.074 1.501,-13.108 3.961,-17.804 2.538,-4.612 5.781,-7.354 9.594,-7.376 3.787,0.021 7.048,2.766 9.56,7.376 1.839,3.48 3.137,7.705 3.679,12.545 h 42.739 C 965.561,91.567 959.579,79.468 950.597,70.57 940.495,60.465 926.271,54.143 910.833,54.158 c -15.494,-0.015 -29.689,6.307 -39.784,16.412 -10.158,10.044 -16.489,24.189 -16.468,39.58 -0.021,15.404 6.31,29.536 16.468,39.6 7.795,7.76 21.351,16.392 39.784,16.392 13.836,0 26.646,-5.06 36.443,-13.354 7.127,-6.028 17.728,-18.14 19.534,-37.354 h -42.739 c -0.542,4.834 -1.84,9.065 -3.678,12.54" />
		<path
   id="I_11_"
   fill="#6f319b"
   d="m 843.858,40.317 c 4.294,-4.274 6.951,-10.179 6.951,-16.698 0,-6.53 -2.656,-12.424 -6.951,-16.71 C 839.566,2.646 833.634,0 827.084,0 c -6.548,0 -12.479,2.646 -16.773,6.919 -4.292,4.275 -6.959,10.169 -6.959,16.7 0,6.52 2.666,12.423 6.959,16.698 l 5.243,5.218 c 8.741,8.713 9.369,11.02 1.049,19.292 l -4.768,4.746 c -3.902,3.885 -6.312,9.256 -6.312,15.181 v 76.707 h 43.133 V 84.754 c 0,-5.926 -2.421,-11.297 -6.321,-15.182 l -4.768,-4.735 c -8.321,-8.271 -7.703,-10.59 1.05,-19.303 z" />
		<path
   id="S_6_"
   fill="#6f319b"
   d="m 766.807,101.067 c -16.098,-7.11 -24.581,-9.77 -24.859,-15.573 -0.248,-5.159 5.355,-6.104 7.326,-6.104 11.351,0 12.218,11.443 12.218,14.075 h 34.623 c 0,-19.593 -17.737,-39.779 -48.059,-39.769 -26.057,-0.008 -43.701,17.671 -43.701,34.406 0,6.339 2.879,19.004 31.051,31.456 16.088,7.1 24.581,9.761 24.858,15.563 0.249,5.168 -5.354,6.628 -7.325,6.628 -11.354,0 -12.22,-11.958 -12.22,-14.589 h -34.621 c 0,19.592 17.737,39.099 48.058,39.088 26.056,0.008 43.703,-17.002 43.703,-33.736 -0.001,-6.336 -2.88,-18.992 -31.052,-31.445" />
		<path
   id="U_6_"
   fill="#6f319b"
   d="m 641.534,166.25 c 15.45,0.006 29.642,-4.306 39.763,-14.384 10.146,-10.082 15.479,-22.703 15.459,-38.092 v -55.63 l -41.667,-0.057 v 21.937 28.898 c -0.036,6.112 -1.494,13.357 -3.983,17.407 -2.53,4 -5.781,6.366 -9.571,6.38 -3.806,-0.014 -7.063,-2.382 -9.566,-6.38 -2.509,-4.05 -3.961,-11.295 -3.976,-17.407 V 58.08 h -41.699 v 55.692 c -0.009,15.391 5.32,28.012 15.469,38.093 10.114,10.079 24.306,14.391 39.771,14.385" />
		<path
   fill="#6f319b"
   d="m 561.64,70.411 c -10.136,-10.109 -24.129,-16.76 -39.618,-16.76 -13.144,0 -22.259,4.814 -31.849,12.37 -9.63,-7.588 -18.59,-12.267 -31.791,-12.267 -15.556,0 -30.43,6.345 -40.607,16.498 -10.197,10.12 -16.458,24.347 -16.458,39.823 v 52.012 h 41.829 v -51.123 c 0,-6.171 1.354,-11.433 3.85,-15.518 2.53,-4.023 7.684,-6.403 11.519,-6.428 3.834,0.021 8.245,2.404 10.773,6.428 2.507,4.085 2.816,9.347 2.816,15.518 v 51.123 h 33.783 V 110.95 c 0,-6.145 1.88,-11.383 4.376,-15.451 2.519,-4.006 7.97,-6.38 11.789,-6.399 3.817,0.024 8.497,2.394 11.016,6.399 2.487,4.068 3.387,9.307 3.387,15.451 v 51.138 h 40.219 v -52.021 c 0,-15.411 -4.879,-29.578 -15.034,-39.656 z"
   id="path42" />
	</g>
	
</g>
</svg>
