<?xml version="1.0" encoding="utf-8"?>
<!-- Generator: Adobe Illustrator 25.3.1, SVG Export Plug-In . SVG Version: 6.00 Build 0)  -->
<svg version="1.1" id="Шар_1" xmlns="http://www.w3.org/2000/svg" xmlns:xlink="http://www.w3.org/1999/xlink" x="0px" y="0px"
	 viewBox="0 0 250 346.2" style="enable-background:new 0 0 250 346.2;" xml:space="preserve">
<style type="text/css">
	.st0{fill:#0098FF;}
	.st1{fill:#00BDFF;}
	.st2{fill:#00E1FF;}
	.st3{fill:#0073FF;}
</style>
<g>
	<path class="st0" d="M69.1,118.2c19.3,2.7,42-14.9,60.2-28.7c17.2-12.9,38.3-28.7,54.1-28.6c9.6-0.3,18.4,5.3,22.3,14.1
		c-0.3-3.1-1.7-12.2-2.8-16.6c-3-11.7-13.7-19.7-25.8-19.1c-18.9,0.1-39.9,16.4-56.7,28.8C99.6,83.4,80.9,99.5,61,95.8
		c-10.7-2-15.3-6.9-16.8-11.3c0.6,5.5,1.5,11,2.7,16.4C50.6,110.3,59.1,117,69.1,118.2z"/>
	<path class="st1" d="M151.2,4.3c-36.1-12.2-75.8,2-96,34.4c0,0,4.2,9.1,21.6-5.4C104,10.6,118.1,0.3,151.2,4.3z"/>
	<path class="st2" d="M108.4,29.3c-8.3,6.1-20.5,15.4-29.1,21.1C69.2,57.2,55,66.8,48.2,54.1c-1.4,4.1-2.4,8.3-2.9,12.5
		c1.2,7.9,8.2,13.6,16.2,13.1c15.2,0.3,29.3-12.9,50.8-28.8c22.6-16.8,38.3-27.8,56.7-25.6c10.8,0.9,20.7,6.6,26.9,15.5
		c-6.3-11.1-15.2-20.5-26-27.4C156.4,4.8,135.4,9.6,108.4,29.3z"/>
	<path class="st3" d="M98.6,153.9c36.1,12.2,75.9-2,96-34.4c0,0-4.2-9.1-21.6,5.4C145.8,147.5,131.7,157.8,98.6,153.9z"/>
	<path class="st3" d="M141.4,128.9c8.3-6.1,20.5-15.4,29.1-21.1c10.2-6.8,24.4-16.4,31.2-3.7c1.4-4.1,2.4-8.3,2.9-12.5
		c-1.2-7.9-8.2-13.6-16.2-13.1c-15.2-0.3-29.3,12.9-50.8,28.8C115.1,124,99.3,135,80.9,132.9c-10.8-0.9-20.7-6.6-26.9-15.5
		c6.3,11.1,15.2,20.5,26,27.4C93.4,153.3,114.4,148.6,141.4,128.9z"/>
</g>
<g>
	<g>
		<path class="st3" d="M26.1,257.5c11.3,0,18.5-9,18.5-22.3c0-13.5-7.2-22.3-17.9-22.3c-9.3,0-13.8,4.5-14.8,13.6l-0.9-0.1l1.2-12.4
			H0V272h12.6v-13.5l-1-9.7l0.9-0.1C13.9,253.8,18.1,257.5,26.1,257.5z M22.8,223.3c6.7,0,10.2,4.1,10.2,11.8s-3.5,11.8-10.2,11.8
			c-6.8,0-10.4-4.1-10.4-11.8S16.1,223.3,22.8,223.3L22.8,223.3z"/>
		<path class="st3" d="M71.6,257.5c11.5,0.6,21.4-8.2,22-19.7c0-0.9,0-1.7,0-2.6c0.8-11.5-7.9-21.5-19.4-22.3
			c-0.9-0.1-1.7-0.1-2.6,0c-11.5-0.6-21.4,8.2-22,19.7c0,0.9,0,1.7,0,2.6c-0.8,11.5,7.9,21.5,19.4,22.3
			C69.9,257.5,70.8,257.5,71.6,257.5z M71.6,223.4c6.9,0,10.5,4.1,10.5,11.7c0,7.7-3.6,11.7-10.5,11.7c-6.9,0-10.5-4-10.5-11.7
			C61.1,227.5,64.8,223.4,71.6,223.4z"/>
		<path class="st3" d="M121.1,245c-1.5,0.7-3.2,1.1-4.9,1.1c-2.7,0-4-1.6-4-4.7v-43.7h-12v45.6c0,8.7,4.5,14.1,12.7,14.1
			c3.2,0.1,6.3-0.6,9.1-1.9L121.1,245z"/>
		<path class="st3" d="M151.7,230.5l-9.4-2.2c-3-0.6-4-1.4-4-2.9c0-2.2,1.9-3.1,6.4-3.1c5.2,0.1,10.3,1.2,15.1,3.4l1-10.4
			c-5.1-1.7-10.4-2.6-15.7-2.6c-11.2,0-17.9,4.9-17.9,13.1c0,6.9,3.1,10.7,10.3,12.5l9.4,2.4c3.7,1,4.8,1.8,4.8,3.6
			c-0.1,2.4-1.8,3.2-6.7,3.2c-5.5,0.2-11-0.9-16.1-3l-1.1,10.7c5.6,1.6,11.4,2.3,17.2,2c11.1,0,17.8-4.8,17.8-13.7
			C163.2,237.1,158.3,231.3,151.7,230.5z"/>
		<path class="st3" d="M201.5,243l-1.4,13.3h12.3v-42.4h-12.2l0.6,6.5l-0.9,0.1c-1.9-4.6-5.3-7.7-13.4-7.7c-11.5,0-18.8,9-18.8,22.3
			c0,13.5,7.2,22.3,17.9,22.3c9.3,0,13.8-4.9,14.8-14.5L201.5,243z M189.6,246.9c-6.7,0-10.2-4.1-10.2-11.8s3.5-11.8,10.2-11.8
			c6.8,0,10.4,4.1,10.4,11.8S196.4,246.9,189.6,246.9z"/>
		<path class="st3" d="M248.9,245c-1.9,0.8-3.9,1.2-5.9,1.2c-4.1,0-5.4-1.4-5.4-6v-15.4h10.1v-10.9h-10.1v-10.6l-12,1.8v8.9h-6.4
			v10.9h6.5v18.6c-0.8,7,4.3,13.3,11.3,14c0.9,0.1,1.7,0.1,2.6,0c3.6,0.2,7.2-0.5,10.5-1.9L248.9,245z"/>
	</g>
	<g>
		<path class="st3" d="M45.9,304.7l-9.4-2.2c-3-0.6-4-1.4-4-2.9c0-2.2,1.9-3.1,6.4-3.1c5.2,0.1,10.3,1.2,15.1,3.4l1.1-10.4
			c-5.1-1.7-10.4-2.6-15.7-2.6c-11.2,0-17.9,4.9-17.9,13.1c0,6.9,3.1,10.6,10.3,12.5l9.4,2.4c3.7,1,4.8,1.8,4.8,3.6
			c-0.1,2.4-1.8,3.2-6.7,3.2c-5.5,0.2-11-0.9-16.1-3L22,329.7c5.6,1.6,11.4,2.3,17.2,2c11.1,0,17.8-4.8,17.8-13.7
			C57.4,311.3,52.5,305.5,45.9,304.7z"/>
		<path class="st3" d="M91.1,287c-9.3,0-13.8,4.5-14.8,13.6l-0.9-0.1l1.2-12.3H64.4v58.1H77v-13.5l-1-9.7l0.9-0.1
			c1.5,5,5.7,8.7,13.7,8.7c11.3,0,18.5-9,18.5-22.3C109,295.9,101.8,287,91.1,287z M87.2,321.1c-6.8,0-10.4-4.1-10.4-11.8
			s3.6-11.8,10.4-11.8c6.7,0,10.2,4.1,10.2,11.8S93.9,321.1,87.2,321.1z"/>
		<path class="st3" d="M136.1,287c-12.3,0.2-22.2,10.4-21.9,22.8c0.2,12,9.9,21.7,21.9,21.9c12.3-0.2,22.2-10.4,21.9-22.8
			C157.7,296.9,148.1,287.2,136.1,287z M136.1,321c-6.9,0-10.5-4-10.5-11.7c0-7.6,3.6-11.7,10.5-11.7c6.9,0,10.5,4.1,10.5,11.7
			C146.5,317,142.9,321,136.1,321z"/>
		<path class="st3" d="M176.5,300.9l-1.1-0.1l1.1-12.6h-11.4v42.4h12v-18c0-8.2,3-13.3,12.7-12.4l4.4,0.4l0.9-12.4
			c-2.1-0.8-4.2-1.2-6.5-1.2C181.6,287,177.8,291.6,176.5,300.9z"/>
		<path class="st3" d="M221.6,320.4c-4.1,0-5.4-1.4-5.4-6V299h10.1v-10.9h-10.1v-10.7l-12,1.8v8.9h-6.4V299h6.5v18.6
			c-0.7,7,4.3,13.3,11.3,14c0.9,0.1,1.7,0.1,2.6,0c3.6,0.2,7.2-0.5,10.5-1.9l-1.1-10.6C225.7,320,223.7,320.4,221.6,320.4z"/>
	</g>
</g>
</svg>
