<?xml version="1.0" encoding="utf-8"?>
<!-- Generator: Adobe Illustrator 25.4.1, SVG Export Plug-In . SVG Version: 6.00 Build 0)  -->
<svg version="1.1" id="Layer_1" xmlns="http://www.w3.org/2000/svg" xmlns:xlink="http://www.w3.org/1999/xlink" x="0px" y="0px"
	 viewBox="0 0 1400 400" style="enable-background:new 0 0 1400 400;" xml:space="preserve">
<style type="text/css">
	
		.st0{clip-path:url(#SVGID_00000171682207526616861730000016240610367174718877_);fill:url(#SVGID_00000080191198620838784550000001252666654672128912_);}
	.st1{fill-rule:evenodd;clip-rule:evenodd;fill:#1B2E59;}
	
		.st2{clip-path:url(#SVGID_00000028284218683105304120000002987147028685859483_);fill:url(#SVGID_00000067215871092758904830000010343534107531462293_);}
	.st3{fill:#FFFFFF;}
	.st4{fill-rule:evenodd;clip-rule:evenodd;fill:#FFFFFF;}
</style>
<g>
	<g>
		<defs>
			<path id="SVGID_1_" d="M1382.49,126.35c1.87-11.13-1.25-22.51-8.54-31.13c-7.29-8.61-18-13.58-29.28-13.58H95.71
				c-25.97,0-48.13,18.75-52.43,44.35c-7.13,42.43-17.84,106.09-24.99,148.64c-1.87,11.13,1.25,22.52,8.54,31.13
				c7.29,8.61,18,13.58,29.28,13.58h1248.96c25.97,0,48.13-18.75,52.43-44.36C1364.63,232.56,1375.34,168.9,1382.49,126.35z"/>
		</defs>
		<clipPath id="SVGID_00000093156283267399820180000007700899259546189727_">
			<use xlink:href="#SVGID_1_"  style="overflow:visible;"/>
		</clipPath>
		
			<linearGradient id="SVGID_00000137834454222894695360000000712563000839623332_" gradientUnits="userSpaceOnUse" x1="278.5555" y1="497.157" x2="282.9261" y2="497.157" gradientTransform="matrix(315.578 0 0 -54.3874 -87895.2344 27239.5723)">
			<stop  offset="0" style="stop-color:#121D36"/>
			<stop  offset="0.1497" style="stop-color:#162447"/>
			<stop  offset="0.3314" style="stop-color:#1B2C54"/>
			<stop  offset="1" style="stop-color:#1B2E59"/>
		</linearGradient>
		
			<rect x="16.41" y="81.64" style="clip-path:url(#SVGID_00000093156283267399820180000007700899259546189727_);fill:url(#SVGID_00000137834454222894695360000000712563000839623332_);" width="1367.95" height="237.7"/>
	</g>
	<path class="st1" d="M95.71,85.81c-22.73,0.07-44.14,17.16-48.29,40.6c-8.51,49.69-16.89,99.4-25.07,149.15
		c-3.04,19.25,12.77,39.41,33.52,39.62c416.49,1.44,832.99,1.11,1249.48,0c22.74-0.2,43.92-17.52,48-40.6
		c8.49-49.69,16.9-99.4,25.07-149.15c3.02-19.2-12.33-39.4-33.52-39.62C928.51,84.36,512.11,85.81,95.71,85.81z M1344.96,77.48
		c14.26,0.15,28.21,7.89,35.76,19.99c5.4,8.63,7.51,19.18,5.92,29.28c-8.19,49.78-16.59,99.52-25.09,149.25
		c-4.52,25.6-27.78,46.41-54.2,47.46c-0.65,0.03-1.3,0.04-1.96,0.04c-416.52,1.11-833.05,1.44-1249.58,0
		c-24.27-0.25-45.74-23.56-41.68-49.27c8.19-49.78,16.58-99.53,25.09-149.25c4.62-26.11,28.98-47.28,56.16-47.5
		C511.9,76.23,928.43,76.04,1344.96,77.48z"/>
	<g>
		<defs>
			<path id="SVGID_00000111165149851678417440000017961374046271883948_" d="M825.36,91.37l-40.3,218.25
				c170.37,0,340.74,0.52,511.11,0c22.63-0.19,43.76-17.35,47.95-40.34c8.12-46.01,16.16-92.04,24-138.1
				c3.16-19.34-12.59-39.6-33.49-39.81C1164.88,90.78,995.12,91.37,825.36,91.37z"/>
		</defs>
		<clipPath id="SVGID_00000137812510685014218020000014354383462078082965_">
			<use xlink:href="#SVGID_00000111165149851678417440000017961374046271883948_"  style="overflow:visible;"/>
		</clipPath>
		
			<linearGradient id="SVGID_00000153687887310750060880000013112320408611311773_" gradientUnits="userSpaceOnUse" x1="281.2055" y1="497.3741" x2="285.576" y2="497.3741" gradientTransform="matrix(128.917 0 0 -23.6166 -35448.8047 11946.7441)">
			<stop  offset="0" style="stop-color:#9E2236"/>
			<stop  offset="0.6545" style="stop-color:#932435"/>
			<stop  offset="0.8425" style="stop-color:#762531"/>
			<stop  offset="1" style="stop-color:#53272B"/>
		</linearGradient>
		
			<rect x="785.06" y="90.78" style="clip-path:url(#SVGID_00000137812510685014218020000014354383462078082965_);fill:url(#SVGID_00000153687887310750060880000013112320408611311773_);" width="586.22" height="219.35"/>
	</g>
	<path class="st3" d="M901.4,178.07l1.98-11c0.36-2.04,0.27-3.43-0.27-4.15c-0.54-0.72-1.71-1.08-3.52-1.08h-25.25
		c-4.57,0-7.22,2.35-7.94,7.04l-2.16,12.63c-0.24,1.81-0.09,3.04,0.45,3.7c0.54,0.66,1.71,1.23,3.52,1.71l31.57,7.22
		c7.81,1.93,13.71,5.17,17.67,9.74c3.97,4.57,5.29,10.22,3.97,16.96l-4.15,23.09c-1.32,7.57-4.57,13.59-9.74,18.04
		c-5.17,4.45-11.42,6.67-18.76,6.67h-39.86c-7.46,0-13.23-2.53-17.32-7.57c-3.97-4.93-5.29-11.25-3.97-18.94l2.71-15.69h25.25
		l-2.17,12.45c-0.36,2.05-0.27,3.43,0.27,4.15c0.54,0.72,1.77,1.08,3.7,1.08h27.24c4.57,0,7.22-2.35,7.94-7.04l2.34-14.07
		c0.24-1.81,0.09-3.04-0.45-3.7c-0.54-0.66-1.71-1.23-3.52-1.71l-31.57-7.22c-7.7-1.8-13.5-5.02-17.4-9.65
		c-3.91-4.63-5.26-10.31-4.06-17.05l3.79-21.64c1.32-7.58,4.57-13.59,9.74-18.04c5.17-4.45,11.42-6.67,18.76-6.67h37.7
		c7.46,0,13.17,2.53,17.14,7.58c4.09,4.93,5.47,11.24,4.15,18.94l-2.53,14.25H901.4z"/>
	<path class="st3" d="M960.75,197.55h31.75c4.33,0,6.98-2.34,7.94-7.03l3.97-22.73c0.36-2.04,0.27-3.43-0.27-4.15
		c-0.54-0.72-1.77-1.08-3.7-1.08h-33.55L960.75,197.55z M945.23,138.03h64.4c7.33,0,13.05,2.53,17.14,7.58
		c4.09,5.05,5.53,11.36,4.33,18.94l-5.95,32.83c-1.2,7.58-4.39,13.59-9.56,18.04c-5.17,4.45-11.49,6.68-18.94,6.68h-40.23
		l-7.94,45.82H922.5L945.23,138.03z"/>
	<path class="st3" d="M1200.66,188.54l3.61-20.75c0.36-2.04,0.27-3.43-0.27-4.15c-0.54-0.72-1.77-1.08-3.7-1.08h-33.37l-5.77,33.01
		h31.57C1197.05,195.57,1199.69,193.23,1200.66,188.54z M1145.28,138.03h64.22c7.46,0,13.23,2.53,17.32,7.58
		c4.09,4.93,5.47,11.25,4.15,18.94l-5.41,30.49c-2.41,13.11-9.68,21.11-21.83,23.99l12.63,48.88h-27.24l-11.91-48.16H1157
		l-8.48,48.16h-25.97L1145.28,138.03z"/>
	<polygon class="st3" points="1324.22,162.2 1291.21,162.2 1272.63,267.9 1246.66,267.9 1265.23,162.2 1232.22,162.2 
		1236.37,138.03 1328.37,138.03 	"/>
	<path class="st3" d="M1099.86,137.3h9.52c7.46,0,13.17,2.53,17.14,7.58c4.09,4.93,5.47,11.24,4.15,18.94l-14.07,80.09
		c-1.32,7.57-4.57,13.59-9.74,18.04c-5.17,4.45-11.42,6.67-18.76,6.67h-11.14l4.28-24.53h2.89c4.33,0,6.91-2.35,7.75-7.04
		l12.27-69.99c0.36-2.04,0.27-3.43-0.27-4.15c-0.54-0.72-1.71-1.08-3.52-1.08h-4.78L1099.86,137.3z M1079.82,137.3l-4.28,24.53
		h-4.77c-4.33,0-6.97,2.35-7.94,7.04l-12.26,69.99c-0.36,2.05-0.27,3.43,0.27,4.15s1.77,1.08,3.7,1.08h6.66l-4.28,24.53h-11.58
		c-7.33,0-13.11-2.53-17.32-7.57c-3.97-4.93-5.29-11.25-3.97-18.94l14.07-80.09c1.32-7.58,4.57-13.59,9.74-18.04
		c5.17-4.45,11.42-6.67,18.76-6.67H1079.82z"/>
	<path class="st3" d="M128.34,197.55h31.75c4.33,0,6.98-2.34,7.94-7.03l3.97-22.73c0.36-2.04,0.27-3.43-0.27-4.15
		c-0.54-0.72-1.77-1.08-3.7-1.08h-33.55L128.34,197.55z M112.83,138.03h64.4c7.33,0,13.05,2.53,17.14,7.58
		c4.09,5.05,5.53,11.36,4.33,18.94l-5.95,32.83c-1.2,7.58-4.39,13.59-9.56,18.04c-5.17,4.45-11.49,6.68-18.94,6.68h-40.23
		l-7.94,45.82H90.1L112.83,138.03z"/>
	<path class="st3" d="M266.34,188.54l3.61-20.75c0.36-2.04,0.27-3.43-0.27-4.15c-0.54-0.72-1.77-1.08-3.7-1.08H232.6l-5.77,33.01
		h31.57C262.73,195.57,265.37,193.23,266.34,188.54z M210.96,138.03h64.22c7.46,0,13.23,2.53,17.32,7.58
		c4.09,4.93,5.47,11.25,4.15,18.94l-5.42,30.49c-2.4,13.11-9.68,21.11-21.83,23.99l12.63,48.88h-27.24l-11.91-48.16h-20.2
		l-8.48,48.16h-25.98L210.96,138.03z"/>
	<polygon class="st3" points="313.42,138.03 396.93,138.03 392.6,162.56 335.06,162.56 330.37,189.26 376.91,189.26 372.58,213.79 
		326.04,213.79 320.99,243.37 378.53,243.37 374.2,267.9 290.68,267.9 	"/>
	<polygon class="st3" points="528.62,138.03 505.88,267.9 481.35,267.9 496.87,181.32 458.26,247.16 440.23,247.16 423.99,181.32 
		408.48,267.9 383.95,267.9 406.67,138.03 434.45,138.03 453.21,214.87 499.03,138.03 	"/>
	<polygon class="st3" points="521.04,267.9 543.77,138.03 569.74,138.03 547.01,267.9 	"/>
	<polygon class="st3" points="584.89,138.03 668.41,138.03 664.08,162.56 606.54,162.56 601.85,189.26 648.39,189.26 644.06,213.79 
		597.52,213.79 592.47,243.37 650.01,243.37 645.68,267.9 562.16,267.9 	"/>
	<path class="st3" d="M733.53,188.54l3.61-20.75c0.36-2.04,0.27-3.43-0.27-4.15c-0.54-0.72-1.77-1.08-3.7-1.08H699.8l-5.77,33.01
		h31.57C729.92,195.57,732.57,193.23,733.53,188.54z M678.15,138.03h64.22c7.46,0,13.23,2.53,17.32,7.58
		c4.09,4.93,5.47,11.25,4.15,18.94l-5.41,30.49c-2.4,13.11-9.68,21.11-21.83,23.99l12.63,48.88h-27.24l-11.91-48.16h-20.2
		l-8.48,48.16h-25.97L678.15,138.03z"/>
	<path class="st4" d="M93.68,98.04c-14.94,0.04-28.85,11.26-31.74,26.28c-9.37,50.2-19,100.36-27.69,150.69
		c-2.23,13.4,8.62,27.67,23.26,27.93c416.62,4.34,833.31,3.5,1249.94,0c14.7-0.2,28.41-11.3,31.33-26.1
		c9.68-50.15,18.66-100.43,27.7-150.7c2.35-13.54-8.44-27.94-23.4-28.09C926.62,96.53,510.15,98.04,93.68,98.04z M1343.15,89.72
		c10.95,0.12,21.59,6.13,27.28,15.41c4.07,6.65,5.59,14.77,4.26,22.46c-9.03,50.25-18.32,100.44-27.68,150.63
		c-3.51,18.2-20.52,32.79-39.45,33.05c-416.63,3.5-833.29,1.3-1249.93,0c-18.63-0.19-34.9-18.41-31.54-37.87
		c9.06-50.24,18.32-100.44,27.68-150.63c3.52-18.3,20.5-32.89,39.68-33.05C510.01,88.49,926.59,88.2,1343.15,89.72z"/>
</g>
</svg>
