<?xml version="1.0" encoding="UTF-8" standalone="no"?>
<!-- Created with Inkscape (http://www.inkscape.org/) -->

<svg
   width="260.38986mm"
   height="98.078827mm"
   viewBox="0 0 260.38986 98.078827"
   version="1.1"
   id="svg1"
   xml:space="preserve"
   xmlns="http://www.w3.org/2000/svg"
   xmlns:svg="http://www.w3.org/2000/svg"><defs
     id="defs1" /><g
     id="layer1"
     transform="translate(-22.473083,-160.15431)"><path
       style="opacity:1;fill:#005aff;fill-opacity:1;fill-rule:evenodd;stroke:none;stroke-width:0.342809;stroke-linecap:round;stroke-dasharray:none"
       d="m 50.352205,168.06931 c 12.501321,-0.75425 24.191687,3.2418 34.241153,10.05527 11.04954,7.49151 20.270182,18.17242 26.192802,29.05108 1.42762,2.62224 2.47391,4.25471 5.48849,4.10694 0.24688,-0.0117 0.18079,0.15026 0.17622,0.1875 -0.21924,1.78586 -2.95417,6.02421 -4.20877,8.06555 -4.34897,7.07612 -11.15827,12.76043 -19.965639,17.03575 -7.535602,3.65801 -16.690586,6.95709 -27.577501,8.08657 -4.655449,0.483 -9.627595,0.71045 -14.925244,0.66152 -1.796462,0.22801 -2.463626,0.62524 -3.116405,1.96019 -0.07793,0.15943 -0.195477,0.33181 -0.375283,0.27759 -4.574241,-1.37936 -11.321038,-22.44739 -8.363009,-40.21383 2.90642,-17.45648 10.716647,-30.49081 12.585584,-33.9126 0.419161,-0.76742 0.47545,-1.46369 0.359125,-2.08383 -0.165545,-0.88249 -0.631473,-1.64161 -0.996969,-2.1708 -0.333698,-0.48314 -0.299765,-1.05952 0.485446,-1.1069 z"
       id="path1" /><path
       style="opacity:1;fill:#005aff;fill-opacity:1;fill-rule:evenodd;stroke:none;stroke-width:0.342809;stroke-linecap:round;stroke-dasharray:none"
       d="m 48.767153,171.92184 c 1.309329,-1.91645 -4.454122,-2.43598 -6.629873,-1.11002 -30.635953,18.68115 -21.609553,66.95704 0.757433,78.43066 0.339392,0.17416 1.48918,0.40792 1.021273,-0.29789 -20.263254,-30.56634 -2.285681,-66.16874 4.851304,-77.02272 z"
       id="path2" /><path
       style="fill:#005aff;fill-opacity:1;fill-rule:evenodd;stroke:none;stroke-width:0.342809;stroke-linecap:round;stroke-dasharray:none"
       d="m 50.225617,247.35924 c -2.316619,-0.14358 0.186133,5.07337 2.439506,6.26389 31.728636,16.75829 68.582837,-15.70405 66.992327,-40.79189 -0.024,-0.38071 -0.43083,-1.49697 -0.77863,-0.7249 -15.58135,34.58924 -55.596554,36.22583 -68.653271,35.2528 z"
       id="path2-9" /><path
       style="fill:#005aff;fill-opacity:1;fill-rule:evenodd;stroke:none;stroke-width:0.342809;stroke-linecap:round;stroke-dasharray:none"
       d="m 114.37176,208.40625 c 1.01787,2.08595 4.32057,-2.66562 4.24457,-5.21253 -1.07907,-35.86619 -47.498942,-51.90442 -68.535458,-38.1423 -0.319148,0.20877 -1.091194,1.09233 -0.246471,1.03483 36.588359,-2.48841 58.635129,30.74811 64.537139,42.32017 z"
       id="path2-9-7" /><g
       id="g845"
       transform="matrix(0.44122608,0,0,0.44122608,-7.7751133,-19.507958)">&#10;	&#10;	&#10;	&#10;	&#10;	&#10;	&#10;	&#10;	&#10;	&#10;	<path
   class="st0"
   d="m 400.71583,479.05376 v 78.2925 h 78.29252 v -78.2925 z m 56.62484,62.11398 H 422.3835 v -45.93546 h 34.66827 v 8.95598 h -24.55669 v 9.24487 h 21.66767 v 8.95596 h -21.66767 v 9.67823 h 24.84559 z"
   id="path829-1"
   style="fill:#005aff;fill-opacity:1;stroke-width:1.44451" /><path
   class="st0"
   d="m 580.41302,479.05376 v 78.2925 h 78.29251 v -78.2925 z m 57.49155,48.68003 c 0,9.24487 -7.07811,14.44511 -17.04524,14.44511 -7.0781,0 -14.1562,-2.45567 -19.64535,-7.36701 l 6.06695,-7.22255 c 4.18908,3.46683 8.52262,5.63359 13.86731,5.63359 4.18908,0 6.64476,-1.58896 6.64476,-4.33353 v -0.14445 c 0,-2.60012 -1.58898,-3.90019 -9.38933,-5.9225 -9.38932,-2.45567 -15.31182,-4.91134 -15.31182,-14.15621 v -0.14445 c 0,-8.37817 6.7892,-14.01176 16.17852,-14.01176 6.78921,0 12.56725,2.16677 17.18969,5.9225 l -5.3447,7.65591 c -4.04462,-2.88903 -8.08926,-4.62244 -12.13388,-4.62244 -3.90019,0 -5.9225,1.73341 -5.9225,4.04463 v 0.14446 c 0,3.03347 2.02231,4.04462 9.96712,6.06693 9.53378,2.45568 14.87847,5.77805 14.87847,14.01177 z"
   id="path831-4"
   style="fill:#005aff;fill-opacity:1;stroke-width:1.44451" /><path
   class="st0"
   d="m 490.56443,479.05376 v 78.2925 h 78.29251 v -78.2925 z m 63.12513,19.06755 -9.38931,43.19088 h -9.10043 l -5.48914,-22.82327 -5.48914,22.82327 h -9.10042 l -9.38933,-43.19088 -0.72225,-2.74457 v 0 h 7.36701 2.74457 l 4.62244,21.08986 5.05578,-21.08986 h 4.76689 v 0 h 4.76689 l 5.05579,21.08986 4.62243,-21.08986 h 2.74457 7.36701 v 0 z"
   id="path833-2"
   style="fill:#005aff;fill-opacity:1;stroke-width:1.44451" /><path
   class="st0"
   d="m 310.86724,479.05376 v 78.2925 h 78.2925 v -78.2925 z m 59.51386,62.11398 h -8.52262 l -22.24547,-29.17912 v 29.17912 h -9.96712 v -45.93546 h 9.24487 l 21.52321,28.31242 v -28.31242 h 9.96713 z"
   id="path835-2"
   style="fill:#005aff;fill-opacity:1;stroke-width:1.44451" />&#10;	&#10;	&#10;	&#10;	&#10;</g></g><style
     type="text/css"
     id="style815">&#10;	.st0{fill:#005AFF;}&#10;</style></svg>
