<?xml version="1.0" encoding="UTF-8"?>
<svg width="238px" height="48px" viewBox="0 0 238 48" version="1.1" xmlns="http://www.w3.org/2000/svg" xmlns:xlink="http://www.w3.org/1999/xlink">
    <title>logo/rbcom/desktop</title>
    <defs>
        <linearGradient x1="10.9562365%" y1="50.0283653%" x2="103.223327%" y2="50.0283653%" id="linearGradient-1">
            <stop stop-color="#1885C8" offset="0%"></stop>
            <stop stop-color="#1881C3" offset="14%"></stop>
            <stop stop-color="#1A74B3" offset="32%"></stop>
            <stop stop-color="#1B6099" offset="52%"></stop>
            <stop stop-color="#1E4475" offset="73%"></stop>
            <stop stop-color="#212047" offset="96%"></stop>
            <stop stop-color="#22183D" offset="100%"></stop>
            <stop stop-color="#22183D" offset="100%"></stop>
        </linearGradient>
        <linearGradient x1="2.64093448%" y1="53.5337061%" x2="107.122905%" y2="46.3834728%" id="linearGradient-2">
            <stop stop-color="#52BCE8" offset="24%"></stop>
            <stop stop-color="#3F88B9" offset="100%"></stop>
        </linearGradient>
        <linearGradient x1="3.23857218e-14%" y1="49.9339746%" x2="100%" y2="49.9339746%" id="linearGradient-3">
            <stop stop-color="#52BCE8" offset="54%"></stop>
            <stop stop-color="#49A4D3" offset="100%"></stop>
        </linearGradient>
        <linearGradient x1="37.0854713%" y1="52.6055467%" x2="65.1181752%" y2="43.2962374%" id="linearGradient-4">
            <stop stop-color="#3A78AC" offset="0%"></stop>
            <stop stop-color="#34689E" offset="29%"></stop>
            <stop stop-color="#253E78" offset="86%"></stop>
            <stop stop-color="#21336E" offset="100%"></stop>
        </linearGradient>
        <linearGradient x1="-1.61987041%" y1="59.550368%" x2="104.474892%" y2="45.0516167%" id="linearGradient-5">
            <stop stop-color="#52BCE8" offset="0%"></stop>
            <stop stop-color="#51B9E6" offset="25%"></stop>
            <stop stop-color="#4EB0DE" offset="41%"></stop>
            <stop stop-color="#48A1D0" offset="56%"></stop>
            <stop stop-color="#418CBD" offset="69%"></stop>
            <stop stop-color="#3977AB" offset="78%"></stop>
            <stop stop-color="#33669C" offset="85%"></stop>
            <stop stop-color="#243B75" offset="98%"></stop>
            <stop stop-color="#21336E" offset="100%"></stop>
        </linearGradient>
    </defs>
    <g id="logo/rbcom/desktop" stroke="none" stroke-width="1" fill="none" fill-rule="evenodd">
        <g id="f-rbmn-logo-logotype" transform="translate(1.000000, 0.000000)">
            <g id="color---simplified" fill-rule="nonzero">
                <path d="M48.3542366,37.7243242 C49.4742437,37.4602972 50.4969528,36.8586617 51.6429059,36.9517205 C53.5369719,37.2438815 54.4342748,36.8738108 55.8807704,35.9367312 C56.9423986,36.5448591 58.2029471,37.8130546 60.7932336,37.7849206 C61.6256713,37.8390245 62.5921638,37.4278348 62.397568,36.5470233 C62.3456758,35.7830761 63.8419014,36.114192 63.9370371,35.1403218 L63.9370371,35.1403218 C64.1035247,34.5581637 63.9802807,34.5819695 63.0721668,34.034438 C61.5586438,33.2055661 61.5845899,31.6214038 60.4451233,30.5955938 C60.3197171,30.446267 59.9499851,30.1779117 59.9391742,29.9896301 C56.1402314,19.6990675 60.6180974,23.211493 51.9910162,13.5009243 C49.5369468,11.6787048 45.9498972,7.48889845 42.7628502,7.73777641 C39.869859,7.83083513 39.1368815,9.46910134 37.0049762,10.1637955 C34.3152296,11.1181883 32.7022465,11.390872 30.5379086,13.4100297 C29.1368187,14.5873307 27.2751854,13.1330177 25.2838215,15.230085 C21.0654167,19.4869802 20.5919002,15.4854555 13.6664513,20.8958459 C10.0858883,24.0079024 5.13883022,21.7615084 9.12588228,17.7599836 C11.1475166,16.3164914 13.7075327,14.5397192 12.7626619,11.7825843 C12.4426599,9.7179793 9.47831692,9.14664207 7.61019709,8.85015268 C6.52910922,8.63373706 4.68261114,7.21188646 4.07287759,6.82666667 C2.24367692,8.88045087 3.15827725,13.6264453 7.09992361,14.1090522 C7.26296811,14.1186448 7.39304432,14.2488402 7.40262822,14.412034 C7.41775997,14.5544228 7.38256784,14.6976175 7.30316813,14.8167312 C4.47720445,17.0436479 3.86963307,17.9525935 3.77017298,20.4824921 C3.55395541,23.9451419 6.4058652,26.5680992 10.0404826,26.4490706 C10.6187969,26.4587009 11.197014,26.4246995 11.7702232,26.3473553 C11.8696833,26.3473553 11.9713055,26.3473553 11.9713055,26.4490706 C12.2567127,28.0137555 12.3777946,29.9268696 12.8815815,30.4960426 C12.9810416,30.6973092 12.9810416,30.9007398 12.7799593,31.000291 C11.6231953,32.1386372 9.15831491,30.8552926 8.5356083,32.9220617 C8.14857885,33.7660826 8.2415524,34.8156983 7.32478989,35.2485296 C6.67613717,35.1056953 6.50316311,34.1448099 5.60586018,34.1361533 C4.70855725,34.1274967 3.22746687,34.7983851 2.57881415,36.2613546 C1.88691792,36.7353048 1.18637298,36.4128456 0.862046621,37.4732821 C0.715018672,37.4624613 0.635018169,38.0337985 0.660964278,38.2826765 C0.632907333,38.747268 0.494277912,39.1984118 0.256637416,39.5984835 C-0.40931271,40.4403402 0.312853985,41.4704785 1.36799574,41.6219695 C2.14854118,41.6825658 2.64151725,41.989876 2.88151876,41.7215206 C2.98097884,41.7215206 2.98097884,41.6219695 3.0826011,41.6219695 C3.29881867,41.4163746 3.46530621,41.5657014 3.68801031,41.6219695 C4.13774286,41.6457752 4.79071993,41.9963685 5.30531776,41.9249513 C5.4163995,41.9112509 5.52770278,41.9486512 5.60802236,42.0266667 C7.12154537,42.0136817 7.60154839,41.4098822 8.13344362,40.6091444 C8.10533533,40.2498945 8.3929047,40.0031807 8.53777048,39.7001988 C8.67614973,39.5552003 8.77560981,39.4837832 8.94209734,39.4967681 C9.2037206,39.5725136 9.80696763,39.661244 9.95399558,39.7001988 C12.2675236,39.9036295 12.8729328,37.5360426 14.7107822,37.2720156 C15.1648391,37.2720156 16.0080876,37.360746 17.8416127,37.5749974 C19.0437824,37.6702203 20.220006,36.7959012 21.3789322,36.1596393 C21.8978543,35.8999406 22.3497491,35.7549421 22.7929951,35.1468142 C23.3378634,34.713983 23.9930026,32.0434143 24.7130071,32.0131161 C26.1897732,31.9828179 27.5865387,31.4980469 29.0568182,31.5067036 C30.8622349,31.4266298 32.6979221,31.928714 34.3109052,31.305437 C34.3714462,31.3270786 34.726043,31.2513331 34.8168544,31.4049882 C35.046045,31.7447607 35.6925355,31.8962517 35.5238858,32.316098 C35.5238858,32.4178133 35.3206413,32.5173645 35.2211812,32.6190798 C34.8882062,32.6190798 34.4038788,32.6450497 34.1098229,33.023777 C33.9627949,33.1579547 33.5519815,33.1969095 33.4006292,33.023777 C32.4341367,33.1103433 29.6989844,32.7056461 29.3595228,34.1361533 C29.6168217,35.2442013 30.5270977,38.0186495 32.3865688,37.7784281 C32.4881911,37.7784281 32.6892734,37.8779793 32.6892734,37.9796946 C33.3963049,39.3950528 34.6092855,40.3061625 35.7163195,40.3061625 C36.8233534,40.3061625 39.5779653,39.3171431 41.677438,38.2826765 L42.5725787,38.2826765 C43.8547489,38.1636479 44.3671846,37.8195471 45.098,36.3609058 C46.0688169,35.3913639 45.2839471,38.345437 48.3628853,37.7286525 L48.3542366,37.7243242 Z M46.4082785,31.2037217 C46.1055739,31.5067036 45.8028693,31.6084189 45.3985424,32.2143826 C44.6915109,31.9114008 44.5898887,31.000291 44.4904286,30.5955938 C45.0958378,30.4960426 46.4082785,30.1908966 47.1174721,30.0913454 C46.7109831,30.4960426 46.5077385,30.6973092 46.4061163,31.2037217 L46.4082785,31.2037217 Z" id="outline" fill="#FFFFFF"></path>
                <path d="M62.1997907,34.4759008 C60.8871428,33.7688871 60.3811138,32.2532399 59.5723323,31.1419094 C57.4573905,28.9538425 57.0984127,25.2112101 56.5448083,22.1474839 C55.9868789,19.1724047 53.4459212,16.9713649 51.6834697,14.6708676 C50.1199698,13.3952159 46.0392999,9.52934263 44.1146596,8.91097588 C41.5737019,7.85369845 39.3571218,9.85149874 37.24218,10.8309398 C35.5251414,11.5379535 33.7064644,11.7390308 32.1905399,13.0536007 C29.811771,16.1065163 28.3823472,13.663319 25.6208127,16.0805709 C21.5120301,20.387517 19.9550177,16.5973179 14.3043604,21.6393853 C12.7905983,22.5474764 11.3741496,23.4577295 9.54682259,23.3561098 C6.64256203,23.2198962 5.65429168,19.3172668 7.92925974,17.5962181 C9.51438483,15.8232784 13.4069157,14.00061 11.4714629,11.1336368 C9.4603219,9.34123806 7.09452812,10.104467 4.70278412,8.10666667 C3.59990037,9.83636389 5.00986156,12.1822657 6.82421347,12.755228 C7.56811938,13.217922 9.29813311,12.4806385 9.65278593,13.557375 C8.88725485,15.0903192 6.79610075,15.9205739 5.81431795,17.399465 C3.36851103,20.2231957 5.78404271,24.8522979 9.24839522,25.0685101 C10.5286054,25.4836374 12.1613059,24.4371706 12.9873874,24.8674328 C13.0890257,25.8771435 12.9873874,26.7873967 13.190664,27.6976498 C13.2836523,28.6922257 14.4168113,29.7603138 13.7961688,30.72462 C12.7907964,31.590262 11.4875508,32.0300269 10.16314,31.9505429 C9.47329701,32.7440415 9.35652108,33.6456462 8.94996785,34.5775206 C8.44610135,35.4856116 7.43620583,35.8899283 6.7269002,36.294245 C6.25979649,37.005583 5.7948553,37.7925953 4.80658495,37.911512 C4.20108014,38.6185257 4.09944183,39.5287789 3.89832774,40.439032 C6.42631031,41.1071276 6.9669396,40.7676745 8.34446304,38.6185257 C8.85049206,38.1147514 9.55763518,38.5190681 10.0615017,38.6185257 C11.4974131,38.4477181 12.5678591,37.4877361 13.5993798,36.5991042 C17.275659,35.6369601 17.2410587,38.0455635 21.4795923,35.2845343 C22.188898,34.9818373 22.4916504,34.1732038 22.7944028,33.5656477 C23.1490556,32.8889036 24.1286759,31.5851444 22.8960411,31.2435292 C19.7236284,37.6650301 14.2005595,32.4391824 9.95986337,37.2974694 C9.31110822,37.4769255 9.81497472,36.4672148 9.95986337,36.2855966 C13.002525,31.8532474 19.92258,35.7558768 22.2862112,30.0154441 C22.7014145,29.1332985 22.4657002,25.6176889 23.4993834,25.6695799 C23.6010217,25.6695799 23.9037741,25.7711996 23.9037741,25.9722769 C22.9219913,30.2576017 23.5707464,31.5873065 28.1466328,30.8370503 C29.7122952,30.3830048 34.2016809,31.9808126 34.1086926,29.8273396 C34.1086926,29.4230228 33.7043019,29.2219455 34.1086926,28.9192485 C34.2081684,28.8176288 34.5130833,28.9192485 34.6125591,29.0187061 C34.8980114,30.7484033 36.4160985,32.0175687 37.8563349,32.7591763 C40.7605955,34.7353554 39.5863486,37.3147664 36.238772,37.2044982 C35.1272382,36.5991042 34.8244858,35.4856116 34.0157044,34.5775206 C33.0706844,33.749428 31.7796616,34.1450962 30.6811029,34.3742811 C30.1361486,35.1980494 31.4314964,36.1796526 31.6909984,37.0034209 C32.1970274,37.3061179 32.9041706,36.8001815 33.3085613,37.4055755 C33.712952,38.0109695 33.9140661,38.6185257 34.5217334,39.0228424 C36.2733723,40.7028108 39.9280263,37.751515 41.7964412,37.6088149 C43.4291416,37.7861089 44.1752101,36.2985693 44.7266519,35.0812949 C45.6478843,33.3991643 43.1977523,31.7364929 43.0096133,30.2316563 C42.4516839,30.0781457 41.712103,29.6413971 41.2904122,30.2316563 C41.5996521,30.9840746 43.3339909,33.7364553 43.2107274,34.5775206 C42.9836631,35.1850767 42.468984,36.5947799 41.6969654,36.4974845 C41.900242,35.7904707 42.2029944,34.9839994 42.2029944,34.1732038 C41.8353665,33.3083552 40.2113161,30.8111048 40.0815651,29.9289593 C40.4037801,29.0749213 42.0624308,29.5700471 42.7068609,28.7160091 C43.4161665,27.6046786 43.6172806,26.4933482 43.8205572,25.0793207 C43.8639652,24.9333751 43.9776501,24.8188992 44.1233097,24.7744615 C45.107255,25.4079631 44.1060095,28.4500681 43.5156423,29.1203258 C43.4594169,30.1667926 45.5224583,29.4662653 45.9419866,29.1203258 C46.7226553,29.2824849 48.3056179,28.5041212 48.6689207,29.0187061 C48.195713,29.6152543 47.8517961,30.3036987 47.6590252,31.0402897 C47.0535204,31.7473035 46.0436249,32.2532399 46.0436249,33.2629507 C46.1539133,33.8986144 47.0081076,32.8737688 47.0535204,33.6672674 C46.1733759,34.7850842 46.2836643,35.0553494 46.5474914,36.294245 C47.4708862,37.591518 49.2355002,36.5234299 50.3881219,36.1947875 C52.3343874,35.4315586 54.5250173,36.6401845 56.0474293,34.5775206 C56.459422,34.6128199 56.8320753,34.8362114 57.0573249,35.1829146 C58.1830757,36.3654799 59.7715482,36.9939541 61.4018219,36.9018012 C62.0635521,36.4412693 60.6168281,36.080195 60.3919263,35.8899283 C59.6847832,35.4856116 58.7743635,34.8802176 58.5732494,34.0715841 C58.3072598,32.9429567 57.4919908,31.9094626 56.9556866,30.8392124 C59.3149928,30.8738064 59.5636823,35.8012813 63.0107346,35.083457 C63.179411,34.9667024 63.1621108,34.8412994 63.1123729,34.6791403 L62.1997907,34.4759008 Z M45.2240309,19.2178092 L45.2240309,19.2178092 C45.1223926,19.3194289 45.0207543,19.3194289 44.8196402,19.3194289 L44.8196402,19.3194289 C44.5493255,18.2989076 44.4541748,17.2329816 43.9092205,16.3875921 C43.6259307,16.1108406 43.2604653,15.7497663 43.5048297,15.2762617 L43.5048297,15.2762617 C43.6565209,15.100573 43.9118799,15.0578695 44.1124971,15.1746419 C45.0380544,15.8665208 45.1937557,16.830827 45.2240309,18.004859 C45.425145,18.2059363 45.3235067,18.8134925 45.2240309,19.2178092 L45.2240309,19.2178092 M53.5086342,33.4661901 L53.5086342,33.4661901 C53.0468534,33.5890758 52.5720859,33.6565762 52.0943479,33.6672674 L51.9948722,33.6672674 C51.3958549,33.1159264 52.6436273,32.0154065 53.3075201,32.0500005 C53.3723956,32.0500005 53.5432345,32.0500005 53.6102725,32.0500005 C53.9800629,32.2035111 53.8849122,33.1786279 53.5086342,33.4661901 M56.1360925,27.6046786 C56.0236417,27.8014317 55.8506403,28.3160166 55.632226,28.3117194 C55.4138118,28.3073681 55.3186611,28.3441242 55.3294736,28.1106151 C55.310011,27.4317089 55.1997226,26.59713 54.620168,26.1906511 C53.3010325,24.1387978 52.9680049,26.7095603 52.4987387,26.3917284 L52.4987387,26.3917284 C52.2176114,25.8209284 52.6609274,25.174454 52.9031294,24.6750039 L52.9031294,24.6750039 C53.0155803,24.5387903 53.0609931,24.3809554 53.2058818,24.2706872 C53.4221335,23.0274673 54.557455,23.7366432 54.8234446,24.4717645 C55.5197751,25.3366131 56.3372066,26.3117299 56.2377309,27.3019816 C56.1360925,27.2003619 56.1360925,27.4036013 56.1360925,27.6046786 M4.90389822,36.9018012 C5.61104134,36.4974845 6.01543205,35.7904707 6.31818445,35.1829146 C6.10193273,34.8434615 5.83810564,34.3959023 5.30828893,34.5775206 C4.8277522,34.9488099 4.32194172,35.286196 3.79452691,35.5872313 C3.5415124,36.274786 4.17296742,37.1396346 4.90606074,36.9018012 M2.68299309,36.9018012 C1.48279605,37.3926028 2.1185761,38.8714939 1.37034516,39.6303986 C1.37034516,39.7298562 1.16706855,39.9330956 1.37034516,40.0347153 C1.87421166,40.1341729 2.27860237,40.3374123 2.88410718,40.439032 C3.15442183,39.5352652 3.41608641,38.5298787 3.5912503,37.7104346 C3.38797368,37.4055755 3.08522128,37.0034209 2.68083057,36.9018012 M35.4213406,34.6791403 C35.8257313,35.1829146 35.8257313,35.8899283 36.3317603,36.294245 C36.9499057,36.3806218 37.5753578,36.1971159 38.0487989,35.7904707 C38.3515513,35.5872313 37.9471606,35.2845343 37.8476848,34.9818373 C37.5427699,34.5775206 37.7460465,33.7688871 37.0389034,33.7688871 C36.2733723,33.9461811 35.4343157,33.7256447 34.7141974,33.9699644 C34.7141974,34.2748235 35.3197022,34.2748235 35.4213406,34.6791403" id="bull" fill="#DB0A40"></path>
                <path d="M84.9066667,27.8017127 C84.8568809,26.1311289 84.1815257,24.317908 83.0516047,23.1271038 L83.0516047,23.1271038 L82.9996543,23.066591 C82.4217061,25.3466245 81.5926644,27.358673 79.2116047,30.9829538 C78.295979,32.3704244 76.6703645,32.4309371 75.6638256,33.7038658 C75.4257197,33.5741956 75.4949868,33.3969798 75.1876137,33.7254775 C76.4560691,32.3639409 75.0057873,33.0641597 75.5988876,32.4093254 C77.8111086,29.9672043 79.837174,27.767134 80.6943555,24.471351 C80.3328673,24.9230354 80.1142428,25.0635114 79.75059,25.5216792 C80.161864,24.1190804 80.4822247,22.9282762 80.7874333,21.4889375 L80.3978053,21.3333333 C79.0406013,25.9128509 76.8002405,29.9196585 72.7004885,32.6686657 C67.3755731,36.5328363 71.8714468,35.2404571 72.7675911,34.4408245 C66.0573318,41.280925 51.2038482,45.6789043 42.6666667,38.7199395 C43.9134761,39.9323554 45.4438482,41.2874085 46.8984592,42.1778102 C46.0131379,42.0265284 45.3832394,41.3414377 44.5477039,41.0799362 C44.5606915,41.1080314 46.5780985,43.7295297 52.600015,44.4167815 C52.9874784,44.4600049 53.357625,44.4989059 53.7147839,44.5313234 C61.9251109,45.1796742 62.4251334,43.7122403 68.154829,42.5019856 C68.4124164,42.6122052 66.3084254,43.6971121 63.4143555,44.5140341 C58.8448854,46.1824567 53.5394513,44.9462679 49.6669823,44.5442905 L49.6842991,44.5442905 L49.6842991,44.5442905 C49.7730477,44.5875138 50.3748065,44.8641435 53.4550319,45.9641786 C53.238572,46.0419807 52.2320331,46.1802955 48.0327095,44.3822028 C58.3362044,50.3146122 69.4254491,45.8237026 78.5297557,39.0830159 C78.5297557,39.1132723 78.5167681,39.1564957 78.5167681,39.1932355 C78.5968583,39.2062026 78.6985945,39.2191696 78.7808493,39.2256531 C78.7310635,39.3704514 78.7310635,39.3704514 78.025404,40.2111462 C79.5622698,38.9727963 80.3501841,37.0515169 81.9779632,35.8888078 C81.1445923,37.5593916 80.0796092,38.7566794 78.0968358,40.693087 C78.2478028,40.5778973 78.3923266,40.4545253 78.5297557,40.323527 C75.531785,43.12008 71.5770613,45.8950212 65.4404209,47.3516492 C65.8845938,47.3001716 66.323954,47.2134506 66.754333,47.0923089 C65.9772416,47.3084259 65.9555956,47.3343599 65.6265765,47.4424183 C65.8300489,47.4164843 65.8300489,47.4164843 66.8885381,47.2025286 C66.2716272,47.5050923 65.5594739,47.6498906 63.8364525,48 C74.0511988,46.3834454 84.6750545,38.4476322 84.9066667,27.8017127 Z" id="splash-4" fill="url(#linearGradient-1)"></path>
                <path d="M74.5565871,41.769213 C70.5044456,44.3323843 66.0210868,46.5681589 61.0133333,47.1389492 C67.0373726,47.3543417 74.1860437,43.0184898 78.08,39.4666667 C76.9141967,40.2420798 75.7483934,41.0218009 74.5565871,41.769213 Z" id="splash-3.4" fill="url(#linearGradient-2)"></path>
                <path d="M68.0533333,42.4533333 C62.2876694,43.6797098 61.9609845,45.1447917 53.71165,44.5206537 C53.0626071,44.7199398 49.6334974,44.5097039 49.0666667,44.3235574 C49.0947919,44.3235574 49.3608994,44.4396252 49.5902279,44.5316034 L49.5750836,44.5316034 C50.440474,44.4221055 56.1455606,45.6528619 57.9672075,45.4075866 C60.331887,45.5696435 67.7526101,43.3380764 68.0533333,42.4533333 Z" id="splash-3.3" fill="url(#linearGradient-3)"></path>
                <path d="M80.9182787,21.6347359 L80.7140472,21.5466667 C80.4055271,22.9686628 80.0861437,24.1586716 79.6733352,25.5527433 C80.0383448,25.0973609 80.2577851,24.9577389 80.6206221,24.5088006 C79.7515515,27.7845469 77.7266171,29.9712418 75.5061418,32.3985162 C74.9108285,33.0429253 76.3752124,32.3534075 75.0933333,33.7066667 C75.4018534,33.380166 75.3323277,33.5563045 75.5713221,33.6851864 C76.579444,32.4199965 78.2132966,32.3598516 79.1323387,30.9808161 C81.5222828,27.3764211 82.3544178,25.3787529 82.9323498,23.1125808 C82.9515848,23.1316035 82.9697193,23.1516836 82.9866667,23.1727257 C82.9866667,23.1727257 82.9866667,23.1727257 82.9866667,23.1727257 C82.4047764,22.5321217 81.7022279,22.0097282 80.9182787,21.6347359 L80.9182787,21.6347359 Z" id="splash-3.2" fill="url(#linearGradient-4)"></path>
                <path d="M53.9147876,39.5495274 C50.1307703,37.4046398 52.8737509,38.8309466 56.1890857,39.6146556 C58.6178675,40.2130606 61.1237197,40.4327185 63.6188913,40.2659373 C67.5670554,38.74628 70.9407055,36.5384352 72.8154356,34.4434791 C71.9169474,35.2684359 67.4741829,36.5037001 72.7506407,32.6633092 C76.8370338,29.9018749 79.0767747,25.881296 80.4266667,21.2832474 C79.368124,20.8922299 78.2689899,20.6227692 77.1502088,20.48 C75.5692153,24.2596047 75.3337941,26.8842698 71.8305544,28.972713 C67.9212671,31.5300791 70.3683513,30.8744555 70.4072282,30.8549171 C70.7117244,30.7333223 71.0015467,30.5774696 71.2711591,30.3903361 C69.7592801,32.8217877 67.1286105,34.3740091 63.9925414,35.0752223 C63.8931893,36.0564867 62.3964291,35.726504 62.4547444,36.4863326 C62.646969,37.3699048 61.6836861,37.788896 60.8521526,37.7281097 C58.26036,37.7563319 57.0055004,36.4841617 55.9450252,35.8741278 C54.2905976,36.9769648 53.5130598,37.1180758 51.4309863,36.8857854 C50.3964291,36.900982 49.4525846,37.4285201 48.4266667,37.6673234 C49.8953492,38.9872543 56.2193233,40.6849285 53.9147876,39.5495274 Z M73.8607919,29.0204737 C74.5195392,27.5767993 76.0486969,26.8017741 76.5519366,25.0585102 C76.4785025,25.314681 77.0249388,25.421057 77.2409215,25.421057 C78.1048524,25.2734331 78.1264507,24.0837586 78.4050684,23.8362716 C78.1890857,26.5390905 76.3640317,28.7534482 74.3683513,30.5857207 C74.1057187,30.4258865 73.7802741,30.4111662 73.5044204,30.5466437 C73.4201872,30.038644 74.5152196,29.330918 73.8607919,29.0204737 Z" id="splash-3.1" fill="url(#linearGradient-5)"></path>
                <path d="M77.3242476,13.1022128 C74.7902965,11.6551077 71.92827,11.317161 69.2367565,10.2426638 L69.2367565,10.2426638 C73.285898,11.1091938 78.1012683,11.9908881 81.0949566,15.0324084 C81.1424412,15.0562379 81.2546776,15.1667205 81.3107957,15.1818848 C81.5698027,15.3573571 81.8655022,15.9790924 82.2259535,15.7494619 C75.9450357,3.4469022 56.8648592,4.8160196 47.7866667,9.86139056 C48.2809382,10.2426638 48.8248527,10.691093 49.3320746,11.124358 C51.0587874,9.72057944 58.0627662,8.74140053 58.6800661,8.83671883 L58.6800661,8.83671883 C56.3403702,9.30681136 52.4639,10.7192553 50.1090954,11.7785882 L50.4393292,12.0580441 C55.2439076,10.3618116 62.5565363,9.17899818 67.7388331,10.4268014 C63.5968808,10.8882286 56.2130251,10.8254052 51.3005272,12.7880957 C52.6495216,13.8127674 53.8517454,15.6779732 55.0108014,17.0470906 C63.0249072,13.123876 67.6481807,12.9960629 71.701639,13.5094819 C72.0901494,13.7261144 68.8266622,13.8625929 69.6187917,14.1030549 C70.4994152,14.3066895 72.1505843,13.8171 72.5326195,13.7672746 C72.7808345,13.6871205 74.3391928,13.7391123 74.8313059,13.8322643 C76.7047893,14.2893589 74.9478591,14.5276546 74.2938666,14.3738456 C73.971706,14.3479481 73.6477717,14.3544796 73.3269074,14.3933425 C72.6038464,14.529821 71.7296981,14.690129 71.0087955,14.7984453 C70.8145403,14.8309401 68.6151399,14.7724494 68.9496905,15.0584043 C69.3705767,15.030242 71.2224762,15.3660224 71.6994806,15.309698 C71.9865466,15.2447082 72.2779294,15.3421928 72.5498867,15.1948827 C72.6837069,15.1017308 73.2319382,15.0345747 73.2556805,15.2642051 C72.6319055,16.6593185 70.7368382,15.6129835 69.3101418,15.9141027 C68.0388495,16.009421 66.6898551,16.5791644 66.4610656,16.3798625 C70.631077,13.8344306 60.5017481,17.6168341 60.672261,18.2602326 C60.6835446,18.2634829 60.6955116,18.2634829 60.7067952,18.2602326 C60.7370127,18.8299761 62.3277469,18.0002736 62.6493471,18.0609307 C63.3465074,18.0067726 64.2897243,17.5713413 64.9696174,17.4110332 C65.4789977,17.4110332 65.6797281,17.6666596 66.18695,17.5540107 C67.3006797,17.5345138 68.3064899,17.0535896 69.3813687,16.8412898 C69.4763379,16.8412898 70.1475975,17.1250783 70.1152216,17.203066 C72.1397924,19.0249454 73.2081959,17.5063515 75.4291803,18.1064236 C75.7831564,18.1540827 75.3644285,18.3837132 75.2435586,18.4552019 C74.0715523,19.282738 72.6793901,19.4105512 71.3217622,19.5102022 C71.0944404,19.4834276 70.8641869,19.5209438 70.6569777,19.6185184 C70.2101908,19.5838572 69.7936213,19.8351509 69.3468344,19.7679949 C68.0755421,19.7939908 66.8193585,19.9846274 65.6775697,20.5673688 C65.2458915,20.6518555 64.7559367,20.7211779 64.4343365,21.0439603 C64.106261,21.3104183 63.6119895,21.208601 63.3227651,21.5075538 C62.830652,21.8043404 59.1182194,22.5907163 59.5369473,23.3554291 C59.5369473,23.3554291 59.5239969,23.3554291 59.5153634,23.3554291 L59.5369473,23.3554291 C59.5388566,23.3719823 59.5388566,23.3887013 59.5369473,23.4052545 C65.6689361,22.5257266 72.9794065,18.1865776 80.7129214,21.4360651 L80.7129214,21.4360651 C83.8965482,23.0629752 85.6772207,25.8921957 84.4080868,31.36 C84.4188788,31.3340041 84.5570158,30.9700615 84.5548574,30.9548972 L84.5311151,30.9722278 C84.8915664,29.6962624 85.2218002,28.6001019 85.2131667,27.3089722 C86.0441472,22.58855 82.4741685,15.9076037 77.3242476,13.1022128 Z M70.067737,8.48360785 C71.1922587,8.73706788 73.2535221,9.11400843 73.9269401,9.82672936 C72.1592179,9.80723244 71.2829111,9.04035338 71.3109702,9.05985031 C70.9721028,8.95586671 69.9080161,8.5745935 70.067737,8.48360785 Z" id="splash-2" fill="#FAD50A"></path>
                <path d="M50.1311241,11.8260257 L49.3911699,11.2115388 C51.154511,9.77126781 58.0456045,8.85277164 58.74445,8.92392275 C57.7063309,9.13315819 56.684081,9.4141291 55.6851074,9.76479952 C53.8546945,10.3620376 51.8382113,11.1080463 50.1311241,11.8260257 Z M85.9215381,21.7440594 C84.8397338,13.6953594 82.0832964,6.62983842 72.2626768,4.03390088 C78.3359262,5.5022011 78.7924477,6.2589902 79.5843284,6.78292111 C74.8676616,2.42545454 67.2690681,0.909720245 59.5882574,2.21415729 C64.0669273,0.767418021 71.4275239,0.944217753 76.031683,3.79026223 C65.0492056,-2.98634215 51.8490293,-0.0562100006 43.7333333,7.68201243 C45.2478594,7.97524126 46.5784787,8.97566901 47.8138992,9.92866269 C57.0243812,4.92221173 76.031683,3.55093576 82.3537475,15.7975514 C81.9902612,16.0260974 81.7046649,15.4094544 81.4363774,15.2326547 C81.3866144,15.217562 81.2741068,15.1076012 81.2200166,15.0838842 C78.2169278,12.0653521 73.3964077,11.1727291 69.3331507,10.3167597 C72.0441523,11.3948068 74.9001157,11.7225331 77.4401923,13.1628041 C84.0673255,16.9618423 86.9600703,24.661255 84.6666451,30.9333333 L84.6904448,30.9160846 L84.6904448,30.9160846 C85.7107031,27.9719437 86.1292895,24.8540786 85.9215381,21.7462155 L85.9215381,21.7440594 Z M63.5909334,9.97394067 C59.3892054,9.97394067 54.0710554,10.7630712 50.4902831,12.130035 L51.3297633,12.8372339 C55.6072175,11.2115388 62.796889,10.7997248 66.3149167,10.6660469 C70.1250315,10.5496178 64.9842974,9.98687724 63.5909334,9.97394067 Z M71.4080514,9.13953218 C71.3388159,9.10287857 72.2886401,9.89416518 74.0303451,9.90278956 C73.3488083,9.19127844 71.2933801,8.82474241 70.1596492,8.56601109 C70.0038694,8.65656705 71.0705284,9.03603965 71.410215,9.13953218 L71.4080514,9.13953218 Z" id="splash-1" fill="#F2940A"></path>
            </g>
            <g id="f-rbmn-logotype" transform="translate(100.000000, 7.000000)" fill="#D2003C">
                <path d="M104.1,24.6 C104.1,26.4 105.6,27.9 107.5,27.9 C109.4,27.9 110.9,26.4 110.9,24.6 L110.9,13.8 L116.8,13.8 L116.8,25.8 C116.8,29.8 112.6,33.1 107.4,33.1 C102.2,33.1 98,29.8 98,25.8 L98,13.8 L104,13.8 L104,24.6 L104.1,24.6 L104.1,24.6 Z M130.3,32.4 L136.3,32.4 L136.3,0.9 L130.3,0.9 L130.3,32.4 Z M120.2,32.4 L126.2,32.4 L126.2,0.9 L120.2,0.9 L120.2,32.4 Z M10.4,7.5 L7.1,7.5 L7.1,32.4 L0.7,32.4 L0.7,2.4 L11.7,2.4 C16.7,2.4 20.7,6.4 20.7,11.3 C20.7,15.4 17.8,19 13.8,19.9 L22.6,32.5 L15.1,32.5 L8.7,22.7 L8.7,15.5 L10.2,15.5 C12.6,15.5 14.5,13.7 14.5,11.6 C14.5,9.3 12.7,7.5 10.4,7.5 L10.4,7.5" id="Shape"></path>
                <path d="M28.3,20.9 C28.2,18.9 29.7,17.1 31.8,17 C33.8,16.9 35.6,18.4 35.7,20.5 C35.7,20.6 35.7,20.8 35.7,20.9 L28.3,20.9 Z M41.5,24.3 C41.5,23.9 41.6,23.5 41.6,23 C41.7,16.5 37.4,12.9 31.9,12.9 C26.4,12.9 22,17.4 22,22.9 C22,28.4 26.4,32.9 31.9,32.9 C36.1,32.9 39.3,31 41,28.1 L36.1,25.8 C35.4,27.2 33.9,28.1 32.3,28.1 C30,28.1 28.2,26.4 28.2,24.4 L28.2,24.2 C28.3,24.3 41.5,24.3 41.5,24.3 Z M55.1,27.8 C52.7,27.8 50.7,25.6 50.7,23 C50.7,20.3 52.7,18.2 55.1,18.2 C57.5,18.2 59.5,20.4 59.5,23 C59.5,25.7 57.5,27.8 55.1,27.8 Z M65.4,32.4 L65.4,0.9 L59.4,0.9 L59.4,15.8 C57.8,14.2 55.6,13.3 53.4,13.3 C48.5,13.3 44.4,17.7 44.4,23.1 C44.4,28.5 48.4,32.9 53.4,32.9 C55.7,32.9 57.9,31.9 59.5,30.3 L59.5,32.4 L65.4,32.4 L65.4,32.4 Z M85.8,27.2 L80.1,27.2 L80.1,7.5 L84.1,7.5 C85.9,7.5 87.3,9.1 87.3,10.9 C87.3,12.7 85.9,14.1 84.1,14.1 L82,14.1 L82,19.5 L85.8,19.5 C87.9,19.5 89.5,21.2 89.5,23.3 L89.5,23.4 C89.4,25.5 88.1,27.1 85.8,27.2 M90.8,16.1 C92.5,14.6 93.4,12.5 93.4,10.3 C93.4,8.3 92.6,6.4 91.2,4.9 C89.8,3.3 87.2,2.5 83.8,2.5 L73.6,2.5 L73.6,32.5 L86.9,32.5 C92,32.4 96.1,28.6 96.1,23.9 C96,20.4 94.8,18 90.8,16.1" id="Shape"></path>
            </g>
        </g>
    </g>
</svg>