<?xml version="1.0" encoding="utf-8"?>
<!-- Generator: Adobe Illustrator 16.0.0, SVG Export Plug-In . SVG Version: 6.00 Build 0)  -->
<!DOCTYPE svg PUBLIC "-//W3C//DTD SVG 1.1//EN" "http://www.w3.org/Graphics/SVG/1.1/DTD/svg11.dtd">
<svg version="1.1" id="Layer_1" xmlns="http://www.w3.org/2000/svg" xmlns:xlink="http://www.w3.org/1999/xlink" x="0px" y="0px"
	 width="100px" height="26px" viewBox="0 0 100 26" enable-background="new 0 0 100 26" xml:space="preserve">
<g>
	<polygon fill="#FFFFFF" points="30.471,18.556 36.619,18.556 36.619,0.371 30.471,0.371 	"/>
	<polygon fill="#FFFFFF" points="61.912,0.37 61.912,12.242 44.621,0.37 44.595,0.37 37.465,0.37 37.465,18.556 43.226,18.556 
		43.226,6.646 60.516,18.556 60.516,18.535 60.54,18.556 67.67,18.556 67.67,0.37 	"/>
	<polygon fill="#FFFFFF" points="0,0.37 0,18.556 5.76,18.556 5.76,4.738 23.863,4.738 23.863,9.79 11.289,9.79 11.289,14.486 
		29.623,25.436 29.623,18.859 21.208,14.16 29.623,14.16 29.623,0.37 	"/>
	<polygon fill="#FFFFFF" points="68.518,0.369 68.518,18.557 74.274,18.557 74.274,18.556 94.095,18.557 99.852,18.557 
		99.852,7.023 83.744,7.023 83.744,11.394 94.095,11.394 94.095,14.186 74.274,14.186 74.274,4.738 99.852,4.738 99.852,0.371 
		74.274,0.369 	"/>
</g>
</svg>
