<svg version="1.2" xmlns="http://www.w3.org/2000/svg" viewBox="0 0 144 78" width="144" height="78">
	<title>Path 12</title>
	<style>
		.s0 { fill: #df2126 } 
	</style>
	<path id="Path 12" class="s0" d="m118.4 0.3c-14.6 0-25 8.3-25 20 0 8.7 6.1 14.7 12.2 20 6.2 5.2 9.6 10.6 11.9 17.9h1.8c2.2-7.3 5.6-12.7 11.8-17.9 6.2-5.3 12.2-11.3 12.2-20 0-11.7-10.4-20-25-20m0.1 76.9c-4.3 0-7.8-3.5-7.8-7.9 0-4.3 3.5-7.8 7.8-7.8 4.3 0 7.8 3.5 7.8 7.8 0 4.4-3.5 7.9-7.8 7.9z"/>
	<path id="Path 13" fill-rule="evenodd" class="s0" d="m62.6 41v4.5h-10.4v31.5h-9.3v-31.5h-10.4v-8.9h25.6c2.5 0 4.5 2 4.5 4.4zm27.7 31.6v4.4h-16.5c-4 0-7.2-3.2-7.2-7.2v-33.2h4.6c2.5 0 4.6 2 4.6 4.6v26.9h10c2.5 0 4.5 2 4.5 4.5zm-58.4 4.4h-10l-7.6-13.3h-4.4v13.3h-9.2v-31.5c0-4.9 3.9-8.9 8.9-8.9h7.2c7.7 0 13.9 6.1 13.9 13.8 0 5-3 9.5-7.4 11.8zm-10.5-26.6c0-3-2-5.2-4.6-5.2h-4.6c-1.3 0-2.3 1.1-2.3 2.6v7.8h6.9c2.6 0 4.6-2.3 4.6-5.2zm3.6-31.9c0 6.7-4.9 11.9-10.8 11.9-3.1 0-5.3-1-6.8-2.8v2.2h-6.8v-28.2h6.8v7.7c1.5-1.8 3.7-2.8 6.8-2.8 5.9 0 10.8 5.2 10.8 12zm-6.8 0c0-3.4-2.3-5.6-5.4-5.6-3.1 0-5.4 2.2-5.4 5.6 0 3.4 2.3 5.5 5.4 5.5 3.1 0 5.4-2.1 5.4-5.5zm27.6 5.8c1.8 0 3.4-0.7 4.3-1.7l5.5 3.1c-2.2 3.1-5.6 4.7-9.9 4.7-7.7 0-12.5-5.2-12.5-11.9 0-6.8 4.8-12 12-12 6.6 0 11.5 5.1 11.5 12q0 1.4-0.3 2.7h-16c0.8 2.3 2.9 3.1 5.4 3.1zm4.2-8.2c-0.8-2.6-2.8-3.6-4.8-3.6-2.6 0-4.3 1.3-5 3.6zm16.8-14.5h6.8v28.2h-6.8z"/>
</svg>