<?xml version="1.0" encoding="UTF-8" standalone="no"?>
<!-- Created with Inkscape (http://www.inkscape.org/) -->

<svg
   xmlns:dc="http://purl.org/dc/elements/1.1/"
   xmlns:cc="http://creativecommons.org/ns#"
   xmlns:rdf="http://www.w3.org/1999/02/22-rdf-syntax-ns#"
   xmlns:svg="http://www.w3.org/2000/svg"
   xmlns="http://www.w3.org/2000/svg"
   xmlns:sodipodi="http://sodipodi.sourceforge.net/DTD/sodipodi-0.dtd"
   xmlns:inkscape="http://www.inkscape.org/namespaces/inkscape"
   width="713"
   height="211"
   id="svg2"
   version="1.1"
   inkscape:version="0.91 r13725"
   sodipodi:docname="Showtime_Women.svg">
  <metadata
     id="metadata22">
    <rdf:RDF>
      <cc:Work
         rdf:about="">
        <dc:format>image/svg+xml</dc:format>
        <dc:type
           rdf:resource="http://purl.org/dc/dcmitype/StillImage" />
      </cc:Work>
    </rdf:RDF>
  </metadata>
  <defs
     id="defs20" />
  <sodipodi:namedview
     pagecolor="#ffffff"
     bordercolor="#666666"
     borderopacity="1"
     objecttolerance="10"
     gridtolerance="10"
     guidetolerance="10"
     inkscape:pageopacity="0"
     inkscape:pageshadow="2"
     inkscape:window-width="1366"
     inkscape:window-height="709"
     id="namedview18"
     showgrid="false"
     inkscape:zoom="1.4122301"
     inkscape:cx="289.55983"
     inkscape:cy="142.00962"
     inkscape:window-x="-8"
     inkscape:window-y="-8"
     inkscape:window-maximized="1"
     inkscape:current-layer="layer1" />
  <g
     inkscape:label="Layer 1"
     inkscape:groupmode="layer"
     id="layer1"
     transform="translate(-103.1577,-467.48115)">
    <path
       id="path16810"
       d="m 354.30091,678.48115 -4.27968,0 -25.69452,-67.98306 -25.90767,67.98306 -4.09932,0 -35.76244,-85.31496 8.75614,0 28.49845,68.17982 26.26842,-68.17982 4.83719,0 25.53054,68.17982 29.05596,-68.17982 8.93651,0 z"
       style="fill:#1a1a1a;fill-rule:nonzero;stroke:none" />
    <path
       id="path16812"
       d="m 471.11503,635.07759 c 0,19.92268 -14.15084,34.64743 -32.9585,34.64743 -19.00443,0 -33.15527,-14.72475 -33.15527,-34.64743 0,-20.10304 14.15084,-34.82779 33.15527,-34.82779 18.80766,0 32.9585,14.88872 32.9585,34.82779 m 9.51041,0 c 0,-24.95663 -18.06978,-43.58393 -42.46891,-43.58393 -24.41553,0 -42.66569,18.6273 -42.66569,43.58393 0,24.77627 18.25016,43.40356 42.66569,43.40356 24.39913,0 42.46891,-18.62729 42.46891,-43.40356"
       style="fill:#1a1a1a;fill-rule:nonzero;stroke:none" />
    <path
       id="path16814"
       d="m 508.74675,607.89093 0.37714,0 c 7.44436,-11.74044 15.26585,-16.39727 26.62916,-16.39727 13.03583,0 21.61159,6.50972 27.02269,20.11945 8.379,-13.97047 16.95477,-20.11945 29.05596,-20.11945 17.51227,0 29.07235,13.39657 29.07235,33.90955 l 0,51.40542 -8.95291,0 0,-47.50287 c 0,-16.7744 -7.08362,-29.05596 -21.79197,-29.05596 -10.24829,0 -16.97116,5.57507 -25.33377,19.54554 l 0,57.01329 -8.93651,0 0,-47.68324 c 0,-20.67695 -10.26469,-28.87559 -21.98873,-28.87559 -10.24829,0 -17.33191,5.01757 -25.15341,17.88942 l 0,58.66941 -8.93651,0 0,-83.64244 8.93651,0 z"
       style="fill:#1a1a1a;fill-rule:nonzero;stroke:none" />
    <path
       id="path16816"
       d="m 650.32074,624.64893 c 3.16467,-15.28225 13.97047,-24.39913 27.76057,-24.39913 14.34761,0 23.28412,8.00187 26.44879,24.39913 z m 64.83479,7.26399 c 0,-27.94094 -19.1848,-40.41926 -37.07422,-40.41926 -22.1691,0 -38.3696,17.87302 -38.3696,42.46892 0,25.89128 17.51228,44.51857 41.71464,44.51857 12.11758,0 22.36587,-3.5418 32.23702,-11.18293 l 0,-10.05152 c -10.80579,8.75614 -19.93907,12.47832 -31.122,12.47832 -18.98804,0 -35.94281,-16.38087 -33.33564,-37.8121 z"
       style="fill:#1a1a1a;fill-rule:nonzero;stroke:none" />
    <path
       id="path16818"
       d="m 741.96505,607.69416 0.37714,0 c 7.8215,-11.72404 15.46262,-16.2005 27.5802,-16.2005 17.87302,0 31.10561,11.74045 31.10561,34.27029 l 0,51.04468 -8.93651,0 0,-47.68324 c 0,-18.82406 -8.01826,-28.87559 -22.72661,-28.87559 -12.11757,0 -19.93907,5.77184 -27.39983,17.88942 l 0,58.66941 -8.93651,0 0,-83.64244 8.93651,0 z"
       style="fill:#1a1a1a;fill-rule:nonzero;stroke:none" />
    <path
       id="path16820"
       d="m 196.62481,534.39839 c 0,-26.44879 9.77277,-43.12481 21.46402,-44.87932 -11.69125,-14.364 -31.20399,-22.03792 -48.91304,-22.03792 -19.52914,0 -37.05782,8.46099 -49.1262,21.92314 11.52727,2.27922 15.44622,11.93721 15.44622,26.90791 l -14.10165,0 c 0,-8.82172 -1.83649,-13.39656 -7.06722,-13.39656 -2.34481,0 -4.1649,1.197 -5.24712,3.21386 -0.14758,0.32795 -0.29515,0.67229 -0.45913,1.03303 -0.40993,1.11501 -0.62309,2.4268 -0.62309,3.88615 0,18.29935 30.02339,17.36471 30.02339,45.48602 0,10.96977 -8.4118,21.21806 -17.88942,21.21806 12.46192,13.59333 29.44949,21.74277 49.04422,21.74277 19.02083,0 36.17237,-8.06745 48.22436,-20.95571 -11.11735,-2.78753 -20.77534,-18.77486 -20.77534,-44.14143 m -6.29655,43.58393 -15.10188,0 0,-37.58253 -16.31527,0 0,37.58253 -15.13468,0 0,-86.70874 15.11828,0 0,34.94257 16.33167,0 0,-34.94257 15.10188,0 z"
       style="fill:#ff0000;fill-rule:evenodd;stroke:none" />
    <path
       id="path16822"
       d="m 116.21263,564.17582 c 4.21409,0 7.21479,-3.72218 7.21479,-9.10048 0,-11.19933 -9.78916,-13.34738 -20.26702,-22.7922 -0.14757,19.11921 5.77184,31.89268 13.05223,31.89268"
       style="fill:#ff0000;fill-rule:evenodd;stroke:none" />
    <path
       id="path16824"
       d="m 211.62831,532.98822 c 0,-14.57717 4.24689,-29.18713 12.0028,-29.18713 9.19887,0 11.52728,22.56264 11.52728,29.67905 0,15.64299 -4.91918,29.77743 -11.52728,29.77743 -7.95267,0 -12.0028,-14.88871 -12.0028,-30.26935"
       style="fill:#ff0000;fill-rule:evenodd;stroke:none" />
    <path
       id="path16826"
       d="m 362.48315,492.47058 -11.78963,0 -40.86199,0 -1.90208,0 -9.11688,0 -6.03419,49.51974 -0.22957,0 -6.75567,-49.51974 -13.87208,0 -7.32958,49.51974 -0.24596,0 -5.44389,-49.51974 -13.97047,0 11.24852,84.33113 13.49495,0 7.59193,-53.42228 0.22957,0 7.34597,53.42228 13.97047,0 9.31365,-71.2953 13.06862,0 0,71.2953 15.39703,0 0,-71.2953 14.10165,0 0,71.2953 15.39703,0 0,-84.33113 z"
       style="fill:#ff0000;fill-rule:nonzero;stroke:none" />
    <path
       id="path16828"
       d="m 373.64969,492.47058 20.49658,0 6.87045,43.23959 0.24596,0 7.2312,-43.23959 20.00466,0 0,84.33113 -13.72451,0 0,-61.81768 -0.26236,0 -10.41226,61.81768 -8.52658,0 -10.29748,-61.81768 -0.26236,0 0,61.81768 -11.3633,0 z"
       style="fill:#ff0000;fill-rule:nonzero;stroke:none" />
    <path
       id="path16830"
       d="m 436.05768,492.47058 34.82779,0 0,13.03583 -19.43076,0 0,21.546 14.34761,0 0,13.75731 -14.34761,0 0,22.97257 20.26702,0 0,13.01942 -35.66405,0 z"
       style="fill:#ff0000;fill-rule:nonzero;stroke:none" />
    <path
       id="path16832"
       d="m 476.03421,571.19385 c 0,-1.39377 0.52471,-2.70555 1.52495,-3.68938 0.98383,-0.98384 2.27922,-1.50855 3.67298,-1.50855 1.41017,0 2.70555,0.52471 3.68939,1.50855 0.98383,0.98383 1.52494,2.29561 1.52494,3.68938 0,2.86952 -2.34481,5.21433 -5.21433,5.21433 -1.39376,0 -2.68915,-0.54111 -3.67298,-1.52495 -1.00024,-0.98383 -1.52495,-2.29561 -1.52495,-3.68938 m 0.88545,4.32888 c 1.14781,1.14781 2.68915,1.7873 4.31248,1.7873 3.37784,0 6.11618,-2.73834 6.11618,-6.11618 0,-1.62333 -0.63949,-3.16467 -1.7873,-4.31248 -1.14781,-1.16421 -2.70555,-1.8037 -4.32888,-1.8037 -1.62333,0 -3.16467,0.63949 -4.31248,1.8037 -1.1642,1.14781 -1.8037,2.68915 -1.8037,4.31248 0,1.63973 0.6395,3.16467 1.8037,4.32888"
       style="fill:#ff0000;fill-rule:nonzero;stroke:none" />
    <path
       id="path16834"
       d="m 479.80558,570.98069 0,-2.49239 1.72171,0 c 0.34435,0 0.6395,0.0164 0.95105,0.22956 0.32794,0.22956 0.47552,0.55751 0.47552,0.96744 0,0.32795 -0.16398,0.67229 -0.34435,0.90185 -0.34434,0.36074 -0.73787,0.39354 -1.1806,0.39354 z m 4.08292,3.68938 -1.36097,-3.21386 c 0.81986,-0.21317 1.31178,-0.93465 1.31178,-1.77091 0,-0.5739 -0.27876,-1.14781 -0.73788,-1.50855 -0.45912,-0.36074 -1.01663,-0.42633 -1.57414,-0.42633 l -2.59076,0 0,6.91965 0.86905,0 0,-3.0007 1.90208,0 1.29539,3.0007 z"
       style="fill:#ff0000;fill-rule:nonzero;stroke:none" />
    <path
       id="path16836"
       d="m 811.32548,599.85627 2.45959,-6.41133 2.36121,0 0,8.73974 -1.54134,0 0,-7.10001 0,0 -2.73835,7.10001 -1.06582,0 -2.72194,-7.10001 0,0 0,7.10001 -1.55774,0 0,-8.73974 2.394,0 z m -6.41133,-5.14874 -2.68915,0 0,7.47715 -1.54134,0 0,-7.47715 -2.70555,0 0,-1.26259 6.93604,0 z"
       style="fill:#1a1a1a;fill-rule:nonzero;stroke:none" />
  </g>
</svg>
