<?xml version="1.0" encoding="UTF-8" standalone="no"?>
<!-- Generator: Adobe Illustrator 23.0.5, SVG Export Plug-In . SVG Version: 6.00 Build 0)  -->

<svg
   version="1.1"
   id="svg2"
   x="0px"
   y="0px"
   viewBox="0 0 1003.3 482.8"
   style="enable-background:new 0 0 1003.3 482.8;"
   xml:space="preserve"
   sodipodi:docname="SIC_Mulher_2023.svg"
   inkscape:version="1.2 (dc2aedaf03, 2022-05-15)"
   xmlns:inkscape="http://www.inkscape.org/namespaces/inkscape"
   xmlns:sodipodi="http://sodipodi.sourceforge.net/DTD/sodipodi-0.dtd"
   xmlns="http://www.w3.org/2000/svg"
   xmlns:svg="http://www.w3.org/2000/svg"><defs
   id="defs65" /><sodipodi:namedview
   id="namedview63"
   pagecolor="#ffffff"
   bordercolor="#000000"
   borderopacity="0.25"
   inkscape:showpageshadow="2"
   inkscape:pageopacity="0"
   inkscape:pagecheckerboard="0"
   inkscape:deskcolor="#d1d1d1"
   showgrid="false"
   inkscape:zoom="1"
   inkscape:cx="522"
   inkscape:cy="261"
   inkscape:window-width="1920"
   inkscape:window-height="986"
   inkscape:window-x="-11"
   inkscape:window-y="-11"
   inkscape:window-maximized="1"
   inkscape:current-layer="svg2" />
<style
   type="text/css"
   id="style2">
	.st0{fill:#E25F9A;}
	.st1{fill:#E43174;}
	.st2{fill:#D42071;}
	.st3{fill:#E72854;}
	.st4{fill:#D01E67;}
	.st5{fill:#B81D6D;}
	.st6{fill:#952382;}
	.st7{fill-rule:evenodd;clip-rule:evenodd;fill:#E43174;}
</style>















<path
   id="path34"
   inkscape:connector-curvature="0"
   class="st4"
   d="m 309,354.05355 c -2.6,-0.5 -8.3,-2.4 -12.7,-4.3 -19.7,-8.3 -35.1,-24.6 -42.2,-44.6 -11.1,-31.3 -1.4,-63 28.6,-93.8 27.1,-27.9 58,-48.3 96.8,-64 43.1,-17.5 87.1,-22.1 109.6,-11.6 13.5,6.3 22.8,19 25.2,34.2 2,13 -2.8,31.4 -13.6,52.2 -23.4,44.9 -59,82.5 -103,108.8 -21.1,12.6 -37.3,19.2 -55.3,22.7 -9.1,1.6 -25.8,1.9 -33.4,0.4 z"
   style="display:inline;opacity:0.85;fill:#4060bf;fill-opacity:1" />

<path
   id="path32"
   inkscape:connector-curvature="0"
   class="st3"
   d="m 311.2,354.1 c -6.8,-1.2 -18.2,-4.9 -24.5,-8 -24.9,-12.5 -41.7,-34.3 -47.8,-62.1 -3.1,-14.3 -3.1,-46.5 0.1,-64.2 6.4,-35.7 15.9,-63.9 31.9,-95.3 23.8,-46.6 59.5,-87.1 89.5,-101.2 15.9,-7.5 34.2,-6.5 50.1,2.9 19.8,11.6 33.6,46.7 37.3,94.9 l 0.7,8.8 c 2.38533,50.40392 -3.00368,77.32309 -14.1217,113.56222 -22.89854,74.63763 -54.71667,96.45284 -70.51243,103.88358 -12.53129,5.89505 -20.86624,7.21229 -40.06587,7.3542 -5.50076,0.0407 -11.2,-0.3 -12.6,-0.6 z"
   style="display:inline;fill:#ff723d;fill-opacity:1;opacity:0.85"
   sodipodi:nodetypes="cccccccccsssc" /><path
   class="st1"
   d="m 321.9,52 -7.6,-7.5 C 288,18.8 263.2,3.8 242.1,0.8 226.6,-1.4 208.8,4.4 196.7,15 c -1.7,1.5 -3.2,3 -4.6,4.7 -0.2,0.3 -0.5,0.6 -0.7,0.9 l -0.1,0.1 c -7.9,9.8 -15,29.5 -18.3,50.7 -2,12.7 -1.7,57.1 0.5,74 7,54.8 25,105.2 53.1,148.5 14.3,22 32.9,40.4 50.7,50 11.8,6.4 23.5,9.8 38.8,11.4 5.5,0.6 19.75664,-0.62573 27,-1.9 25.18867,-4.43125 61.14873,-29.86912 71.23525,-66.95214 C 435.16849,209.85461 372.03032,95.31334 321.9,52 Z"
   id="path14"
   style="enable-background:new 0 0 1003.3 482.8;display:inline;fill:#ff4b95;fill-opacity:1;opacity:0.85"
   sodipodi:nodetypes="ccccccccccccssc" />
<g
   id="g46"
   style="display:inline;fill:#ff4b95;fill-opacity:1">
	<path
   class="st7"
   d="m 2.2,448.9 h 27.2 c 0.8,5.6 4,10 8.8,12.4 4.8,2.8 12,4 21.2,4 8,0 14,-0.8 18,-3.2 4,-2 6,-5.2 6,-9.6 0,-6 -11.6,-11.2 -34.4,-15.2 -0.4,0 -0.8,0 -1.2,0 -0.4,0 -1.2,-0.4 -2.8,-0.4 -12.4,-2 -21.2,-4.4 -26.4,-7.2 -4.8,-2 -8.4,-5.2 -10.8,-9.2 -2.4,-3.6 -3.6,-8.4 -3.6,-13.6 0,-10 4.4,-17.2 13.2,-22.8 8.8,-5.2 21.6,-7.6 38,-7.6 15.6,0 27.6,2.8 36.4,8.4 8.8,5.6 13.6,13.2 14,23.6 H 79.4 c -0.4,-5.2 -2.8,-8.8 -7.2,-11.2 -4.4,-2.8 -10.8,-4 -19.2,-4 -7.2,0 -12.8,1.2 -16.4,3.2 -4,2 -6,5.2 -6,9.2 0,5.2 7.6,9.2 22.8,12 4,0.8 7.2,1.2 9.6,1.6 9.6,2 16.4,3.6 20.4,4.4 4,1.2 7.6,2.4 10.8,3.6 5.2,2.4 9.6,5.2 12,9.2 2.8,3.6 4,8 4,13.6 0,10.4 -4.4,18.4 -13.6,24.4 -9.6,5.2 -22.8,8.4 -39.6,8.4 -16.8,0 -30,-3.2 -39.6,-8.8 C 8.2,468.5 3,460.1 2.2,448.9 Z"
   id="path40"
   style="fill:#ff4b95;fill-opacity:1" />
	<polygon
   class="st7"
   points="160.2,379.3 160.2,480 132.6,480 132.6,379.3 "
   id="polygon42"
   style="fill:#ff4b95;fill-opacity:1" />
	<path
   class="st7"
   d="m 303.8,445.7 c -0.8,11.2 -6.8,20.4 -17.2,27.2 -10.8,6.4 -24.8,10 -41.6,10 -20,0 -35.2,-4.8 -46,-13.6 -10.8,-9.6 -16,-22.8 -16,-39.6 0,-17.2 5.6,-30.4 16.4,-39.6 10.8,-8.8 27.2,-13.6 48,-13.6 16.8,0 30.4,3.2 40,9.6 10,6 15.6,15.2 16.4,26.4 h -27.2 c -0.8,-5.6 -4,-10 -9.2,-12.8 -4.8,-3.2 -11.6,-4.8 -20,-4.8 -12,0 -21.2,3.2 -27.6,9.2 -6.4,5.6 -9.2,14.4 -9.2,25.6 0,11.2 2.8,19.6 9.2,25.6 6.4,6 15.2,9.2 26.8,9.2 8,0 14.8,-2 20.4,-5.2 5.2,-3.2 8.4,-7.6 10,-13.6 z"
   id="path44"
   style="fill:#ff4b95;fill-opacity:1" />
</g>
<g
   id="g60"
   style="fill:#ff4b95;fill-opacity:1">
	<path
   class="st7"
   d="M327.6,480.2V383h13.1V399c4.1-5.7,9.4-10.2,16.3-13.7c6.5-3,13.9-4.6,22.5-4.6c9,0,16.7,1.5,22.5,4.9   c6.1,3,10.2,8,12.2,14c4.1-6.5,9.4-11,15.9-14.4c6.9-3,14.3-4.6,23.3-4.6c13.1,0,22.9,2.3,29.4,7.6c6.5,5.3,9.8,13.3,9.8,23.9v67.9   h-14.3v-66.8c0-8.4-2-14-5.7-17.5c-4.1-3.8-10.6-5.3-19.6-5.3c-11,0-19.6,2.7-26.1,8c-6.5,5.3-9.8,12.1-9.8,20.9v60.7h-13.9v-65.7   c0-8-2-14-6.5-17.8c-4.1-4.2-10.6-6.1-19.2-6.1c-10.6,0-19.2,2.7-25.7,8.4c-6.9,5.3-10.2,12.5-10.2,21.3v60H327.6L327.6,480.2z"
   id="path48"
   style="fill:#ff4b95;fill-opacity:1" />
	<path
   class="st7"
   d="M617.9,383v97.2h-13.5v-15.6c-4.5,6.1-10.2,10.6-17.1,13.7c-6.5,3-14.3,4.6-23.7,4.6c-13.5,0-24.1-3-31-8.7   c-6.9-5.7-10.2-14.4-10.2-25.8V383h13.9v62.6c0,9.5,2.5,16.7,6.9,20.5c4.5,4.2,12.2,6.1,22.9,6.1c11.8,0,21.2-2.7,27.8-8.3   c6.9-5.7,10.2-13.7,10.2-23.5V383H617.9L617.9,383z"
   id="path50"
   style="fill:#ff4b95;fill-opacity:1" />
	<polygon
   class="st7"
   points="651,480.2 651,345.8 665.3,345.8 665.3,480.2 651,480.2  "
   id="polygon52"
   style="fill:#ff4b95;fill-opacity:1" />
	<path
   class="st7"
   d="M697.9,480.2V345.8h14.3v52.4c4.5-5.7,10.2-10.2,16.7-13.3c6.9-3,14.7-4.2,23.3-4.2c8.2,0,15.5,1.1,22,3.4   c6.1,2.7,11,5.7,14.3,10.2c2,2.3,3.3,4.9,4.1,8.4c0.8,3.4,1.2,9.5,1.2,18.2v59.2h-14.3v-58.8c0-12.1-2.5-20.5-6.5-24.7   c-4.5-3.8-12.2-6.1-23.3-6.1c-11.4,0-20.8,3-27.4,8.7c-6.9,5.7-10.2,13.7-10.2,23.5v57.3H697.9L697.9,480.2z"
   id="path54"
   style="fill:#ff4b95;fill-opacity:1" />
	<path
   class="st7"
   d="M833.1,433.9v0.4c0,11.8,3.7,21.3,10.6,28.5c7.3,6.8,17.1,10.2,29,10.2c9.4,0,17.6-1.9,24.1-6.1   c6.1-4.2,10.2-9.5,11.4-16.7h14.3c-1.6,9.9-6.9,17.8-15.9,23.5c-9.4,6.1-20.8,9.1-34.7,9.1c-16.7,0-29.4-4.6-39.2-13.7   c-9.4-8.7-13.9-21.3-13.9-37.2c0-15.9,4.9-28.8,14.3-38c9.4-9.1,22.5-13.3,39.2-13.3c16.3,0,29,4.2,38,12.9   c9.4,8.7,13.9,20.9,13.9,36.4v3.8H833.1L833.1,433.9z M833.5,424.8h75.9c-0.4-10.6-4.1-19-10.6-25.4c-6.9-6.1-15.9-9.1-26.9-9.1   c-11,0-20,3-26.9,9.5C838,405.8,833.9,414.1,833.5,424.8L833.5,424.8z"
   id="path56"
   style="fill:#ff4b95;fill-opacity:1" />
	<path
   class="st7"
   d="M949,480.2V383h13.9v17.1c3.3-6.5,8.2-11.4,14.3-14.8c6.5-3,13.9-4.6,23.3-4.6h1.6v11.8h-2   c-12.2,0-21.2,2.7-27.4,8.4c-6.1,5.7-9,14.4-9,25.8v53.5H949L949,480.2z"
   id="path58"
   style="fill:#ff4b95;fill-opacity:1" />
</g>
</svg>
