<svg id="Sitcom_Legends_-_Color" data-name="Sitcom Legends - Color" xmlns="http://www.w3.org/2000/svg" xmlns:xlink="http://www.w3.org/1999/xlink" viewBox="0 0 576 288"><defs><style>.cls-1{fill:#fff;}.cls-2{fill:url(#linear-gradient);}.cls-3{fill:url(#radial-gradient);}</style><linearGradient id="linear-gradient" x1="156.12" y1="264.72" x2="392.36" y2="167.32" gradientUnits="userSpaceOnUse"><stop offset="0" stop-color="#7a5617"/><stop offset="0.45" stop-color="#fdce78"/><stop offset="0.54" stop-color="#f3c36c"/><stop offset="0.7" stop-color="#d9a44b"/><stop offset="0.88" stop-color="#b67b1f"/></linearGradient><radialGradient id="radial-gradient" cx="268.54" cy="194.59" r="82.35" gradientUnits="userSpaceOnUse"><stop offset="0" stop-color="#fdce78"/><stop offset="0.34" stop-color="#b67b1f"/><stop offset="0.4" stop-color="#aa731d"/><stop offset="0.53" stop-color="#895d17"/><stop offset="0.69" stop-color="#54390e"/><stop offset="0.89" stop-color="#0c0802"/><stop offset="0.92"/></radialGradient></defs><path class="cls-1" d="M432.53,66.47c-3.07-17.06-9.75-18.95-23.11-20.85-21.18-3-84.48-7.19-121.42-7.19S187.76,42.6,166.58,45.62c-13.36,1.9-20,3.79-23.11,20.85-4.08,22.66-5,63.59-5,77.53s.89,54.87,5,77.53c3.07,17.06,9.75,18.95,23.11,20.85,21.18,3,84.48,7.19,121.42,7.19s100.24-4.17,121.42-7.19c13.36-1.9,20-3.79,23.11-20.85,4.08-22.66,5-63.56,5-77.53S436.61,89.13,432.53,66.47Z"/><path class="cls-2" d="M189.81,202.34h4.07v14.33h12.88V220H189.81Zm25,0h18.75v3.09H218.85v4.18h14v2.77h-14v4.5h14.88V220h-18.9Zm49.68,8.19v1.88c0,3.22-.19,4.39-.82,5.55a4,4,0,0,1-2.78,1.88c-1,.24-2.46.29-7.77.29-4.68,0-7-.16-8-.58a4.26,4.26,0,0,1-2.94-3.55,22.81,22.81,0,0,1-.29-4.68c0-4.65.29-6.13,1.43-7.37a5,5,0,0,1,3.17-1.46,64.5,64.5,0,0,1,8.7-.31c5.16,0,7,.37,8.12,1.64.77.84,1.14,2.22,1.14,4.17h-4c0-1.11-.15-1.53-.66-1.93-.68-.55-1.58-.66-5-.66-6.37,0-7.35.11-8,.93-.55.63-.74,1.8-.74,4.55,0,3.43.21,4.62.95,5.26s1.77.82,6.56.82c5.24,0,5.79-.11,6.58-1.25a4.37,4.37,0,0,0,.48-2.51h-7.85v-2.67Zm8.9-8.19h18.74v3.09H277.43v4.18h14v2.77h-14v4.5h14.88V220h-18.9Zm27.51,0h6.32L320.48,217l-.08-14.67h3.89V220H318l-13.17-14.59.08,14.59h-3.94Zm32.65,0h14.65c3.36,0,5.53.63,6.72,1.93s1.5,3.19,1.5,7.08-.5,5.87-1.85,7.11c-1.11,1-3,1.51-5.95,1.51H333.57Zm14.18,14.4a6.41,6.41,0,0,0,3.12-.58c1-.55,1.45-1.9,1.45-4.62,0-4.9-.77-5.87-4.57-5.87h-10.1v11.07ZM369,214.39v.19c0,1.13.21,1.74.71,2s2,.53,4.6.53a38.91,38.91,0,0,0,5.47-.32,2.7,2.7,0,0,0,1.83-.68,2.44,2.44,0,0,0,.53-1.51c0-1-.45-1.53-1.67-1.8-.74-.16-.76-.16-5.58-.18h-2.53c-3.73,0-5.19-.32-6.17-1.22a4.27,4.27,0,0,1-1.24-3.41c0-2,.48-3.57,1.32-4.31,1.19-1.11,3.89-1.53,9.71-1.53,3.54,0,5.44.13,6.66.5,2.19.63,3,1.82,3,4.55v.34h-4c0-1-.3-1.56-.85-1.82a12.61,12.61,0,0,0-4.39-.56c-3.33,0-5.66.21-6.45.61a1.72,1.72,0,0,0-.95,1.72,1.63,1.63,0,0,0,.74,1.56c.61.34,1.61.45,4.39.45h3c5.29,0,6.91.29,8,1.48a5,5,0,0,1,1.08,3.67,5.25,5.25,0,0,1-1.27,4c-1.16,1.11-3.44,1.48-9.39,1.48-6.34,0-8.32-.29-9.43-1.35a4.46,4.46,0,0,1-1.14-3.49c0-.16,0-.55,0-.9Z"/><path class="cls-3" d="M201.59,149.9v29.32c0,1.92.76,2.88,2.27,2.88s2.21-1,2.21-2.88V142.9q0-3.79-7.55-9.26-8.72-6.13-8.71-15V81.74q0-13.87,14-13.87t14,13.87v29.44H206.07V81.74c0-1.88-.74-2.83-2.21-2.83h-.06c-1.47,0-2.21,1-2.21,2.83v36.68q0,3.49,7.55,9,8.7,6.13,8.71,14.79v37.05q0,13.93-14,13.93t-14.05-13.93V149.9Zm23-62.74h11.78V191.92H224.64ZM270.4,69.1v11h-8.16V191.92H250.52V80.08h-8.16v-11Zm21.87,42.08V81.8c0-1.88-.74-2.82-2.21-2.82H290c-1.47,0-2.21.94-2.21,2.82v97.42c0,1.92.74,2.88,2.21,2.88s2.27-1,2.27-2.88V149.9h11.78v29.32q0,13.86-14.05,13.93t-14-13.93V81.8q0-13.86,14-13.87T304.05,81.8v29.38Zm46.3,50.95q0,13.88-14.05,13.93t-14-13.93V81.8q0-13.86,14-13.87T338.57,81.8ZM326.79,81.8c0-1.88-.74-2.82-2.21-2.82h-.06c-1.47,0-2.21.94-2.21,2.82v80.33c0,1.92.74,2.88,2.21,2.88s2.27-1,2.27-2.88Zm-96.26,1.41,8.15-14.11H222.39ZM365.76,140.5l-5.58-71.4H345.33V191.92H356.8V106.66l4.48,85.26h9l4.48-85.14v85.14h11.47V69.1H371.34Zm-27.19,51.42v-10h-28v10Z"/></svg>