<?xml version="1.0" encoding="UTF-8" standalone="no"?><svg xml:space="preserve" id="svg29" version="1.1" viewBox="0 0 2343.0726 999.99835" xmlns:xlink="http://www.w3.org/1999/xlink" xmlns="http://www.w3.org/2000/svg" xmlns:svg="http://www.w3.org/2000/svg"><defs id="defs10"><linearGradient id="b" x1="-1151.9" x2="-1151.9" y1="-775.02002" y2="-779.87" gradientTransform="matrix(149.70994 0 0 -91.176232 172816.56 -70634.124)" gradientUnits="userSpaceOnUse"><stop id="stop1" offset="0" stop-color="#002A91"/><stop id="stop2" offset=".8" stop-color="#002672"/></linearGradient><linearGradient id="c" x1="-1151.8" x2="-1152" y1="-784.91998" y2="-782.97998" gradientTransform="matrix(149.70994 0 0 -57.777553 172816.56 -45104.019)" gradientUnits="userSpaceOnUse"><stop id="stop3" offset="0" stop-color="#fff"/><stop id="stop4" offset="1" stop-color="#fff" stop-opacity=".25"/></linearGradient><linearGradient id="d" x1="-1152.6" x2="-1152.6" y1="-773.58002" y2="-778.42999" gradientTransform="matrix(317.37 0 0 -103 366970 -80578)" gradientUnits="userSpaceOnUse"><stop id="stop5" offset=".4" stop-color="#f00"/><stop id="stop6" offset="1" stop-color="#D42321"/></linearGradient><linearGradient id="e" x1="-1152.3" x2="-1152.8" y1="-785.34003" y2="-782.73999" gradientTransform="matrix(317.43347 0 0 -56.489296 367443.48 -44125.823)" gradientUnits="userSpaceOnUse"><stop id="stop7" offset="0" stop-color="#fff"/><stop id="stop8" offset="1" stop-color="#fff" stop-opacity=".25"/></linearGradient><linearGradient xlink:href="#d" id="linearGradient5" gradientUnits="userSpaceOnUse" gradientTransform="matrix(317.43347 0 0 -103.0206 367443.48 -79693.936)" x1="-1152.6" y1="-773.58002" x2="-1152.6" y2="-778.42999"/></defs><path id="path13" fill="url(#b)" d="M501.70432 464.29284c5.90118 2.90058 18.0036 6.70134 33.5067 7.10142 26.40528.40008 40.60812-9.60192 51.0102-32.90658l140.62812-311.76234c-5.90118-2.90058-18.80376-6.70134-29.30586-6.70134-18.0036-.40008-42.20844 3.30066-57.71154 40.008L594.1228 266.75334l-89.11782-144.62892c-5.90118-1.70034-20.10402-4.20084-30.10602-4.20084-31.80636 0-49.40988 11.70234-67.31346 31.20624l-87.0174 94.21884 69.91398 109.22184c13.0026 20.004 29.70594 30.006 57.31146 30.006 18.0036 0 33.0066-4.20084 40.20804-7.5015l-84.21684-125.42508 59.41188-62.91258 97.91958 152.5305Zm-184.5369-118.0236c0 22.90458-9.20184 36.20724-54.41088 36.20724-5.90118 0-11.30226-.40008-16.30326-1.20024v-305.061c0-23.30466 7.90158-47.5095 53.5107-47.5095 5.90118 0 11.70234.40008 17.20344 1.70034ZM223.84876 300.06c0 42.90858-28.0056 74.21484-85.31706 80.41608-41.40828 4.60092-101.62032-.80016-130.12602-4.20084-.80016-4.60092-1.70034-10.40208-1.70034-15.003 0-37.5075 20.10402-45.80916 39.30786-45.80916 19.70394 0 51.0102 3.30066 74.5149 3.30066 25.5051 0 33.5067-8.80176 33.5067-16.70334 0-10.80216-10.002-15.003-30.10602-19.20384L69.5179 272.45448C24.30886 264.15282.10402 232.84656.10402 199.93998c0-40.008 28.40568-73.81476 84.5169-79.61592 42.20844-4.60092 94.11882.40008 122.62452 4.20084.80016 4.60092 1.70034 9.60192 1.70034 14.60292 0 37.5075-19.70394 45.40908-38.90778 45.40908-14.60292 0-37.20744-2.5005-63.61272-2.5005-26.40528 0-37.20744 7.10142-37.20744 16.20324 0 9.60192 10.5021 13.30266 27.20544 16.20324l51.91038 9.60192c52.5105 8.90178 75.5151 38.90778 75.5151 76.0152Z" stroke-width="1.0002"/><path id="path14" fill="url(#c)" d="m726.74932 126.72534-51.5103 114.22284c-1.70034 2.90058-7.10142 12.90258-21.30426 13.30266-3.30066 0-46.90938 1.70034-46.90938 1.70034-8.40168.40008-11.30226 8.30166-11.30226 8.30166L640.132 160.032c15.5031-36.70734 39.70794-40.40808 57.71154-40.008 10.10202 0 23.0046 3.30066 28.90578 6.70134ZM592.02238 262.95258l-87.0174-140.82816c-5.90118-1.70034-20.10402-4.20084-30.10602-4.20084-31.80636 0-49.40988 11.70234-67.31346 31.20624l-87.0174 94.21884 7.10142 10.80216c2.90058 4.20084 8.80176 10.80216 20.5041 10.40208 4.20084 0 46.0092-1.70034 49.40988-1.70034 10.90218-.40008 17.60352 4.20084 21.80436 9.60192l-15.60312-23.20464 59.41188-62.91258 40.20804 62.5125c7.10142 9.60192 18.0036 9.60192 20.5041 9.60192 2.10042 0 54.41088-2.10042 56.91138-2.10042 3.70074-.10002 7.90158 2.0004 11.20224 6.60132ZM299.96398 28.80576c-45.60912 0-53.11062 24.20484-53.11062 47.5095V285.5571c0-8.30166 6.70134-17.10342 17.20344-17.5035 7.5015-.40008 28.90578-.80016 35.10702-1.20024 7.10142-.40008 17.60352-5.001 18.0036-17.90358V30.60612c-5.5011-1.0002-11.30226-1.80036-17.20344-1.80036Zm-152.23044 194.5389-51.91038-9.60192c-16.70334-2.90058-27.20544-6.70134-27.20544-16.20324 0-8.80176 10.90218-16.20324 37.20744-16.20324 25.90518 0 48.90978 2.5005 63.61272 2.5005 19.20384 0 38.90778-7.90158 38.90778-45.40908 0-5.001-.40008-9.60192-1.70034-14.60292-28.40568-3.30066-79.91598-8.80176-122.62452-4.20084C28.40968 126.22524.004 160.032.004 200.04c0 20.40408 9.20184 40.40808 27.60552 54.61092 13.80276 8.80176 27.60552 12.5025 41.80836 15.003 11.70234 2.10042 38.10762 3.80076 58.11162 2.90058 6.30126-.40008 51.91038-1.70034 61.91238-2.10042 23.0046-.80016 36.0072 18.70374 34.30686 38.70774v-1.20024c.40008-2.5005.40008-5.001.40008-7.90158-.30006-37.10742-23.30466-67.11342-76.41528-76.71534Z" opacity=".25" stroke-width="1.0002"/><path id="path15" fill="url(#linearGradient5)" d="M2309.0657 0H835.57108c-18.40368 0-33.5067 15.003-33.5067 33.30666v433.38666c0 18.30366 15.10302 33.30666 33.5067 33.30666H2309.5658c18.4037 0 33.5067-15.003 33.5067-33.30666V33.30666C2342.5724 15.003 2327.4694 0 2309.0657 0Z" stroke-width="1.0002"/><path id="path16" fill="url(#e)" d="M825.86914 247.94958h3.30066c99.11982-3.30066 1488.5977-51.71034 1488.5977-51.71034 12.5025-.40008 25.105-9.60192 25.105-25.40508V33.30666C2342.8725 15.003 2327.7695 0 2309.3658 0H835.57108c-18.40368 0-33.5067 15.003-33.5067 33.30666v240.84816c0-2.90058.40008-23.70474 23.80476-26.20524Z" opacity=".4" stroke-width="1.0002"/><g id="g22" fill="#ffffff" transform="translate(584.53088 916.49126) scale(1.0002)"><path id="path17" d="M313.7-557.1c-2.9-20.4 3.3-31.2 15.5-31.2 11.3 0 38.9 12.1 77.4 12.1 40.6 0 55.6-14.2 55.6-32.9 0-13.3-5.9-25-42.2-35l-41.8-11.2c-46.4-12.1-64.4-35.4-64.4-63.8 0-35.4 28-66.7 91.6-66.7 28.4 0 64 6.2 85.8 14.6 3.8 20-2.5 30.8-14.6 30.8-10.9 0-35.6-10.4-70.3-10.4-37.6 0-51.5 12.9-51.5 29.6 0 11.7 5.4 22.5 38.9 32.1l42.7 11.7c47.7 13.3 66.9 35.4 66.9 66.7 0 36.7-28.4 69.6-97.5 69.6-31 .2-69.1-7.3-92.1-16Z"/><path id="path18" d="M787.6-663.4c0 77.1-54.4 122.5-113.8 122.5-35.6 0-64.4-16.7-82-40.4v99.2c0 9.2-5.4 15.4-21.3 15.4-7.9 0-15.5-.8-19.2-2.1v-312.5c3.8-.8 11.3-2.1 19.2-2.1 15.9 0 21.3 5.8 21.3 15.4v22.5c17.2-23.8 46.4-40.4 82-40.4 59.5 0 113.8 45.8 113.8 122.5Zm-40.9 0c0-51.7-34.3-87.1-80.7-87.1-31.4 0-60.7 18.3-74 44.6v85c13.4 26.7 42.2 44.6 74 44.6 46.3 0 80.7-35.4 80.7-87.1Z"/><path id="path19" d="M826.5-663.4c0-70 51.9-122.1 121.3-122.1 69.9 0 121.7 52.1 121.7 122.1 0 69.6-51.9 122.5-121.7 122.5-69.4 0-121.3-52.9-121.3-122.5Zm202.1 0c0-54.2-36.4-87.1-80.7-87.1-43.9 0-80.3 32.9-80.3 87.1 0 53.3 36.4 87.5 80.3 87.5 44.3-.4 80.7-34.2 80.7-87.5Z"/><path id="path20" d="M1265.8-763.8c0 16.2-6.7 19.6-23.8 19.6-33.9 0-62.7 15.8-80.3 52.5v132.9c0 10-5.4 15.4-21.8 15.4-6.7 0-14.6-.8-18.8-2.1v-235.8c3.8-.8 11.7-2.1 18.8-2.1 16.3 0 21.8 5.8 21.8 15.4v32.9c23-35 58.1-52.5 102.1-46.7.3 3.4 2 10.9 2 18Z"/><path id="path21" d="M1443.1-557.1c-20.5 10-44.3 16.2-68.2 16.2-46.9 0-74.9-27.5-74.9-73.3v-202.5c0-10.4 5.9-17.1 21.8-17.1 6.7 0 14.6 1.7 18.8 2.5v51.2h92c.4 3.3 1.7 10.4 1.7 16.2 0 14.2-5.9 19.2-14.6 19.2h-78.6v127.9c0 27.5 13 40.8 38.9 40.8 23.8 0 36.8-10.4 48.1-10.4 11.3 0 17.5 9.7 15 29.3Z"/><path id="path22" d="M1471.2-557.1c-2.9-20.4 3.3-31.2 15.5-31.2 11.3 0 38.9 12.1 77.4 12.1 40.6 0 55.6-14.2 55.6-32.9 0-13.3-5.9-25-42.2-35l-41.8-11.2c-46.4-12.1-64.4-35.4-64.4-63.8 0-35.4 28-66.7 91.6-66.7 28.4 0 64 6.2 85.8 14.6 3.8 20-2.5 30.8-14.6 30.8-10.9 0-35.6-10.4-70.3-10.4-37.6 0-51.5 12.9-51.5 29.6 0 11.7 5.4 22.5 38.9 32.1l42.7 11.7c47.7 13.3 66.9 35.4 66.9 66.7 0 36.7-28.4 69.6-97.5 69.6-31.1.2-69.1-7.3-92.1-16Z"/></g><path id="path23" fill="#002a91" d="M2343.0635 531.08c-.05 8.9599-3.6796 17.528-10.08 23.798l.088 411.81c-.012 12.866-10.439 23.294-23.306 23.306H33.306002c-12.852-.0477-23.258-10.454-23.306-23.306v-411.8C3.8596025 548.8611.27800246 540.7.00000246 532.1v434.59c-.007 18.398 14.90799954 33.314 33.30599954 33.308H2309.6655c18.447.0855 33.438-14.861 33.407-33.308Z"/><path fill="#ff4b44" d="M595.77684 857.20451V651.95264h56.22701v210.14159h99.33532v52.52098H628.38058l-22.1474-27.41102c-7.52394-9.77938-10.51423-18.76297-10.51423-29.99968m320.67423-32.62667L886.77977 704.5312h-5.98052l-29.61342 120.03704h65.26534-.05799ZM781.8015 871.87359l60.68351-219.92095h64.47445c11.9803 0 19.49458 5.61836 22.89016 17.64123l55.87968 202.22219c2.6044 8.98359 2.9903 14.99506 2.9903 26.62485v16.11677h-49.88949l-19.89035-79.93202-80.64115 41.28433-9.71361 38.64769h-49.89917v-16.11677c0-11.62979.39548-17.64126 2.99027-26.62485m232.5862-14.61155V651.95264h56.2368v210.14159h99.3835v52.52098h-123.0164l-22.0896-27.41102c-7.524-9.77938-10.5143-18.76297-10.5143-29.99968Zm243.718-205.25187h-56.2271v262.65298h56.2271Zm38.2563 179.24067v-95.87626c0-55.89585 30.3949-86.28863 86.2359-86.28863h24.6264c55.1564 0 86.2361 28.13969 86.2361 78.02408h-56.2368v-10.49845c0-9.77935-5.2475-15.00461-14.961-15.00461h-54.645c-9.7813 0-14.9709 5.27318-14.9709 15.00461v133.41182c0 9.76977 5.2476 14.99504 14.9709 14.99504h54.645c9.7135 0 14.9707-5.2732 14.9707-14.99504v-33.02938h-38.9896V764.4059h62.6032l22.157 27.42061c7.5143 9.37671 10.5143 18.02473 10.5143 29.99009v9.38628c0 55.89586-30.4045 86.27904-86.236 86.27904h-24.6362c-55.8796 0-86.2358-30.39278-86.2358-86.28861m351.5901-6.61547L1618.271 704.5312h-5.9903l-29.6134 120.03704h65.2654-.0578Zm-134.592 47.29575 60.7414-219.92095h64.4745c11.9805 0 19.4947 5.61836 22.8805 17.64123l55.8893 202.22219c2.5948 8.98359 2.9904 14.99506 2.9904 26.62485v16.11677h-49.8897l-19.89-79.93202-80.6413 41.28433-9.7716 38.64769h-49.899v-16.11677c0-11.62979.3953-17.64126 2.9901-26.62485" id="path1"/></svg>