<?xml version="1.0" encoding="UTF-8" standalone="no"?><svg version="1.1" viewBox="0 0 1360.1187 783.21435" xml:space="preserve" xmlns="http://www.w3.org/2000/svg" xmlns:svg="http://www.w3.org/2000/svg"><defs><linearGradient id="a" x1="379.91342" y1="190.1869" x2="487.41333" y2="100.16893" gradientUnits="userSpaceOnUse" gradientTransform="matrix(1.7791848 0 0 1.7734078 1.2402361 0)"><stop offset=".28" stop-color="#FA1660"/><stop offset=".78" stop-color="#FF6E00"/></linearGradient></defs><path d="M1155.2915 137.34178h53.3152c32.0859 0 52.6366 16.67312 52.6366 45.56028 0 31.50444-20.5507 52.05503-52.6366 52.05503h-53.3152Zm91.8959 161.20583c55.2539-7.07639 100.8142-54.57538 100.8142-114.96699 0-78.3249-53.3152-121.364818-139.3949-121.364818h-138.7164V456.55452h85.4012V298.54761l105.9518 158.00691h98.8754Z" fill="#241c32"/><path d="M559.02113 62.942827H298.94V140.6861h86.66139v315.86842h86.6614V140.6861h86.75834Z" fill="#241c32"/><path d="M136.09911 207.6312c-25.68823-11.53548-35.28495-24.42806-35.28495-41.10118 0-19.29043 16.09148-35.28499 41.7797-34.70337 22.48931.67856 39.84098 12.79565 52.055 41.77974l73.86577-32.76462c-20.55058-52.636653-62.3303-83.462551-129.70129-83.462551-71.345406 0-124.078963 46.917401-124.078963 109.829361 0 43.03991 21.229133 77.06472 71.248466 102.0744l55.253907 27.62697c30.82587 15.41296 45.56025 26.94842 45.56025 49.43775 0 24.42806-19.87203 41.77975-45.56025 41.77975-27.62695 0-52.636617-15.41295-64.172083-50.11631L0 360.50047c17.933288 64.85069 71.248466 102.75297 140.65513 102.75297 75.12593 0 132.9002-48.17758 132.9002-117.48736 0-53.31522-28.88714-88.6002-84.14105-113.70682Z" fill="#241c32"/><path d="M1041.626 188.88469H853.72592c-2.6 0-3.8-1.29578-4.5-3.78766L787.72592 0l-60.2 185.09703c-.6 2.59156-1.9 3.78766-4.5 3.78766h-189.9l154.2 112.93211c1.9 1.29578 3.8 1.29578 5.8 0 43.5-26.81265 80.6-43.9568 161.9-64.39024-74.3 57.41297-147.3 122.50094-207.5 197.85547-1.9 2.59156-2.6 3.18961-3.8 6.97727l-17.3 52.92758 158.2-114.22789c2.6-1.89383 3.8-1.89383 6.4 0l158.2 114.22789-60.2-186.3928c-.6-2.59156 0-3.78767 1.9-5.08345Z" fill="url(#a)"/><path d="M235.50064 659.34822c-7.12267-8.5162-17.44541-13.39744-30.76173-13.39744-27.04553 0-46.96839 22.12136-46.96839 52.55122s19.92286 52.55121 45.83288 52.55121c14.45183 0 26.11651-6.43908 33.44566-17.55168l29.42448 21.68071c-13.47218 19.20147-36.30291 28.03209-58.41375 28.03209-50.49496 0-87.20925-33.06348-87.20925-84.81502 0-51.75153 36.71429-84.81501 87.20925-84.81501 17.9972 0 40.82794 6.16089 54.60862 23.71946Z" fill="#241c32"/><path d="M291.45763 617.51182h34.34179v60.38223h70.58332v-60.38223h34.64183v161.98103h-34.64183v-70.96423h-70.58332v70.96423h-34.34179Z" fill="#241c32"/><path d="M523.94977 617.51182h29.34012L623.46 779.49285h-39.5464l-14.02343-33.95218h-63.46916l-13.60794 33.95218H454.19Zm13.6345 45.75002-19.84059 51.81251h39.88896Z" fill="#241c32"/><path d="M646.552 617.51182h47.70079l70.30875 114.92844h.4216V617.51182h34.42699v161.98103h-45.55331L681.425 661.6889h-.42174v117.80395H646.552Z" fill="#241c32"/><path d="M840.37625 617.51182h47.10015l70.1079 114.92844h.42161V617.51182h34.92779v161.98103h-45.87495l-71.559-117.03562h-.41899v117.03562h-34.70451Z" fill="#241c32"/><path d="M1033.7576 617.51182h109.3097v31.97306h-74.6058v30.59093h70.4781v32.97325h-70.4781v34.37382h78.233v32.17302h-112.9369Z" fill="#241c32"/><path d="M1184.1411 617.51182h34.8097v130.28784h66.1455v31.69319h-100.9552Z" fill="#241c32"/></svg>