<?xml version="1.0" encoding="utf-8"?><svg id="Layer_1" data-name="Layer 1" xmlns="http://www.w3.org/2000/svg" xmlns:xlink="http://www.w3.org/1999/xlink" viewBox="0 0 1783.88 540.52"><defs><clipPath id="clip-path"><rect x="-229.35" y="-164.27" width="2254.87" height="895.62" fill="none"/></clipPath><clipPath id="clip-path-2"><path d="M739.86,208.18a5,5,0,0,1-4.76,3.45H537.92L697.66,327.69a5,5,0,0,0,5.57.2c44.19-27.46,82.82-46.51,165-68,0,0-126,94.41-208.58,200.19a25.14,25.14,0,0,0-4.11,7.71L638.35,520.7,797.87,404.8a5,5,0,0,1,5.88,0L963.27,520.7,902.32,333.12a5,5,0,0,1,1.81-5.59l159.52-115.9H866.48a5,5,0,0,1-4.76-3.45L800.79,20.65Z" fill="none"/></clipPath><linearGradient id="linear-gradient" x1="542.7" y1="-197.7" x2="543.7" y2="-197.7" gradientTransform="translate(-281292.66 102929.39) scale(519.26)" gradientUnits="userSpaceOnUse"><stop offset="0" stop-color="#fa1660"/><stop offset="0.28" stop-color="#fa1660"/><stop offset="0.78" stop-color="#ff6e00"/><stop offset="1" stop-color="#ff6e00"/></linearGradient></defs><title>original</title><polygon points="1775.52 251.33 1650.52 251.33 1650.52 126.33 1584.16 126.33 1584.16 251.33 1459.16 251.33 1459.16 315.76 1584.16 315.76 1584.16 440.76 1650.52 440.76 1650.52 315.76 1775.52 315.76 1775.52 251.33" fill="#fff"/><g clip-path="url(#clip-path)"><path d="M1231.71,163.05c32.22,0,52.84,16.75,52.84,44.46,0,29-20.62,49.61-52.84,49.61h-51.54V163.05Zm40.59,159.79c55.42-7.08,101.17-54.77,101.17-115.33,0-78.61-53.48-121.78-139.82-121.78H1092.54V481.35h87.63V324.78l105,156.57H1387ZM570.09,85.73H309.18v79.9h85.7V481.35h89.56V165.63h85.65Zm-425.77,145c-25.12-11.59-34.79-23.84-34.79-39.94,0-18.69,16.11-34.15,40-33.51,21.91.64,38,12.24,50.26,40l75.38-32.86C254.55,111.58,212.67,80.65,145,80.65c-71.52,0-124.36,47-124.36,110.19,0,43.17,20.62,78.6,73.46,105l52.82,26.4c29.64,14.82,43.82,25.77,43.82,47.68,0,23.19-19.33,39.95-43.82,39.95-26.42,0-50.26-14.82-61.21-48.33l-79.9,23.2c18,65.08,71.52,103.09,141.11,103.09,75.39,0,133.38-48.32,133.38-117.91,0-53.48-28.35-89.56-85.7-116Z" fill="#fff"/></g><g clip-path="url(#clip-path-2)"><rect x="438.13" y="-91.99" width="725.3" height="725.3" transform="translate(43.16 645.51) rotate(-45)" fill="url(#linear-gradient)"/></g></svg>