<?xml version="1.0" encoding="UTF-8" standalone="no"?>
<!DOCTYPE svg PUBLIC "-//W3C//DTD SVG 1.1//EN" "http://www.w3.org/Graphics/SVG/1.1/DTD/svg11.dtd">
<svg width="768px" height="445px" version="1.1" xmlns="http://www.w3.org/2000/svg" xmlns:xlink="http://www.w3.org/1999/xlink" xml:space="preserve" xmlns:serif="http://www.serif.com/" style="fill-rule:evenodd;clip-rule:evenodd;stroke-linejoin:round;stroke-miterlimit:2;">
    <g>
        <path d="M652.321,79.037L682.359,79.037C700.467,79.037 712.184,88.411 712.184,104.814C712.184,122.497 700.68,134.214 682.359,134.214L652.321,134.214L652.321,79.037ZM704.302,170.004C735.405,165.956 761.183,139.113 761.183,105.027C761.183,60.716 731.145,36.429 682.572,36.429L604.174,36.429L604.174,259.054L652.321,259.054L652.321,170.004L712.184,259.267L768,259.267L704.302,170.004Z" style="fill:rgb(33,26,44);fill-rule:nonzero;"/>
        <path d="M167.447,36.429L167.447,80.315L216.446,80.315L216.446,259.267L265.445,259.267L265.445,80.315L314.443,80.315L314.443,36.429L167.447,36.429Z" style="fill:rgb(33,26,44);fill-rule:nonzero;"/>
        <path d="M76.906,118.449C62.42,111.845 56.881,104.601 56.881,95.228C56.881,84.363 66.042,75.202 80.528,75.628C93.31,76.054 103.11,82.872 109.927,99.275L151.683,80.741C139.966,51.129 116.318,33.66 78.398,33.66C38.134,33.66 8.308,60.077 8.308,95.654C8.308,119.94 20.239,139.113 48.573,153.387L79.676,168.939C97.145,177.673 105.454,184.064 105.454,196.847C105.454,210.694 94.163,220.494 79.676,220.494C64.124,220.494 49.851,211.759 43.46,192.16L0,204.942C10.226,241.584 40.264,262.888 79.463,262.888C121.857,262.888 154.452,235.619 154.452,196.421C154.452,166.382 138.048,146.357 106.945,132.296L76.906,118.449Z" style="fill:rgb(33,26,44);fill-rule:nonzero;"/>
        <path d="M232.211,375.372C230.293,373.029 227.95,371.111 224.968,369.833C222.198,368.555 218.789,367.916 215.168,367.916C211.333,367.916 207.925,368.555 204.729,370.046C201.533,371.537 198.764,373.455 196.42,376.011C194.077,378.568 192.16,381.763 190.882,385.172C189.603,388.793 188.964,392.628 188.964,396.676C188.964,400.937 189.603,404.771 190.882,408.393C192.16,412.014 194.077,414.997 196.207,417.553C198.551,420.11 201.107,422.24 204.303,423.518C207.498,425.01 210.694,425.649 214.316,425.649C218.363,425.649 221.985,424.797 225.181,423.092C228.376,421.388 230.933,419.045 232.85,416.062L249.467,428.418C245.632,433.744 240.732,437.792 234.98,440.348C229.015,442.905 223.05,444.183 216.872,444.183C209.842,444.183 203.238,443.118 197.486,440.775C191.734,438.431 186.408,435.449 182.147,431.188C177.886,427.14 174.478,422.027 171.921,416.275C169.578,410.31 168.3,403.919 168.3,396.676C168.3,389.432 169.578,382.828 171.921,377.076C174.265,371.111 177.673,366.211 182.147,362.164C186.408,358.116 191.521,354.92 197.486,352.577C203.451,350.234 209.842,349.168 216.872,349.168C219.429,349.168 221.985,349.381 224.754,349.808C227.524,350.234 230.293,351.086 232.85,351.938C235.619,353.003 238.176,354.281 240.519,355.986C243.076,357.69 245.206,359.82 247.123,362.164L232.211,375.372Z" style="fill:rgb(33,26,44);fill-rule:nonzero;"/>
        <path d="M266.936,351.938L301.874,351.938C306.561,351.938 310.822,352.364 314.869,353.216C318.917,354.068 322.539,355.56 325.734,357.69C328.93,359.82 331.273,362.59 333.191,365.998C335.108,369.62 335.96,373.881 335.96,379.207C335.96,385.598 334.256,390.924 331.06,395.398C327.652,399.871 322.965,402.641 316.574,403.919L339.582,442.053L315.721,442.053L296.761,406.049L286.961,406.049L286.961,442.053L267.149,442.053L267.149,351.938L266.936,351.938ZM286.535,389.432L298.465,389.432C300.17,389.432 302.087,389.432 304.217,389.219C306.135,389.006 308.052,388.793 309.543,388.154C311.248,387.515 312.526,386.45 313.591,385.172C314.656,383.893 315.082,381.976 315.082,379.42C315.082,377.076 314.656,375.372 313.591,373.881C312.739,372.603 311.461,371.537 309.969,370.685C308.478,370.046 306.774,369.407 305.07,369.194C303.152,368.981 301.448,368.768 299.531,368.768L286.535,368.768L286.535,389.432Z" style="fill:rgb(33,26,44);fill-rule:nonzero;"/>
        <rect x="355.56" y="351.938" width="19.812" height="90.115" style="fill:rgb(33,26,44);fill-rule:nonzero;"/>
        <path d="M399.871,351.938L429.91,351.938L450.787,410.736L451,410.736L471.878,351.938L501.916,351.938L501.916,442.053L482.104,442.053L482.104,372.816L481.891,372.816L458.031,442.266L442.905,442.266L420.11,373.029L419.684,373.029L419.684,442.266L399.871,442.266L399.871,351.938Z" style="fill:rgb(33,26,44);fill-rule:nonzero;"/>
        <path d="M527.268,351.938L588.622,351.938L588.622,370.259L547.293,370.259L547.293,387.089L586.492,387.089L586.492,405.41L547.293,405.41L547.293,423.732L590.966,423.732L590.966,442.053L527.481,442.053L527.481,351.938L527.268,351.938Z" style="fill:rgb(33,26,44);fill-rule:nonzero;"/>
        <path d="M591.392,107.158L480.399,107.158C478.908,107.158 478.269,106.519 477.843,105.027L443.118,0L409.032,105.24C408.606,106.732 407.967,107.371 406.475,107.371L295.483,107.371L384.959,172.56C386.024,173.199 387.089,173.199 388.154,172.56C412.867,157.435 435.022,146.357 481.039,134.853C439.07,167.447 397.528,204.516 363.442,247.336C362.377,248.828 361.951,249.254 361.312,251.384L351.512,281.422L440.987,216.446C442.479,215.381 443.118,215.381 444.609,216.446L534.085,281.422L499.999,175.543C499.573,174.052 499.999,173.412 501.064,172.56L591.392,107.158Z" style="fill:url(#_Linear1);fill-rule:nonzero;"/>
    </g>
    <defs>
        <linearGradient id="_Linear1" x1="0" y1="0" x2="1" y2="0" gradientUnits="userSpaceOnUse" gradientTransform="matrix(226.376,-189.952,189.952,226.376,335.051,261.389)"><stop offset="0" style="stop-color:rgb(0,199,246);stop-opacity:1"/><stop offset="0.5" style="stop-color:rgb(0,199,246);stop-opacity:1"/><stop offset="0.53" style="stop-color:rgb(1,183,242);stop-opacity:1"/><stop offset="0.67" style="stop-color:rgb(3,108,223);stop-opacity:1"/><stop offset="0.79" style="stop-color:rgb(5,54,209);stop-opacity:1"/><stop offset="0.88" style="stop-color:rgb(7,20,200);stop-opacity:1"/><stop offset="0.93" style="stop-color:rgb(7,7,197);stop-opacity:1"/><stop offset="1" style="stop-color:rgb(7,7,197);stop-opacity:1"/></linearGradient>
    </defs>
</svg>
