<svg viewBox="0 0 257.84 56" xmlns="http://www.w3.org/2000/svg">
  <title>TOH_logo</title>
  <path fill="#000099" d="M41.67.36H0V54.58H41.67Z"></path>
  <path fill="#ffffff" stroke="#ffffff" stroke-miterlimit="10" stroke-width="0.3px" d="M31,30.49h-1.1V16L29.84,16a6.13,6.13,0,0,0-4.26-1.3,6.17,6.17,0,0,0-3.34.88l-.11.07V30.49H19.52V15.6l-.11-.06a6.17,6.17,0,0,0-3.34-.88A6.13,6.13,0,0,0,11.8,16l-.06.06V30.5H10.68v2.61H31ZM26.23,15.1a5.48,5.48,0,0,1,3.26,1.09v6.43H26.23Zm0,7.94h3.26v7.45H26.23Zm-3.68-7.2a5.89,5.89,0,0,1,3-.77h.23v7.54H22.55Zm0,7.2h3.26v7.45H22.55Zm-6.71-8h.23a5.86,5.86,0,0,1,3,.77v6.78H15.83V15.08Zm0,8h3.27v7.45H15.84Zm-3.68-6.85a5.51,5.51,0,0,1,3.26-1.09v7.52H12.16Zm0,6.85h3.26v7.45H12.16ZM30.6,32.68H11.11V30.91H30.6v1.77Z"></path>
  <path fill="#ffffff" stroke="#ffffff" stroke-miterlimit="10" stroke-width="0.3px" d="M5,5.37l.62,2H6.78V8.48l.76,0L8,8.85h.63V41.24L8.36,42.5v3.89l-.48,1.15v1.87h25.9V47.54l-.49-1.15V42.54L33,41.24V8.84h.6l.49-.31.76,0V7.37h1.21l.63-2ZM33.37,47.63V49H8.29V47.63l.44-1.05h24.2Zm-22.69-36v1h2.57v-1h6.33v1h2.57v-1h6.29v1H31V11.61h1.61V40.9H9.08V11.62h1.6Zm-1.6-.42V8.85h1.6v2.36Zm2,1V8.85h1.73v3.41Zm2.15-1V8.85h6.33v2.36Zm6.74,1V8.85h1.73v3.41Zm2.16-1V8.85h6.29v2.36Zm6.7,1V8.85h1.73v3.41Zm2.16-1V8.85h1.61v2.36Zm1.62,30.13.25,1.22v3.61H8.78v-3.6l.28-1.23ZM35.79,7H34.46V8.09l-.47,0-.48.31H8.16l-.48-.32-.48,0V6.94H5.88L5.52,5.79H36.15Z"></path>
  <path fill="#000099" d="M238,26.39a7.48,7.48,0,0,0-7.35,6h14.81A7.67,7.67,0,0,0,238,26.39ZM238.1,56c-13.31,0-20.52-9-20.52-20.11s8-20,20-20a19.83,19.83,0,0,1,20.3,20,16,16,0,0,1-.37,3.49H230.24A7.55,7.55,0,0,0,238,45.75c3.62,0,5.23-2,6.68-4.1h12.42C255,48.17,249.72,56,238.1,56Z"></path>
  <path fill="#000099" d="M202.38,56c-4.67,0-8.78-1.42-11.33-4.27l-1.55,2.84H184V39.4h7.07c2.27,10.3,13.39,10.44,13.39,5.94,0-2.7-2.63-3-8.65-4.91S183.92,36,183.92,28c0-7.68,6.89-12.57,14.57-12.57,5.3,0,9.41,2.34,10.75,4l1.21-2.2h5.24v14h-7.08c-2.36-10-12.54-8.6-12.3-4.72.16,2.77,2.87,3.46,7.49,4.55,6.66,1.58,13,4.12,13,12.79C216.81,51.74,210.52,56,202.38,56Z"></path>
  <path fill="#000099" d="M76.52,54.58V45.13h4V32.56H64.27V45.13h4.1v9.45H45.87V45.13H50V9.81H45.87V.36h22.5V9.81h-4.1v13.3H80.55V9.81h-4V.36H99V9.81h-4V45.13h4v9.45Z"></path>
  <path fill="#000099" d="M118.43,27.93a8,8,0,1,0,8,8A7.93,7.93,0,0,0,118.43,27.93Zm0,28.07a20.08,20.08,0,1,1,20-20.11A20.09,20.09,0,0,1,118.43,56Z"></path>
  <path fill="#000099" d="M164.5,54.58V50.31a11.13,11.13,0,0,1-9.55,5c-8,0-13.59-5-13.59-15.14V26.66h-4.11V17.28H155V38c0,2.77.49,5.9,4.8,5.9s4.74-3.13,4.74-5.9V26.66h-4V17.28h17.69V45.13h4v9.45Z"></path>
  <path fill="#000099" d="M113.47,5.66v-3h-1.66v8.63h1v2.32h-5.5V11.32h1V2.69h-1.66v3H104V.36h12.14v5.3Z"></path>
  <path fill="#000099" d="M128.76,13.64V11.32h1V6.82h-1V4.5h4.34v6.82h1v2.33h-5.35ZM129.55,3V.36h3.69V3.05h-3.69Z"></path>
  <path fill="#000099" d="M161.8,13.64V11.32h1V2.69h-1V.36h4.33v11h1v2.32Z"></path>
  <path fill="#000099" d="M123.55,13.64V8.56c0-.65-.14-1.45-1.15-1.45s-1.23.79-1.23,1.45v2.76h1v2.32h-5.35V11.32h1V2.69h-.94V.36h4.26V5.59a2.71,2.71,0,0,1,2.38-1.24c2,0,3.33,1.24,3.33,3.71v3.26h1v2.33h-4.33Z"></path>
  <path fill="#000099" d="M139.52,14a3.68,3.68,0,0,1-2.77-1l-.39.69H135V9.93h1.73c.55,2.52,3.27,2.55,3.27,1.46,0-.66-.64-.74-2.11-1.2s-2.9-1.1-2.9-3a3.28,3.28,0,0,1,3.56-3.08,3.57,3.57,0,0,1,2.63,1l.3-.54h1.28V7.94H141c-.57-2.45-3.06-2.11-3-1.16,0,.68.71.85,1.83,1.11,1.63.39,3.18,1,3.18,3.13C143.05,13,141.51,14,139.52,14Z"></path>
  <path fill="#000099" d="M173.82,9.14v-.4c0-.65-.14-1.63-1.23-1.63s-1.23,1.38-1.23,2,.22,2,1.23,2,1.23-.9,1.23-1.56Zm0,4.5v-.87A2.9,2.9,0,0,1,171.43,14c-2.67,0-3.68-2.39-3.68-4.86s1-4.79,3.68-4.79a2.71,2.71,0,0,1,2.39,1.24V2.69h-1.37V.36h4.7v11h1v2.33h-4.34Z"></path>
  <path fill="#000099" d="M154.46,3.48A3.39,3.39,0,0,0,151.21,7a3.34,3.34,0,0,0,3.25,3.48A3.38,3.38,0,0,0,157.71,7,3.43,3.43,0,0,0,154.46,3.48Zm0,10.53a7.08,7.08,0,0,1-7-7,7,7,0,1,1,7,7Z"></path>
</svg>