<?xml version="1.0" encoding="UTF-8" standalone="no"?>
<!-- Created with Inkscape (http://www.inkscape.org/) -->
<svg xmlns:dc="http://purl.org/dc/elements/1.1/" xmlns:cc="http://creativecommons.org/ns#" xmlns:rdf="http://www.w3.org/1999/02/22-rdf-syntax-ns#" xmlns:svg="http://www.w3.org/2000/svg" xmlns="http://www.w3.org/2000/svg" xmlns:sodipodi="http://sodipodi.sourceforge.net/DTD/sodipodi-0.dtd" xmlns:inkscape="http://www.inkscape.org/namespaces/inkscape" width="1000" height="391.99503" id="svg3237" version="1.1" inkscape:version="0.48.2 r9819" sodipodi:docname="New document 6">
  <defs id="defs3239"/>
  <sodipodi:namedview id="base" pagecolor="#ffffff" bordercolor="#666666" borderopacity="1.0" inkscape:pageopacity="0.0" inkscape:pageshadow="2" inkscape:zoom="0.49497475" inkscape:cx="1015.9929" inkscape:cy="-127.38605" inkscape:document-units="px" inkscape:current-layer="layer1" showgrid="false" fit-margin-left="0.5" fit-margin-top="0.5" fit-margin-bottom="0.5" fit-margin-right="0.5" inkscape:window-width="1920" inkscape:window-height="1028" inkscape:window-x="-8" inkscape:window-y="-8" inkscape:window-maximized="1"/>
  <metadata id="metadata3242">
    <rdf:RDF>
      <cc:Work rdf:about="">
        <dc:format>image/svg+xml</dc:format>
        <dc:type rdf:resource="http://purl.org/dc/dcmitype/StillImage"/>
        <dc:title/>
      </cc:Work>
    </rdf:RDF>
  </metadata>
  <g inkscape:label="Layer 1" inkscape:groupmode="layer" id="layer1" transform="translate(-236.62594,-71.93863)">
    <g id="g3282" transform="matrix(4.5999414,0,0,4.5999414,-853.63949,-1668.3338)">
      <path sodipodi:nodetypes="ccccccc" inkscape:connector-curvature="0" id="path3203" d="m 272.12594,463.43361 c -15.00074,0 -35,-8.96608 -35,-35 l 0,-50 182,0 19.50001,42.6 -19.50001,42.4 z" style="fill:#00b4e9;fill-opacity:1;stroke:none"/>
      <path sodipodi:nodetypes="ccccccc" inkscape:connector-curvature="0" id="path3209" d="m 424.1043,463.43361 19.49278,-42.5 -19.70671,-42.5 11.70553,0 18.70672,42.5 -19.17668,42.5 z" style="fill:#00b4e9;fill-opacity:1;stroke:none"/>
      <path inkscape:connector-curvature="0" d="m 301.89142,405.94427 c 0.53206,0 0.86459,0.33349 0.86459,0.86609 l 0,6.52394 c 0,0.5331 -0.33253,0.86544 -0.86459,0.86544 -5.69026,0 -8.72802,2.66496 -8.72802,2.66496 l 0,19.45593 c 0,0.53271 -0.33364,0.86658 -0.86734,0.86658 l -8.32774,0 c -0.53305,0 -0.86735,-0.33387 -0.86735,-0.86658 l 0,-29.51614 c 0,-0.53386 0.3343,-0.8667 0.86735,-0.8667 l 5.99595,0 c 0.39944,0 0.73308,0.19957 0.86624,0.60012 l 1.66557,3.9967 c 2.66577,-3.79764 7.00677,-4.59034 9.39534,-4.59034" style="fill:#ffffff;fill-opacity:1;fill-rule:nonzero;stroke:none" id="path3017"/>
      <path sodipodi:nodetypes="sssccscssssssssssccsssc" inkscape:connector-curvature="0" d="m 314.77835,424.7953 c -3.86469,0 -4.86493,1.79712 -4.86493,3.3311 0,1.66465 0.93376,2.26453 2.1997,2.26453 1.19976,0 2.66523,-0.53405 3.79783,-1.39994 l 0,-4.19569 z m 1.1326,-6.86415 c 0,-3.06631 -1.46647,-3.73141 -4.59824,-3.73141 l -5.6434,0 c -0.53336,0 -0.86624,-0.33284 -0.86624,-0.86674 l 0,-6.52851 c 0,-0.53386 0.33288,-0.8667 0.86624,-0.8667 l 7.37688,0 c 9.39399,0 12.92581,3.53186 12.92581,13.85815 l 0,16.52469 c 0,0.53271 -0.2667,0.86658 -0.73289,0.86658 l -6.12988,0 c -0.3997,0 -0.66671,-0.0662 -0.80075,-0.4007 l -1.06476,-2.53157 c -2.66589,2.26556 -4.59824,3.39815 -8.52911,3.39815 -5.12994,0 -9.03068,-3.83256 -9.03068,-9.94916 0,-6.92657 4.03344,-9.20115 13.96179,-9.20115 l 2.26523,0" style="fill:#ffffff;fill-opacity:1;fill-rule:nonzero;stroke:none" id="path3019"/>
      <path inkscape:connector-curvature="0" d="m 335.00789,436.65481 -8.6618,-29.91784 c -0.13266,-0.53194 0.19918,-0.79918 0.66575,-0.79918 l 9.39534,0 c 0.40036,0 0.66571,0.19957 0.73189,0.66652 l 4.46423,22.65334 4.33188,-22.65334 c 0.0662,-0.39928 0.33287,-0.66652 0.79806,-0.66652 l 8.86328,0 c 0.3994,0 0.59824,0.26724 0.46723,0.73328 l -8.72963,30.04992 c -0.0665,0.26605 -0.20017,0.46622 -0.60088,0.46622 l -10.99181,0 c -0.33384,0 -0.66706,-0.13369 -0.73354,-0.5324" style="fill:#ffffff;fill-opacity:1;fill-rule:nonzero;stroke:none" id="path3021"/>
      <path sodipodi:nodetypes="csssccssssssc" inkscape:connector-curvature="0" d="m 401.22415,428.92516 -2.06504,0 c -2.66554,0 -3.86466,-1.33323 -3.86466,-3.73142 l 0,-30.61548 c 0,-0.53179 -0.33452,-0.93184 -1.20011,-0.66506 l -8.12905,2.33143 c -0.46554,0.13332 -0.73189,0.53321 -0.73189,0.9994 l 0,27.81624 c 0,7.66371 4.53071,12.12694 12.19258,12.12694 l 3.79817,0 c 0.53271,0 0.86589,-0.33387 0.86589,-0.86658 l 0,-6.52958 c 0,-0.5334 -0.33318,-0.86589 -0.86589,-0.86589" style="fill:#ffffff;fill-opacity:1;fill-rule:nonzero;stroke:none" id="path3023"/>
      <path inkscape:connector-curvature="0" d="m 279.48987,405.93779 c 0.5332,0 0.86593,0.33284 0.86593,0.8667 l 0,6.52851 c 0,0.5339 -0.33273,0.86674 -0.86593,0.86674 l -7.26259,0 0,10.994 c 0,2.66496 1.39914,3.73142 3.86339,3.73142 l 3.3992,0 c 0.5332,0 0.86593,0.33249 0.86593,0.86589 l 0,6.52958 c 0,0.53271 -0.33273,0.86658 -0.86593,0.86658 l -5.13117,0 c -7.26278,0 -12.19243,-4.06421 -12.19243,-12.12694 l 0,-27.18489 c 0,-0.46619 0.26643,-0.86608 0.73258,-0.9994 l 8.12821,-2.33143 c 0.86735,-0.26678 1.20022,0.13327 1.20022,0.66506 l 0,10.72818" style="fill:#ffffff;fill-opacity:1;fill-rule:nonzero;stroke:none" id="path3025"/>
      <path inkscape:connector-curvature="0" d="m 341.89392,452.7224 c -2.74337,0 -4.50813,-1.91306 -4.50813,-5.45784 0,-3.54412 1.74912,-5.45714 4.50813,-5.45714 0.93476,0 1.83956,0.20715 2.75837,0.69665 0.10375,0.0891 0.0894,0.17855 0.0442,0.28161 l -0.57791,1.27561 c -0.0589,0.1184 -0.14834,0.1184 -0.23779,0.0742 -0.59221,-0.32621 -1.12695,-0.5191 -1.86847,-0.5191 -1.49706,0 -2.62467,0.979 -2.62467,3.64822 0,2.68417 1.11197,3.64853 2.62467,3.64853 0.72725,0 1.27626,-0.1932 1.86847,-0.51876 0.10375,-0.0456 0.1789,-0.0456 0.23779,0.0741 l 0.57791,1.27461 c 0.0596,0.1044 0.0596,0.1932 -0.0442,0.282 -0.91881,0.48915 -1.80931,0.6973 -2.75837,0.6973" style="fill:#ffffff;fill-opacity:1;fill-rule:nonzero;stroke:none" id="path3027"/>
      <path inkscape:connector-curvature="0" d="m 348.49401,448.21392 0,4.22613 c 0,0.11875 -0.0595,0.1786 -0.16294,0.1786 l -1.57187,0 c -0.10444,0 -0.17859,-0.0598 -0.17859,-0.1786 l 0,-10.35098 c 0,-0.1184 0.0742,-0.17825 0.17859,-0.17825 l 1.57187,0 c 0.1034,0 0.16294,0.0598 0.16294,0.17825 l 0,4.22644 c 0,0.0891 0.0293,0.11839 0.11871,0.11839 l 3.67747,0 c 0.0891,0 0.1187,-0.0292 0.1187,-0.11839 l 0,-4.22644 c 0,-0.1184 0.0739,-0.17825 0.17825,-0.17825 l 1.57187,0 c 0.10375,0 0.16329,0.0598 0.16329,0.17825 l 0,10.35098 c 0,0.11875 -0.0595,0.1786 -0.16329,0.1786 l -1.57187,0 c -0.1044,0 -0.17825,-0.0598 -0.17825,-0.1786 l 0,-4.22613 c 0,-0.0888 -0.0296,-0.11935 -0.1187,-0.11935 l -3.67747,0 c -0.0894,0 -0.11871,0.0306 -0.11871,0.11935" style="fill:#ffffff;fill-opacity:1;fill-rule:nonzero;stroke:none" id="path3029"/>
      <path inkscape:connector-curvature="0" d="m 360.20975,444.13544 -1.31947,4.52278 2.63897,0 -1.3195,-4.52278 z m -2.43216,8.33421 c -0.0296,0.0891 -0.0748,0.149 -0.16356,0.149 l -1.57191,0 c -0.11805,0 -0.17725,-0.0894 -0.13365,-0.20816 l 3.20358,-10.38062 c 0.0293,-0.0742 0.0742,-0.11905 0.17824,-0.11905 l 1.97226,0 c 0.10375,0 0.14796,0.0449 0.17821,0.11905 l 3.20228,10.36632 c 0.0296,0.11805 -0.0296,0.22246 -0.14762,0.22246 l -1.6906,0 c -0.0888,0 -0.14765,-0.0598 -0.1636,-0.149 l -0.62251,-2.13517 -3.61892,0" style="fill:#ffffff;fill-opacity:1;fill-rule:nonzero;stroke:none" id="path3031"/>
      <path inkscape:connector-curvature="0" d="m 372.25169,442.08907 c 0,-0.1184 0.0748,-0.17825 0.1779,-0.17825 l 1.57221,0 c 0.10344,0 0.1626,0.0598 0.1626,0.17825 l 0,10.35098 c 0,0.11875 -0.0592,0.1786 -0.1626,0.1786 l -1.55726,0 c -0.11801,0 -0.19285,-0.0452 -0.25205,-0.149 l -3.85569,-6.95486 0,6.92526 c 0,0.11875 -0.0592,0.1786 -0.1636,0.1786 l -1.57186,0 c -0.10375,0 -0.17725,-0.0598 -0.17725,-0.1786 l 0,-10.35098 c 0,-0.1184 0.0735,-0.17825 0.17725,-0.17825 l 1.55791,0 c 0.133,0 0.19251,0.0449 0.23675,0.14896 l 3.85569,6.95459" style="fill:#ffffff;fill-opacity:1;fill-rule:nonzero;stroke:none" id="path3033"/>
      <path inkscape:connector-curvature="0" d="m 382.73575,442.08907 c 0,-0.1184 0.0745,-0.17825 0.17856,-0.17825 l 1.57156,0 c 0.10409,0 0.16294,0.0598 0.16294,0.17825 l 0,10.35098 c 0,0.11875 -0.0589,0.1786 -0.16294,0.1786 l -1.55726,0 c -0.1184,0 -0.19286,-0.0452 -0.25205,-0.149 l -3.85538,-6.95486 0,6.92526 c 0,0.11875 -0.0595,0.1786 -0.1636,0.1786 l -1.57221,0 c -0.10341,0 -0.1776,-0.0598 -0.1776,-0.1786 l 0,-10.35098 c 0,-0.1184 0.0742,-0.17825 0.1776,-0.17825 l 1.55791,0 c 0.133,0 0.1922,0.0449 0.23675,0.14896 l 3.85572,6.95459" style="fill:#ffffff;fill-opacity:1;fill-rule:nonzero;stroke:none" id="path3035"/>
      <path inkscape:connector-curvature="0" d="m 392.62653,446.4339 c 0.1041,0 0.17825,0.0599 0.17825,0.17856 l 0,1.30451 c 0,0.1184 -0.0742,0.1776 -0.17825,0.1776 l -3.39612,0 0,2.74406 c 0,0.0891 0.0299,0.11836 0.1044,0.11836 l 4.24112,0 c 0.10406,0 0.17791,0.0595 0.17791,0.16295 l 0,1.32011 c 0,0.11875 -0.0739,0.1786 -0.17791,0.1786 l -6.08034,0 c -0.10375,0 -0.17824,-0.0598 -0.17824,-0.1786 l 0,-10.35098 c 0,-0.1184 0.0745,-0.17825 0.17824,-0.17825 l 6.08034,0 c 0.10406,0 0.17791,0.0598 0.17791,0.17825 l 0,1.31946 c 0,0.10475 -0.0739,0.1636 -0.17791,0.1636 l -4.24112,0 c -0.0745,0 -0.1044,0.0296 -0.1044,0.11871 l 0,2.74306" style="fill:#ffffff;fill-opacity:1;fill-rule:nonzero;stroke:none" id="path3037"/>
      <path inkscape:connector-curvature="0" d="m 397.81871,450.83863 c 0,0.0891 0.0299,0.11836 0.1044,0.11836 l 4.00368,0 c 0.1044,0 0.16325,0.0595 0.16325,0.16295 l 0,1.32011 c 0,0.11875 -0.0589,0.1786 -0.16325,0.1786 l -5.84294,0 c -0.1034,0 -0.1779,-0.0598 -0.1779,-0.1786 l 0,-10.35098 c 0,-0.1184 0.0745,-0.17825 0.1779,-0.17825 l 1.57221,0 c 0.10375,0 0.16265,0.0598 0.16265,0.17825" style="fill:#ffffff;fill-opacity:1;fill-rule:nonzero;stroke:none" id="path3039"/>
      <path sodipodi:nodetypes="sccsccsccccssscc" inkscape:connector-curvature="0" d="m 369.41752,412.73423 c 1.97859,0 3.51088,1.5816 3.51088,5.88066 l -7.37822,0 c 0.13036,-4.03585 1.82128,-5.88066 3.86734,-5.88066 z m 9.41163,15.42277 c -0.18986,-0.5326 -0.55997,-0.65015 -1.09666,-0.43862 -1.51037,0.59259 -4.42133,1.30317 -6.99646,1.30317 -2.70484,0 -4.92179,-0.97827 -5.12001,-4.40941 l 16.58182,0 c 0.84788,0 0.96602,-0.16757 0.96602,-0.91615 l -0.009,-2.56755 c -0.19583,-9.89915 -5.09198,-15.65745 -13.47377,-15.65745 -9.37172,0 -14.12524,7.39183 -14.12524,16.7639 0,9.56998 6.40356,15.11458 14.85084,15.11458 3.76393,0 7.92255,-1.12461 10.09797,-2.09594 0.40404,-0.17956 0.66073,-0.52639 0.52807,-0.98958" style="fill:#ffffff;fill-opacity:1;fill-rule:nonzero;stroke:none" id="path3041"/>
    </g>
  </g>
</svg>