<svg xmlns="http://www.w3.org/2000/svg" class="tycsports" width="119" height="25" viewBox="0 0 119 25"><polygon points="13.4 0.3 0 0.3 0 4.4 4.7 4.4 4.7 19.2 8.7 19.2 8.7 4.4 13.4 4.4" fill="#0A1159"/><path d="M34.5 15.4c-3.1 0-5.6-2.5-5.6-5.6 0-3.1 2.5-5.6 5.6-5.6 1.5 0 2.9 0.6 4 1.6l3-2.9c-1.8-1.8-4.3-2.9-6.9-2.9 -5.4 0-9.8 4.4-9.8 9.8 0 5.4 4.4 9.8 9.7 9.8M34.5 19.6c2.6 0 5.1-1 6.9-2.9l-2.9-3c-1.1 1.1-2.5 1.6-4 1.6" fill="#0A1159"/><path d="M112.4 13.3c-1.4-0.5-4-1.4-4-4.5 0-2.6 2.8-4.5 5.5-4.5 2.3 0 3.7 0.8 5 2l-2.2 2.8c-0.6-0.7-1.7-1.1-2.5-1.1 -1 0-1.8 0.2-1.8 1 0 0.6 0.8 0.8 1.4 1l1.2 0.5c1.8 0.7 4 1.4 4 4.5 0 2.8-2.7 4.8-5.5 4.8 -2.3 0-4.2-0.6-5.5-2.2l-0.4-0.5 2.5-2.7c0 0 0.1 0.1 0.1 0.1 0.6 0.7 2 1.5 3 1.5 1.1 0 1.8-0.3 1.8-1.2 0-0.7-0.8-0.9-1.4-1.1L112.4 13.3z" fill="#0A1159"/><path d="M88.1 6.8c-1.4-1.4-3.3-2.2-5.3-2.2 -4.1 0-7.5 3.4-7.5 7.5 0 4.1 3.4 7.5 7.5 7.5s7.5-3.4 7.5-7.5C90.3 10.1 89.5 8.2 88.1 6.8zM82.8 15.5c-1.9 0-3.4-1.6-3.4-3.5 0-1.9 1.5-3.4 3.4-3.4 0.9 0 1.8 0.4 2.4 1 0.7 0.7 1 1.5 1 2.4C86.3 14 84.7 15.5 82.8 15.5z" fill="#0A1159"/><path d="M54.6 8.4l-1.7-0.9c-1.2-0.6-2.3-1.2-2.3-2.2 0-1 1-1.3 2.1-1.3 0 0 0.1 0 0.1 0v0c0.7 0 1.5 0.3 2.4 0.9l2.9-2.8C56.7 0.6 54.8 0 52.8 0v0c-0.1 0-0.3 0-0.4 0 -2.7 0-6.1 2.2-6.1 5.3 0 2.7 1.7 4.2 3.5 5.1l1.7 0.9c1.4 0.8 2.4 1.4 2.4 2.4 0 1.2-1.1 1.8-2.1 1.8 -1.2 0-2.4-0.8-3.2-1.8l-2.6 3.2c1.5 2 3.8 2.6 5.8 2.6 3.3 0 6.4-2.5 6.4-5.8C58.2 11.4 56.7 9.6 54.6 8.4z" fill="#0A1159"/><path d="M72 6.8c-1.4-1.4-3.3-2.2-5.3-2.2 -1.7 0-3.2 0.6-4.5 1.5 -0.3-0.5-0.7-1.1-1.2-1.5l-2.9 2.9c0.6 0.7 1 1.5 1 2.4v2.2c0 0 0 0 0 0 0 0 0 0 0 0V25h4.1v-6.2c1 0.5 2.2 0.8 3.4 0.8 4.1 0 7.5-3.4 7.5-7.5C74.2 10.1 73.4 8.2 72 6.8zM66.7 15.5c-1.9 0-3.4-1.5-3.4-3.4v0c0-1.9 1.5-3.4 3.4-3.4 0.9 0 1.8 0.4 2.4 1 0.7 0.7 1 1.5 1 2.4C70.2 14 68.6 15.5 66.7 15.5z" fill="#0A1159"/><path d="M94.8 6.5c-0.4-0.7-0.8-1.4-1.4-2L90.5 7.4c0.6 0.7 1 1.5 1 2.4v9.3h4.1v-6.4c0-0.9 0.4-1.8 1-2.4 0.6-0.7 1.5-1 2.4-1v-4.1C97.5 5.2 96 5.7 94.8 6.5z" fill="#0A1159"/><path d="M107.3 9.3v-4.1h-3V0.9h-4.1v13.4c0 2 0.8 3.9 2.2 5.3l2.9-2.9c-0.6-0.7-1-1.5-1-2.4l0-5H107.3z" fill="#0A1159"/><path d="M23.5 8h-4v5c0 1.4-0.9 2.4-2.2 2.4s-2.2-0.9-2.2-2.4V8h-4v5c0 1.8 0.6 3.3 1.8 4.5 1.1 1.1 2.7 1.7 4.5 1.7 0.8 0 1.5-0.1 2.3-0.4v0.2c0 1.4-0.9 2.5-2.2 2.5l0 0h-1.7L12 25h5c0.5 0 0.7 0 0.7 0 1.5-0.1 2.9-0.7 3.9-1.6 1.1-1 1.7-2.4 1.8-4l0 0v-5.8V8z" fill="#0A1159"/></svg>