<?xml version="1.0" encoding="UTF-8" standalone="no"?>
<!-- Created with Inkscape (http://www.inkscape.org/) -->

<svg
   xmlns:dc="http://purl.org/dc/elements/1.1/"
   xmlns:cc="http://creativecommons.org/ns#"
   xmlns:rdf="http://www.w3.org/1999/02/22-rdf-syntax-ns#"
   xmlns:svg="http://www.w3.org/2000/svg"
   xmlns="http://www.w3.org/2000/svg"
   xmlns:xlink="http://www.w3.org/1999/xlink"
   xmlns:sodipodi="http://sodipodi.sourceforge.net/DTD/sodipodi-0.dtd"
   xmlns:inkscape="http://www.inkscape.org/namespaces/inkscape"
   width="100"
   height="55"
   id="svg3094"
   version="1.1"
   inkscape:version="0.91 r13725"
   sodipodi:docname="untv.svg">
  <defs
     id="defs3096">
    <linearGradient
       inkscape:collect="always"
       id="linearGradient4427">
      <stop
         style="stop-color:#ff732c;stop-opacity:1"
         offset="0"
         id="stop4429" />
      <stop
         style="stop-color:#fe3852;stop-opacity:0.96078432"
         offset="1"
         id="stop4431" />
    </linearGradient>
    <linearGradient
       inkscape:collect="always"
       id="linearGradient4414">
      <stop
         style="stop-color:#fb4d54;stop-opacity:1"
         offset="0"
         id="stop4416" />
      <stop
         id="stop4422"
         offset="0.50470805"
         style="stop-color:#f6654b;stop-opacity:1" />
      <stop
         style="stop-color:#ff1950;stop-opacity:1"
         offset="1"
         id="stop4418" />
    </linearGradient>
    <radialGradient
       inkscape:collect="always"
       xlink:href="#linearGradient4414"
       id="radialGradient4420"
       cx="0.084642813"
       cy="226.52545"
       fx="0.084642813"
       fy="226.52545"
       r="500"
       gradientTransform="matrix(0.19307112,-0.00202325,5.3564426e-4,0.05099332,114.50917,636.83364)"
       gradientUnits="userSpaceOnUse" />
    <radialGradient
       inkscape:collect="always"
       xlink:href="#linearGradient4427"
       id="radialGradient4433"
       cx="229.10188"
       cy="30.018612"
       fx="229.10188"
       fy="30.018612"
       r="263.34375"
       gradientTransform="matrix(0.19832722,0.19658889,-0.09553424,0.09637848,93.31383,574.52463)"
       gradientUnits="userSpaceOnUse" />
  </defs>
  <sodipodi:namedview
     id="base"
     pagecolor="#ffffff"
     bordercolor="#666666"
     borderopacity="1.0"
     inkscape:pageopacity="0.0"
     inkscape:pageshadow="2"
     inkscape:zoom="1"
     inkscape:cx="53.846556"
     inkscape:cy="29.72375"
     inkscape:document-units="px"
     inkscape:current-layer="layer1"
     showgrid="false"
     fit-margin-top="0"
     fit-margin-left="0"
     fit-margin-right="0"
     fit-margin-bottom="0"
     inkscape:window-width="1366"
     inkscape:window-height="705"
     inkscape:window-x="-8"
     inkscape:window-y="-8"
     inkscape:window-maximized="1"
     showguides="false"
     inkscape:snap-nodes="false"
     inkscape:snap-global="false"
     inkscape:showpageshadow="false" />
  <metadata
     id="metadata3099">
    <rdf:RDF>
      <cc:Work
         rdf:about="">
        <dc:format>image/svg+xml</dc:format>
        <dc:type
           rdf:resource="http://purl.org/dc/dcmitype/StillImage" />
        <dc:title></dc:title>
      </cc:Work>
    </rdf:RDF>
  </metadata>
  <g
     inkscape:label="Layer 1"
     inkscape:groupmode="layer"
     id="layer1"
     transform="translate(-112.75,-620.34325)">
    <path
       style="fill:url(#radialGradient4420);fill-opacity:1;stroke:none"
       d="m 183.888,641.67096 c -3.06241,0 -4.35919,1.69118 -4.35919,3.71444 0,4.50088 6.10423,3.4625 6.10423,5.14849 0,0.4322 -0.43597,0.82541 -1.36868,0.82541 -1.64419,0 -2.52611,-0.76998 -3.51181,-1.47718 l -1.81019,2.25927 c 1.55998,1.24579 2.56142,1.98409 5.25685,1.98409 2.59849,0 4.54012,-1.26568 4.54012,-3.92471 0,-4.16604 -6.14041,-3.38696 -6.14041,-5.04696 0,-0.34976 0.38105,-0.7097 1.17308,-0.7097 1.28228,0 2.36289,0.66405 3.13544,1.24547 l 1.57134,-2.38236 c -1.32752,-1.05594 -2.79842,-1.63626 -4.59078,-1.63626 z m -15.76712,0.0237 0,12.21302 3.14344,0 0,-3.71848 1.5803,0 1.89989,3.71848 3.67789,0 -2.65528,-4.19504 c 1.14302,-0.57892 2.30082,-1.58005 2.30082,-3.80566 0,-2.45995 -1.74073,-4.21232 -4.65383,-4.21232 l -5.29323,0 z m -11.07994,0 0,12.21532 9.0732,0 0,-2.78904 -5.87529,0 0,-2.04502 5.24314,0 0,-2.60308 -5.24314,0 0,-1.89646 5.80082,0 0,-2.88172 -8.99873,0 z m -1.33231,0.0365 -3.48133,0.0371 -2.32633,7.65638 -2.64767,-7.59998 -3.46437,0 4.51346,12.08524 3.01583,0 4.39041,-12.17895 z m -13.35581,0.11925 -3.16078,0.0887 0,11.97098 3.16078,0 0,-12.05971 z m -8.534,0.16035 0,6.32155 -4.5026,-6.11396 -2.95316,0.0701 0,11.62168 3.06783,0 0,-6.32156 4.74105,6.32156 2.73319,0 0,-11.89936 -3.08631,0 z m 60.19812,0.0435 -4.81077,11.85269 3.34666,0 0.74377,-2.04522 4.27614,0 0.77291,2.04522 3.38724,0 -4.74107,-11.78887 -2.97488,-0.064 z m 9.04063,0.38611 0,11.46946 8.36677,0 0,-2.65985 -5.29894,-0.0564 0,-8.66846 -3.06783,-0.0846 z m -78.83268,0.007 -3.06764,0.0881 0,6.16805 c 0,1.67178 -0.94251,2.59942 -2.10997,2.59942 -1.08685,0 -2.0734,-0.74669 -2.0734,-2.4545 l 0,-6.16613 -3.06784,0.0716 0,6.87922 c 0,2.65749 1.76277,4.50588 5.08429,4.50588 3.35643,0 5.23456,-1.78765 5.23456,-5.1024 l 0,-6.58931 z m 47.03943,2.07012 1.7662,0 c 1.42129,0 1.91741,0.83009 1.91741,1.55137 0,0.89616 -0.82819,1.44659 -1.73134,1.44659 l -1.95227,0 0,-2.99796 z m 24.18207,1.40607 1.26659,3.33505 -2.48691,0 1.22032,-3.33505 z"
       id="path3039"
       inkscape:connector-curvature="0" />
    <path
       style="fill:url(#radialGradient4433);fill-opacity:1;stroke:none"
       d="m 161.81058,621.3919 c -12.62952,0 -22.19998,8.71198 -25.06125,17.64455 l 3.87444,-0.0518 c 3.42516,-8.82138 11.7892,-15.38751 21.81629,-15.38751 8.36226,0 18.85741,4.91477 23.1128,16.18272 l 1.28696,0 c -2.85179,-10.30932 -13.41294,-18.3881 -25.02924,-18.3881 z m 15.18028,35.06564 0,0.92964 1.80352,0 0,4.70392 0.92946,0 0,-4.70392 1.80352,0 0,-0.92964 -4.5365,0 z m 5.52197,0 2.33359,5.63356 0.8988,0 2.36577,-5.63356 -1.07442,0 -1.71437,4.23844 -1.72448,-4.23844 -1.08489,0 z m -45.5519,0.61368 c 2.20043,7.89879 10.7155,17.48855 24.73746,17.48855 9.50345,0 16.67275,-4.36364 20.95862,-10.22456 l -1.44106,0 c -4.49897,5.36707 -11.34281,8.68331 -18.88788,8.68331 -8.20753,0 -18.69572,-4.21412 -22.95013,-15.9473 l -2.41701,0 z"
       id="path3061"
       inkscape:connector-curvature="0" />
  </g>
</svg>
