<?xml version="1.0" encoding="UTF-8" standalone="no"?>
<svg xmlns:rdf="http://www.w3.org/1999/02/22-rdf-syntax-ns#" xmlns="http://www.w3.org/2000/svg" xml:space="preserve" height="1417.8" width="1315" version="1.1" xmlns:cc="http://creativecommons.org/ns#" xmlns:dc="http://purl.org/dc/elements/1.1/" viewBox="0 0 1315 1417.7625"><metadata><rdf:RDF><cc:Work rdf:about=""><dc:format>image/svg+xml</dc:format><dc:type rdf:resource="http://purl.org/dc/dcmitype/StillImage"/><dc:title/></cc:Work></rdf:RDF></metadata><g transform="matrix(1.25 0 0 -1.25 0 1417.8)"><g transform="scale(.1)"><path d="m0 2267.1c896.22 868.38 3040 1565 5295.5 1856.6 418.74 54.13 835.99 95.78 1243.9 127 15.17 1.17 138.58 6.53 138.58 6.53l187.14-431.69 227.53 459.32s174.64 11.47 180.71 11.76c1150.9 56.22 2180.4 33.7 2890.9-16.95-183.4-396.1-586.8-1256.2-586.8-1256.2-667.2 218.7-2739.2 458.5-4747.2 293.7-2444.8-200.6-4580-955-4830-1050" fill="#ee2624"/><g fill="#231f20"><path d="m6869 3876.6-1522.9 3738.7-1522.8-3738.7-3651 7465.4 1415-3934.9 2190.3-5666.7 1568.5 3552.1 1568.6-3552.1 2190.3 5666.7l1415 3935-3651-7465.5"/><path d="m9755.7 11331-2819.9-3704.9-1584.7 3602.9-1584.6-3602.9-2819.9 3704.9 2841-5605.5 1563.5 4012.8 1563.6-4012.8 2841 5605.5"/><g fill-rule="evenodd"><path d="m7468 344v201h336.66l44.75-48.199v-94.602l-54.8-58.2h-326.6zm529.8-344-112.3 275.4 95.6 88.6v178.5l-102.91 101.3h-543.83v-641.3h138.43v247.5h281.86l103.13-250h140"/><path d="m1976.7 4.5h-166.9l-349.8 501.6v-501.6h-117.03v639.8h172.38l346.09-503.6v503.6h115.29v-639.8"/><path d="m2684.7 371.5h379.89v-94.801h-379.59v-182.4h415.21v-89.801h-546.7v634.6h542.65v-88.903h-411.46v-178.7"/><path d="m3968.2 543.3v-538.8h-127.38v535.3h-251.51v99.199h630.26v-95.699h-251.37"/><path d="m5520.3 646.6-123.34-528.3-150 528.3h-172.09l-150-528.3-123.33 528.3h-135l158.32-640h190.01l146.05 502.3 146.04-502.3h190.02l158.32 640h-135"/><path d="m6656.9 156.5-54.77-58.199h-296.62l-54.75 58.199v334.8l54.75 58.199h296.62l54.77-58.199v-334.8zm18.8 491.8h-453.75l-106.3-111.3v-418.7l106.2-111.3h453.75l106.25 111.3v418.7l-106.25 111.3"/><path d="m7467.1 348.5v201h336.66l44.75-48.199v-94.602l-54.75-58.199h-326.66zm529.82-344-112.24 275.4 95.56 88.598v178.5l-102.91 101.3h-543.84v-641.3h138.43v247.5h281.86l103.14-250h140"/><path d="m9035.2 7h157.93l-281.5 371.7 280.27 265.5h-167.95l-367.07-350.9v355h-135v-641.3h135v130.4l157.31 149 221-279.4"/></g><path d="m7685 2779v209.03h-78.08v27.97h187.85v-27.97h-78.4v-209.03h-31.37"/><path d="m7825.9 2779v237h47.2l56.1-167.81c5.17-15.62 8.94-27.32 11.32-35.07 2.69 8.62 6.89 21.27 12.6 37.98l56.75 164.9h42.19v-237h-30.22v198.36l-68.87-198.36h-28.29l-68.55 201.75v-201.75h-30.23"/></g></g></g></svg>
