<?xml version="1.0" encoding="UTF-8" standalone="no"?>
<svg
   xmlns:dc="http://purl.org/dc/elements/1.1/"
   xmlns:cc="http://creativecommons.org/ns#"
   xmlns:rdf="http://www.w3.org/1999/02/22-rdf-syntax-ns#"
   xmlns:svg="http://www.w3.org/2000/svg"
   xmlns="http://www.w3.org/2000/svg"
   xmlns:sodipodi="http://sodipodi.sourceforge.net/DTD/sodipodi-0.dtd"
   xmlns:inkscape="http://www.inkscape.org/namespaces/inkscape"
   width="759.41699"
   height="288.056"
   viewBox="32.215 141.895 759.417 288.056"
   version="1.1"
   id="svg8"
   sodipodi:docname="ziggo-sport.svg"
   inkscape:version="0.92.3 (2405546, 2018-03-11)">
  <metadata
     id="metadata14">
    <rdf:RDF>
      <cc:Work
         rdf:about="">
        <dc:format>image/svg+xml</dc:format>
        <dc:type
           rdf:resource="http://purl.org/dc/dcmitype/StillImage" />
        <dc:title></dc:title>
      </cc:Work>
    </rdf:RDF>
  </metadata>
  <defs
     id="defs12" />
  <sodipodi:namedview
     pagecolor="#ffffff"
     bordercolor="#666666"
     borderopacity="1"
     objecttolerance="10"
     gridtolerance="10"
     guidetolerance="10"
     inkscape:pageopacity="0"
     inkscape:pageshadow="2"
     inkscape:window-width="1133"
     inkscape:window-height="480"
     id="namedview10"
     showgrid="false"
     inkscape:zoom="0.51796215"
     inkscape:cx="336.1589"
     inkscape:cy="229.80856"
     inkscape:window-x="104"
     inkscape:window-y="224"
     inkscape:window-maximized="0"
     inkscape:current-layer="svg8" />
  <g
     id="g824"
     transform="matrix(1.3368906,0,0,1.3582868,-150.44341,-101.98481)">
    <path
       id="path2"
       d="m 666.661,264.41 c 10.422,0 13.847,-1.103 14.147,-12.333 v -16.943 c -0.301,-11.135 -3.726,-12.234 -14.147,-12.234 -10.424,0 -13.837,1.1 -14.139,12.234 v 16.943 c 0.302,11.231 3.716,12.333 14.139,12.333 z m -185.357,57.303 v -0.017 c -0.003,-7.164 -1.128,-9.774 -8.396,-9.774 h -12.775 v 19.548 h 12.777 c 7.262,-0.001 8.39,-2.606 8.394,-9.757 z m 58.418,-10.363 c -9.697,0 -12.869,1.024 -13.151,11.38 v 15.76 c 0.281,10.444 3.454,11.471 13.151,11.471 9.694,0 12.879,-1.024 13.158,-11.471 v -15.76 c -0.279,-10.356 -3.464,-11.38 -13.158,-11.38 z m 74.832,0.569 h -14.462 v 18.933 h 14.462 c 8.017,0 7.736,-2.987 7.736,-10.914 0,-6.251 -1.58,-8.019 -7.736,-8.019 z"
       inkscape:connector-curvature="0"
       style="fill:none" />
    <path
       id="path4"
       d="m 500.503,321.331 c 0,-18.273 -6.529,-25.645 -23.877,-25.645 h -35.159 v 69.951 h 18.649 v -17.905 h 16.51 c 19.491,-0.001 23.877,-6.722 23.877,-26.401 z m -27.594,10.138 h -12.777 v -19.548 h 12.775 c 7.271,0 8.396,2.611 8.396,9.774 v 0.017 c -0.003,7.152 -1.131,9.757 -8.394,9.757 z m 156.809,6.559 c 11.782,-3.232 11.792,-9.959 11.792,-21.169 0,-17.44 -7.93,-20.89 -24.067,-21.172 h -36.004 v 69.951 h 18.653 v -18.561 h 10.932 c 4.939,0 6.545,0.927 7.995,5.177 a 2843.033,2843.033 0 0 0 4.608,13.383 h 21.219 c -10e-4,0 -2.068,-5.725 -6.812,-18.947 -1.687,-4.691 -3.827,-7.213 -8.316,-8.662 z m -15.164,-7.176 H 600.092 V 311.92 h 14.462 c 6.157,0 7.736,1.768 7.736,8.019 0,7.925 0.28,10.913 -7.736,10.913 z m 32.035,-35.165 v 16.232 h 17.901 v 53.717 h 18.661 v -53.717 h 18.837 v -16.232 z m -213.94,47.355 c 0,-16.001 -5.117,-18.606 -25.769,-20.095 l -7.722,-0.558 c -4.931,-0.373 -7.628,-0.56 -7.628,-6.14 0,-3.908 0.838,-5.955 10.885,-5.955 l 0.015,-0.024 c 10.888,0.322 18.084,0.754 26.865,1.937 v -15.414 c -4.082,-0.49 -14.426,-1.776 -24.382,-1.776 -0.831,0 -2.483,0.012 -2.483,0.012 l -0.014,0.01 c -18.234,0 -29.491,1.302 -29.491,21.305 0,20.002 10.047,19.908 27.258,21.119 l 4.094,0.278 c 8.743,0.558 9.768,0.465 9.768,6.513 0,5.861 -2.884,6.419 -11.628,6.419 l -0.031,0.03 c -10.697,-0.323 -19.393,-0.89 -28.02,-2.071 v 15.401 c 4.012,0.491 13.872,1.913 25.58,1.913 0.815,0 2.356,-0.011 2.356,-0.011 l 0.114,-0.006 c 30.699,-0.002 30.233,-11.351 30.233,-22.887 z m 139.441,-2.485 v -19.773 c 0,-21.543 -13.431,-25.648 -32.368,-25.648 -18.93,0 -32.362,4.105 -32.362,25.648 v 19.773 c 0,21.542 13.433,25.646 32.362,25.646 18.935,0 32.368,-4.104 32.368,-25.646 z m -19.21,-2.067 c -0.279,10.444 -3.466,11.471 -13.158,11.471 -9.697,0 -12.869,-1.024 -13.151,-11.471 v -15.76 c 0.281,-10.356 3.454,-11.38 13.151,-11.38 9.694,0 12.879,1.024 13.158,11.38 z M 445.251,206.072 h 20.055 v 75.201 h -20.055 z m 144.472,75.801 c 26.875,0 33.29,-4.611 33.29,-29.98 v -13.131 h -34.191 v 13.934 h 13.838 c 0,10.43 -2.707,12.734 -12.937,12.734 -10.425,0 -15.039,-1.402 -15.039,-14.741 h -0.005 v -13.007 c 0,-13.339 4.614,-14.741 15.04,-14.741 11.006,0.37 19.557,0.863 28.435,2.217 v -17.653 c -4.128,-0.562 -15.896,-2.036 -25.961,-2.036 -21.953,0 -38.165,3.709 -38.165,28.579 V 253.5 c 10e-4,24.364 12.031,28.373 35.695,28.373 z m 76.938,0.001 c 20.359,0 34.797,-4.412 34.797,-27.573 v -21.259 c 0,-23.162 -14.438,-27.573 -34.797,-27.573 -20.351,0 -34.793,4.412 -34.793,27.573 v 21.259 c 0,23.161 14.443,27.573 34.793,27.573 z m -14.138,-46.739 c 0.302,-11.135 3.715,-12.234 14.139,-12.234 10.422,0 13.847,1.099 14.147,12.234 v 16.943 c -0.301,11.23 -3.726,12.333 -14.147,12.333 -10.424,0 -13.837,-1.103 -14.139,-12.333 z m -140.58,46.738 c 26.873,0 33.289,-4.611 33.289,-29.98 V 238.762 H 511.04 v 13.934 h 13.839 c 0,10.43 -2.707,12.734 -12.936,12.734 -10.427,0 -15.04,-1.402 -15.04,-14.741 h -0.005 v -13.007 c 0,-13.339 4.613,-14.741 15.039,-14.741 11.007,0.37 19.558,0.863 28.434,2.217 v -17.653 c -4.128,-0.562 -15.896,-2.036 -25.958,-2.036 -21.954,0 -38.166,3.709 -38.166,28.579 V 253.5 c 0,24.364 12.032,28.373 35.696,28.373 z m -325.232,52.159 c 3.167,7.305 8.504,10.281 18.424,10.281 h 94.76 c -0.448,-9.1 -6.597,-23.104 -22.047,-24.95 h -54.98 l 63.341,-60.646 c 2.671,-2.548 8.677,-11.2 4.404,-20.512 -3.43,-7.486 -9.182,-10.677 -19.227,-10.677 h -78.908 c 0.326,10.469 5.546,22.97 19.422,25.208 h 45.092 l -66.637,62.625 c -2.706,2.589 -7.155,10.571 -3.644,18.671 z m 113.183,10.281 v 0.001 z m 134.827,-80.485 h -36 v -0.603 l 36,-40.306 V 206.07 h -59.162 v 17.448 h 33.19 v 0.601 l -35.497,40.21 v 16.944 h 61.469 z"
       inkscape:connector-curvature="0"
       style="fill:#383a3b" />
    <path
       id="path6"
       d="m 322.465,250.29 0.006,35.631 v 57.64 c 0,6.113 -2.489,11.666 -6.506,15.684 -4.018,4.014 -9.562,6.501 -15.679,6.501 H 184.997 c -6.117,0 -11.661,-2.487 -15.68,-6.501 -4.019,-4.018 -6.508,-9.57 -6.508,-15.684 l 0.002,-115.28 c 0,-6.115 2.489,-11.663 6.506,-15.68 4.019,-4.021 9.565,-6.506 15.682,-6.506 h 115.265 c 3.055,0 5.972,0.621 8.625,1.747 3.813,1.614 5.636,3.322 8.967,6.65 a 12.525,12.525 0 0 0 8.82,3.653 c 3.194,0 6.382,-1.215 8.82,-3.653 a 12.413,12.413 0 0 0 3.656,-8.821 c 0,-3.813 -1.784,-6.802 -3.656,-8.823 -4.699,-5.078 -9.571,-8.972 -17.195,-12.129 a 46.96,46.96 0 0 0 -18.036,-3.578 H 184.999 c -13.015,0 -24.802,5.275 -33.332,13.81 -8.53,8.527 -13.808,20.313 -13.808,33.332 v 115.279 c 0,13.016 5.276,24.807 13.807,33.332 8.53,8.534 20.316,13.812 33.332,13.812 h 115.289 c 13.013,0 24.801,-5.278 33.332,-13.812 8.531,-8.525 13.804,-20.315 13.804,-33.332 V 227.53 c -13.083,0.023 -24.958,10.992 -24.958,22.76 z"
       inkscape:connector-curvature="0"
       style="fill:#383a3b" />
  </g>
</svg>
